%TF.GenerationSoftware,KiCad,Pcbnew,7.0.9*%
%TF.CreationDate,2025-11-18T13:32:36+03:00*%
%TF.ProjectId,BulkyMIDI-32 Module,42756c6b-794d-4494-9449-2d3332204d6f,rev?*%
%TF.SameCoordinates,Original*%
%TF.FileFunction,Legend,Bot*%
%TF.FilePolarity,Positive*%
%FSLAX46Y46*%
G04 Gerber Fmt 4.6, Leading zero omitted, Abs format (unit mm)*
G04 Created by KiCad (PCBNEW 7.0.9) date 2025-11-18 13:32:36*
%MOMM*%
%LPD*%
G01*
G04 APERTURE LIST*
G04 Aperture macros list*
%AMFreePoly0*
4,1,19,0.550000,-0.750000,0.000000,-0.750000,0.000000,-0.744911,-0.071157,-0.744911,-0.207708,-0.704816,-0.327430,-0.627875,-0.420627,-0.520320,-0.479746,-0.390866,-0.500000,-0.250000,-0.500000,0.250000,-0.479746,0.390866,-0.420627,0.520320,-0.327430,0.627875,-0.207708,0.704816,-0.071157,0.744911,0.000000,0.744911,0.000000,0.750000,0.550000,0.750000,0.550000,-0.750000,0.550000,-0.750000,
$1*%
%AMFreePoly1*
4,1,19,0.000000,0.744911,0.071157,0.744911,0.207708,0.704816,0.327430,0.627875,0.420627,0.520320,0.479746,0.390866,0.500000,0.250000,0.500000,-0.250000,0.479746,-0.390866,0.420627,-0.520320,0.327430,-0.627875,0.207708,-0.704816,0.071157,-0.744911,0.000000,-0.744911,0.000000,-0.750000,-0.550000,-0.750000,-0.550000,0.750000,0.000000,0.750000,0.000000,0.744911,0.000000,0.744911,
$1*%
%AMFreePoly2*
4,1,6,1.000000,0.000000,0.500000,-0.750000,-0.500000,-0.750000,-0.500000,0.750000,0.500000,0.750000,1.000000,0.000000,1.000000,0.000000,$1*%
%AMFreePoly3*
4,1,6,0.500000,-0.750000,-0.650000,-0.750000,-0.150000,0.000000,-0.650000,0.750000,0.500000,0.750000,0.500000,-0.750000,0.500000,-0.750000,$1*%
G04 Aperture macros list end*
%ADD10C,0.150000*%
%ADD11C,0.100000*%
%ADD12C,0.500000*%
%ADD13C,0.120000*%
%ADD14C,0.010000*%
%ADD15C,5.100000*%
%ADD16R,1.700000X1.700000*%
%ADD17O,1.700000X1.700000*%
%ADD18C,2.100000*%
%ADD19C,1.750000*%
%ADD20R,1.600000X1.600000*%
%ADD21O,1.600000X1.600000*%
%ADD22C,1.700000*%
%ADD23R,1.727200X1.727200*%
%ADD24C,1.727200*%
%ADD25O,2.000000X1.500000*%
%ADD26C,2.000000*%
%ADD27O,1.800000X2.400000*%
%ADD28R,2.500000X1.800000*%
%ADD29C,1.500000*%
%ADD30C,0.650000*%
%ADD31O,1.000000X2.100000*%
%ADD32O,1.000000X1.600000*%
%ADD33FreePoly0,180.000000*%
%ADD34R,1.000000X1.500000*%
%ADD35FreePoly1,180.000000*%
%ADD36FreePoly2,270.000000*%
%ADD37FreePoly3,270.000000*%
%ADD38FreePoly0,0.000000*%
%ADD39FreePoly1,0.000000*%
G04 APERTURE END LIST*
D10*
X84756428Y-58509819D02*
X85232618Y-58509819D01*
X85232618Y-58509819D02*
X85280237Y-58986009D01*
X85280237Y-58986009D02*
X85232618Y-58938390D01*
X85232618Y-58938390D02*
X85137380Y-58890771D01*
X85137380Y-58890771D02*
X84899285Y-58890771D01*
X84899285Y-58890771D02*
X84804047Y-58938390D01*
X84804047Y-58938390D02*
X84756428Y-58986009D01*
X84756428Y-58986009D02*
X84708809Y-59081247D01*
X84708809Y-59081247D02*
X84708809Y-59319342D01*
X84708809Y-59319342D02*
X84756428Y-59414580D01*
X84756428Y-59414580D02*
X84804047Y-59462200D01*
X84804047Y-59462200D02*
X84899285Y-59509819D01*
X84899285Y-59509819D02*
X85137380Y-59509819D01*
X85137380Y-59509819D02*
X85232618Y-59462200D01*
X85232618Y-59462200D02*
X85280237Y-59414580D01*
X84423094Y-58509819D02*
X84089761Y-59509819D01*
X84089761Y-59509819D02*
X83756428Y-58509819D01*
X82661189Y-59509819D02*
X82661189Y-58509819D01*
X82661189Y-58509819D02*
X82423094Y-58509819D01*
X82423094Y-58509819D02*
X82280237Y-58557438D01*
X82280237Y-58557438D02*
X82184999Y-58652676D01*
X82184999Y-58652676D02*
X82137380Y-58747914D01*
X82137380Y-58747914D02*
X82089761Y-58938390D01*
X82089761Y-58938390D02*
X82089761Y-59081247D01*
X82089761Y-59081247D02*
X82137380Y-59271723D01*
X82137380Y-59271723D02*
X82184999Y-59366961D01*
X82184999Y-59366961D02*
X82280237Y-59462200D01*
X82280237Y-59462200D02*
X82423094Y-59509819D01*
X82423094Y-59509819D02*
X82661189Y-59509819D01*
X81089761Y-59414580D02*
X81137380Y-59462200D01*
X81137380Y-59462200D02*
X81280237Y-59509819D01*
X81280237Y-59509819D02*
X81375475Y-59509819D01*
X81375475Y-59509819D02*
X81518332Y-59462200D01*
X81518332Y-59462200D02*
X81613570Y-59366961D01*
X81613570Y-59366961D02*
X81661189Y-59271723D01*
X81661189Y-59271723D02*
X81708808Y-59081247D01*
X81708808Y-59081247D02*
X81708808Y-58938390D01*
X81708808Y-58938390D02*
X81661189Y-58747914D01*
X81661189Y-58747914D02*
X81613570Y-58652676D01*
X81613570Y-58652676D02*
X81518332Y-58557438D01*
X81518332Y-58557438D02*
X81375475Y-58509819D01*
X81375475Y-58509819D02*
X81280237Y-58509819D01*
X81280237Y-58509819D02*
X81137380Y-58557438D01*
X81137380Y-58557438D02*
X81089761Y-58605057D01*
D11*
X134676903Y-55978395D02*
X134676903Y-55178395D01*
X134676903Y-55178395D02*
X134410237Y-55749823D01*
X134410237Y-55749823D02*
X134143570Y-55178395D01*
X134143570Y-55178395D02*
X134143570Y-55978395D01*
X133762617Y-55978395D02*
X133762617Y-55178395D01*
X133381665Y-55978395D02*
X133381665Y-55178395D01*
X133381665Y-55178395D02*
X133191189Y-55178395D01*
X133191189Y-55178395D02*
X133076903Y-55216490D01*
X133076903Y-55216490D02*
X133000713Y-55292680D01*
X133000713Y-55292680D02*
X132962618Y-55368871D01*
X132962618Y-55368871D02*
X132924522Y-55521252D01*
X132924522Y-55521252D02*
X132924522Y-55635538D01*
X132924522Y-55635538D02*
X132962618Y-55787919D01*
X132962618Y-55787919D02*
X133000713Y-55864109D01*
X133000713Y-55864109D02*
X133076903Y-55940300D01*
X133076903Y-55940300D02*
X133191189Y-55978395D01*
X133191189Y-55978395D02*
X133381665Y-55978395D01*
X132581665Y-55978395D02*
X132581665Y-55178395D01*
X131591189Y-55978395D02*
X131591189Y-55178395D01*
X131210237Y-55978395D02*
X131210237Y-55178395D01*
X131210237Y-55178395D02*
X130753094Y-55978395D01*
X130753094Y-55978395D02*
X130753094Y-55178395D01*
X135438809Y-70519657D02*
X135476904Y-70481561D01*
X135476904Y-70481561D02*
X135553095Y-70367276D01*
X135553095Y-70367276D02*
X135591190Y-70291085D01*
X135591190Y-70291085D02*
X135629285Y-70176800D01*
X135629285Y-70176800D02*
X135667380Y-69986323D01*
X135667380Y-69986323D02*
X135667380Y-69833942D01*
X135667380Y-69833942D02*
X135629285Y-69643466D01*
X135629285Y-69643466D02*
X135591190Y-69529180D01*
X135591190Y-69529180D02*
X135553095Y-69452990D01*
X135553095Y-69452990D02*
X135476904Y-69338704D01*
X135476904Y-69338704D02*
X135438809Y-69300609D01*
X135134047Y-70214895D02*
X135134047Y-69414895D01*
X135134047Y-69414895D02*
X134867381Y-69986323D01*
X134867381Y-69986323D02*
X134600714Y-69414895D01*
X134600714Y-69414895D02*
X134600714Y-70214895D01*
X134334047Y-69414895D02*
X133876904Y-69414895D01*
X134105476Y-70214895D02*
X134105476Y-69414895D01*
X133686428Y-69414895D02*
X133191190Y-69414895D01*
X133191190Y-69414895D02*
X133457856Y-69719657D01*
X133457856Y-69719657D02*
X133343571Y-69719657D01*
X133343571Y-69719657D02*
X133267380Y-69757752D01*
X133267380Y-69757752D02*
X133229285Y-69795847D01*
X133229285Y-69795847D02*
X133191190Y-69872038D01*
X133191190Y-69872038D02*
X133191190Y-70062514D01*
X133191190Y-70062514D02*
X133229285Y-70138704D01*
X133229285Y-70138704D02*
X133267380Y-70176800D01*
X133267380Y-70176800D02*
X133343571Y-70214895D01*
X133343571Y-70214895D02*
X133572142Y-70214895D01*
X133572142Y-70214895D02*
X133648333Y-70176800D01*
X133648333Y-70176800D02*
X133686428Y-70138704D01*
X132886428Y-69491085D02*
X132848332Y-69452990D01*
X132848332Y-69452990D02*
X132772142Y-69414895D01*
X132772142Y-69414895D02*
X132581666Y-69414895D01*
X132581666Y-69414895D02*
X132505475Y-69452990D01*
X132505475Y-69452990D02*
X132467380Y-69491085D01*
X132467380Y-69491085D02*
X132429285Y-69567276D01*
X132429285Y-69567276D02*
X132429285Y-69643466D01*
X132429285Y-69643466D02*
X132467380Y-69757752D01*
X132467380Y-69757752D02*
X132924523Y-70214895D01*
X132924523Y-70214895D02*
X132429285Y-70214895D01*
X132086427Y-69910133D02*
X131476904Y-69910133D01*
X131095951Y-70214895D02*
X131095951Y-69414895D01*
X131095951Y-69414895D02*
X130791189Y-69414895D01*
X130791189Y-69414895D02*
X130714999Y-69452990D01*
X130714999Y-69452990D02*
X130676904Y-69491085D01*
X130676904Y-69491085D02*
X130638808Y-69567276D01*
X130638808Y-69567276D02*
X130638808Y-69681561D01*
X130638808Y-69681561D02*
X130676904Y-69757752D01*
X130676904Y-69757752D02*
X130714999Y-69795847D01*
X130714999Y-69795847D02*
X130791189Y-69833942D01*
X130791189Y-69833942D02*
X131095951Y-69833942D01*
X130295951Y-70214895D02*
X130295951Y-69414895D01*
X129991190Y-70519657D02*
X129953095Y-70481561D01*
X129953095Y-70481561D02*
X129876904Y-70367276D01*
X129876904Y-70367276D02*
X129838809Y-70291085D01*
X129838809Y-70291085D02*
X129800714Y-70176800D01*
X129800714Y-70176800D02*
X129762618Y-69986323D01*
X129762618Y-69986323D02*
X129762618Y-69833942D01*
X129762618Y-69833942D02*
X129800714Y-69643466D01*
X129800714Y-69643466D02*
X129838809Y-69529180D01*
X129838809Y-69529180D02*
X129876904Y-69452990D01*
X129876904Y-69452990D02*
X129953095Y-69338704D01*
X129953095Y-69338704D02*
X129991190Y-69300609D01*
X155530237Y-55978395D02*
X155530237Y-55178395D01*
X155530237Y-55178395D02*
X155263571Y-55749823D01*
X155263571Y-55749823D02*
X154996904Y-55178395D01*
X154996904Y-55178395D02*
X154996904Y-55978395D01*
X154615951Y-55978395D02*
X154615951Y-55178395D01*
X154234999Y-55978395D02*
X154234999Y-55178395D01*
X154234999Y-55178395D02*
X154044523Y-55178395D01*
X154044523Y-55178395D02*
X153930237Y-55216490D01*
X153930237Y-55216490D02*
X153854047Y-55292680D01*
X153854047Y-55292680D02*
X153815952Y-55368871D01*
X153815952Y-55368871D02*
X153777856Y-55521252D01*
X153777856Y-55521252D02*
X153777856Y-55635538D01*
X153777856Y-55635538D02*
X153815952Y-55787919D01*
X153815952Y-55787919D02*
X153854047Y-55864109D01*
X153854047Y-55864109D02*
X153930237Y-55940300D01*
X153930237Y-55940300D02*
X154044523Y-55978395D01*
X154044523Y-55978395D02*
X154234999Y-55978395D01*
X153434999Y-55978395D02*
X153434999Y-55178395D01*
X152292142Y-55178395D02*
X152139761Y-55178395D01*
X152139761Y-55178395D02*
X152063571Y-55216490D01*
X152063571Y-55216490D02*
X151987380Y-55292680D01*
X151987380Y-55292680D02*
X151949285Y-55445061D01*
X151949285Y-55445061D02*
X151949285Y-55711728D01*
X151949285Y-55711728D02*
X151987380Y-55864109D01*
X151987380Y-55864109D02*
X152063571Y-55940300D01*
X152063571Y-55940300D02*
X152139761Y-55978395D01*
X152139761Y-55978395D02*
X152292142Y-55978395D01*
X152292142Y-55978395D02*
X152368333Y-55940300D01*
X152368333Y-55940300D02*
X152444523Y-55864109D01*
X152444523Y-55864109D02*
X152482619Y-55711728D01*
X152482619Y-55711728D02*
X152482619Y-55445061D01*
X152482619Y-55445061D02*
X152444523Y-55292680D01*
X152444523Y-55292680D02*
X152368333Y-55216490D01*
X152368333Y-55216490D02*
X152292142Y-55178395D01*
X151606428Y-55178395D02*
X151606428Y-55826014D01*
X151606428Y-55826014D02*
X151568333Y-55902204D01*
X151568333Y-55902204D02*
X151530238Y-55940300D01*
X151530238Y-55940300D02*
X151454047Y-55978395D01*
X151454047Y-55978395D02*
X151301666Y-55978395D01*
X151301666Y-55978395D02*
X151225476Y-55940300D01*
X151225476Y-55940300D02*
X151187381Y-55902204D01*
X151187381Y-55902204D02*
X151149285Y-55826014D01*
X151149285Y-55826014D02*
X151149285Y-55178395D01*
X150882619Y-55178395D02*
X150425476Y-55178395D01*
X150654048Y-55978395D02*
X150654048Y-55178395D01*
X155758809Y-70519657D02*
X155796904Y-70481561D01*
X155796904Y-70481561D02*
X155873095Y-70367276D01*
X155873095Y-70367276D02*
X155911190Y-70291085D01*
X155911190Y-70291085D02*
X155949285Y-70176800D01*
X155949285Y-70176800D02*
X155987380Y-69986323D01*
X155987380Y-69986323D02*
X155987380Y-69833942D01*
X155987380Y-69833942D02*
X155949285Y-69643466D01*
X155949285Y-69643466D02*
X155911190Y-69529180D01*
X155911190Y-69529180D02*
X155873095Y-69452990D01*
X155873095Y-69452990D02*
X155796904Y-69338704D01*
X155796904Y-69338704D02*
X155758809Y-69300609D01*
X155454047Y-70214895D02*
X155454047Y-69414895D01*
X155454047Y-69414895D02*
X155187381Y-69986323D01*
X155187381Y-69986323D02*
X154920714Y-69414895D01*
X154920714Y-69414895D02*
X154920714Y-70214895D01*
X154654047Y-69414895D02*
X154196904Y-69414895D01*
X154425476Y-70214895D02*
X154425476Y-69414895D01*
X154006428Y-69414895D02*
X153511190Y-69414895D01*
X153511190Y-69414895D02*
X153777856Y-69719657D01*
X153777856Y-69719657D02*
X153663571Y-69719657D01*
X153663571Y-69719657D02*
X153587380Y-69757752D01*
X153587380Y-69757752D02*
X153549285Y-69795847D01*
X153549285Y-69795847D02*
X153511190Y-69872038D01*
X153511190Y-69872038D02*
X153511190Y-70062514D01*
X153511190Y-70062514D02*
X153549285Y-70138704D01*
X153549285Y-70138704D02*
X153587380Y-70176800D01*
X153587380Y-70176800D02*
X153663571Y-70214895D01*
X153663571Y-70214895D02*
X153892142Y-70214895D01*
X153892142Y-70214895D02*
X153968333Y-70176800D01*
X153968333Y-70176800D02*
X154006428Y-70138704D01*
X153206428Y-69491085D02*
X153168332Y-69452990D01*
X153168332Y-69452990D02*
X153092142Y-69414895D01*
X153092142Y-69414895D02*
X152901666Y-69414895D01*
X152901666Y-69414895D02*
X152825475Y-69452990D01*
X152825475Y-69452990D02*
X152787380Y-69491085D01*
X152787380Y-69491085D02*
X152749285Y-69567276D01*
X152749285Y-69567276D02*
X152749285Y-69643466D01*
X152749285Y-69643466D02*
X152787380Y-69757752D01*
X152787380Y-69757752D02*
X153244523Y-70214895D01*
X153244523Y-70214895D02*
X152749285Y-70214895D01*
X152406427Y-69910133D02*
X151796904Y-69910133D01*
X151415951Y-70214895D02*
X151415951Y-69414895D01*
X151415951Y-69414895D02*
X151111189Y-69414895D01*
X151111189Y-69414895D02*
X151034999Y-69452990D01*
X151034999Y-69452990D02*
X150996904Y-69491085D01*
X150996904Y-69491085D02*
X150958808Y-69567276D01*
X150958808Y-69567276D02*
X150958808Y-69681561D01*
X150958808Y-69681561D02*
X150996904Y-69757752D01*
X150996904Y-69757752D02*
X151034999Y-69795847D01*
X151034999Y-69795847D02*
X151111189Y-69833942D01*
X151111189Y-69833942D02*
X151415951Y-69833942D01*
X150615951Y-70214895D02*
X150615951Y-69414895D01*
X150311190Y-70519657D02*
X150273095Y-70481561D01*
X150273095Y-70481561D02*
X150196904Y-70367276D01*
X150196904Y-70367276D02*
X150158809Y-70291085D01*
X150158809Y-70291085D02*
X150120714Y-70176800D01*
X150120714Y-70176800D02*
X150082618Y-69986323D01*
X150082618Y-69986323D02*
X150082618Y-69833942D01*
X150082618Y-69833942D02*
X150120714Y-69643466D01*
X150120714Y-69643466D02*
X150158809Y-69529180D01*
X150158809Y-69529180D02*
X150196904Y-69452990D01*
X150196904Y-69452990D02*
X150273095Y-69338704D01*
X150273095Y-69338704D02*
X150311190Y-69300609D01*
D10*
X103385049Y-79151819D02*
X103861239Y-79151819D01*
X103861239Y-79151819D02*
X103861239Y-78151819D01*
X103051715Y-79151819D02*
X103051715Y-78485152D01*
X103051715Y-78151819D02*
X103099334Y-78199438D01*
X103099334Y-78199438D02*
X103051715Y-78247057D01*
X103051715Y-78247057D02*
X103004096Y-78199438D01*
X103004096Y-78199438D02*
X103051715Y-78151819D01*
X103051715Y-78151819D02*
X103051715Y-78247057D01*
X102575525Y-78485152D02*
X102575525Y-79151819D01*
X102575525Y-78580390D02*
X102527906Y-78532771D01*
X102527906Y-78532771D02*
X102432668Y-78485152D01*
X102432668Y-78485152D02*
X102289811Y-78485152D01*
X102289811Y-78485152D02*
X102194573Y-78532771D01*
X102194573Y-78532771D02*
X102146954Y-78628009D01*
X102146954Y-78628009D02*
X102146954Y-79151819D01*
X101670763Y-79151819D02*
X101670763Y-78151819D01*
X101575525Y-78770866D02*
X101289811Y-79151819D01*
X101289811Y-78485152D02*
X101670763Y-78866104D01*
X100242191Y-78485152D02*
X99861239Y-78485152D01*
X100099334Y-78151819D02*
X100099334Y-79008961D01*
X100099334Y-79008961D02*
X100051715Y-79104200D01*
X100051715Y-79104200D02*
X99956477Y-79151819D01*
X99956477Y-79151819D02*
X99861239Y-79151819D01*
X99385048Y-79151819D02*
X99480286Y-79104200D01*
X99480286Y-79104200D02*
X99527905Y-79056580D01*
X99527905Y-79056580D02*
X99575524Y-78961342D01*
X99575524Y-78961342D02*
X99575524Y-78675628D01*
X99575524Y-78675628D02*
X99527905Y-78580390D01*
X99527905Y-78580390D02*
X99480286Y-78532771D01*
X99480286Y-78532771D02*
X99385048Y-78485152D01*
X99385048Y-78485152D02*
X99242191Y-78485152D01*
X99242191Y-78485152D02*
X99146953Y-78532771D01*
X99146953Y-78532771D02*
X99099334Y-78580390D01*
X99099334Y-78580390D02*
X99051715Y-78675628D01*
X99051715Y-78675628D02*
X99051715Y-78961342D01*
X99051715Y-78961342D02*
X99099334Y-79056580D01*
X99099334Y-79056580D02*
X99146953Y-79104200D01*
X99146953Y-79104200D02*
X99242191Y-79151819D01*
X99242191Y-79151819D02*
X99385048Y-79151819D01*
X97861238Y-79151819D02*
X97861238Y-78485152D01*
X97861238Y-78675628D02*
X97813619Y-78580390D01*
X97813619Y-78580390D02*
X97766000Y-78532771D01*
X97766000Y-78532771D02*
X97670762Y-78485152D01*
X97670762Y-78485152D02*
X97575524Y-78485152D01*
X97099333Y-79151819D02*
X97194571Y-79104200D01*
X97194571Y-79104200D02*
X97242190Y-79056580D01*
X97242190Y-79056580D02*
X97289809Y-78961342D01*
X97289809Y-78961342D02*
X97289809Y-78675628D01*
X97289809Y-78675628D02*
X97242190Y-78580390D01*
X97242190Y-78580390D02*
X97194571Y-78532771D01*
X97194571Y-78532771D02*
X97099333Y-78485152D01*
X97099333Y-78485152D02*
X96956476Y-78485152D01*
X96956476Y-78485152D02*
X96861238Y-78532771D01*
X96861238Y-78532771D02*
X96813619Y-78580390D01*
X96813619Y-78580390D02*
X96766000Y-78675628D01*
X96766000Y-78675628D02*
X96766000Y-78961342D01*
X96766000Y-78961342D02*
X96813619Y-79056580D01*
X96813619Y-79056580D02*
X96861238Y-79104200D01*
X96861238Y-79104200D02*
X96956476Y-79151819D01*
X96956476Y-79151819D02*
X97099333Y-79151819D01*
X95908857Y-78485152D02*
X95908857Y-79151819D01*
X96337428Y-78485152D02*
X96337428Y-79008961D01*
X96337428Y-79008961D02*
X96289809Y-79104200D01*
X96289809Y-79104200D02*
X96194571Y-79151819D01*
X96194571Y-79151819D02*
X96051714Y-79151819D01*
X96051714Y-79151819D02*
X95956476Y-79104200D01*
X95956476Y-79104200D02*
X95908857Y-79056580D01*
X95575523Y-78485152D02*
X95194571Y-78485152D01*
X95432666Y-78151819D02*
X95432666Y-79008961D01*
X95432666Y-79008961D02*
X95385047Y-79104200D01*
X95385047Y-79104200D02*
X95289809Y-79151819D01*
X95289809Y-79151819D02*
X95194571Y-79151819D01*
X94480285Y-79104200D02*
X94575523Y-79151819D01*
X94575523Y-79151819D02*
X94765999Y-79151819D01*
X94765999Y-79151819D02*
X94861237Y-79104200D01*
X94861237Y-79104200D02*
X94908856Y-79008961D01*
X94908856Y-79008961D02*
X94908856Y-78628009D01*
X94908856Y-78628009D02*
X94861237Y-78532771D01*
X94861237Y-78532771D02*
X94765999Y-78485152D01*
X94765999Y-78485152D02*
X94575523Y-78485152D01*
X94575523Y-78485152D02*
X94480285Y-78532771D01*
X94480285Y-78532771D02*
X94432666Y-78628009D01*
X94432666Y-78628009D02*
X94432666Y-78723247D01*
X94432666Y-78723247D02*
X94908856Y-78818485D01*
X92813618Y-79151819D02*
X92813618Y-78628009D01*
X92813618Y-78628009D02*
X92861237Y-78532771D01*
X92861237Y-78532771D02*
X92956475Y-78485152D01*
X92956475Y-78485152D02*
X93146951Y-78485152D01*
X93146951Y-78485152D02*
X93242189Y-78532771D01*
X92813618Y-79104200D02*
X92908856Y-79151819D01*
X92908856Y-79151819D02*
X93146951Y-79151819D01*
X93146951Y-79151819D02*
X93242189Y-79104200D01*
X93242189Y-79104200D02*
X93289808Y-79008961D01*
X93289808Y-79008961D02*
X93289808Y-78913723D01*
X93289808Y-78913723D02*
X93242189Y-78818485D01*
X93242189Y-78818485D02*
X93146951Y-78770866D01*
X93146951Y-78770866D02*
X92908856Y-78770866D01*
X92908856Y-78770866D02*
X92813618Y-78723247D01*
X92337427Y-78485152D02*
X92337427Y-79151819D01*
X92337427Y-78580390D02*
X92289808Y-78532771D01*
X92289808Y-78532771D02*
X92194570Y-78485152D01*
X92194570Y-78485152D02*
X92051713Y-78485152D01*
X92051713Y-78485152D02*
X91956475Y-78532771D01*
X91956475Y-78532771D02*
X91908856Y-78628009D01*
X91908856Y-78628009D02*
X91908856Y-79151819D01*
X91004094Y-79151819D02*
X91004094Y-78628009D01*
X91004094Y-78628009D02*
X91051713Y-78532771D01*
X91051713Y-78532771D02*
X91146951Y-78485152D01*
X91146951Y-78485152D02*
X91337427Y-78485152D01*
X91337427Y-78485152D02*
X91432665Y-78532771D01*
X91004094Y-79104200D02*
X91099332Y-79151819D01*
X91099332Y-79151819D02*
X91337427Y-79151819D01*
X91337427Y-79151819D02*
X91432665Y-79104200D01*
X91432665Y-79104200D02*
X91480284Y-79008961D01*
X91480284Y-79008961D02*
X91480284Y-78913723D01*
X91480284Y-78913723D02*
X91432665Y-78818485D01*
X91432665Y-78818485D02*
X91337427Y-78770866D01*
X91337427Y-78770866D02*
X91099332Y-78770866D01*
X91099332Y-78770866D02*
X91004094Y-78723247D01*
X90385046Y-79151819D02*
X90480284Y-79104200D01*
X90480284Y-79104200D02*
X90527903Y-79008961D01*
X90527903Y-79008961D02*
X90527903Y-78151819D01*
X89861236Y-79151819D02*
X89956474Y-79104200D01*
X89956474Y-79104200D02*
X90004093Y-79056580D01*
X90004093Y-79056580D02*
X90051712Y-78961342D01*
X90051712Y-78961342D02*
X90051712Y-78675628D01*
X90051712Y-78675628D02*
X90004093Y-78580390D01*
X90004093Y-78580390D02*
X89956474Y-78532771D01*
X89956474Y-78532771D02*
X89861236Y-78485152D01*
X89861236Y-78485152D02*
X89718379Y-78485152D01*
X89718379Y-78485152D02*
X89623141Y-78532771D01*
X89623141Y-78532771D02*
X89575522Y-78580390D01*
X89575522Y-78580390D02*
X89527903Y-78675628D01*
X89527903Y-78675628D02*
X89527903Y-78961342D01*
X89527903Y-78961342D02*
X89575522Y-79056580D01*
X89575522Y-79056580D02*
X89623141Y-79104200D01*
X89623141Y-79104200D02*
X89718379Y-79151819D01*
X89718379Y-79151819D02*
X89861236Y-79151819D01*
X88670760Y-78485152D02*
X88670760Y-79294676D01*
X88670760Y-79294676D02*
X88718379Y-79389914D01*
X88718379Y-79389914D02*
X88765998Y-79437533D01*
X88765998Y-79437533D02*
X88861236Y-79485152D01*
X88861236Y-79485152D02*
X89004093Y-79485152D01*
X89004093Y-79485152D02*
X89099331Y-79437533D01*
X88670760Y-79104200D02*
X88765998Y-79151819D01*
X88765998Y-79151819D02*
X88956474Y-79151819D01*
X88956474Y-79151819D02*
X89051712Y-79104200D01*
X89051712Y-79104200D02*
X89099331Y-79056580D01*
X89099331Y-79056580D02*
X89146950Y-78961342D01*
X89146950Y-78961342D02*
X89146950Y-78675628D01*
X89146950Y-78675628D02*
X89099331Y-78580390D01*
X89099331Y-78580390D02*
X89051712Y-78532771D01*
X89051712Y-78532771D02*
X88956474Y-78485152D01*
X88956474Y-78485152D02*
X88765998Y-78485152D01*
X88765998Y-78485152D02*
X88670760Y-78532771D01*
X105742192Y-80761819D02*
X105742192Y-80238009D01*
X105742192Y-80238009D02*
X105789811Y-80142771D01*
X105789811Y-80142771D02*
X105885049Y-80095152D01*
X105885049Y-80095152D02*
X106075525Y-80095152D01*
X106075525Y-80095152D02*
X106170763Y-80142771D01*
X105742192Y-80714200D02*
X105837430Y-80761819D01*
X105837430Y-80761819D02*
X106075525Y-80761819D01*
X106075525Y-80761819D02*
X106170763Y-80714200D01*
X106170763Y-80714200D02*
X106218382Y-80618961D01*
X106218382Y-80618961D02*
X106218382Y-80523723D01*
X106218382Y-80523723D02*
X106170763Y-80428485D01*
X106170763Y-80428485D02*
X106075525Y-80380866D01*
X106075525Y-80380866D02*
X105837430Y-80380866D01*
X105837430Y-80380866D02*
X105742192Y-80333247D01*
X104837430Y-80095152D02*
X104837430Y-80761819D01*
X105266001Y-80095152D02*
X105266001Y-80618961D01*
X105266001Y-80618961D02*
X105218382Y-80714200D01*
X105218382Y-80714200D02*
X105123144Y-80761819D01*
X105123144Y-80761819D02*
X104980287Y-80761819D01*
X104980287Y-80761819D02*
X104885049Y-80714200D01*
X104885049Y-80714200D02*
X104837430Y-80666580D01*
X103932668Y-80761819D02*
X103932668Y-79761819D01*
X103932668Y-80714200D02*
X104027906Y-80761819D01*
X104027906Y-80761819D02*
X104218382Y-80761819D01*
X104218382Y-80761819D02*
X104313620Y-80714200D01*
X104313620Y-80714200D02*
X104361239Y-80666580D01*
X104361239Y-80666580D02*
X104408858Y-80571342D01*
X104408858Y-80571342D02*
X104408858Y-80285628D01*
X104408858Y-80285628D02*
X104361239Y-80190390D01*
X104361239Y-80190390D02*
X104313620Y-80142771D01*
X104313620Y-80142771D02*
X104218382Y-80095152D01*
X104218382Y-80095152D02*
X104027906Y-80095152D01*
X104027906Y-80095152D02*
X103932668Y-80142771D01*
X103456477Y-80761819D02*
X103456477Y-80095152D01*
X103456477Y-79761819D02*
X103504096Y-79809438D01*
X103504096Y-79809438D02*
X103456477Y-79857057D01*
X103456477Y-79857057D02*
X103408858Y-79809438D01*
X103408858Y-79809438D02*
X103456477Y-79761819D01*
X103456477Y-79761819D02*
X103456477Y-79857057D01*
X102837430Y-80761819D02*
X102932668Y-80714200D01*
X102932668Y-80714200D02*
X102980287Y-80666580D01*
X102980287Y-80666580D02*
X103027906Y-80571342D01*
X103027906Y-80571342D02*
X103027906Y-80285628D01*
X103027906Y-80285628D02*
X102980287Y-80190390D01*
X102980287Y-80190390D02*
X102932668Y-80142771D01*
X102932668Y-80142771D02*
X102837430Y-80095152D01*
X102837430Y-80095152D02*
X102694573Y-80095152D01*
X102694573Y-80095152D02*
X102599335Y-80142771D01*
X102599335Y-80142771D02*
X102551716Y-80190390D01*
X102551716Y-80190390D02*
X102504097Y-80285628D01*
X102504097Y-80285628D02*
X102504097Y-80571342D01*
X102504097Y-80571342D02*
X102551716Y-80666580D01*
X102551716Y-80666580D02*
X102599335Y-80714200D01*
X102599335Y-80714200D02*
X102694573Y-80761819D01*
X102694573Y-80761819D02*
X102837430Y-80761819D01*
X101456477Y-80095152D02*
X101075525Y-80095152D01*
X101313620Y-79761819D02*
X101313620Y-80618961D01*
X101313620Y-80618961D02*
X101266001Y-80714200D01*
X101266001Y-80714200D02*
X101170763Y-80761819D01*
X101170763Y-80761819D02*
X101075525Y-80761819D01*
X100599334Y-80761819D02*
X100694572Y-80714200D01*
X100694572Y-80714200D02*
X100742191Y-80666580D01*
X100742191Y-80666580D02*
X100789810Y-80571342D01*
X100789810Y-80571342D02*
X100789810Y-80285628D01*
X100789810Y-80285628D02*
X100742191Y-80190390D01*
X100742191Y-80190390D02*
X100694572Y-80142771D01*
X100694572Y-80142771D02*
X100599334Y-80095152D01*
X100599334Y-80095152D02*
X100456477Y-80095152D01*
X100456477Y-80095152D02*
X100361239Y-80142771D01*
X100361239Y-80142771D02*
X100313620Y-80190390D01*
X100313620Y-80190390D02*
X100266001Y-80285628D01*
X100266001Y-80285628D02*
X100266001Y-80571342D01*
X100266001Y-80571342D02*
X100313620Y-80666580D01*
X100313620Y-80666580D02*
X100361239Y-80714200D01*
X100361239Y-80714200D02*
X100456477Y-80761819D01*
X100456477Y-80761819D02*
X100599334Y-80761819D01*
X98694572Y-80714200D02*
X98789810Y-80761819D01*
X98789810Y-80761819D02*
X98980286Y-80761819D01*
X98980286Y-80761819D02*
X99075524Y-80714200D01*
X99075524Y-80714200D02*
X99123143Y-80618961D01*
X99123143Y-80618961D02*
X99123143Y-80238009D01*
X99123143Y-80238009D02*
X99075524Y-80142771D01*
X99075524Y-80142771D02*
X98980286Y-80095152D01*
X98980286Y-80095152D02*
X98789810Y-80095152D01*
X98789810Y-80095152D02*
X98694572Y-80142771D01*
X98694572Y-80142771D02*
X98646953Y-80238009D01*
X98646953Y-80238009D02*
X98646953Y-80333247D01*
X98646953Y-80333247D02*
X99123143Y-80428485D01*
X98313619Y-80761819D02*
X97789810Y-80095152D01*
X98313619Y-80095152D02*
X97789810Y-80761819D01*
X97551714Y-80095152D02*
X97170762Y-80095152D01*
X97408857Y-79761819D02*
X97408857Y-80618961D01*
X97408857Y-80618961D02*
X97361238Y-80714200D01*
X97361238Y-80714200D02*
X97266000Y-80761819D01*
X97266000Y-80761819D02*
X97170762Y-80761819D01*
X96837428Y-80761819D02*
X96837428Y-80095152D01*
X96837428Y-80285628D02*
X96789809Y-80190390D01*
X96789809Y-80190390D02*
X96742190Y-80142771D01*
X96742190Y-80142771D02*
X96646952Y-80095152D01*
X96646952Y-80095152D02*
X96551714Y-80095152D01*
X95789809Y-80761819D02*
X95789809Y-80238009D01*
X95789809Y-80238009D02*
X95837428Y-80142771D01*
X95837428Y-80142771D02*
X95932666Y-80095152D01*
X95932666Y-80095152D02*
X96123142Y-80095152D01*
X96123142Y-80095152D02*
X96218380Y-80142771D01*
X95789809Y-80714200D02*
X95885047Y-80761819D01*
X95885047Y-80761819D02*
X96123142Y-80761819D01*
X96123142Y-80761819D02*
X96218380Y-80714200D01*
X96218380Y-80714200D02*
X96265999Y-80618961D01*
X96265999Y-80618961D02*
X96265999Y-80523723D01*
X96265999Y-80523723D02*
X96218380Y-80428485D01*
X96218380Y-80428485D02*
X96123142Y-80380866D01*
X96123142Y-80380866D02*
X95885047Y-80380866D01*
X95885047Y-80380866D02*
X95789809Y-80333247D01*
X95361237Y-80714200D02*
X95265999Y-80761819D01*
X95265999Y-80761819D02*
X95075523Y-80761819D01*
X95075523Y-80761819D02*
X94980285Y-80714200D01*
X94980285Y-80714200D02*
X94932666Y-80618961D01*
X94932666Y-80618961D02*
X94932666Y-80571342D01*
X94932666Y-80571342D02*
X94980285Y-80476104D01*
X94980285Y-80476104D02*
X95075523Y-80428485D01*
X95075523Y-80428485D02*
X95218380Y-80428485D01*
X95218380Y-80428485D02*
X95313618Y-80380866D01*
X95313618Y-80380866D02*
X95361237Y-80285628D01*
X95361237Y-80285628D02*
X95361237Y-80238009D01*
X95361237Y-80238009D02*
X95313618Y-80142771D01*
X95313618Y-80142771D02*
X95218380Y-80095152D01*
X95218380Y-80095152D02*
X95075523Y-80095152D01*
X95075523Y-80095152D02*
X94980285Y-80142771D01*
X93313618Y-80714200D02*
X93408856Y-80761819D01*
X93408856Y-80761819D02*
X93599332Y-80761819D01*
X93599332Y-80761819D02*
X93694570Y-80714200D01*
X93694570Y-80714200D02*
X93742189Y-80666580D01*
X93742189Y-80666580D02*
X93789808Y-80571342D01*
X93789808Y-80571342D02*
X93789808Y-80285628D01*
X93789808Y-80285628D02*
X93742189Y-80190390D01*
X93742189Y-80190390D02*
X93694570Y-80142771D01*
X93694570Y-80142771D02*
X93599332Y-80095152D01*
X93599332Y-80095152D02*
X93408856Y-80095152D01*
X93408856Y-80095152D02*
X93313618Y-80142771D01*
X92742189Y-80761819D02*
X92837427Y-80714200D01*
X92837427Y-80714200D02*
X92885046Y-80666580D01*
X92885046Y-80666580D02*
X92932665Y-80571342D01*
X92932665Y-80571342D02*
X92932665Y-80285628D01*
X92932665Y-80285628D02*
X92885046Y-80190390D01*
X92885046Y-80190390D02*
X92837427Y-80142771D01*
X92837427Y-80142771D02*
X92742189Y-80095152D01*
X92742189Y-80095152D02*
X92599332Y-80095152D01*
X92599332Y-80095152D02*
X92504094Y-80142771D01*
X92504094Y-80142771D02*
X92456475Y-80190390D01*
X92456475Y-80190390D02*
X92408856Y-80285628D01*
X92408856Y-80285628D02*
X92408856Y-80571342D01*
X92408856Y-80571342D02*
X92456475Y-80666580D01*
X92456475Y-80666580D02*
X92504094Y-80714200D01*
X92504094Y-80714200D02*
X92599332Y-80761819D01*
X92599332Y-80761819D02*
X92742189Y-80761819D01*
X91980284Y-80095152D02*
X91980284Y-80761819D01*
X91980284Y-80190390D02*
X91932665Y-80142771D01*
X91932665Y-80142771D02*
X91837427Y-80095152D01*
X91837427Y-80095152D02*
X91694570Y-80095152D01*
X91694570Y-80095152D02*
X91599332Y-80142771D01*
X91599332Y-80142771D02*
X91551713Y-80238009D01*
X91551713Y-80238009D02*
X91551713Y-80761819D01*
X91075522Y-80095152D02*
X91075522Y-80761819D01*
X91075522Y-80190390D02*
X91027903Y-80142771D01*
X91027903Y-80142771D02*
X90932665Y-80095152D01*
X90932665Y-80095152D02*
X90789808Y-80095152D01*
X90789808Y-80095152D02*
X90694570Y-80142771D01*
X90694570Y-80142771D02*
X90646951Y-80238009D01*
X90646951Y-80238009D02*
X90646951Y-80761819D01*
X89789808Y-80714200D02*
X89885046Y-80761819D01*
X89885046Y-80761819D02*
X90075522Y-80761819D01*
X90075522Y-80761819D02*
X90170760Y-80714200D01*
X90170760Y-80714200D02*
X90218379Y-80618961D01*
X90218379Y-80618961D02*
X90218379Y-80238009D01*
X90218379Y-80238009D02*
X90170760Y-80142771D01*
X90170760Y-80142771D02*
X90075522Y-80095152D01*
X90075522Y-80095152D02*
X89885046Y-80095152D01*
X89885046Y-80095152D02*
X89789808Y-80142771D01*
X89789808Y-80142771D02*
X89742189Y-80238009D01*
X89742189Y-80238009D02*
X89742189Y-80333247D01*
X89742189Y-80333247D02*
X90218379Y-80428485D01*
X88885046Y-80714200D02*
X88980284Y-80761819D01*
X88980284Y-80761819D02*
X89170760Y-80761819D01*
X89170760Y-80761819D02*
X89265998Y-80714200D01*
X89265998Y-80714200D02*
X89313617Y-80666580D01*
X89313617Y-80666580D02*
X89361236Y-80571342D01*
X89361236Y-80571342D02*
X89361236Y-80285628D01*
X89361236Y-80285628D02*
X89313617Y-80190390D01*
X89313617Y-80190390D02*
X89265998Y-80142771D01*
X89265998Y-80142771D02*
X89170760Y-80095152D01*
X89170760Y-80095152D02*
X88980284Y-80095152D01*
X88980284Y-80095152D02*
X88885046Y-80142771D01*
X88599331Y-80095152D02*
X88218379Y-80095152D01*
X88456474Y-79761819D02*
X88456474Y-80618961D01*
X88456474Y-80618961D02*
X88408855Y-80714200D01*
X88408855Y-80714200D02*
X88313617Y-80761819D01*
X88313617Y-80761819D02*
X88218379Y-80761819D01*
X87742188Y-80761819D02*
X87837426Y-80714200D01*
X87837426Y-80714200D02*
X87885045Y-80666580D01*
X87885045Y-80666580D02*
X87932664Y-80571342D01*
X87932664Y-80571342D02*
X87932664Y-80285628D01*
X87932664Y-80285628D02*
X87885045Y-80190390D01*
X87885045Y-80190390D02*
X87837426Y-80142771D01*
X87837426Y-80142771D02*
X87742188Y-80095152D01*
X87742188Y-80095152D02*
X87599331Y-80095152D01*
X87599331Y-80095152D02*
X87504093Y-80142771D01*
X87504093Y-80142771D02*
X87456474Y-80190390D01*
X87456474Y-80190390D02*
X87408855Y-80285628D01*
X87408855Y-80285628D02*
X87408855Y-80571342D01*
X87408855Y-80571342D02*
X87456474Y-80666580D01*
X87456474Y-80666580D02*
X87504093Y-80714200D01*
X87504093Y-80714200D02*
X87599331Y-80761819D01*
X87599331Y-80761819D02*
X87742188Y-80761819D01*
X86980283Y-80761819D02*
X86980283Y-80095152D01*
X86980283Y-80285628D02*
X86932664Y-80190390D01*
X86932664Y-80190390D02*
X86885045Y-80142771D01*
X86885045Y-80142771D02*
X86789807Y-80095152D01*
X86789807Y-80095152D02*
X86694569Y-80095152D01*
X86361235Y-80666580D02*
X86313616Y-80714200D01*
X86313616Y-80714200D02*
X86361235Y-80761819D01*
X86361235Y-80761819D02*
X86408854Y-80714200D01*
X86408854Y-80714200D02*
X86361235Y-80666580D01*
X86361235Y-80666580D02*
X86361235Y-80761819D01*
X79804048Y-56588866D02*
X80565953Y-56588866D01*
X80185000Y-56969819D02*
X80185000Y-56207914D01*
X85804048Y-56588866D02*
X86565953Y-56588866D01*
X114633333Y-97649819D02*
X114633333Y-98364104D01*
X114633333Y-98364104D02*
X114680952Y-98506961D01*
X114680952Y-98506961D02*
X114776190Y-98602200D01*
X114776190Y-98602200D02*
X114919047Y-98649819D01*
X114919047Y-98649819D02*
X115014285Y-98649819D01*
X114252380Y-97649819D02*
X113585714Y-97649819D01*
X113585714Y-97649819D02*
X114014285Y-98649819D01*
X110849580Y-108656903D02*
X110897200Y-108609284D01*
X110897200Y-108609284D02*
X110944819Y-108466427D01*
X110944819Y-108466427D02*
X110944819Y-108371189D01*
X110944819Y-108371189D02*
X110897200Y-108228332D01*
X110897200Y-108228332D02*
X110801961Y-108133094D01*
X110801961Y-108133094D02*
X110706723Y-108085475D01*
X110706723Y-108085475D02*
X110516247Y-108037856D01*
X110516247Y-108037856D02*
X110373390Y-108037856D01*
X110373390Y-108037856D02*
X110182914Y-108085475D01*
X110182914Y-108085475D02*
X110087676Y-108133094D01*
X110087676Y-108133094D02*
X109992438Y-108228332D01*
X109992438Y-108228332D02*
X109944819Y-108371189D01*
X109944819Y-108371189D02*
X109944819Y-108466427D01*
X109944819Y-108466427D02*
X109992438Y-108609284D01*
X109992438Y-108609284D02*
X110040057Y-108656903D01*
X110944819Y-109228332D02*
X110897200Y-109133094D01*
X110897200Y-109133094D02*
X110849580Y-109085475D01*
X110849580Y-109085475D02*
X110754342Y-109037856D01*
X110754342Y-109037856D02*
X110468628Y-109037856D01*
X110468628Y-109037856D02*
X110373390Y-109085475D01*
X110373390Y-109085475D02*
X110325771Y-109133094D01*
X110325771Y-109133094D02*
X110278152Y-109228332D01*
X110278152Y-109228332D02*
X110278152Y-109371189D01*
X110278152Y-109371189D02*
X110325771Y-109466427D01*
X110325771Y-109466427D02*
X110373390Y-109514046D01*
X110373390Y-109514046D02*
X110468628Y-109561665D01*
X110468628Y-109561665D02*
X110754342Y-109561665D01*
X110754342Y-109561665D02*
X110849580Y-109514046D01*
X110849580Y-109514046D02*
X110897200Y-109466427D01*
X110897200Y-109466427D02*
X110944819Y-109371189D01*
X110944819Y-109371189D02*
X110944819Y-109228332D01*
X110278152Y-109990237D02*
X110944819Y-109990237D01*
X110373390Y-109990237D02*
X110325771Y-110037856D01*
X110325771Y-110037856D02*
X110278152Y-110133094D01*
X110278152Y-110133094D02*
X110278152Y-110275951D01*
X110278152Y-110275951D02*
X110325771Y-110371189D01*
X110325771Y-110371189D02*
X110421009Y-110418808D01*
X110421009Y-110418808D02*
X110944819Y-110418808D01*
X110278152Y-110894999D02*
X110944819Y-110894999D01*
X110373390Y-110894999D02*
X110325771Y-110942618D01*
X110325771Y-110942618D02*
X110278152Y-111037856D01*
X110278152Y-111037856D02*
X110278152Y-111180713D01*
X110278152Y-111180713D02*
X110325771Y-111275951D01*
X110325771Y-111275951D02*
X110421009Y-111323570D01*
X110421009Y-111323570D02*
X110944819Y-111323570D01*
X111040057Y-111561666D02*
X111040057Y-112323570D01*
X110421009Y-112561666D02*
X110421009Y-112894999D01*
X110944819Y-113037856D02*
X110944819Y-112561666D01*
X110944819Y-112561666D02*
X109944819Y-112561666D01*
X109944819Y-112561666D02*
X109944819Y-113037856D01*
X110944819Y-113371190D02*
X110278152Y-113894999D01*
X110278152Y-113371190D02*
X110944819Y-113894999D01*
X110278152Y-114133095D02*
X110278152Y-114514047D01*
X109944819Y-114275952D02*
X110801961Y-114275952D01*
X110801961Y-114275952D02*
X110897200Y-114323571D01*
X110897200Y-114323571D02*
X110944819Y-114418809D01*
X110944819Y-114418809D02*
X110944819Y-114514047D01*
X110944819Y-114847381D02*
X110278152Y-114847381D01*
X110468628Y-114847381D02*
X110373390Y-114895000D01*
X110373390Y-114895000D02*
X110325771Y-114942619D01*
X110325771Y-114942619D02*
X110278152Y-115037857D01*
X110278152Y-115037857D02*
X110278152Y-115133095D01*
X110944819Y-115895000D02*
X110421009Y-115895000D01*
X110421009Y-115895000D02*
X110325771Y-115847381D01*
X110325771Y-115847381D02*
X110278152Y-115752143D01*
X110278152Y-115752143D02*
X110278152Y-115561667D01*
X110278152Y-115561667D02*
X110325771Y-115466429D01*
X110897200Y-115895000D02*
X110944819Y-115799762D01*
X110944819Y-115799762D02*
X110944819Y-115561667D01*
X110944819Y-115561667D02*
X110897200Y-115466429D01*
X110897200Y-115466429D02*
X110801961Y-115418810D01*
X110801961Y-115418810D02*
X110706723Y-115418810D01*
X110706723Y-115418810D02*
X110611485Y-115466429D01*
X110611485Y-115466429D02*
X110563866Y-115561667D01*
X110563866Y-115561667D02*
X110563866Y-115799762D01*
X110563866Y-115799762D02*
X110516247Y-115895000D01*
X110897200Y-116323572D02*
X110944819Y-116418810D01*
X110944819Y-116418810D02*
X110944819Y-116609286D01*
X110944819Y-116609286D02*
X110897200Y-116704524D01*
X110897200Y-116704524D02*
X110801961Y-116752143D01*
X110801961Y-116752143D02*
X110754342Y-116752143D01*
X110754342Y-116752143D02*
X110659104Y-116704524D01*
X110659104Y-116704524D02*
X110611485Y-116609286D01*
X110611485Y-116609286D02*
X110611485Y-116466429D01*
X110611485Y-116466429D02*
X110563866Y-116371191D01*
X110563866Y-116371191D02*
X110468628Y-116323572D01*
X110468628Y-116323572D02*
X110421009Y-116323572D01*
X110421009Y-116323572D02*
X110325771Y-116371191D01*
X110325771Y-116371191D02*
X110278152Y-116466429D01*
X110278152Y-116466429D02*
X110278152Y-116609286D01*
X110278152Y-116609286D02*
X110325771Y-116704524D01*
X94001819Y-73461666D02*
X94716104Y-73461666D01*
X94716104Y-73461666D02*
X94858961Y-73414047D01*
X94858961Y-73414047D02*
X94954200Y-73318809D01*
X94954200Y-73318809D02*
X95001819Y-73175952D01*
X95001819Y-73175952D02*
X95001819Y-73080714D01*
X95001819Y-73937857D02*
X94001819Y-73937857D01*
X94001819Y-73937857D02*
X94001819Y-74318809D01*
X94001819Y-74318809D02*
X94049438Y-74414047D01*
X94049438Y-74414047D02*
X94097057Y-74461666D01*
X94097057Y-74461666D02*
X94192295Y-74509285D01*
X94192295Y-74509285D02*
X94335152Y-74509285D01*
X94335152Y-74509285D02*
X94430390Y-74461666D01*
X94430390Y-74461666D02*
X94478009Y-74414047D01*
X94478009Y-74414047D02*
X94525628Y-74318809D01*
X94525628Y-74318809D02*
X94525628Y-73937857D01*
X94335152Y-75366428D02*
X95001819Y-75366428D01*
X93954200Y-75128333D02*
X94668485Y-74890238D01*
X94668485Y-74890238D02*
X94668485Y-75509285D01*
X96037476Y-77289819D02*
X96370809Y-76813628D01*
X96608904Y-77289819D02*
X96608904Y-76289819D01*
X96608904Y-76289819D02*
X96227952Y-76289819D01*
X96227952Y-76289819D02*
X96132714Y-76337438D01*
X96132714Y-76337438D02*
X96085095Y-76385057D01*
X96085095Y-76385057D02*
X96037476Y-76480295D01*
X96037476Y-76480295D02*
X96037476Y-76623152D01*
X96037476Y-76623152D02*
X96085095Y-76718390D01*
X96085095Y-76718390D02*
X96132714Y-76766009D01*
X96132714Y-76766009D02*
X96227952Y-76813628D01*
X96227952Y-76813628D02*
X96608904Y-76813628D01*
X97811819Y-73461666D02*
X98526104Y-73461666D01*
X98526104Y-73461666D02*
X98668961Y-73414047D01*
X98668961Y-73414047D02*
X98764200Y-73318809D01*
X98764200Y-73318809D02*
X98811819Y-73175952D01*
X98811819Y-73175952D02*
X98811819Y-73080714D01*
X98811819Y-73937857D02*
X97811819Y-73937857D01*
X97811819Y-73937857D02*
X97811819Y-74318809D01*
X97811819Y-74318809D02*
X97859438Y-74414047D01*
X97859438Y-74414047D02*
X97907057Y-74461666D01*
X97907057Y-74461666D02*
X98002295Y-74509285D01*
X98002295Y-74509285D02*
X98145152Y-74509285D01*
X98145152Y-74509285D02*
X98240390Y-74461666D01*
X98240390Y-74461666D02*
X98288009Y-74414047D01*
X98288009Y-74414047D02*
X98335628Y-74318809D01*
X98335628Y-74318809D02*
X98335628Y-73937857D01*
X97811819Y-75414047D02*
X97811819Y-74937857D01*
X97811819Y-74937857D02*
X98288009Y-74890238D01*
X98288009Y-74890238D02*
X98240390Y-74937857D01*
X98240390Y-74937857D02*
X98192771Y-75033095D01*
X98192771Y-75033095D02*
X98192771Y-75271190D01*
X98192771Y-75271190D02*
X98240390Y-75366428D01*
X98240390Y-75366428D02*
X98288009Y-75414047D01*
X98288009Y-75414047D02*
X98383247Y-75461666D01*
X98383247Y-75461666D02*
X98621342Y-75461666D01*
X98621342Y-75461666D02*
X98716580Y-75414047D01*
X98716580Y-75414047D02*
X98764200Y-75366428D01*
X98764200Y-75366428D02*
X98811819Y-75271190D01*
X98811819Y-75271190D02*
X98811819Y-75033095D01*
X98811819Y-75033095D02*
X98764200Y-74937857D01*
X98764200Y-74937857D02*
X98716580Y-74890238D01*
X99895095Y-76337438D02*
X99990333Y-76289819D01*
X99990333Y-76289819D02*
X100133190Y-76289819D01*
X100133190Y-76289819D02*
X100276047Y-76337438D01*
X100276047Y-76337438D02*
X100371285Y-76432676D01*
X100371285Y-76432676D02*
X100418904Y-76527914D01*
X100418904Y-76527914D02*
X100466523Y-76718390D01*
X100466523Y-76718390D02*
X100466523Y-76861247D01*
X100466523Y-76861247D02*
X100418904Y-77051723D01*
X100418904Y-77051723D02*
X100371285Y-77146961D01*
X100371285Y-77146961D02*
X100276047Y-77242200D01*
X100276047Y-77242200D02*
X100133190Y-77289819D01*
X100133190Y-77289819D02*
X100037952Y-77289819D01*
X100037952Y-77289819D02*
X99895095Y-77242200D01*
X99895095Y-77242200D02*
X99847476Y-77194580D01*
X99847476Y-77194580D02*
X99847476Y-76861247D01*
X99847476Y-76861247D02*
X100037952Y-76861247D01*
X90191819Y-73461666D02*
X90906104Y-73461666D01*
X90906104Y-73461666D02*
X91048961Y-73414047D01*
X91048961Y-73414047D02*
X91144200Y-73318809D01*
X91144200Y-73318809D02*
X91191819Y-73175952D01*
X91191819Y-73175952D02*
X91191819Y-73080714D01*
X91191819Y-73937857D02*
X90191819Y-73937857D01*
X90191819Y-73937857D02*
X90191819Y-74318809D01*
X90191819Y-74318809D02*
X90239438Y-74414047D01*
X90239438Y-74414047D02*
X90287057Y-74461666D01*
X90287057Y-74461666D02*
X90382295Y-74509285D01*
X90382295Y-74509285D02*
X90525152Y-74509285D01*
X90525152Y-74509285D02*
X90620390Y-74461666D01*
X90620390Y-74461666D02*
X90668009Y-74414047D01*
X90668009Y-74414047D02*
X90715628Y-74318809D01*
X90715628Y-74318809D02*
X90715628Y-73937857D01*
X90191819Y-75366428D02*
X90191819Y-75175952D01*
X90191819Y-75175952D02*
X90239438Y-75080714D01*
X90239438Y-75080714D02*
X90287057Y-75033095D01*
X90287057Y-75033095D02*
X90429914Y-74937857D01*
X90429914Y-74937857D02*
X90620390Y-74890238D01*
X90620390Y-74890238D02*
X91001342Y-74890238D01*
X91001342Y-74890238D02*
X91096580Y-74937857D01*
X91096580Y-74937857D02*
X91144200Y-74985476D01*
X91144200Y-74985476D02*
X91191819Y-75080714D01*
X91191819Y-75080714D02*
X91191819Y-75271190D01*
X91191819Y-75271190D02*
X91144200Y-75366428D01*
X91144200Y-75366428D02*
X91096580Y-75414047D01*
X91096580Y-75414047D02*
X91001342Y-75461666D01*
X91001342Y-75461666D02*
X90763247Y-75461666D01*
X90763247Y-75461666D02*
X90668009Y-75414047D01*
X90668009Y-75414047D02*
X90620390Y-75366428D01*
X90620390Y-75366428D02*
X90572771Y-75271190D01*
X90572771Y-75271190D02*
X90572771Y-75080714D01*
X90572771Y-75080714D02*
X90620390Y-74985476D01*
X90620390Y-74985476D02*
X90668009Y-74937857D01*
X90668009Y-74937857D02*
X90763247Y-74890238D01*
X92227476Y-77289819D02*
X92703666Y-77289819D01*
X92703666Y-77289819D02*
X92703666Y-76289819D01*
D11*
X134770895Y-135558733D02*
X135342323Y-135558733D01*
X135342323Y-135558733D02*
X135456609Y-135520638D01*
X135456609Y-135520638D02*
X135532800Y-135444447D01*
X135532800Y-135444447D02*
X135570895Y-135330162D01*
X135570895Y-135330162D02*
X135570895Y-135253971D01*
X135570895Y-135939686D02*
X134770895Y-135939686D01*
X134770895Y-135939686D02*
X134770895Y-136244448D01*
X134770895Y-136244448D02*
X134808990Y-136320638D01*
X134808990Y-136320638D02*
X134847085Y-136358733D01*
X134847085Y-136358733D02*
X134923276Y-136396829D01*
X134923276Y-136396829D02*
X135037561Y-136396829D01*
X135037561Y-136396829D02*
X135113752Y-136358733D01*
X135113752Y-136358733D02*
X135151847Y-136320638D01*
X135151847Y-136320638D02*
X135189942Y-136244448D01*
X135189942Y-136244448D02*
X135189942Y-135939686D01*
X134770895Y-136663495D02*
X134770895Y-137196829D01*
X134770895Y-137196829D02*
X135570895Y-136853971D01*
X140114285Y-138469895D02*
X140114285Y-137669895D01*
X140114285Y-137669895D02*
X139809523Y-137669895D01*
X139809523Y-137669895D02*
X139733333Y-137707990D01*
X139733333Y-137707990D02*
X139695238Y-137746085D01*
X139695238Y-137746085D02*
X139657142Y-137822276D01*
X139657142Y-137822276D02*
X139657142Y-137936561D01*
X139657142Y-137936561D02*
X139695238Y-138012752D01*
X139695238Y-138012752D02*
X139733333Y-138050847D01*
X139733333Y-138050847D02*
X139809523Y-138088942D01*
X139809523Y-138088942D02*
X140114285Y-138088942D01*
X138895238Y-138469895D02*
X139352381Y-138469895D01*
X139123809Y-138469895D02*
X139123809Y-137669895D01*
X139123809Y-137669895D02*
X139200000Y-137784180D01*
X139200000Y-137784180D02*
X139276190Y-137860371D01*
X139276190Y-137860371D02*
X139352381Y-137898466D01*
X138742857Y-138546085D02*
X138133333Y-138546085D01*
X137523809Y-137707990D02*
X137599999Y-137669895D01*
X137599999Y-137669895D02*
X137714285Y-137669895D01*
X137714285Y-137669895D02*
X137828571Y-137707990D01*
X137828571Y-137707990D02*
X137904761Y-137784180D01*
X137904761Y-137784180D02*
X137942856Y-137860371D01*
X137942856Y-137860371D02*
X137980952Y-138012752D01*
X137980952Y-138012752D02*
X137980952Y-138127038D01*
X137980952Y-138127038D02*
X137942856Y-138279419D01*
X137942856Y-138279419D02*
X137904761Y-138355609D01*
X137904761Y-138355609D02*
X137828571Y-138431800D01*
X137828571Y-138431800D02*
X137714285Y-138469895D01*
X137714285Y-138469895D02*
X137638094Y-138469895D01*
X137638094Y-138469895D02*
X137523809Y-138431800D01*
X137523809Y-138431800D02*
X137485713Y-138393704D01*
X137485713Y-138393704D02*
X137485713Y-138127038D01*
X137485713Y-138127038D02*
X137638094Y-138127038D01*
X137142856Y-138469895D02*
X137142856Y-137669895D01*
X137142856Y-137669895D02*
X136685713Y-138469895D01*
X136685713Y-138469895D02*
X136685713Y-137669895D01*
X136304761Y-138469895D02*
X136304761Y-137669895D01*
X136304761Y-137669895D02*
X136114285Y-137669895D01*
X136114285Y-137669895D02*
X135999999Y-137707990D01*
X135999999Y-137707990D02*
X135923809Y-137784180D01*
X135923809Y-137784180D02*
X135885714Y-137860371D01*
X135885714Y-137860371D02*
X135847618Y-138012752D01*
X135847618Y-138012752D02*
X135847618Y-138127038D01*
X135847618Y-138127038D02*
X135885714Y-138279419D01*
X135885714Y-138279419D02*
X135923809Y-138355609D01*
X135923809Y-138355609D02*
X135999999Y-138431800D01*
X135999999Y-138431800D02*
X136114285Y-138469895D01*
X136114285Y-138469895D02*
X136304761Y-138469895D01*
X145358895Y-135707933D02*
X145930323Y-135707933D01*
X145930323Y-135707933D02*
X146044609Y-135669838D01*
X146044609Y-135669838D02*
X146120800Y-135593647D01*
X146120800Y-135593647D02*
X146158895Y-135479362D01*
X146158895Y-135479362D02*
X146158895Y-135403171D01*
X146158895Y-136088886D02*
X145358895Y-136088886D01*
X145358895Y-136088886D02*
X145358895Y-136393648D01*
X145358895Y-136393648D02*
X145396990Y-136469838D01*
X145396990Y-136469838D02*
X145435085Y-136507933D01*
X145435085Y-136507933D02*
X145511276Y-136546029D01*
X145511276Y-136546029D02*
X145625561Y-136546029D01*
X145625561Y-136546029D02*
X145701752Y-136507933D01*
X145701752Y-136507933D02*
X145739847Y-136469838D01*
X145739847Y-136469838D02*
X145777942Y-136393648D01*
X145777942Y-136393648D02*
X145777942Y-136088886D01*
X145701752Y-137003171D02*
X145663657Y-136926981D01*
X145663657Y-136926981D02*
X145625561Y-136888886D01*
X145625561Y-136888886D02*
X145549371Y-136850790D01*
X145549371Y-136850790D02*
X145511276Y-136850790D01*
X145511276Y-136850790D02*
X145435085Y-136888886D01*
X145435085Y-136888886D02*
X145396990Y-136926981D01*
X145396990Y-136926981D02*
X145358895Y-137003171D01*
X145358895Y-137003171D02*
X145358895Y-137155552D01*
X145358895Y-137155552D02*
X145396990Y-137231743D01*
X145396990Y-137231743D02*
X145435085Y-137269838D01*
X145435085Y-137269838D02*
X145511276Y-137307933D01*
X145511276Y-137307933D02*
X145549371Y-137307933D01*
X145549371Y-137307933D02*
X145625561Y-137269838D01*
X145625561Y-137269838D02*
X145663657Y-137231743D01*
X145663657Y-137231743D02*
X145701752Y-137155552D01*
X145701752Y-137155552D02*
X145701752Y-137003171D01*
X145701752Y-137003171D02*
X145739847Y-136926981D01*
X145739847Y-136926981D02*
X145777942Y-136888886D01*
X145777942Y-136888886D02*
X145854133Y-136850790D01*
X145854133Y-136850790D02*
X146006514Y-136850790D01*
X146006514Y-136850790D02*
X146082704Y-136888886D01*
X146082704Y-136888886D02*
X146120800Y-136926981D01*
X146120800Y-136926981D02*
X146158895Y-137003171D01*
X146158895Y-137003171D02*
X146158895Y-137155552D01*
X146158895Y-137155552D02*
X146120800Y-137231743D01*
X146120800Y-137231743D02*
X146082704Y-137269838D01*
X146082704Y-137269838D02*
X146006514Y-137307933D01*
X146006514Y-137307933D02*
X145854133Y-137307933D01*
X145854133Y-137307933D02*
X145777942Y-137269838D01*
X145777942Y-137269838D02*
X145739847Y-137231743D01*
X145739847Y-137231743D02*
X145701752Y-137155552D01*
X145114285Y-134859895D02*
X145114285Y-134059895D01*
X145114285Y-134059895D02*
X144809523Y-134059895D01*
X144809523Y-134059895D02*
X144733333Y-134097990D01*
X144733333Y-134097990D02*
X144695238Y-134136085D01*
X144695238Y-134136085D02*
X144657142Y-134212276D01*
X144657142Y-134212276D02*
X144657142Y-134326561D01*
X144657142Y-134326561D02*
X144695238Y-134402752D01*
X144695238Y-134402752D02*
X144733333Y-134440847D01*
X144733333Y-134440847D02*
X144809523Y-134478942D01*
X144809523Y-134478942D02*
X145114285Y-134478942D01*
X143895238Y-134859895D02*
X144352381Y-134859895D01*
X144123809Y-134859895D02*
X144123809Y-134059895D01*
X144123809Y-134059895D02*
X144200000Y-134174180D01*
X144200000Y-134174180D02*
X144276190Y-134250371D01*
X144276190Y-134250371D02*
X144352381Y-134288466D01*
X143742857Y-134936085D02*
X143133333Y-134936085D01*
X142523809Y-134097990D02*
X142599999Y-134059895D01*
X142599999Y-134059895D02*
X142714285Y-134059895D01*
X142714285Y-134059895D02*
X142828571Y-134097990D01*
X142828571Y-134097990D02*
X142904761Y-134174180D01*
X142904761Y-134174180D02*
X142942856Y-134250371D01*
X142942856Y-134250371D02*
X142980952Y-134402752D01*
X142980952Y-134402752D02*
X142980952Y-134517038D01*
X142980952Y-134517038D02*
X142942856Y-134669419D01*
X142942856Y-134669419D02*
X142904761Y-134745609D01*
X142904761Y-134745609D02*
X142828571Y-134821800D01*
X142828571Y-134821800D02*
X142714285Y-134859895D01*
X142714285Y-134859895D02*
X142638094Y-134859895D01*
X142638094Y-134859895D02*
X142523809Y-134821800D01*
X142523809Y-134821800D02*
X142485713Y-134783704D01*
X142485713Y-134783704D02*
X142485713Y-134517038D01*
X142485713Y-134517038D02*
X142638094Y-134517038D01*
X142142856Y-134859895D02*
X142142856Y-134059895D01*
X142142856Y-134059895D02*
X141685713Y-134859895D01*
X141685713Y-134859895D02*
X141685713Y-134059895D01*
X141304761Y-134859895D02*
X141304761Y-134059895D01*
X141304761Y-134059895D02*
X141114285Y-134059895D01*
X141114285Y-134059895D02*
X140999999Y-134097990D01*
X140999999Y-134097990D02*
X140923809Y-134174180D01*
X140923809Y-134174180D02*
X140885714Y-134250371D01*
X140885714Y-134250371D02*
X140847618Y-134402752D01*
X140847618Y-134402752D02*
X140847618Y-134517038D01*
X140847618Y-134517038D02*
X140885714Y-134669419D01*
X140885714Y-134669419D02*
X140923809Y-134745609D01*
X140923809Y-134745609D02*
X140999999Y-134821800D01*
X140999999Y-134821800D02*
X141114285Y-134859895D01*
X141114285Y-134859895D02*
X141304761Y-134859895D01*
D10*
%TO.C,SYM1*%
X83185000Y-56578500D02*
X81185000Y-56578500D01*
X84253500Y-56578500D02*
X85153500Y-56578500D01*
X82510001Y-57328499D02*
G75*
G03*
X82435001Y-55903501I674999J749999D01*
G01*
X81125500Y-56578500D02*
G75*
G03*
X81125500Y-56578500I-925000J0D01*
G01*
D12*
X83360000Y-56578500D02*
G75*
G03*
X83360000Y-56578500I-175000J0D01*
G01*
D10*
X87094500Y-56578500D02*
G75*
G03*
X87094500Y-56578500I-925000J0D01*
G01*
%TO.C,J2*%
D11*
X155067000Y-63246000D02*
X153543000Y-63246000D01*
X153543000Y-64770000D01*
X152527000Y-64770000D01*
X152527000Y-63246000D01*
X151003000Y-63246000D01*
X153035000Y-59690000D01*
X155067000Y-63246000D01*
G36*
X155067000Y-63246000D02*
G01*
X153543000Y-63246000D01*
X153543000Y-64770000D01*
X152527000Y-64770000D01*
X152527000Y-63246000D01*
X151003000Y-63246000D01*
X153035000Y-59690000D01*
X155067000Y-63246000D01*
G37*
%TO.C,J3*%
X133223000Y-61214000D02*
X134747000Y-61214000D01*
X132715000Y-64770000D01*
X130683000Y-61214000D01*
X132207000Y-61214000D01*
X132207000Y-59690000D01*
X133223000Y-59690000D01*
X133223000Y-61214000D01*
G36*
X133223000Y-61214000D02*
G01*
X134747000Y-61214000D01*
X132715000Y-64770000D01*
X130683000Y-61214000D01*
X132207000Y-61214000D01*
X132207000Y-59690000D01*
X133223000Y-59690000D01*
X133223000Y-61214000D01*
G37*
D13*
%TO.C,JP3*%
X133698200Y-138006100D02*
X133698200Y-137406100D01*
X133148200Y-139206100D02*
X132548200Y-139206100D01*
X133048200Y-136706100D02*
X130248200Y-136706100D01*
X132848200Y-138906100D02*
X133148200Y-139206100D01*
X132848200Y-138906100D02*
X132548200Y-139206100D01*
X130248200Y-138706100D02*
X133048200Y-138706100D01*
X129598200Y-137406100D02*
X129598200Y-138006100D01*
X132998200Y-138706100D02*
G75*
G03*
X133698200Y-138006100I1J699999D01*
G01*
X133698200Y-137406100D02*
G75*
G03*
X132998200Y-136706100I-699999J1D01*
G01*
X129598200Y-138006100D02*
G75*
G03*
X130298200Y-138706100I700000J0D01*
G01*
X130298200Y-136706100D02*
G75*
G03*
X129598200Y-137406100I0J-700000D01*
G01*
%TO.C,REF\u002A\u002A\u002A*%
D14*
X135301406Y-129274949D02*
X135327127Y-129290647D01*
X135353778Y-129312227D01*
X135353778Y-129959684D01*
X135327127Y-129981264D01*
X135295767Y-129998739D01*
X135259966Y-129999575D01*
X135228528Y-129979082D01*
X135224652Y-129974416D01*
X135219186Y-129964949D01*
X135214979Y-129951267D01*
X135211867Y-129930748D01*
X135209687Y-129900768D01*
X135208276Y-129858704D01*
X135207471Y-129801932D01*
X135207107Y-129727830D01*
X135207022Y-129633773D01*
X135207022Y-129312227D01*
X135233673Y-129290647D01*
X135257386Y-129275877D01*
X135280400Y-129269067D01*
X135301406Y-129274949D01*
G36*
X135301406Y-129274949D02*
G01*
X135327127Y-129290647D01*
X135353778Y-129312227D01*
X135353778Y-129959684D01*
X135327127Y-129981264D01*
X135295767Y-129998739D01*
X135259966Y-129999575D01*
X135228528Y-129979082D01*
X135224652Y-129974416D01*
X135219186Y-129964949D01*
X135214979Y-129951267D01*
X135211867Y-129930748D01*
X135209687Y-129900768D01*
X135208276Y-129858704D01*
X135207471Y-129801932D01*
X135207107Y-129727830D01*
X135207022Y-129633773D01*
X135207022Y-129312227D01*
X135233673Y-129290647D01*
X135257386Y-129275877D01*
X135280400Y-129269067D01*
X135301406Y-129274949D01*
G37*
X142432137Y-129273463D02*
X142466291Y-129296776D01*
X142494000Y-129324485D01*
X142494000Y-129637537D01*
X142493959Y-129721567D01*
X142493701Y-129795789D01*
X142493030Y-129852541D01*
X142491752Y-129894512D01*
X142489673Y-129924389D01*
X142486599Y-129944861D01*
X142482334Y-129958614D01*
X142476684Y-129968337D01*
X142469455Y-129976717D01*
X142437991Y-129998181D01*
X142402826Y-129999947D01*
X142369822Y-129980267D01*
X142364516Y-129974398D01*
X142359066Y-129965314D01*
X142354900Y-129951973D01*
X142351846Y-129931757D01*
X142349732Y-129902049D01*
X142348386Y-129860232D01*
X142347638Y-129803689D01*
X142347314Y-129729802D01*
X142347245Y-129635956D01*
X142347284Y-129560294D01*
X142347539Y-129482385D01*
X142348183Y-129422375D01*
X142349387Y-129377648D01*
X142351324Y-129345585D01*
X142354164Y-129323571D01*
X142358079Y-129308987D01*
X142363242Y-129299218D01*
X142369822Y-129291645D01*
X142399006Y-129272623D01*
X142432137Y-129273463D01*
G36*
X142432137Y-129273463D02*
G01*
X142466291Y-129296776D01*
X142494000Y-129324485D01*
X142494000Y-129637537D01*
X142493959Y-129721567D01*
X142493701Y-129795789D01*
X142493030Y-129852541D01*
X142491752Y-129894512D01*
X142489673Y-129924389D01*
X142486599Y-129944861D01*
X142482334Y-129958614D01*
X142476684Y-129968337D01*
X142469455Y-129976717D01*
X142437991Y-129998181D01*
X142402826Y-129999947D01*
X142369822Y-129980267D01*
X142364516Y-129974398D01*
X142359066Y-129965314D01*
X142354900Y-129951973D01*
X142351846Y-129931757D01*
X142349732Y-129902049D01*
X142348386Y-129860232D01*
X142347638Y-129803689D01*
X142347314Y-129729802D01*
X142347245Y-129635956D01*
X142347284Y-129560294D01*
X142347539Y-129482385D01*
X142348183Y-129422375D01*
X142349387Y-129377648D01*
X142351324Y-129345585D01*
X142354164Y-129323571D01*
X142358079Y-129308987D01*
X142363242Y-129299218D01*
X142369822Y-129291645D01*
X142399006Y-129272623D01*
X142432137Y-129273463D01*
G37*
X141900562Y-124032850D02*
X141983313Y-124060053D01*
X142058406Y-124105484D01*
X142130298Y-124171302D01*
X142168846Y-124215567D01*
X142208256Y-124273961D01*
X142233446Y-124334586D01*
X142246861Y-124403865D01*
X142250948Y-124488222D01*
X142250669Y-124534307D01*
X142248460Y-124575450D01*
X142242894Y-124607582D01*
X142232586Y-124638122D01*
X142216148Y-124674489D01*
X142202200Y-124701728D01*
X142143665Y-124787429D01*
X142071619Y-124856617D01*
X141987947Y-124907741D01*
X141894531Y-124939250D01*
X141861434Y-124946225D01*
X141820960Y-124953094D01*
X141787999Y-124954919D01*
X141753698Y-124951947D01*
X141709200Y-124944426D01*
X141657934Y-124932002D01*
X141567434Y-124894112D01*
X141488345Y-124839836D01*
X141422528Y-124771770D01*
X141371840Y-124692511D01*
X141338140Y-124604654D01*
X141323286Y-124510795D01*
X141329136Y-124413530D01*
X141355399Y-124317220D01*
X141400418Y-124228494D01*
X141461373Y-124153419D01*
X141536184Y-124093641D01*
X141622768Y-124050809D01*
X141719043Y-124026571D01*
X141822928Y-124022576D01*
X141900562Y-124032850D01*
G36*
X141900562Y-124032850D02*
G01*
X141983313Y-124060053D01*
X142058406Y-124105484D01*
X142130298Y-124171302D01*
X142168846Y-124215567D01*
X142208256Y-124273961D01*
X142233446Y-124334586D01*
X142246861Y-124403865D01*
X142250948Y-124488222D01*
X142250669Y-124534307D01*
X142248460Y-124575450D01*
X142242894Y-124607582D01*
X142232586Y-124638122D01*
X142216148Y-124674489D01*
X142202200Y-124701728D01*
X142143665Y-124787429D01*
X142071619Y-124856617D01*
X141987947Y-124907741D01*
X141894531Y-124939250D01*
X141861434Y-124946225D01*
X141820960Y-124953094D01*
X141787999Y-124954919D01*
X141753698Y-124951947D01*
X141709200Y-124944426D01*
X141657934Y-124932002D01*
X141567434Y-124894112D01*
X141488345Y-124839836D01*
X141422528Y-124771770D01*
X141371840Y-124692511D01*
X141338140Y-124604654D01*
X141323286Y-124510795D01*
X141329136Y-124413530D01*
X141355399Y-124317220D01*
X141400418Y-124228494D01*
X141461373Y-124153419D01*
X141536184Y-124093641D01*
X141622768Y-124050809D01*
X141719043Y-124026571D01*
X141822928Y-124022576D01*
X141900562Y-124032850D01*
G37*
X134601767Y-129269068D02*
X134695890Y-129269158D01*
X134770405Y-129269498D01*
X134827811Y-129270239D01*
X134870611Y-129271535D01*
X134901304Y-129273537D01*
X134922391Y-129276396D01*
X134936373Y-129280266D01*
X134945750Y-129285298D01*
X134953022Y-129291645D01*
X134971828Y-129324362D01*
X134973275Y-129361939D01*
X134956917Y-129395178D01*
X134955557Y-129396631D01*
X134944354Y-129404992D01*
X134927252Y-129410547D01*
X134900082Y-129413840D01*
X134858678Y-129415418D01*
X134798873Y-129415822D01*
X134659511Y-129415822D01*
X134659511Y-129679589D01*
X134659436Y-129755417D01*
X134659028Y-129822083D01*
X134658046Y-129871867D01*
X134656250Y-129907784D01*
X134653399Y-129932850D01*
X134649253Y-129950081D01*
X134643571Y-129962492D01*
X134636114Y-129973100D01*
X134633824Y-129975906D01*
X134602646Y-129998548D01*
X134568266Y-130000112D01*
X134535334Y-129980267D01*
X134528355Y-129972191D01*
X134522883Y-129961593D01*
X134518863Y-129945749D01*
X134516072Y-129921773D01*
X134514288Y-129886774D01*
X134513289Y-129837864D01*
X134512852Y-129772154D01*
X134512756Y-129686756D01*
X134512756Y-129415822D01*
X134366820Y-129415822D01*
X134355720Y-129415821D01*
X134299202Y-129415596D01*
X134260358Y-129414457D01*
X134234965Y-129411657D01*
X134218804Y-129406450D01*
X134207652Y-129398089D01*
X134197289Y-129385826D01*
X134181441Y-129355138D01*
X134184543Y-129321358D01*
X134210187Y-129288822D01*
X134215129Y-129285105D01*
X134225338Y-129280269D01*
X134240764Y-129276506D01*
X134263886Y-129273683D01*
X134297183Y-129271670D01*
X134343137Y-129270333D01*
X134404228Y-129269542D01*
X134482935Y-129269163D01*
X134581740Y-129269067D01*
X134601767Y-129269068D01*
G36*
X134601767Y-129269068D02*
G01*
X134695890Y-129269158D01*
X134770405Y-129269498D01*
X134827811Y-129270239D01*
X134870611Y-129271535D01*
X134901304Y-129273537D01*
X134922391Y-129276396D01*
X134936373Y-129280266D01*
X134945750Y-129285298D01*
X134953022Y-129291645D01*
X134971828Y-129324362D01*
X134973275Y-129361939D01*
X134956917Y-129395178D01*
X134955557Y-129396631D01*
X134944354Y-129404992D01*
X134927252Y-129410547D01*
X134900082Y-129413840D01*
X134858678Y-129415418D01*
X134798873Y-129415822D01*
X134659511Y-129415822D01*
X134659511Y-129679589D01*
X134659436Y-129755417D01*
X134659028Y-129822083D01*
X134658046Y-129871867D01*
X134656250Y-129907784D01*
X134653399Y-129932850D01*
X134649253Y-129950081D01*
X134643571Y-129962492D01*
X134636114Y-129973100D01*
X134633824Y-129975906D01*
X134602646Y-129998548D01*
X134568266Y-130000112D01*
X134535334Y-129980267D01*
X134528355Y-129972191D01*
X134522883Y-129961593D01*
X134518863Y-129945749D01*
X134516072Y-129921773D01*
X134514288Y-129886774D01*
X134513289Y-129837864D01*
X134512852Y-129772154D01*
X134512756Y-129686756D01*
X134512756Y-129415822D01*
X134366820Y-129415822D01*
X134355720Y-129415821D01*
X134299202Y-129415596D01*
X134260358Y-129414457D01*
X134234965Y-129411657D01*
X134218804Y-129406450D01*
X134207652Y-129398089D01*
X134197289Y-129385826D01*
X134181441Y-129355138D01*
X134184543Y-129321358D01*
X134210187Y-129288822D01*
X134215129Y-129285105D01*
X134225338Y-129280269D01*
X134240764Y-129276506D01*
X134263886Y-129273683D01*
X134297183Y-129271670D01*
X134343137Y-129270333D01*
X134404228Y-129269542D01*
X134482935Y-129269163D01*
X134581740Y-129269067D01*
X134601767Y-129269068D01*
G37*
X133925734Y-129291645D02*
X133931366Y-129297835D01*
X133936456Y-129306041D01*
X133940543Y-129317817D01*
X133943721Y-129335276D01*
X133946087Y-129360530D01*
X133947738Y-129395690D01*
X133948769Y-129442869D01*
X133949277Y-129504177D01*
X133949359Y-129581727D01*
X133949109Y-129677631D01*
X133948625Y-129794000D01*
X133948557Y-129808175D01*
X133947971Y-129869937D01*
X133946648Y-129913620D01*
X133944103Y-129943001D01*
X133939848Y-129961855D01*
X133933396Y-129973959D01*
X133924262Y-129983089D01*
X133890804Y-130000506D01*
X133855856Y-129997604D01*
X133824953Y-129973100D01*
X133815944Y-129959897D01*
X133808492Y-129941361D01*
X133804124Y-129915333D01*
X133802069Y-129876787D01*
X133801556Y-129820700D01*
X133801556Y-129698045D01*
X133304845Y-129698045D01*
X133304845Y-129832871D01*
X133304772Y-129868662D01*
X133304009Y-129914992D01*
X133301833Y-129945526D01*
X133297536Y-129964557D01*
X133290412Y-129976374D01*
X133279755Y-129985271D01*
X133247504Y-130000341D01*
X133212217Y-129997673D01*
X133181486Y-129973100D01*
X133176831Y-129966845D01*
X133170895Y-129956321D01*
X133166364Y-129942391D01*
X133163048Y-129922317D01*
X133160759Y-129893360D01*
X133159308Y-129852780D01*
X133158505Y-129797840D01*
X133158162Y-129725799D01*
X133158089Y-129633920D01*
X133158089Y-129324485D01*
X133185798Y-129296776D01*
X133217177Y-129274533D01*
X133250406Y-129271844D01*
X133282267Y-129291645D01*
X133290553Y-129301415D01*
X133297965Y-129317307D01*
X133302302Y-129341275D01*
X133304338Y-129378148D01*
X133304845Y-129432756D01*
X133304845Y-129551289D01*
X133801556Y-129551289D01*
X133801556Y-129435776D01*
X133801994Y-129384078D01*
X133803958Y-129349554D01*
X133808474Y-129326978D01*
X133816567Y-129311126D01*
X133829265Y-129296776D01*
X133860643Y-129274533D01*
X133893872Y-129271844D01*
X133925734Y-129291645D01*
G36*
X133925734Y-129291645D02*
G01*
X133931366Y-129297835D01*
X133936456Y-129306041D01*
X133940543Y-129317817D01*
X133943721Y-129335276D01*
X133946087Y-129360530D01*
X133947738Y-129395690D01*
X133948769Y-129442869D01*
X133949277Y-129504177D01*
X133949359Y-129581727D01*
X133949109Y-129677631D01*
X133948625Y-129794000D01*
X133948557Y-129808175D01*
X133947971Y-129869937D01*
X133946648Y-129913620D01*
X133944103Y-129943001D01*
X133939848Y-129961855D01*
X133933396Y-129973959D01*
X133924262Y-129983089D01*
X133890804Y-130000506D01*
X133855856Y-129997604D01*
X133824953Y-129973100D01*
X133815944Y-129959897D01*
X133808492Y-129941361D01*
X133804124Y-129915333D01*
X133802069Y-129876787D01*
X133801556Y-129820700D01*
X133801556Y-129698045D01*
X133304845Y-129698045D01*
X133304845Y-129832871D01*
X133304772Y-129868662D01*
X133304009Y-129914992D01*
X133301833Y-129945526D01*
X133297536Y-129964557D01*
X133290412Y-129976374D01*
X133279755Y-129985271D01*
X133247504Y-130000341D01*
X133212217Y-129997673D01*
X133181486Y-129973100D01*
X133176831Y-129966845D01*
X133170895Y-129956321D01*
X133166364Y-129942391D01*
X133163048Y-129922317D01*
X133160759Y-129893360D01*
X133159308Y-129852780D01*
X133158505Y-129797840D01*
X133158162Y-129725799D01*
X133158089Y-129633920D01*
X133158089Y-129324485D01*
X133185798Y-129296776D01*
X133217177Y-129274533D01*
X133250406Y-129271844D01*
X133282267Y-129291645D01*
X133290553Y-129301415D01*
X133297965Y-129317307D01*
X133302302Y-129341275D01*
X133304338Y-129378148D01*
X133304845Y-129432756D01*
X133304845Y-129551289D01*
X133801556Y-129551289D01*
X133801556Y-129435776D01*
X133801994Y-129384078D01*
X133803958Y-129349554D01*
X133808474Y-129326978D01*
X133816567Y-129311126D01*
X133829265Y-129296776D01*
X133860643Y-129274533D01*
X133893872Y-129271844D01*
X133925734Y-129291645D01*
G37*
X138631133Y-129880396D02*
X138629163Y-129913175D01*
X138626235Y-129936095D01*
X138622158Y-129951897D01*
X138616743Y-129963319D01*
X138609803Y-129973100D01*
X138586406Y-130002845D01*
X138420714Y-130002251D01*
X138385918Y-130001953D01*
X138287435Y-129998522D01*
X138206473Y-129990839D01*
X138139379Y-129978282D01*
X138082496Y-129960227D01*
X138032169Y-129936052D01*
X138028810Y-129934135D01*
X137970998Y-129897417D01*
X137928644Y-129860451D01*
X137895828Y-129816966D01*
X137866628Y-129760689D01*
X137862346Y-129751073D01*
X137839769Y-129687887D01*
X137834034Y-129642333D01*
X137983279Y-129642333D01*
X137988892Y-129667061D01*
X137994618Y-129682939D01*
X138027548Y-129742847D01*
X138074886Y-129788600D01*
X138138652Y-129821736D01*
X138220861Y-129843790D01*
X138223655Y-129844292D01*
X138269940Y-129850255D01*
X138326336Y-129854483D01*
X138381274Y-129856089D01*
X138475156Y-129856089D01*
X138475156Y-129415822D01*
X138387667Y-129416270D01*
X138320747Y-129418746D01*
X138228349Y-129429998D01*
X138149034Y-129449537D01*
X138087060Y-129476511D01*
X138056120Y-129497240D01*
X138028000Y-129527006D01*
X138004660Y-129569434D01*
X137997533Y-129585400D01*
X137985709Y-129617902D01*
X137983279Y-129642333D01*
X137834034Y-129642333D01*
X137832797Y-129632509D01*
X137841399Y-129577483D01*
X137865541Y-129515351D01*
X137866337Y-129513658D01*
X137906788Y-129444236D01*
X137957473Y-129387638D01*
X138020198Y-129343070D01*
X138096774Y-129309741D01*
X138189009Y-129286861D01*
X138298712Y-129273636D01*
X138427691Y-129269275D01*
X138431263Y-129269270D01*
X138491283Y-129269410D01*
X138533214Y-129270446D01*
X138561328Y-129273040D01*
X138579897Y-129277853D01*
X138593194Y-129285544D01*
X138605491Y-129296776D01*
X138633200Y-129324485D01*
X138633200Y-129633920D01*
X138633175Y-129695526D01*
X138632950Y-129774311D01*
X138632332Y-129835021D01*
X138631775Y-129856089D01*
X138631133Y-129880396D01*
G36*
X138631133Y-129880396D02*
G01*
X138629163Y-129913175D01*
X138626235Y-129936095D01*
X138622158Y-129951897D01*
X138616743Y-129963319D01*
X138609803Y-129973100D01*
X138586406Y-130002845D01*
X138420714Y-130002251D01*
X138385918Y-130001953D01*
X138287435Y-129998522D01*
X138206473Y-129990839D01*
X138139379Y-129978282D01*
X138082496Y-129960227D01*
X138032169Y-129936052D01*
X138028810Y-129934135D01*
X137970998Y-129897417D01*
X137928644Y-129860451D01*
X137895828Y-129816966D01*
X137866628Y-129760689D01*
X137862346Y-129751073D01*
X137839769Y-129687887D01*
X137834034Y-129642333D01*
X137983279Y-129642333D01*
X137988892Y-129667061D01*
X137994618Y-129682939D01*
X138027548Y-129742847D01*
X138074886Y-129788600D01*
X138138652Y-129821736D01*
X138220861Y-129843790D01*
X138223655Y-129844292D01*
X138269940Y-129850255D01*
X138326336Y-129854483D01*
X138381274Y-129856089D01*
X138475156Y-129856089D01*
X138475156Y-129415822D01*
X138387667Y-129416270D01*
X138320747Y-129418746D01*
X138228349Y-129429998D01*
X138149034Y-129449537D01*
X138087060Y-129476511D01*
X138056120Y-129497240D01*
X138028000Y-129527006D01*
X138004660Y-129569434D01*
X137997533Y-129585400D01*
X137985709Y-129617902D01*
X137983279Y-129642333D01*
X137834034Y-129642333D01*
X137832797Y-129632509D01*
X137841399Y-129577483D01*
X137865541Y-129515351D01*
X137866337Y-129513658D01*
X137906788Y-129444236D01*
X137957473Y-129387638D01*
X138020198Y-129343070D01*
X138096774Y-129309741D01*
X138189009Y-129286861D01*
X138298712Y-129273636D01*
X138427691Y-129269275D01*
X138431263Y-129269270D01*
X138491283Y-129269410D01*
X138533214Y-129270446D01*
X138561328Y-129273040D01*
X138579897Y-129277853D01*
X138593194Y-129285544D01*
X138605491Y-129296776D01*
X138633200Y-129324485D01*
X138633200Y-129633920D01*
X138633175Y-129695526D01*
X138632950Y-129774311D01*
X138632332Y-129835021D01*
X138631775Y-129856089D01*
X138631133Y-129880396D01*
G37*
X145722817Y-129454427D02*
X145722870Y-129535041D01*
X145722622Y-129635956D01*
X145722583Y-129711617D01*
X145722328Y-129789526D01*
X145721684Y-129849536D01*
X145720480Y-129894264D01*
X145718543Y-129926326D01*
X145715703Y-129948340D01*
X145711788Y-129962924D01*
X145706626Y-129972694D01*
X145700045Y-129980267D01*
X145693077Y-129986501D01*
X145680079Y-129993801D01*
X145660931Y-129998554D01*
X145631528Y-130001292D01*
X145587762Y-130002545D01*
X145525528Y-130002845D01*
X145476582Y-130002469D01*
X145369722Y-129998041D01*
X145280494Y-129987953D01*
X145205696Y-129971365D01*
X145142125Y-129947435D01*
X145086579Y-129915321D01*
X145035854Y-129874182D01*
X145029866Y-129868330D01*
X144992999Y-129819821D01*
X144961899Y-129759013D01*
X144940417Y-129694769D01*
X144935136Y-129656026D01*
X145082353Y-129656026D01*
X145100635Y-129706961D01*
X145130305Y-129752878D01*
X145177002Y-129795287D01*
X145238392Y-129825090D01*
X145317538Y-129844226D01*
X145319028Y-129844464D01*
X145367999Y-129850256D01*
X145426693Y-129854396D01*
X145482734Y-129856004D01*
X145575867Y-129856089D01*
X145575867Y-129415822D01*
X145499667Y-129415808D01*
X145496639Y-129415817D01*
X145445519Y-129417782D01*
X145385416Y-129422507D01*
X145328708Y-129429035D01*
X145278750Y-129438331D01*
X145203998Y-129464600D01*
X145146489Y-129503899D01*
X145104988Y-129556933D01*
X145083771Y-129608200D01*
X145082353Y-129656026D01*
X144935136Y-129656026D01*
X144932400Y-129635956D01*
X144933679Y-129614739D01*
X144945991Y-129557323D01*
X144968520Y-129497413D01*
X144997750Y-129443363D01*
X145030167Y-129403532D01*
X145049708Y-129386510D01*
X145104420Y-129347322D01*
X145164723Y-129317193D01*
X145233919Y-129295232D01*
X145315311Y-129280550D01*
X145412200Y-129272259D01*
X145527889Y-129269467D01*
X145567371Y-129269066D01*
X145613082Y-129268653D01*
X145648883Y-129270457D01*
X145675974Y-129276739D01*
X145695556Y-129289759D01*
X145708830Y-129311778D01*
X145716998Y-129345055D01*
X145721260Y-129391851D01*
X145721857Y-129415822D01*
X145722817Y-129454427D01*
G36*
X145722817Y-129454427D02*
G01*
X145722870Y-129535041D01*
X145722622Y-129635956D01*
X145722583Y-129711617D01*
X145722328Y-129789526D01*
X145721684Y-129849536D01*
X145720480Y-129894264D01*
X145718543Y-129926326D01*
X145715703Y-129948340D01*
X145711788Y-129962924D01*
X145706626Y-129972694D01*
X145700045Y-129980267D01*
X145693077Y-129986501D01*
X145680079Y-129993801D01*
X145660931Y-129998554D01*
X145631528Y-130001292D01*
X145587762Y-130002545D01*
X145525528Y-130002845D01*
X145476582Y-130002469D01*
X145369722Y-129998041D01*
X145280494Y-129987953D01*
X145205696Y-129971365D01*
X145142125Y-129947435D01*
X145086579Y-129915321D01*
X145035854Y-129874182D01*
X145029866Y-129868330D01*
X144992999Y-129819821D01*
X144961899Y-129759013D01*
X144940417Y-129694769D01*
X144935136Y-129656026D01*
X145082353Y-129656026D01*
X145100635Y-129706961D01*
X145130305Y-129752878D01*
X145177002Y-129795287D01*
X145238392Y-129825090D01*
X145317538Y-129844226D01*
X145319028Y-129844464D01*
X145367999Y-129850256D01*
X145426693Y-129854396D01*
X145482734Y-129856004D01*
X145575867Y-129856089D01*
X145575867Y-129415822D01*
X145499667Y-129415808D01*
X145496639Y-129415817D01*
X145445519Y-129417782D01*
X145385416Y-129422507D01*
X145328708Y-129429035D01*
X145278750Y-129438331D01*
X145203998Y-129464600D01*
X145146489Y-129503899D01*
X145104988Y-129556933D01*
X145083771Y-129608200D01*
X145082353Y-129656026D01*
X144935136Y-129656026D01*
X144932400Y-129635956D01*
X144933679Y-129614739D01*
X144945991Y-129557323D01*
X144968520Y-129497413D01*
X144997750Y-129443363D01*
X145030167Y-129403532D01*
X145049708Y-129386510D01*
X145104420Y-129347322D01*
X145164723Y-129317193D01*
X145233919Y-129295232D01*
X145315311Y-129280550D01*
X145412200Y-129272259D01*
X145527889Y-129269467D01*
X145567371Y-129269066D01*
X145613082Y-129268653D01*
X145648883Y-129270457D01*
X145675974Y-129276739D01*
X145695556Y-129289759D01*
X145708830Y-129311778D01*
X145716998Y-129345055D01*
X145721260Y-129391851D01*
X145721857Y-129415822D01*
X145722817Y-129454427D01*
G37*
X140777893Y-129267892D02*
X140789301Y-129274029D01*
X140799850Y-129284691D01*
X140811136Y-129298811D01*
X140815589Y-129304772D01*
X140821588Y-129315268D01*
X140826167Y-129329093D01*
X140829519Y-129348998D01*
X140831833Y-129377732D01*
X140833301Y-129418045D01*
X140834113Y-129472687D01*
X140834460Y-129544407D01*
X140834534Y-129635956D01*
X140834511Y-129694486D01*
X140834292Y-129773573D01*
X140833683Y-129834516D01*
X140832492Y-129880062D01*
X140830529Y-129912963D01*
X140827603Y-129935968D01*
X140823523Y-129951826D01*
X140818097Y-129963286D01*
X140811136Y-129973100D01*
X140780708Y-129997493D01*
X140745765Y-130000372D01*
X140708784Y-129981282D01*
X140704600Y-129977807D01*
X140696424Y-129969279D01*
X140690364Y-129957728D01*
X140685981Y-129939896D01*
X140682839Y-129912524D01*
X140680502Y-129872354D01*
X140678531Y-129816128D01*
X140676489Y-129740589D01*
X140670845Y-129521458D01*
X140405556Y-129762099D01*
X140331722Y-129828875D01*
X140266542Y-129886991D01*
X140214348Y-129931949D01*
X140173273Y-129964871D01*
X140141455Y-129986879D01*
X140117026Y-129999094D01*
X140098124Y-130002639D01*
X140082883Y-129998636D01*
X140069439Y-129988207D01*
X140055927Y-129972474D01*
X140049682Y-129963991D01*
X140044050Y-129953413D01*
X140039839Y-129939255D01*
X140036887Y-129918803D01*
X140035032Y-129889342D01*
X140034113Y-129848161D01*
X140033968Y-129792544D01*
X140034435Y-129719779D01*
X140035352Y-129627151D01*
X140038667Y-129312199D01*
X140065318Y-129290633D01*
X140091383Y-129274441D01*
X140124241Y-129271670D01*
X140158772Y-129290623D01*
X140163084Y-129294208D01*
X140171216Y-129302737D01*
X140177245Y-129314329D01*
X140181606Y-129332235D01*
X140184734Y-129359706D01*
X140187063Y-129399994D01*
X140189029Y-129456351D01*
X140191067Y-129532029D01*
X140196711Y-129751878D01*
X140377334Y-129588084D01*
X140464072Y-129509451D01*
X140539843Y-129441058D01*
X140601980Y-129385708D01*
X140652078Y-129342338D01*
X140691735Y-129309881D01*
X140722548Y-129287273D01*
X140746114Y-129273448D01*
X140764030Y-129267343D01*
X140777893Y-129267892D01*
G36*
X140777893Y-129267892D02*
G01*
X140789301Y-129274029D01*
X140799850Y-129284691D01*
X140811136Y-129298811D01*
X140815589Y-129304772D01*
X140821588Y-129315268D01*
X140826167Y-129329093D01*
X140829519Y-129348998D01*
X140831833Y-129377732D01*
X140833301Y-129418045D01*
X140834113Y-129472687D01*
X140834460Y-129544407D01*
X140834534Y-129635956D01*
X140834511Y-129694486D01*
X140834292Y-129773573D01*
X140833683Y-129834516D01*
X140832492Y-129880062D01*
X140830529Y-129912963D01*
X140827603Y-129935968D01*
X140823523Y-129951826D01*
X140818097Y-129963286D01*
X140811136Y-129973100D01*
X140780708Y-129997493D01*
X140745765Y-130000372D01*
X140708784Y-129981282D01*
X140704600Y-129977807D01*
X140696424Y-129969279D01*
X140690364Y-129957728D01*
X140685981Y-129939896D01*
X140682839Y-129912524D01*
X140680502Y-129872354D01*
X140678531Y-129816128D01*
X140676489Y-129740589D01*
X140670845Y-129521458D01*
X140405556Y-129762099D01*
X140331722Y-129828875D01*
X140266542Y-129886991D01*
X140214348Y-129931949D01*
X140173273Y-129964871D01*
X140141455Y-129986879D01*
X140117026Y-129999094D01*
X140098124Y-130002639D01*
X140082883Y-129998636D01*
X140069439Y-129988207D01*
X140055927Y-129972474D01*
X140049682Y-129963991D01*
X140044050Y-129953413D01*
X140039839Y-129939255D01*
X140036887Y-129918803D01*
X140035032Y-129889342D01*
X140034113Y-129848161D01*
X140033968Y-129792544D01*
X140034435Y-129719779D01*
X140035352Y-129627151D01*
X140038667Y-129312199D01*
X140065318Y-129290633D01*
X140091383Y-129274441D01*
X140124241Y-129271670D01*
X140158772Y-129290623D01*
X140163084Y-129294208D01*
X140171216Y-129302737D01*
X140177245Y-129314329D01*
X140181606Y-129332235D01*
X140184734Y-129359706D01*
X140187063Y-129399994D01*
X140189029Y-129456351D01*
X140191067Y-129532029D01*
X140196711Y-129751878D01*
X140377334Y-129588084D01*
X140464072Y-129509451D01*
X140539843Y-129441058D01*
X140601980Y-129385708D01*
X140652078Y-129342338D01*
X140691735Y-129309881D01*
X140722548Y-129287273D01*
X140746114Y-129273448D01*
X140764030Y-129267343D01*
X140777893Y-129267892D01*
G37*
X141575150Y-129274179D02*
X141681157Y-129290494D01*
X141774969Y-129318545D01*
X141853765Y-129357452D01*
X141914719Y-129406334D01*
X141940789Y-129439195D01*
X141970297Y-129488394D01*
X141995568Y-129542252D01*
X142013218Y-129593419D01*
X142019858Y-129634544D01*
X142018298Y-129654259D01*
X142005357Y-129705592D01*
X141982194Y-129762118D01*
X141952302Y-129816035D01*
X141919173Y-129859539D01*
X141908977Y-129869887D01*
X141841892Y-129921662D01*
X141761766Y-129961554D01*
X141675556Y-129985956D01*
X141620592Y-129994068D01*
X141527139Y-130000673D01*
X141437358Y-129998586D01*
X141354869Y-129988340D01*
X141283286Y-129970470D01*
X141226228Y-129945508D01*
X141187311Y-129913988D01*
X141185936Y-129912012D01*
X141178848Y-129886786D01*
X141174609Y-129839535D01*
X141173200Y-129770071D01*
X141174060Y-129707838D01*
X141178780Y-129660456D01*
X141190470Y-129628353D01*
X141212239Y-129608800D01*
X141247198Y-129599070D01*
X141298456Y-129596433D01*
X141369123Y-129598161D01*
X141417743Y-129601173D01*
X141467939Y-129609366D01*
X141500433Y-129623419D01*
X141517892Y-129644654D01*
X141522983Y-129674394D01*
X141522877Y-129678936D01*
X141514175Y-129713730D01*
X141490165Y-129737147D01*
X141448900Y-129750347D01*
X141388431Y-129754489D01*
X141319956Y-129754489D01*
X141319956Y-129792841D01*
X141320006Y-129801976D01*
X141322227Y-129819227D01*
X141331494Y-129829521D01*
X141352875Y-129836459D01*
X141391436Y-129843641D01*
X141396910Y-129844575D01*
X141493860Y-129854478D01*
X141583852Y-129851559D01*
X141664760Y-129836829D01*
X141734459Y-129811299D01*
X141790824Y-129775978D01*
X141831729Y-129731879D01*
X141855051Y-129680012D01*
X141858663Y-129621388D01*
X141853145Y-129592494D01*
X141826461Y-129536604D01*
X141780273Y-129490945D01*
X141715291Y-129456108D01*
X141632229Y-129432690D01*
X141607555Y-129428241D01*
X141518226Y-129417742D01*
X141438419Y-129418971D01*
X141360326Y-129431906D01*
X141325183Y-129438696D01*
X141279745Y-129439713D01*
X141248430Y-129427182D01*
X141228277Y-129400395D01*
X141221893Y-129372148D01*
X141231379Y-129340924D01*
X141240708Y-129327499D01*
X141274943Y-129303967D01*
X141327565Y-129286095D01*
X141396081Y-129274599D01*
X141478000Y-129270192D01*
X141575150Y-129274179D01*
G36*
X141575150Y-129274179D02*
G01*
X141681157Y-129290494D01*
X141774969Y-129318545D01*
X141853765Y-129357452D01*
X141914719Y-129406334D01*
X141940789Y-129439195D01*
X141970297Y-129488394D01*
X141995568Y-129542252D01*
X142013218Y-129593419D01*
X142019858Y-129634544D01*
X142018298Y-129654259D01*
X142005357Y-129705592D01*
X141982194Y-129762118D01*
X141952302Y-129816035D01*
X141919173Y-129859539D01*
X141908977Y-129869887D01*
X141841892Y-129921662D01*
X141761766Y-129961554D01*
X141675556Y-129985956D01*
X141620592Y-129994068D01*
X141527139Y-130000673D01*
X141437358Y-129998586D01*
X141354869Y-129988340D01*
X141283286Y-129970470D01*
X141226228Y-129945508D01*
X141187311Y-129913988D01*
X141185936Y-129912012D01*
X141178848Y-129886786D01*
X141174609Y-129839535D01*
X141173200Y-129770071D01*
X141174060Y-129707838D01*
X141178780Y-129660456D01*
X141190470Y-129628353D01*
X141212239Y-129608800D01*
X141247198Y-129599070D01*
X141298456Y-129596433D01*
X141369123Y-129598161D01*
X141417743Y-129601173D01*
X141467939Y-129609366D01*
X141500433Y-129623419D01*
X141517892Y-129644654D01*
X141522983Y-129674394D01*
X141522877Y-129678936D01*
X141514175Y-129713730D01*
X141490165Y-129737147D01*
X141448900Y-129750347D01*
X141388431Y-129754489D01*
X141319956Y-129754489D01*
X141319956Y-129792841D01*
X141320006Y-129801976D01*
X141322227Y-129819227D01*
X141331494Y-129829521D01*
X141352875Y-129836459D01*
X141391436Y-129843641D01*
X141396910Y-129844575D01*
X141493860Y-129854478D01*
X141583852Y-129851559D01*
X141664760Y-129836829D01*
X141734459Y-129811299D01*
X141790824Y-129775978D01*
X141831729Y-129731879D01*
X141855051Y-129680012D01*
X141858663Y-129621388D01*
X141853145Y-129592494D01*
X141826461Y-129536604D01*
X141780273Y-129490945D01*
X141715291Y-129456108D01*
X141632229Y-129432690D01*
X141607555Y-129428241D01*
X141518226Y-129417742D01*
X141438419Y-129418971D01*
X141360326Y-129431906D01*
X141325183Y-129438696D01*
X141279745Y-129439713D01*
X141248430Y-129427182D01*
X141228277Y-129400395D01*
X141221893Y-129372148D01*
X141231379Y-129340924D01*
X141240708Y-129327499D01*
X141274943Y-129303967D01*
X141327565Y-129286095D01*
X141396081Y-129274599D01*
X141478000Y-129270192D01*
X141575150Y-129274179D01*
G37*
X139625803Y-129298811D02*
X139630752Y-129305495D01*
X139636596Y-129316066D01*
X139641057Y-129330153D01*
X139644321Y-129350478D01*
X139646574Y-129379765D01*
X139648002Y-129420737D01*
X139648792Y-129476117D01*
X139649129Y-129548628D01*
X139649200Y-129640994D01*
X139649171Y-129706911D01*
X139648939Y-129785228D01*
X139648319Y-129845496D01*
X139647126Y-129890393D01*
X139645179Y-129922602D01*
X139642294Y-129944800D01*
X139638288Y-129959669D01*
X139632979Y-129969889D01*
X139626183Y-129978138D01*
X139621668Y-129982795D01*
X139613438Y-129989282D01*
X139602078Y-129994194D01*
X139584810Y-129997749D01*
X139558855Y-130000167D01*
X139521436Y-130001667D01*
X139469773Y-130002467D01*
X139401089Y-130002787D01*
X139312606Y-130002845D01*
X139292931Y-130002838D01*
X139205906Y-130002572D01*
X139138254Y-130001806D01*
X139087299Y-130000392D01*
X139050367Y-129998180D01*
X139024783Y-129995022D01*
X139007871Y-129990769D01*
X138996957Y-129985271D01*
X138986464Y-129975285D01*
X138973203Y-129944168D01*
X138974386Y-129908280D01*
X138990550Y-129876733D01*
X138992739Y-129874457D01*
X139001427Y-129868189D01*
X139014769Y-129863523D01*
X139035752Y-129860227D01*
X139067363Y-129858068D01*
X139112590Y-129856814D01*
X139174420Y-129856231D01*
X139255839Y-129856089D01*
X139502445Y-129856089D01*
X139502445Y-129698045D01*
X139340006Y-129698045D01*
X139304338Y-129697964D01*
X139248568Y-129697167D01*
X139209430Y-129695162D01*
X139182976Y-129691521D01*
X139165259Y-129685812D01*
X139152329Y-129677607D01*
X139148686Y-129674423D01*
X139130278Y-129643448D01*
X139129644Y-129607112D01*
X139147183Y-129573493D01*
X139147245Y-129573424D01*
X139156916Y-129564798D01*
X139170209Y-129558742D01*
X139190917Y-129554811D01*
X139222828Y-129552556D01*
X139269734Y-129551531D01*
X139335424Y-129551289D01*
X139503571Y-129551289D01*
X139500186Y-129486378D01*
X139496800Y-129421467D01*
X139254723Y-129418414D01*
X139229707Y-129418086D01*
X139148087Y-129416606D01*
X139085768Y-129414222D01*
X139040154Y-129410227D01*
X139008652Y-129403913D01*
X138988667Y-129394574D01*
X138977604Y-129381503D01*
X138972869Y-129363992D01*
X138971867Y-129341335D01*
X138971873Y-129338970D01*
X138973027Y-129318939D01*
X138977824Y-129303146D01*
X138988632Y-129291090D01*
X139007817Y-129282267D01*
X139037745Y-129276175D01*
X139080783Y-129272311D01*
X139139299Y-129270174D01*
X139215657Y-129269260D01*
X139312226Y-129269067D01*
X139602406Y-129269067D01*
X139625803Y-129298811D01*
G36*
X139625803Y-129298811D02*
G01*
X139630752Y-129305495D01*
X139636596Y-129316066D01*
X139641057Y-129330153D01*
X139644321Y-129350478D01*
X139646574Y-129379765D01*
X139648002Y-129420737D01*
X139648792Y-129476117D01*
X139649129Y-129548628D01*
X139649200Y-129640994D01*
X139649171Y-129706911D01*
X139648939Y-129785228D01*
X139648319Y-129845496D01*
X139647126Y-129890393D01*
X139645179Y-129922602D01*
X139642294Y-129944800D01*
X139638288Y-129959669D01*
X139632979Y-129969889D01*
X139626183Y-129978138D01*
X139621668Y-129982795D01*
X139613438Y-129989282D01*
X139602078Y-129994194D01*
X139584810Y-129997749D01*
X139558855Y-130000167D01*
X139521436Y-130001667D01*
X139469773Y-130002467D01*
X139401089Y-130002787D01*
X139312606Y-130002845D01*
X139292931Y-130002838D01*
X139205906Y-130002572D01*
X139138254Y-130001806D01*
X139087299Y-130000392D01*
X139050367Y-129998180D01*
X139024783Y-129995022D01*
X139007871Y-129990769D01*
X138996957Y-129985271D01*
X138986464Y-129975285D01*
X138973203Y-129944168D01*
X138974386Y-129908280D01*
X138990550Y-129876733D01*
X138992739Y-129874457D01*
X139001427Y-129868189D01*
X139014769Y-129863523D01*
X139035752Y-129860227D01*
X139067363Y-129858068D01*
X139112590Y-129856814D01*
X139174420Y-129856231D01*
X139255839Y-129856089D01*
X139502445Y-129856089D01*
X139502445Y-129698045D01*
X139340006Y-129698045D01*
X139304338Y-129697964D01*
X139248568Y-129697167D01*
X139209430Y-129695162D01*
X139182976Y-129691521D01*
X139165259Y-129685812D01*
X139152329Y-129677607D01*
X139148686Y-129674423D01*
X139130278Y-129643448D01*
X139129644Y-129607112D01*
X139147183Y-129573493D01*
X139147245Y-129573424D01*
X139156916Y-129564798D01*
X139170209Y-129558742D01*
X139190917Y-129554811D01*
X139222828Y-129552556D01*
X139269734Y-129551531D01*
X139335424Y-129551289D01*
X139503571Y-129551289D01*
X139500186Y-129486378D01*
X139496800Y-129421467D01*
X139254723Y-129418414D01*
X139229707Y-129418086D01*
X139148087Y-129416606D01*
X139085768Y-129414222D01*
X139040154Y-129410227D01*
X139008652Y-129403913D01*
X138988667Y-129394574D01*
X138977604Y-129381503D01*
X138972869Y-129363992D01*
X138971867Y-129341335D01*
X138971873Y-129338970D01*
X138973027Y-129318939D01*
X138977824Y-129303146D01*
X138988632Y-129291090D01*
X139007817Y-129282267D01*
X139037745Y-129276175D01*
X139080783Y-129272311D01*
X139139299Y-129270174D01*
X139215657Y-129269260D01*
X139312226Y-129269067D01*
X139602406Y-129269067D01*
X139625803Y-129298811D01*
G37*
X144302734Y-129269083D02*
X144379831Y-129269275D01*
X144438777Y-129269860D01*
X144482364Y-129271051D01*
X144513383Y-129273064D01*
X144534625Y-129276112D01*
X144548882Y-129280409D01*
X144558945Y-129286172D01*
X144567606Y-129293612D01*
X144569391Y-129295293D01*
X144576635Y-129302832D01*
X144582277Y-129311850D01*
X144586517Y-129324984D01*
X144589556Y-129344872D01*
X144591594Y-129374151D01*
X144592830Y-129415458D01*
X144593465Y-129471431D01*
X144593700Y-129544707D01*
X144593734Y-129637923D01*
X144593697Y-129710713D01*
X144593448Y-129788889D01*
X144592812Y-129849103D01*
X144591615Y-129893982D01*
X144589684Y-129926152D01*
X144586846Y-129948239D01*
X144582927Y-129962870D01*
X144577755Y-129972670D01*
X144571156Y-129980267D01*
X144567822Y-129983444D01*
X144559300Y-129989554D01*
X144547298Y-129994229D01*
X144529087Y-129997659D01*
X144501940Y-130000036D01*
X144463129Y-130001552D01*
X144409924Y-130002398D01*
X144339598Y-130002765D01*
X144249422Y-130002845D01*
X144207314Y-130002833D01*
X144126167Y-130002651D01*
X144063675Y-130002098D01*
X144017109Y-130000982D01*
X143983741Y-129999113D01*
X143960844Y-129996298D01*
X143945688Y-129992346D01*
X143935546Y-129987066D01*
X143927689Y-129980267D01*
X143912963Y-129958667D01*
X143905111Y-129929467D01*
X143910610Y-129905560D01*
X143927689Y-129878667D01*
X143932668Y-129874059D01*
X143942443Y-129867772D01*
X143956559Y-129863146D01*
X143978054Y-129859930D01*
X144009968Y-129857870D01*
X144055342Y-129856712D01*
X144117213Y-129856202D01*
X144198622Y-129856089D01*
X144446978Y-129856089D01*
X144446978Y-129698045D01*
X144285801Y-129698045D01*
X144249983Y-129697899D01*
X144184359Y-129696176D01*
X144137118Y-129691741D01*
X144105383Y-129683637D01*
X144086277Y-129670906D01*
X144076923Y-129652592D01*
X144074445Y-129627738D01*
X144075242Y-129607482D01*
X144080494Y-129585656D01*
X144093288Y-129570304D01*
X144116628Y-129560309D01*
X144153517Y-129554553D01*
X144206959Y-129551919D01*
X144279958Y-129551289D01*
X144448105Y-129551289D01*
X144444719Y-129486378D01*
X144441334Y-129421467D01*
X144193617Y-129418418D01*
X144131026Y-129417539D01*
X144062565Y-129416095D01*
X144011661Y-129414164D01*
X143975408Y-129411514D01*
X143950901Y-129407910D01*
X143935235Y-129403121D01*
X143925506Y-129396913D01*
X143919491Y-129390510D01*
X143906482Y-129358828D01*
X143910043Y-129323142D01*
X143929818Y-129292084D01*
X143933069Y-129289161D01*
X143942049Y-129282810D01*
X143954153Y-129277957D01*
X143972159Y-129274403D01*
X143998847Y-129271946D01*
X144036997Y-129270385D01*
X144089386Y-129269518D01*
X144158794Y-129269146D01*
X144248001Y-129269067D01*
X144302734Y-129269083D01*
G36*
X144302734Y-129269083D02*
G01*
X144379831Y-129269275D01*
X144438777Y-129269860D01*
X144482364Y-129271051D01*
X144513383Y-129273064D01*
X144534625Y-129276112D01*
X144548882Y-129280409D01*
X144558945Y-129286172D01*
X144567606Y-129293612D01*
X144569391Y-129295293D01*
X144576635Y-129302832D01*
X144582277Y-129311850D01*
X144586517Y-129324984D01*
X144589556Y-129344872D01*
X144591594Y-129374151D01*
X144592830Y-129415458D01*
X144593465Y-129471431D01*
X144593700Y-129544707D01*
X144593734Y-129637923D01*
X144593697Y-129710713D01*
X144593448Y-129788889D01*
X144592812Y-129849103D01*
X144591615Y-129893982D01*
X144589684Y-129926152D01*
X144586846Y-129948239D01*
X144582927Y-129962870D01*
X144577755Y-129972670D01*
X144571156Y-129980267D01*
X144567822Y-129983444D01*
X144559300Y-129989554D01*
X144547298Y-129994229D01*
X144529087Y-129997659D01*
X144501940Y-130000036D01*
X144463129Y-130001552D01*
X144409924Y-130002398D01*
X144339598Y-130002765D01*
X144249422Y-130002845D01*
X144207314Y-130002833D01*
X144126167Y-130002651D01*
X144063675Y-130002098D01*
X144017109Y-130000982D01*
X143983741Y-129999113D01*
X143960844Y-129996298D01*
X143945688Y-129992346D01*
X143935546Y-129987066D01*
X143927689Y-129980267D01*
X143912963Y-129958667D01*
X143905111Y-129929467D01*
X143910610Y-129905560D01*
X143927689Y-129878667D01*
X143932668Y-129874059D01*
X143942443Y-129867772D01*
X143956559Y-129863146D01*
X143978054Y-129859930D01*
X144009968Y-129857870D01*
X144055342Y-129856712D01*
X144117213Y-129856202D01*
X144198622Y-129856089D01*
X144446978Y-129856089D01*
X144446978Y-129698045D01*
X144285801Y-129698045D01*
X144249983Y-129697899D01*
X144184359Y-129696176D01*
X144137118Y-129691741D01*
X144105383Y-129683637D01*
X144086277Y-129670906D01*
X144076923Y-129652592D01*
X144074445Y-129627738D01*
X144075242Y-129607482D01*
X144080494Y-129585656D01*
X144093288Y-129570304D01*
X144116628Y-129560309D01*
X144153517Y-129554553D01*
X144206959Y-129551919D01*
X144279958Y-129551289D01*
X144448105Y-129551289D01*
X144444719Y-129486378D01*
X144441334Y-129421467D01*
X144193617Y-129418418D01*
X144131026Y-129417539D01*
X144062565Y-129416095D01*
X144011661Y-129414164D01*
X143975408Y-129411514D01*
X143950901Y-129407910D01*
X143935235Y-129403121D01*
X143925506Y-129396913D01*
X143919491Y-129390510D01*
X143906482Y-129358828D01*
X143910043Y-129323142D01*
X143929818Y-129292084D01*
X143933069Y-129289161D01*
X143942049Y-129282810D01*
X143954153Y-129277957D01*
X143972159Y-129274403D01*
X143998847Y-129271946D01*
X144036997Y-129270385D01*
X144089386Y-129269518D01*
X144158794Y-129269146D01*
X144248001Y-129269067D01*
X144302734Y-129269083D01*
G37*
X135735702Y-129278478D02*
X135753663Y-129296989D01*
X135774263Y-129328071D01*
X135799095Y-129373756D01*
X135829750Y-129436078D01*
X135867820Y-129517071D01*
X135882454Y-129548454D01*
X135912203Y-129611638D01*
X135938297Y-129666244D01*
X135959292Y-129709290D01*
X135973739Y-129737793D01*
X135980191Y-129748770D01*
X135981550Y-129748189D01*
X135991542Y-129734242D01*
X136008833Y-129704704D01*
X136031430Y-129663087D01*
X136057338Y-129612903D01*
X136073311Y-129581414D01*
X136102261Y-129526061D01*
X136124749Y-129487044D01*
X136142965Y-129461566D01*
X136159096Y-129446831D01*
X136175330Y-129440042D01*
X136193857Y-129438400D01*
X136204360Y-129438875D01*
X136220476Y-129443082D01*
X136235790Y-129453946D01*
X136252388Y-129474219D01*
X136272357Y-129506654D01*
X136297783Y-129554004D01*
X136330752Y-129619022D01*
X136340485Y-129638277D01*
X136364943Y-129684946D01*
X136385178Y-129721109D01*
X136399311Y-129743497D01*
X136405460Y-129748845D01*
X136406827Y-129745573D01*
X136416202Y-129724664D01*
X136433062Y-129687725D01*
X136455979Y-129637874D01*
X136483520Y-129578226D01*
X136514255Y-129511898D01*
X136540970Y-129454677D01*
X136570593Y-129392688D01*
X136593664Y-129346949D01*
X136611643Y-129314908D01*
X136625990Y-129294014D01*
X136638166Y-129281718D01*
X136649632Y-129275466D01*
X136659042Y-129272574D01*
X136684147Y-129272425D01*
X136711290Y-129287768D01*
X136712590Y-129288753D01*
X136734674Y-129311388D01*
X136745723Y-129333613D01*
X136745769Y-129334253D01*
X136741228Y-129351915D01*
X136728364Y-129386481D01*
X136708605Y-129434826D01*
X136683381Y-129493825D01*
X136654119Y-129560355D01*
X136622250Y-129631291D01*
X136589201Y-129703507D01*
X136556401Y-129773880D01*
X136525280Y-129839285D01*
X136497265Y-129896597D01*
X136473786Y-129942692D01*
X136456272Y-129974446D01*
X136446151Y-129988733D01*
X136411743Y-130002102D01*
X136370046Y-129995741D01*
X136364681Y-129991044D01*
X136348852Y-129968893D01*
X136326650Y-129932132D01*
X136300233Y-129884415D01*
X136271760Y-129829393D01*
X136191986Y-129670150D01*
X136118799Y-129816742D01*
X136109103Y-129836032D01*
X136082125Y-129888380D01*
X136058096Y-129933170D01*
X136039332Y-129966154D01*
X136028146Y-129983089D01*
X136027000Y-129984332D01*
X135998879Y-129999619D01*
X135963817Y-130001302D01*
X135932776Y-129988733D01*
X135930350Y-129985884D01*
X135918090Y-129965259D01*
X135898352Y-129927708D01*
X135872448Y-129875880D01*
X135841685Y-129812423D01*
X135807375Y-129739985D01*
X135770825Y-129661216D01*
X135750585Y-129617093D01*
X135713812Y-129536365D01*
X135685355Y-129472687D01*
X135664331Y-129423752D01*
X135649854Y-129387257D01*
X135641039Y-129360895D01*
X135637004Y-129342361D01*
X135636862Y-129329352D01*
X135639730Y-129319561D01*
X135654387Y-129298678D01*
X135680990Y-129278377D01*
X135681745Y-129278035D01*
X135701335Y-129271034D01*
X135718790Y-129270504D01*
X135735702Y-129278478D01*
G36*
X135735702Y-129278478D02*
G01*
X135753663Y-129296989D01*
X135774263Y-129328071D01*
X135799095Y-129373756D01*
X135829750Y-129436078D01*
X135867820Y-129517071D01*
X135882454Y-129548454D01*
X135912203Y-129611638D01*
X135938297Y-129666244D01*
X135959292Y-129709290D01*
X135973739Y-129737793D01*
X135980191Y-129748770D01*
X135981550Y-129748189D01*
X135991542Y-129734242D01*
X136008833Y-129704704D01*
X136031430Y-129663087D01*
X136057338Y-129612903D01*
X136073311Y-129581414D01*
X136102261Y-129526061D01*
X136124749Y-129487044D01*
X136142965Y-129461566D01*
X136159096Y-129446831D01*
X136175330Y-129440042D01*
X136193857Y-129438400D01*
X136204360Y-129438875D01*
X136220476Y-129443082D01*
X136235790Y-129453946D01*
X136252388Y-129474219D01*
X136272357Y-129506654D01*
X136297783Y-129554004D01*
X136330752Y-129619022D01*
X136340485Y-129638277D01*
X136364943Y-129684946D01*
X136385178Y-129721109D01*
X136399311Y-129743497D01*
X136405460Y-129748845D01*
X136406827Y-129745573D01*
X136416202Y-129724664D01*
X136433062Y-129687725D01*
X136455979Y-129637874D01*
X136483520Y-129578226D01*
X136514255Y-129511898D01*
X136540970Y-129454677D01*
X136570593Y-129392688D01*
X136593664Y-129346949D01*
X136611643Y-129314908D01*
X136625990Y-129294014D01*
X136638166Y-129281718D01*
X136649632Y-129275466D01*
X136659042Y-129272574D01*
X136684147Y-129272425D01*
X136711290Y-129287768D01*
X136712590Y-129288753D01*
X136734674Y-129311388D01*
X136745723Y-129333613D01*
X136745769Y-129334253D01*
X136741228Y-129351915D01*
X136728364Y-129386481D01*
X136708605Y-129434826D01*
X136683381Y-129493825D01*
X136654119Y-129560355D01*
X136622250Y-129631291D01*
X136589201Y-129703507D01*
X136556401Y-129773880D01*
X136525280Y-129839285D01*
X136497265Y-129896597D01*
X136473786Y-129942692D01*
X136456272Y-129974446D01*
X136446151Y-129988733D01*
X136411743Y-130002102D01*
X136370046Y-129995741D01*
X136364681Y-129991044D01*
X136348852Y-129968893D01*
X136326650Y-129932132D01*
X136300233Y-129884415D01*
X136271760Y-129829393D01*
X136191986Y-129670150D01*
X136118799Y-129816742D01*
X136109103Y-129836032D01*
X136082125Y-129888380D01*
X136058096Y-129933170D01*
X136039332Y-129966154D01*
X136028146Y-129983089D01*
X136027000Y-129984332D01*
X135998879Y-129999619D01*
X135963817Y-130001302D01*
X135932776Y-129988733D01*
X135930350Y-129985884D01*
X135918090Y-129965259D01*
X135898352Y-129927708D01*
X135872448Y-129875880D01*
X135841685Y-129812423D01*
X135807375Y-129739985D01*
X135770825Y-129661216D01*
X135750585Y-129617093D01*
X135713812Y-129536365D01*
X135685355Y-129472687D01*
X135664331Y-129423752D01*
X135649854Y-129387257D01*
X135641039Y-129360895D01*
X135637004Y-129342361D01*
X135636862Y-129329352D01*
X135639730Y-129319561D01*
X135654387Y-129298678D01*
X135680990Y-129278377D01*
X135681745Y-129278035D01*
X135701335Y-129271034D01*
X135718790Y-129270504D01*
X135735702Y-129278478D01*
G37*
X143286853Y-129269936D02*
X143353100Y-129275366D01*
X143408400Y-129284964D01*
X143459283Y-129299825D01*
X143530595Y-129332958D01*
X143581752Y-129375640D01*
X143612575Y-129427705D01*
X143622889Y-129488983D01*
X143621952Y-129520232D01*
X143616160Y-129545029D01*
X143601353Y-129566699D01*
X143573380Y-129594049D01*
X143565402Y-129601378D01*
X143541692Y-129622281D01*
X143519298Y-129639251D01*
X143495265Y-129653205D01*
X143466637Y-129665056D01*
X143430460Y-129675720D01*
X143383780Y-129686111D01*
X143323641Y-129697146D01*
X143247090Y-129709738D01*
X143151171Y-129724804D01*
X143132808Y-129727838D01*
X143070478Y-129741458D01*
X143025260Y-129757192D01*
X142998976Y-129774263D01*
X142993447Y-129791897D01*
X142996068Y-129796168D01*
X143014000Y-129811233D01*
X143042126Y-129827867D01*
X143054926Y-129833857D01*
X143076224Y-129841050D01*
X143102610Y-129845827D01*
X143138454Y-129848646D01*
X143188128Y-129849964D01*
X143256000Y-129850237D01*
X143273785Y-129850164D01*
X143341406Y-129849053D01*
X143406345Y-129846828D01*
X143461970Y-129843762D01*
X143501651Y-129840127D01*
X143537162Y-129836059D01*
X143566415Y-129835276D01*
X143585315Y-129839876D01*
X143600429Y-129850551D01*
X143604085Y-129854144D01*
X143620427Y-129885918D01*
X143619107Y-129921572D01*
X143600150Y-129952190D01*
X143579780Y-129963796D01*
X143543796Y-129976491D01*
X143501372Y-129986541D01*
X143497922Y-129987140D01*
X143455252Y-129992356D01*
X143397866Y-129996730D01*
X143332849Y-129999818D01*
X143267289Y-130001177D01*
X143251057Y-130001218D01*
X143152744Y-129998741D01*
X143072692Y-129990735D01*
X143007513Y-129976203D01*
X142953817Y-129954149D01*
X142908216Y-129923576D01*
X142867323Y-129883486D01*
X142847202Y-129857259D01*
X142835576Y-129827712D01*
X142832667Y-129787995D01*
X142832808Y-129776026D01*
X142836681Y-129743345D01*
X142849065Y-129716819D01*
X142874230Y-129685971D01*
X142895442Y-129663831D01*
X142921838Y-129641285D01*
X142951555Y-129622917D01*
X142987785Y-129607661D01*
X143033717Y-129594449D01*
X143092544Y-129582214D01*
X143167456Y-129569889D01*
X143261645Y-129556406D01*
X143306957Y-129549396D01*
X143374911Y-129534837D01*
X143424047Y-129518337D01*
X143453614Y-129500439D01*
X143462864Y-129481685D01*
X143451048Y-129462615D01*
X143417416Y-129443771D01*
X143414370Y-129442557D01*
X143368011Y-129430479D01*
X143305361Y-129422279D01*
X143231927Y-129418119D01*
X143153217Y-129418161D01*
X143074739Y-129422569D01*
X143002000Y-129431505D01*
X142998073Y-129432154D01*
X142949257Y-129439861D01*
X142917005Y-129443473D01*
X142896008Y-129442876D01*
X142880954Y-129437954D01*
X142866534Y-129428596D01*
X142865364Y-129427725D01*
X142840847Y-129397351D01*
X142836054Y-129361850D01*
X142851860Y-129327269D01*
X142856406Y-129322813D01*
X142886020Y-129307673D01*
X142933002Y-129294550D01*
X142993306Y-129283750D01*
X143062888Y-129275581D01*
X143137703Y-129270351D01*
X143213706Y-129268367D01*
X143286853Y-129269936D01*
G36*
X143286853Y-129269936D02*
G01*
X143353100Y-129275366D01*
X143408400Y-129284964D01*
X143459283Y-129299825D01*
X143530595Y-129332958D01*
X143581752Y-129375640D01*
X143612575Y-129427705D01*
X143622889Y-129488983D01*
X143621952Y-129520232D01*
X143616160Y-129545029D01*
X143601353Y-129566699D01*
X143573380Y-129594049D01*
X143565402Y-129601378D01*
X143541692Y-129622281D01*
X143519298Y-129639251D01*
X143495265Y-129653205D01*
X143466637Y-129665056D01*
X143430460Y-129675720D01*
X143383780Y-129686111D01*
X143323641Y-129697146D01*
X143247090Y-129709738D01*
X143151171Y-129724804D01*
X143132808Y-129727838D01*
X143070478Y-129741458D01*
X143025260Y-129757192D01*
X142998976Y-129774263D01*
X142993447Y-129791897D01*
X142996068Y-129796168D01*
X143014000Y-129811233D01*
X143042126Y-129827867D01*
X143054926Y-129833857D01*
X143076224Y-129841050D01*
X143102610Y-129845827D01*
X143138454Y-129848646D01*
X143188128Y-129849964D01*
X143256000Y-129850237D01*
X143273785Y-129850164D01*
X143341406Y-129849053D01*
X143406345Y-129846828D01*
X143461970Y-129843762D01*
X143501651Y-129840127D01*
X143537162Y-129836059D01*
X143566415Y-129835276D01*
X143585315Y-129839876D01*
X143600429Y-129850551D01*
X143604085Y-129854144D01*
X143620427Y-129885918D01*
X143619107Y-129921572D01*
X143600150Y-129952190D01*
X143579780Y-129963796D01*
X143543796Y-129976491D01*
X143501372Y-129986541D01*
X143497922Y-129987140D01*
X143455252Y-129992356D01*
X143397866Y-129996730D01*
X143332849Y-129999818D01*
X143267289Y-130001177D01*
X143251057Y-130001218D01*
X143152744Y-129998741D01*
X143072692Y-129990735D01*
X143007513Y-129976203D01*
X142953817Y-129954149D01*
X142908216Y-129923576D01*
X142867323Y-129883486D01*
X142847202Y-129857259D01*
X142835576Y-129827712D01*
X142832667Y-129787995D01*
X142832808Y-129776026D01*
X142836681Y-129743345D01*
X142849065Y-129716819D01*
X142874230Y-129685971D01*
X142895442Y-129663831D01*
X142921838Y-129641285D01*
X142951555Y-129622917D01*
X142987785Y-129607661D01*
X143033717Y-129594449D01*
X143092544Y-129582214D01*
X143167456Y-129569889D01*
X143261645Y-129556406D01*
X143306957Y-129549396D01*
X143374911Y-129534837D01*
X143424047Y-129518337D01*
X143453614Y-129500439D01*
X143462864Y-129481685D01*
X143451048Y-129462615D01*
X143417416Y-129443771D01*
X143414370Y-129442557D01*
X143368011Y-129430479D01*
X143305361Y-129422279D01*
X143231927Y-129418119D01*
X143153217Y-129418161D01*
X143074739Y-129422569D01*
X143002000Y-129431505D01*
X142998073Y-129432154D01*
X142949257Y-129439861D01*
X142917005Y-129443473D01*
X142896008Y-129442876D01*
X142880954Y-129437954D01*
X142866534Y-129428596D01*
X142865364Y-129427725D01*
X142840847Y-129397351D01*
X142836054Y-129361850D01*
X142851860Y-129327269D01*
X142856406Y-129322813D01*
X142886020Y-129307673D01*
X142933002Y-129294550D01*
X142993306Y-129283750D01*
X143062888Y-129275581D01*
X143137703Y-129270351D01*
X143213706Y-129268367D01*
X143286853Y-129269936D01*
G37*
X139434711Y-124962033D02*
X139530268Y-124979523D01*
X139694558Y-125024564D01*
X139848589Y-125087656D01*
X139994509Y-125169915D01*
X140134466Y-125272457D01*
X140270608Y-125396399D01*
X140314473Y-125441661D01*
X140426758Y-125573865D01*
X140519972Y-125711832D01*
X140596719Y-125859750D01*
X140659603Y-126021803D01*
X140663420Y-126033391D01*
X140713507Y-126219392D01*
X140746899Y-126415521D01*
X140763584Y-126617568D01*
X140763551Y-126821325D01*
X140746791Y-127022581D01*
X140713292Y-127217128D01*
X140663044Y-127400756D01*
X140619190Y-127518053D01*
X140541348Y-127680951D01*
X140447828Y-127834866D01*
X140340822Y-127976671D01*
X140222519Y-128103239D01*
X140095111Y-128211441D01*
X140017606Y-128264120D01*
X139890725Y-128333750D01*
X139753243Y-128392468D01*
X139611716Y-128437587D01*
X139472702Y-128466422D01*
X139458597Y-128468106D01*
X139415153Y-128471434D01*
X139357723Y-128474275D01*
X139292122Y-128476373D01*
X139224167Y-128477468D01*
X139097378Y-128475140D01*
X138949673Y-128462136D01*
X138811779Y-128437133D01*
X138678014Y-128399318D01*
X138654562Y-128390889D01*
X138606612Y-128371408D01*
X138550140Y-128346473D01*
X138488379Y-128317722D01*
X138424563Y-128286790D01*
X138361926Y-128255315D01*
X138303703Y-128224934D01*
X138253127Y-128197283D01*
X138213433Y-128173999D01*
X138187854Y-128156718D01*
X138179625Y-128147079D01*
X138181076Y-128143984D01*
X138192250Y-128124079D01*
X138213134Y-128088420D01*
X138242265Y-128039459D01*
X138278181Y-127979646D01*
X138319420Y-127911433D01*
X138364517Y-127837271D01*
X138545785Y-127540008D01*
X138592315Y-127584539D01*
X138683723Y-127662865D01*
X138797334Y-127737439D01*
X138915122Y-127791474D01*
X139035559Y-127824290D01*
X139157117Y-127835211D01*
X139198585Y-127833868D01*
X139316080Y-127815612D01*
X139426089Y-127776617D01*
X139527430Y-127717670D01*
X139618921Y-127639557D01*
X139699380Y-127543064D01*
X139767627Y-127428978D01*
X139783908Y-127394724D01*
X139829982Y-127271240D01*
X139865106Y-127132918D01*
X139889197Y-126983561D01*
X139902173Y-126826973D01*
X139903949Y-126666956D01*
X139894443Y-126507314D01*
X139873572Y-126351850D01*
X139841252Y-126204366D01*
X139797399Y-126068667D01*
X139759982Y-125982076D01*
X139695185Y-125868688D01*
X139619772Y-125775070D01*
X139533418Y-125700959D01*
X139435795Y-125646094D01*
X139326577Y-125610212D01*
X139205439Y-125593051D01*
X139136038Y-125591880D01*
X139013168Y-125606141D01*
X138897664Y-125641241D01*
X138790953Y-125696682D01*
X138694464Y-125771964D01*
X138678720Y-125786440D01*
X138648150Y-125812962D01*
X138625809Y-125830138D01*
X138615691Y-125834787D01*
X138613706Y-125832597D01*
X138599241Y-125813721D01*
X138575400Y-125780397D01*
X138544029Y-125735380D01*
X138506974Y-125681425D01*
X138466083Y-125621285D01*
X138423202Y-125557718D01*
X138380178Y-125493476D01*
X138338857Y-125431315D01*
X138301086Y-125373991D01*
X138268712Y-125324257D01*
X138243582Y-125284868D01*
X138227542Y-125258580D01*
X138222439Y-125248147D01*
X138227050Y-125243941D01*
X138246267Y-125238933D01*
X138255838Y-125236386D01*
X138283809Y-125225249D01*
X138325448Y-125206802D01*
X138376995Y-125182725D01*
X138434690Y-125154699D01*
X138445957Y-125149154D01*
X138623687Y-125069889D01*
X138793490Y-125010385D01*
X138957430Y-124970245D01*
X139117571Y-124949071D01*
X139275977Y-124946466D01*
X139434711Y-124962033D01*
G36*
X139434711Y-124962033D02*
G01*
X139530268Y-124979523D01*
X139694558Y-125024564D01*
X139848589Y-125087656D01*
X139994509Y-125169915D01*
X140134466Y-125272457D01*
X140270608Y-125396399D01*
X140314473Y-125441661D01*
X140426758Y-125573865D01*
X140519972Y-125711832D01*
X140596719Y-125859750D01*
X140659603Y-126021803D01*
X140663420Y-126033391D01*
X140713507Y-126219392D01*
X140746899Y-126415521D01*
X140763584Y-126617568D01*
X140763551Y-126821325D01*
X140746791Y-127022581D01*
X140713292Y-127217128D01*
X140663044Y-127400756D01*
X140619190Y-127518053D01*
X140541348Y-127680951D01*
X140447828Y-127834866D01*
X140340822Y-127976671D01*
X140222519Y-128103239D01*
X140095111Y-128211441D01*
X140017606Y-128264120D01*
X139890725Y-128333750D01*
X139753243Y-128392468D01*
X139611716Y-128437587D01*
X139472702Y-128466422D01*
X139458597Y-128468106D01*
X139415153Y-128471434D01*
X139357723Y-128474275D01*
X139292122Y-128476373D01*
X139224167Y-128477468D01*
X139097378Y-128475140D01*
X138949673Y-128462136D01*
X138811779Y-128437133D01*
X138678014Y-128399318D01*
X138654562Y-128390889D01*
X138606612Y-128371408D01*
X138550140Y-128346473D01*
X138488379Y-128317722D01*
X138424563Y-128286790D01*
X138361926Y-128255315D01*
X138303703Y-128224934D01*
X138253127Y-128197283D01*
X138213433Y-128173999D01*
X138187854Y-128156718D01*
X138179625Y-128147079D01*
X138181076Y-128143984D01*
X138192250Y-128124079D01*
X138213134Y-128088420D01*
X138242265Y-128039459D01*
X138278181Y-127979646D01*
X138319420Y-127911433D01*
X138364517Y-127837271D01*
X138545785Y-127540008D01*
X138592315Y-127584539D01*
X138683723Y-127662865D01*
X138797334Y-127737439D01*
X138915122Y-127791474D01*
X139035559Y-127824290D01*
X139157117Y-127835211D01*
X139198585Y-127833868D01*
X139316080Y-127815612D01*
X139426089Y-127776617D01*
X139527430Y-127717670D01*
X139618921Y-127639557D01*
X139699380Y-127543064D01*
X139767627Y-127428978D01*
X139783908Y-127394724D01*
X139829982Y-127271240D01*
X139865106Y-127132918D01*
X139889197Y-126983561D01*
X139902173Y-126826973D01*
X139903949Y-126666956D01*
X139894443Y-126507314D01*
X139873572Y-126351850D01*
X139841252Y-126204366D01*
X139797399Y-126068667D01*
X139759982Y-125982076D01*
X139695185Y-125868688D01*
X139619772Y-125775070D01*
X139533418Y-125700959D01*
X139435795Y-125646094D01*
X139326577Y-125610212D01*
X139205439Y-125593051D01*
X139136038Y-125591880D01*
X139013168Y-125606141D01*
X138897664Y-125641241D01*
X138790953Y-125696682D01*
X138694464Y-125771964D01*
X138678720Y-125786440D01*
X138648150Y-125812962D01*
X138625809Y-125830138D01*
X138615691Y-125834787D01*
X138613706Y-125832597D01*
X138599241Y-125813721D01*
X138575400Y-125780397D01*
X138544029Y-125735380D01*
X138506974Y-125681425D01*
X138466083Y-125621285D01*
X138423202Y-125557718D01*
X138380178Y-125493476D01*
X138338857Y-125431315D01*
X138301086Y-125373991D01*
X138268712Y-125324257D01*
X138243582Y-125284868D01*
X138227542Y-125258580D01*
X138222439Y-125248147D01*
X138227050Y-125243941D01*
X138246267Y-125238933D01*
X138255838Y-125236386D01*
X138283809Y-125225249D01*
X138325448Y-125206802D01*
X138376995Y-125182725D01*
X138434690Y-125154699D01*
X138445957Y-125149154D01*
X138623687Y-125069889D01*
X138793490Y-125010385D01*
X138957430Y-124970245D01*
X139117571Y-124949071D01*
X139275977Y-124946466D01*
X139434711Y-124962033D01*
G37*
X135631994Y-127242711D02*
X135631268Y-127320158D01*
X135622689Y-127471594D01*
X135603833Y-127608283D01*
X135573837Y-127734276D01*
X135531836Y-127853625D01*
X135476969Y-127970381D01*
X135410167Y-128081179D01*
X135319363Y-128194739D01*
X135215708Y-128290211D01*
X135099887Y-128367073D01*
X134972586Y-128424797D01*
X134834489Y-128462858D01*
X134796793Y-128468666D01*
X134717752Y-128474396D01*
X134629629Y-128474583D01*
X134540236Y-128469539D01*
X134457384Y-128459578D01*
X134388887Y-128445012D01*
X134358035Y-128435364D01*
X134280730Y-128405123D01*
X134203679Y-128367617D01*
X134134200Y-128326614D01*
X134079615Y-128285879D01*
X134056916Y-128266505D01*
X134034201Y-128248662D01*
X134022779Y-128241778D01*
X134021537Y-128243424D01*
X134018728Y-128261205D01*
X134016776Y-128294370D01*
X134016045Y-128337733D01*
X134016045Y-128433689D01*
X133157896Y-128433689D01*
X133192161Y-128372974D01*
X133197355Y-128363868D01*
X133205715Y-128349249D01*
X133213288Y-128335173D01*
X133220112Y-128320540D01*
X133226227Y-128304249D01*
X133231673Y-128285198D01*
X133236487Y-128262286D01*
X133240708Y-128234413D01*
X133244377Y-128200478D01*
X133247531Y-128159379D01*
X133250211Y-128110015D01*
X133252454Y-128051286D01*
X133254299Y-127982090D01*
X133255787Y-127901326D01*
X133256955Y-127807894D01*
X133257678Y-127720721D01*
X134061200Y-127720721D01*
X134131756Y-127767089D01*
X134172417Y-127790791D01*
X134226546Y-127816639D01*
X134275689Y-127834829D01*
X134339165Y-127850551D01*
X134435331Y-127861541D01*
X134519900Y-127853365D01*
X134593219Y-127825805D01*
X134655637Y-127778642D01*
X134707502Y-127711658D01*
X134749160Y-127624633D01*
X134780962Y-127517350D01*
X134783545Y-127505009D01*
X134792000Y-127443772D01*
X134797663Y-127366692D01*
X134800576Y-127279002D01*
X134800783Y-127185934D01*
X134798330Y-127092720D01*
X134793261Y-127004594D01*
X134785619Y-126926788D01*
X134775448Y-126864533D01*
X134774167Y-126858666D01*
X134745126Y-126748121D01*
X134710610Y-126657575D01*
X134669456Y-126584953D01*
X134620499Y-126528181D01*
X134562574Y-126485184D01*
X134530620Y-126469615D01*
X134457784Y-126450722D01*
X134376443Y-126447465D01*
X134291319Y-126459389D01*
X134207133Y-126486040D01*
X134128608Y-126526962D01*
X134061200Y-126570530D01*
X134061200Y-127720721D01*
X133257678Y-127720721D01*
X133257844Y-127700692D01*
X133258491Y-127578620D01*
X133258936Y-127440576D01*
X133259218Y-127285459D01*
X133259375Y-127112168D01*
X133259448Y-126919603D01*
X133259474Y-126706662D01*
X133259493Y-126472245D01*
X133259689Y-124787378D01*
X134165017Y-124787378D01*
X134140585Y-124824067D01*
X134134318Y-124833647D01*
X134108208Y-124879981D01*
X134090469Y-124927102D01*
X134078908Y-124982251D01*
X134071331Y-125052667D01*
X134070839Y-125059650D01*
X134069062Y-125097641D01*
X134067444Y-125151576D01*
X134065999Y-125218703D01*
X134064740Y-125296271D01*
X134063680Y-125381528D01*
X134062829Y-125471724D01*
X134062203Y-125564107D01*
X134061812Y-125655925D01*
X134061670Y-125744427D01*
X134061790Y-125826862D01*
X134062183Y-125900479D01*
X134062862Y-125962526D01*
X134063841Y-126010251D01*
X134065132Y-126040904D01*
X134066747Y-126051733D01*
X134074957Y-126047333D01*
X134096647Y-126032362D01*
X134126014Y-126010448D01*
X134174879Y-125976236D01*
X134263125Y-125929714D01*
X134361916Y-125896046D01*
X134474510Y-125874231D01*
X134604164Y-125863265D01*
X134696670Y-125862219D01*
X134818011Y-125872014D01*
X134928099Y-125896174D01*
X135031389Y-125935785D01*
X135132338Y-125991932D01*
X135177503Y-126022883D01*
X135282911Y-126114115D01*
X135374538Y-126223106D01*
X135452332Y-126349726D01*
X135516241Y-126493845D01*
X135566214Y-126655332D01*
X135602198Y-126834059D01*
X135624143Y-127029895D01*
X135629900Y-127185934D01*
X135631994Y-127242711D01*
G36*
X135631994Y-127242711D02*
G01*
X135631268Y-127320158D01*
X135622689Y-127471594D01*
X135603833Y-127608283D01*
X135573837Y-127734276D01*
X135531836Y-127853625D01*
X135476969Y-127970381D01*
X135410167Y-128081179D01*
X135319363Y-128194739D01*
X135215708Y-128290211D01*
X135099887Y-128367073D01*
X134972586Y-128424797D01*
X134834489Y-128462858D01*
X134796793Y-128468666D01*
X134717752Y-128474396D01*
X134629629Y-128474583D01*
X134540236Y-128469539D01*
X134457384Y-128459578D01*
X134388887Y-128445012D01*
X134358035Y-128435364D01*
X134280730Y-128405123D01*
X134203679Y-128367617D01*
X134134200Y-128326614D01*
X134079615Y-128285879D01*
X134056916Y-128266505D01*
X134034201Y-128248662D01*
X134022779Y-128241778D01*
X134021537Y-128243424D01*
X134018728Y-128261205D01*
X134016776Y-128294370D01*
X134016045Y-128337733D01*
X134016045Y-128433689D01*
X133157896Y-128433689D01*
X133192161Y-128372974D01*
X133197355Y-128363868D01*
X133205715Y-128349249D01*
X133213288Y-128335173D01*
X133220112Y-128320540D01*
X133226227Y-128304249D01*
X133231673Y-128285198D01*
X133236487Y-128262286D01*
X133240708Y-128234413D01*
X133244377Y-128200478D01*
X133247531Y-128159379D01*
X133250211Y-128110015D01*
X133252454Y-128051286D01*
X133254299Y-127982090D01*
X133255787Y-127901326D01*
X133256955Y-127807894D01*
X133257678Y-127720721D01*
X134061200Y-127720721D01*
X134131756Y-127767089D01*
X134172417Y-127790791D01*
X134226546Y-127816639D01*
X134275689Y-127834829D01*
X134339165Y-127850551D01*
X134435331Y-127861541D01*
X134519900Y-127853365D01*
X134593219Y-127825805D01*
X134655637Y-127778642D01*
X134707502Y-127711658D01*
X134749160Y-127624633D01*
X134780962Y-127517350D01*
X134783545Y-127505009D01*
X134792000Y-127443772D01*
X134797663Y-127366692D01*
X134800576Y-127279002D01*
X134800783Y-127185934D01*
X134798330Y-127092720D01*
X134793261Y-127004594D01*
X134785619Y-126926788D01*
X134775448Y-126864533D01*
X134774167Y-126858666D01*
X134745126Y-126748121D01*
X134710610Y-126657575D01*
X134669456Y-126584953D01*
X134620499Y-126528181D01*
X134562574Y-126485184D01*
X134530620Y-126469615D01*
X134457784Y-126450722D01*
X134376443Y-126447465D01*
X134291319Y-126459389D01*
X134207133Y-126486040D01*
X134128608Y-126526962D01*
X134061200Y-126570530D01*
X134061200Y-127720721D01*
X133257678Y-127720721D01*
X133257844Y-127700692D01*
X133258491Y-127578620D01*
X133258936Y-127440576D01*
X133259218Y-127285459D01*
X133259375Y-127112168D01*
X133259448Y-126919603D01*
X133259474Y-126706662D01*
X133259493Y-126472245D01*
X133259689Y-124787378D01*
X134165017Y-124787378D01*
X134140585Y-124824067D01*
X134134318Y-124833647D01*
X134108208Y-124879981D01*
X134090469Y-124927102D01*
X134078908Y-124982251D01*
X134071331Y-125052667D01*
X134070839Y-125059650D01*
X134069062Y-125097641D01*
X134067444Y-125151576D01*
X134065999Y-125218703D01*
X134064740Y-125296271D01*
X134063680Y-125381528D01*
X134062829Y-125471724D01*
X134062203Y-125564107D01*
X134061812Y-125655925D01*
X134061670Y-125744427D01*
X134061790Y-125826862D01*
X134062183Y-125900479D01*
X134062862Y-125962526D01*
X134063841Y-126010251D01*
X134065132Y-126040904D01*
X134066747Y-126051733D01*
X134074957Y-126047333D01*
X134096647Y-126032362D01*
X134126014Y-126010448D01*
X134174879Y-125976236D01*
X134263125Y-125929714D01*
X134361916Y-125896046D01*
X134474510Y-125874231D01*
X134604164Y-125863265D01*
X134696670Y-125862219D01*
X134818011Y-125872014D01*
X134928099Y-125896174D01*
X135031389Y-125935785D01*
X135132338Y-125991932D01*
X135177503Y-126022883D01*
X135282911Y-126114115D01*
X135374538Y-126223106D01*
X135452332Y-126349726D01*
X135516241Y-126493845D01*
X135566214Y-126655332D01*
X135602198Y-126834059D01*
X135624143Y-127029895D01*
X135629900Y-127185934D01*
X135631994Y-127242711D01*
G37*
X138173755Y-127643467D02*
X138173261Y-127677363D01*
X138169632Y-127752202D01*
X138162022Y-127814401D01*
X138149688Y-127870984D01*
X138105313Y-127997076D01*
X138042400Y-128111679D01*
X137962238Y-128212568D01*
X137865740Y-128298924D01*
X137753822Y-128369932D01*
X137627397Y-128424776D01*
X137487378Y-128462638D01*
X137451149Y-128468351D01*
X137372155Y-128474313D01*
X137283841Y-128474646D01*
X137194075Y-128469659D01*
X137110722Y-128459666D01*
X137041651Y-128444978D01*
X136955187Y-128414749D01*
X136845286Y-128360057D01*
X136747956Y-128292543D01*
X136685867Y-128241556D01*
X136682605Y-128337622D01*
X136679343Y-128433689D01*
X136256450Y-128433689D01*
X136245543Y-128433686D01*
X136151056Y-128433380D01*
X136064331Y-128432616D01*
X135987837Y-128431451D01*
X135924043Y-128429942D01*
X135875418Y-128428147D01*
X135844433Y-128426121D01*
X135833556Y-128423922D01*
X135833578Y-128423463D01*
X135840614Y-128407910D01*
X135856434Y-128385071D01*
X135860734Y-128379638D01*
X135871777Y-128365606D01*
X135881311Y-128352186D01*
X135889461Y-128337722D01*
X135896352Y-128320556D01*
X135902111Y-128299034D01*
X135906862Y-128271498D01*
X135910731Y-128236292D01*
X135913844Y-128191760D01*
X135916325Y-128136246D01*
X135918300Y-128068093D01*
X135919894Y-127985645D01*
X135921234Y-127887246D01*
X135922444Y-127771239D01*
X135922896Y-127720462D01*
X136725378Y-127720462D01*
X136770048Y-127776973D01*
X136782785Y-127792212D01*
X136829604Y-127834844D01*
X136890255Y-127870672D01*
X136900897Y-127875850D01*
X136939676Y-127892745D01*
X136974692Y-127902909D01*
X137014722Y-127908325D01*
X137068541Y-127910978D01*
X137086648Y-127911383D01*
X137162011Y-127908540D01*
X137222743Y-127896620D01*
X137274452Y-127874037D01*
X137322746Y-127839211D01*
X137327803Y-127834798D01*
X137376272Y-127779160D01*
X137404459Y-127715333D01*
X137413752Y-127640282D01*
X137406520Y-127568693D01*
X137381796Y-127505645D01*
X137337249Y-127447758D01*
X137282319Y-127400808D01*
X137209894Y-127360961D01*
X137123340Y-127333263D01*
X137020670Y-127317096D01*
X136899894Y-127311842D01*
X136891007Y-127311857D01*
X136835660Y-127312655D01*
X136788736Y-127314488D01*
X136754953Y-127317111D01*
X136739028Y-127320274D01*
X136734943Y-127326741D01*
X136730572Y-127348875D01*
X136727604Y-127387988D01*
X136725914Y-127445939D01*
X136725378Y-127524586D01*
X136725378Y-127720462D01*
X135922896Y-127720462D01*
X135923649Y-127635968D01*
X135924975Y-127479778D01*
X135926228Y-127337012D01*
X135927651Y-127191942D01*
X135929176Y-127066027D01*
X135930933Y-126957436D01*
X135933051Y-126864334D01*
X135935660Y-126784891D01*
X135938890Y-126717273D01*
X135942869Y-126659649D01*
X135947728Y-126610185D01*
X135953597Y-126567050D01*
X135960604Y-126528410D01*
X135968880Y-126492434D01*
X135978554Y-126457289D01*
X135989756Y-126421142D01*
X136002616Y-126382161D01*
X136018090Y-126339091D01*
X136060994Y-126246871D01*
X136114735Y-126167099D01*
X136183576Y-126092965D01*
X136261185Y-126029405D01*
X136365761Y-125967725D01*
X136485244Y-125920202D01*
X136620508Y-125886567D01*
X136772426Y-125866552D01*
X136941872Y-125859889D01*
X136999890Y-125860287D01*
X137065398Y-125862335D01*
X137126693Y-125866704D01*
X137188097Y-125874035D01*
X137253932Y-125884969D01*
X137328520Y-125900147D01*
X137416184Y-125920209D01*
X137521245Y-125945797D01*
X137549806Y-125952820D01*
X137625054Y-125970776D01*
X137695388Y-125986820D01*
X137756567Y-126000028D01*
X137804354Y-126009474D01*
X137834511Y-126014231D01*
X137862783Y-126017910D01*
X137889060Y-126023187D01*
X137899059Y-126027942D01*
X137895952Y-126036781D01*
X137885194Y-126064072D01*
X137867864Y-126106906D01*
X137845126Y-126162425D01*
X137818147Y-126227772D01*
X137788090Y-126300089D01*
X137781493Y-126315879D01*
X137742907Y-126406484D01*
X137711768Y-126476217D01*
X137687917Y-126525405D01*
X137671198Y-126554374D01*
X137661454Y-126563452D01*
X137653766Y-126561405D01*
X137627415Y-126551760D01*
X137588982Y-126536190D01*
X137543822Y-126516815D01*
X137449293Y-126478814D01*
X137312480Y-126437780D01*
X137171289Y-126412612D01*
X137133314Y-126408611D01*
X137030059Y-126406447D01*
X136942952Y-126419622D01*
X136871129Y-126448756D01*
X136813731Y-126494466D01*
X136769896Y-126557372D01*
X136738762Y-126638092D01*
X136719470Y-126737245D01*
X136712050Y-126796224D01*
X136873936Y-126789445D01*
X137000495Y-126787813D01*
X137151951Y-126794194D01*
X137300396Y-126808777D01*
X137436578Y-126830882D01*
X137501245Y-126845821D01*
X137633490Y-126888741D01*
X137755762Y-126945340D01*
X137865685Y-127014017D01*
X137960883Y-127093170D01*
X138038980Y-127181196D01*
X138097599Y-127276493D01*
X138121595Y-127328864D01*
X138147232Y-127399590D01*
X138163478Y-127470812D01*
X138171822Y-127549712D01*
X138173690Y-127640282D01*
X138173755Y-127643467D01*
G36*
X138173755Y-127643467D02*
G01*
X138173261Y-127677363D01*
X138169632Y-127752202D01*
X138162022Y-127814401D01*
X138149688Y-127870984D01*
X138105313Y-127997076D01*
X138042400Y-128111679D01*
X137962238Y-128212568D01*
X137865740Y-128298924D01*
X137753822Y-128369932D01*
X137627397Y-128424776D01*
X137487378Y-128462638D01*
X137451149Y-128468351D01*
X137372155Y-128474313D01*
X137283841Y-128474646D01*
X137194075Y-128469659D01*
X137110722Y-128459666D01*
X137041651Y-128444978D01*
X136955187Y-128414749D01*
X136845286Y-128360057D01*
X136747956Y-128292543D01*
X136685867Y-128241556D01*
X136682605Y-128337622D01*
X136679343Y-128433689D01*
X136256450Y-128433689D01*
X136245543Y-128433686D01*
X136151056Y-128433380D01*
X136064331Y-128432616D01*
X135987837Y-128431451D01*
X135924043Y-128429942D01*
X135875418Y-128428147D01*
X135844433Y-128426121D01*
X135833556Y-128423922D01*
X135833578Y-128423463D01*
X135840614Y-128407910D01*
X135856434Y-128385071D01*
X135860734Y-128379638D01*
X135871777Y-128365606D01*
X135881311Y-128352186D01*
X135889461Y-128337722D01*
X135896352Y-128320556D01*
X135902111Y-128299034D01*
X135906862Y-128271498D01*
X135910731Y-128236292D01*
X135913844Y-128191760D01*
X135916325Y-128136246D01*
X135918300Y-128068093D01*
X135919894Y-127985645D01*
X135921234Y-127887246D01*
X135922444Y-127771239D01*
X135922896Y-127720462D01*
X136725378Y-127720462D01*
X136770048Y-127776973D01*
X136782785Y-127792212D01*
X136829604Y-127834844D01*
X136890255Y-127870672D01*
X136900897Y-127875850D01*
X136939676Y-127892745D01*
X136974692Y-127902909D01*
X137014722Y-127908325D01*
X137068541Y-127910978D01*
X137086648Y-127911383D01*
X137162011Y-127908540D01*
X137222743Y-127896620D01*
X137274452Y-127874037D01*
X137322746Y-127839211D01*
X137327803Y-127834798D01*
X137376272Y-127779160D01*
X137404459Y-127715333D01*
X137413752Y-127640282D01*
X137406520Y-127568693D01*
X137381796Y-127505645D01*
X137337249Y-127447758D01*
X137282319Y-127400808D01*
X137209894Y-127360961D01*
X137123340Y-127333263D01*
X137020670Y-127317096D01*
X136899894Y-127311842D01*
X136891007Y-127311857D01*
X136835660Y-127312655D01*
X136788736Y-127314488D01*
X136754953Y-127317111D01*
X136739028Y-127320274D01*
X136734943Y-127326741D01*
X136730572Y-127348875D01*
X136727604Y-127387988D01*
X136725914Y-127445939D01*
X136725378Y-127524586D01*
X136725378Y-127720462D01*
X135922896Y-127720462D01*
X135923649Y-127635968D01*
X135924975Y-127479778D01*
X135926228Y-127337012D01*
X135927651Y-127191942D01*
X135929176Y-127066027D01*
X135930933Y-126957436D01*
X135933051Y-126864334D01*
X135935660Y-126784891D01*
X135938890Y-126717273D01*
X135942869Y-126659649D01*
X135947728Y-126610185D01*
X135953597Y-126567050D01*
X135960604Y-126528410D01*
X135968880Y-126492434D01*
X135978554Y-126457289D01*
X135989756Y-126421142D01*
X136002616Y-126382161D01*
X136018090Y-126339091D01*
X136060994Y-126246871D01*
X136114735Y-126167099D01*
X136183576Y-126092965D01*
X136261185Y-126029405D01*
X136365761Y-125967725D01*
X136485244Y-125920202D01*
X136620508Y-125886567D01*
X136772426Y-125866552D01*
X136941872Y-125859889D01*
X136999890Y-125860287D01*
X137065398Y-125862335D01*
X137126693Y-125866704D01*
X137188097Y-125874035D01*
X137253932Y-125884969D01*
X137328520Y-125900147D01*
X137416184Y-125920209D01*
X137521245Y-125945797D01*
X137549806Y-125952820D01*
X137625054Y-125970776D01*
X137695388Y-125986820D01*
X137756567Y-126000028D01*
X137804354Y-126009474D01*
X137834511Y-126014231D01*
X137862783Y-126017910D01*
X137889060Y-126023187D01*
X137899059Y-126027942D01*
X137895952Y-126036781D01*
X137885194Y-126064072D01*
X137867864Y-126106906D01*
X137845126Y-126162425D01*
X137818147Y-126227772D01*
X137788090Y-126300089D01*
X137781493Y-126315879D01*
X137742907Y-126406484D01*
X137711768Y-126476217D01*
X137687917Y-126525405D01*
X137671198Y-126554374D01*
X137661454Y-126563452D01*
X137653766Y-126561405D01*
X137627415Y-126551760D01*
X137588982Y-126536190D01*
X137543822Y-126516815D01*
X137449293Y-126478814D01*
X137312480Y-126437780D01*
X137171289Y-126412612D01*
X137133314Y-126408611D01*
X137030059Y-126406447D01*
X136942952Y-126419622D01*
X136871129Y-126448756D01*
X136813731Y-126494466D01*
X136769896Y-126557372D01*
X136738762Y-126638092D01*
X136719470Y-126737245D01*
X136712050Y-126796224D01*
X136873936Y-126789445D01*
X137000495Y-126787813D01*
X137151951Y-126794194D01*
X137300396Y-126808777D01*
X137436578Y-126830882D01*
X137501245Y-126845821D01*
X137633490Y-126888741D01*
X137755762Y-126945340D01*
X137865685Y-127014017D01*
X137960883Y-127093170D01*
X138038980Y-127181196D01*
X138097599Y-127276493D01*
X138121595Y-127328864D01*
X138147232Y-127399590D01*
X138163478Y-127470812D01*
X138171822Y-127549712D01*
X138173690Y-127640282D01*
X138173755Y-127643467D01*
G37*
X145721614Y-125111792D02*
X145722059Y-125243011D01*
X145722362Y-125390216D01*
X145722548Y-125554349D01*
X145722642Y-125736352D01*
X145722671Y-125937165D01*
X145722661Y-126157732D01*
X145722636Y-126398992D01*
X145722622Y-126661889D01*
X145722622Y-126704040D01*
X145722646Y-126964668D01*
X145722685Y-127203796D01*
X145722708Y-127422360D01*
X145722687Y-127621295D01*
X145722593Y-127801535D01*
X145722395Y-127964015D01*
X145722063Y-128109670D01*
X145721569Y-128239434D01*
X145720883Y-128354243D01*
X145719976Y-128455030D01*
X145718817Y-128542730D01*
X145717378Y-128618279D01*
X145715629Y-128682611D01*
X145713540Y-128736661D01*
X145711083Y-128781363D01*
X145708227Y-128817652D01*
X145704943Y-128846463D01*
X145701202Y-128868731D01*
X145696974Y-128885390D01*
X145692229Y-128897375D01*
X145686939Y-128905621D01*
X145681073Y-128911062D01*
X145674602Y-128914634D01*
X145667497Y-128917270D01*
X145659728Y-128919906D01*
X145651266Y-128923477D01*
X145646908Y-128925145D01*
X145638395Y-128927111D01*
X145625694Y-128928911D01*
X145607885Y-128930555D01*
X145584049Y-128932047D01*
X145553266Y-128933397D01*
X145514617Y-128934611D01*
X145467182Y-128935697D01*
X145410043Y-128936661D01*
X145342279Y-128937511D01*
X145262971Y-128938253D01*
X145171199Y-128938897D01*
X145066044Y-128939447D01*
X144946587Y-128939913D01*
X144811908Y-128940300D01*
X144661088Y-128940616D01*
X144493206Y-128940869D01*
X144307345Y-128941066D01*
X144102583Y-128941213D01*
X143878002Y-128941318D01*
X143632682Y-128941389D01*
X143365704Y-128941432D01*
X143327321Y-128941437D01*
X143061922Y-128941480D01*
X142818050Y-128941525D01*
X142594783Y-128941548D01*
X142391196Y-128941524D01*
X142206367Y-128941430D01*
X142039373Y-128941243D01*
X141889290Y-128940939D01*
X141755196Y-128940494D01*
X141636166Y-128939885D01*
X141531279Y-128939089D01*
X141439610Y-128938080D01*
X141360237Y-128936837D01*
X141292237Y-128935335D01*
X141234686Y-128933551D01*
X141186662Y-128931461D01*
X141147240Y-128929042D01*
X141115499Y-128926270D01*
X141090514Y-128923121D01*
X141071364Y-128919572D01*
X141057123Y-128915598D01*
X141046871Y-128911178D01*
X141039682Y-128906286D01*
X141034635Y-128900900D01*
X141030805Y-128894996D01*
X141027271Y-128888549D01*
X141023108Y-128881537D01*
X141022025Y-128879687D01*
X141019813Y-128874180D01*
X141017786Y-128865868D01*
X141015938Y-128853809D01*
X141014261Y-128837063D01*
X141012745Y-128814687D01*
X141011383Y-128785740D01*
X141010167Y-128749280D01*
X141009089Y-128704367D01*
X141008140Y-128650057D01*
X141007312Y-128585410D01*
X141006597Y-128509484D01*
X141005987Y-128421338D01*
X141005942Y-128412493D01*
X141297378Y-128412493D01*
X141301260Y-128413765D01*
X141324520Y-128415791D01*
X141366874Y-128417626D01*
X141426132Y-128419227D01*
X141500107Y-128420549D01*
X141586610Y-128421548D01*
X141683452Y-128422180D01*
X141788445Y-128422400D01*
X142486651Y-128422400D01*
X143641090Y-128422400D01*
X143640456Y-128346200D01*
X143641574Y-128304160D01*
X143647304Y-128268334D01*
X143659890Y-128230772D01*
X143681568Y-128182577D01*
X143684789Y-128175897D01*
X143710188Y-128126359D01*
X143736996Y-128078369D01*
X143759917Y-128041466D01*
X143764485Y-128034834D01*
X143786516Y-128003593D01*
X143818693Y-127958654D01*
X143859457Y-127902147D01*
X143907245Y-127836204D01*
X143960498Y-127762957D01*
X144017655Y-127684536D01*
X144077155Y-127603072D01*
X144137437Y-127520698D01*
X144196940Y-127439544D01*
X144254105Y-127361742D01*
X144307370Y-127289423D01*
X144355174Y-127224718D01*
X144395957Y-127169759D01*
X144428158Y-127126676D01*
X144450216Y-127097602D01*
X144460571Y-127084667D01*
X144465044Y-127080351D01*
X144469236Y-127078312D01*
X144472643Y-127080926D01*
X144475325Y-127089986D01*
X144477341Y-127107285D01*
X144478748Y-127134614D01*
X144479605Y-127173765D01*
X144479970Y-127226533D01*
X144479903Y-127294707D01*
X144479460Y-127380082D01*
X144478702Y-127484449D01*
X144477685Y-127609600D01*
X144477308Y-127654300D01*
X144476169Y-127775395D01*
X144474972Y-127876688D01*
X144473636Y-127960262D01*
X144472077Y-128028204D01*
X144470215Y-128082599D01*
X144467966Y-128125532D01*
X144465248Y-128159089D01*
X144461979Y-128185355D01*
X144458078Y-128206416D01*
X144453461Y-128224357D01*
X144445192Y-128250770D01*
X144421583Y-128312772D01*
X144395685Y-128365573D01*
X144370535Y-128402645D01*
X144369339Y-128404075D01*
X144367168Y-128408424D01*
X144369328Y-128412026D01*
X144377644Y-128414951D01*
X144393940Y-128417269D01*
X144420041Y-128419051D01*
X144457771Y-128420367D01*
X144508956Y-128421286D01*
X144575420Y-128421878D01*
X144658987Y-128422215D01*
X144761483Y-128422365D01*
X144884732Y-128422400D01*
X145416296Y-128422400D01*
X145377523Y-128364783D01*
X145371432Y-128355893D01*
X145360976Y-128341069D01*
X145351579Y-128327422D01*
X145343183Y-128313765D01*
X145335733Y-128298911D01*
X145329173Y-128281670D01*
X145323446Y-128260855D01*
X145318495Y-128235280D01*
X145314266Y-128203755D01*
X145310701Y-128165093D01*
X145307744Y-128118107D01*
X145305340Y-128061608D01*
X145303431Y-127994409D01*
X145301962Y-127915322D01*
X145300876Y-127823160D01*
X145300118Y-127716734D01*
X145299630Y-127594857D01*
X145299358Y-127456341D01*
X145299243Y-127299999D01*
X145299231Y-127124642D01*
X145299265Y-126929082D01*
X145299289Y-126712133D01*
X145299280Y-126589513D01*
X145299243Y-126384447D01*
X145299227Y-126200116D01*
X145299288Y-126035334D01*
X145299484Y-125888916D01*
X145299870Y-125759674D01*
X145300505Y-125646422D01*
X145301444Y-125547975D01*
X145302745Y-125463144D01*
X145304464Y-125390744D01*
X145306659Y-125329589D01*
X145309385Y-125278492D01*
X145312701Y-125236267D01*
X145316662Y-125201727D01*
X145321325Y-125173686D01*
X145326747Y-125150958D01*
X145332986Y-125132356D01*
X145340097Y-125116693D01*
X145348138Y-125102784D01*
X145357166Y-125089441D01*
X145367236Y-125075479D01*
X145378407Y-125059711D01*
X145418197Y-125001867D01*
X144358314Y-125001867D01*
X144396311Y-125064966D01*
X144410993Y-125090005D01*
X144425531Y-125117586D01*
X144437627Y-125145700D01*
X144447532Y-125176551D01*
X144455494Y-125212344D01*
X144461761Y-125255283D01*
X144466582Y-125307574D01*
X144470206Y-125371419D01*
X144472881Y-125449025D01*
X144474857Y-125542594D01*
X144476382Y-125654333D01*
X144477704Y-125786445D01*
X144478613Y-125906434D01*
X144479020Y-126023063D01*
X144478767Y-126118531D01*
X144477857Y-126192556D01*
X144476293Y-126244855D01*
X144474079Y-126275149D01*
X144471220Y-126283156D01*
X144468161Y-126279858D01*
X144450006Y-126258408D01*
X144420275Y-126221889D01*
X144380639Y-126172442D01*
X144332771Y-126112207D01*
X144278343Y-126043327D01*
X144219027Y-125967943D01*
X144156495Y-125888196D01*
X144092421Y-125806228D01*
X144028475Y-125724180D01*
X143966331Y-125644194D01*
X143907661Y-125568411D01*
X143854137Y-125498973D01*
X143807430Y-125438021D01*
X143769214Y-125387696D01*
X143741161Y-125350140D01*
X143724943Y-125327495D01*
X143679635Y-125255212D01*
X143639661Y-125175463D01*
X143618130Y-125107188D01*
X143614827Y-125049844D01*
X143620116Y-125001867D01*
X142488356Y-125002117D01*
X142527867Y-125032722D01*
X142537248Y-125040089D01*
X142600183Y-125094438D01*
X142668997Y-125162259D01*
X142745596Y-125245516D01*
X142831888Y-125346178D01*
X142849052Y-125366847D01*
X142889833Y-125416409D01*
X142939588Y-125477326D01*
X142996955Y-125547898D01*
X143060569Y-125626424D01*
X143129069Y-125711204D01*
X143201090Y-125800537D01*
X143275270Y-125892722D01*
X143290517Y-125911702D01*
X143350246Y-125986060D01*
X143424653Y-126078848D01*
X143497131Y-126169388D01*
X143566314Y-126255978D01*
X143630841Y-126336918D01*
X143689347Y-126410506D01*
X143740470Y-126475044D01*
X143782847Y-126528829D01*
X143815115Y-126570162D01*
X143835910Y-126597342D01*
X143843869Y-126608668D01*
X143842111Y-126612771D01*
X143829230Y-126633334D01*
X143804885Y-126669561D01*
X143770247Y-126719824D01*
X143726486Y-126782492D01*
X143674775Y-126855936D01*
X143616284Y-126938527D01*
X143552184Y-127028636D01*
X143483646Y-127124631D01*
X143411843Y-127224885D01*
X143337944Y-127327768D01*
X143263121Y-127431650D01*
X143188545Y-127534901D01*
X143115387Y-127635892D01*
X143044819Y-127732994D01*
X142978011Y-127824577D01*
X142916135Y-127909011D01*
X142860361Y-127984667D01*
X142811862Y-128049916D01*
X142771807Y-128103128D01*
X142741369Y-128142673D01*
X142720944Y-128168026D01*
X142674899Y-128222295D01*
X142624612Y-128278775D01*
X142577815Y-128328669D01*
X142486651Y-128422400D01*
X141788445Y-128422400D01*
X141857356Y-128422349D01*
X141955607Y-128422091D01*
X142045030Y-128421637D01*
X142123333Y-128421010D01*
X142188223Y-128420235D01*
X142237411Y-128419335D01*
X142268604Y-128418334D01*
X142279511Y-128417257D01*
X142278322Y-128414037D01*
X142268176Y-128396452D01*
X142251040Y-128370158D01*
X142242540Y-128357691D01*
X142233329Y-128343622D01*
X142225233Y-128329351D01*
X142218185Y-128313479D01*
X142212117Y-128294609D01*
X142206961Y-128271341D01*
X142202651Y-128242278D01*
X142199119Y-128206021D01*
X142196297Y-128161170D01*
X142194118Y-128106328D01*
X142192514Y-128040097D01*
X142191419Y-127961077D01*
X142190765Y-127867871D01*
X142190484Y-127759079D01*
X142190509Y-127633303D01*
X142190772Y-127489145D01*
X142191206Y-127325207D01*
X142191745Y-127140089D01*
X142192279Y-126961232D01*
X142192805Y-126802374D01*
X142193350Y-126663316D01*
X142193945Y-126542665D01*
X142194619Y-126439028D01*
X142195403Y-126351011D01*
X142196326Y-126277223D01*
X142197419Y-126216269D01*
X142198712Y-126166757D01*
X142200235Y-126127293D01*
X142202019Y-126096484D01*
X142204092Y-126072938D01*
X142206486Y-126055260D01*
X142209230Y-126042059D01*
X142212356Y-126031940D01*
X142215892Y-126023511D01*
X142219791Y-126015375D01*
X142239438Y-125978544D01*
X142258225Y-125948391D01*
X142259272Y-125946908D01*
X142273602Y-125924659D01*
X142279511Y-125911702D01*
X142278504Y-125911249D01*
X142261305Y-125909803D01*
X142224656Y-125908480D01*
X142170962Y-125907316D01*
X142102630Y-125906347D01*
X142022064Y-125905611D01*
X141931670Y-125905142D01*
X141833853Y-125904978D01*
X141388195Y-125904978D01*
X141385120Y-127081845D01*
X141382045Y-128258711D01*
X141355407Y-128317622D01*
X141343485Y-128342183D01*
X141326246Y-128372434D01*
X141313074Y-128389560D01*
X141305076Y-128397591D01*
X141297378Y-128412493D01*
X141005942Y-128412493D01*
X141005474Y-128320029D01*
X141005050Y-128204617D01*
X141004706Y-128074160D01*
X141004434Y-127927716D01*
X141004227Y-127764344D01*
X141004076Y-127583101D01*
X141003972Y-127383048D01*
X141003908Y-127163241D01*
X141003876Y-126922739D01*
X141003867Y-126660602D01*
X141003867Y-124469031D01*
X141042249Y-124430649D01*
X141069355Y-124406911D01*
X141096253Y-124395111D01*
X141132560Y-124392267D01*
X141184489Y-124392267D01*
X141184489Y-124480206D01*
X141186427Y-124530102D01*
X141205199Y-124640523D01*
X141242217Y-124741987D01*
X141295369Y-124833152D01*
X141362546Y-124912673D01*
X141441638Y-124979205D01*
X141530534Y-125031406D01*
X141627125Y-125067930D01*
X141729300Y-125087434D01*
X141834950Y-125088573D01*
X141941964Y-125070005D01*
X142048232Y-125030384D01*
X142145219Y-124972516D01*
X142230293Y-124897684D01*
X142299015Y-124809615D01*
X142349918Y-124710616D01*
X142381535Y-124602993D01*
X142392400Y-124489054D01*
X142392400Y-124392267D01*
X144012753Y-124392267D01*
X144223897Y-124392280D01*
X144428020Y-124392330D01*
X144611686Y-124392430D01*
X144775991Y-124392592D01*
X144922029Y-124392829D01*
X145050894Y-124393153D01*
X145163683Y-124393575D01*
X145261488Y-124394109D01*
X145345404Y-124394767D01*
X145416527Y-124395561D01*
X145475950Y-124396504D01*
X145524768Y-124397608D01*
X145564077Y-124398884D01*
X145594969Y-124400347D01*
X145618541Y-124402007D01*
X145635886Y-124403878D01*
X145648099Y-124405972D01*
X145656275Y-124408300D01*
X145661508Y-124410876D01*
X145667504Y-124414445D01*
X145674279Y-124417978D01*
X145680478Y-124421488D01*
X145686126Y-124425918D01*
X145691247Y-124432208D01*
X145695869Y-124441301D01*
X145700015Y-124454139D01*
X145703713Y-124471662D01*
X145706987Y-124494813D01*
X145709863Y-124524534D01*
X145712367Y-124561765D01*
X145714524Y-124607449D01*
X145716360Y-124662527D01*
X145717900Y-124727941D01*
X145719170Y-124804633D01*
X145720195Y-124893544D01*
X145721001Y-124995617D01*
X145721034Y-125001867D01*
X145721614Y-125111792D01*
G36*
X145721614Y-125111792D02*
G01*
X145722059Y-125243011D01*
X145722362Y-125390216D01*
X145722548Y-125554349D01*
X145722642Y-125736352D01*
X145722671Y-125937165D01*
X145722661Y-126157732D01*
X145722636Y-126398992D01*
X145722622Y-126661889D01*
X145722622Y-126704040D01*
X145722646Y-126964668D01*
X145722685Y-127203796D01*
X145722708Y-127422360D01*
X145722687Y-127621295D01*
X145722593Y-127801535D01*
X145722395Y-127964015D01*
X145722063Y-128109670D01*
X145721569Y-128239434D01*
X145720883Y-128354243D01*
X145719976Y-128455030D01*
X145718817Y-128542730D01*
X145717378Y-128618279D01*
X145715629Y-128682611D01*
X145713540Y-128736661D01*
X145711083Y-128781363D01*
X145708227Y-128817652D01*
X145704943Y-128846463D01*
X145701202Y-128868731D01*
X145696974Y-128885390D01*
X145692229Y-128897375D01*
X145686939Y-128905621D01*
X145681073Y-128911062D01*
X145674602Y-128914634D01*
X145667497Y-128917270D01*
X145659728Y-128919906D01*
X145651266Y-128923477D01*
X145646908Y-128925145D01*
X145638395Y-128927111D01*
X145625694Y-128928911D01*
X145607885Y-128930555D01*
X145584049Y-128932047D01*
X145553266Y-128933397D01*
X145514617Y-128934611D01*
X145467182Y-128935697D01*
X145410043Y-128936661D01*
X145342279Y-128937511D01*
X145262971Y-128938253D01*
X145171199Y-128938897D01*
X145066044Y-128939447D01*
X144946587Y-128939913D01*
X144811908Y-128940300D01*
X144661088Y-128940616D01*
X144493206Y-128940869D01*
X144307345Y-128941066D01*
X144102583Y-128941213D01*
X143878002Y-128941318D01*
X143632682Y-128941389D01*
X143365704Y-128941432D01*
X143327321Y-128941437D01*
X143061922Y-128941480D01*
X142818050Y-128941525D01*
X142594783Y-128941548D01*
X142391196Y-128941524D01*
X142206367Y-128941430D01*
X142039373Y-128941243D01*
X141889290Y-128940939D01*
X141755196Y-128940494D01*
X141636166Y-128939885D01*
X141531279Y-128939089D01*
X141439610Y-128938080D01*
X141360237Y-128936837D01*
X141292237Y-128935335D01*
X141234686Y-128933551D01*
X141186662Y-128931461D01*
X141147240Y-128929042D01*
X141115499Y-128926270D01*
X141090514Y-128923121D01*
X141071364Y-128919572D01*
X141057123Y-128915598D01*
X141046871Y-128911178D01*
X141039682Y-128906286D01*
X141034635Y-128900900D01*
X141030805Y-128894996D01*
X141027271Y-128888549D01*
X141023108Y-128881537D01*
X141022025Y-128879687D01*
X141019813Y-128874180D01*
X141017786Y-128865868D01*
X141015938Y-128853809D01*
X141014261Y-128837063D01*
X141012745Y-128814687D01*
X141011383Y-128785740D01*
X141010167Y-128749280D01*
X141009089Y-128704367D01*
X141008140Y-128650057D01*
X141007312Y-128585410D01*
X141006597Y-128509484D01*
X141005987Y-128421338D01*
X141005942Y-128412493D01*
X141297378Y-128412493D01*
X141301260Y-128413765D01*
X141324520Y-128415791D01*
X141366874Y-128417626D01*
X141426132Y-128419227D01*
X141500107Y-128420549D01*
X141586610Y-128421548D01*
X141683452Y-128422180D01*
X141788445Y-128422400D01*
X142486651Y-128422400D01*
X143641090Y-128422400D01*
X143640456Y-128346200D01*
X143641574Y-128304160D01*
X143647304Y-128268334D01*
X143659890Y-128230772D01*
X143681568Y-128182577D01*
X143684789Y-128175897D01*
X143710188Y-128126359D01*
X143736996Y-128078369D01*
X143759917Y-128041466D01*
X143764485Y-128034834D01*
X143786516Y-128003593D01*
X143818693Y-127958654D01*
X143859457Y-127902147D01*
X143907245Y-127836204D01*
X143960498Y-127762957D01*
X144017655Y-127684536D01*
X144077155Y-127603072D01*
X144137437Y-127520698D01*
X144196940Y-127439544D01*
X144254105Y-127361742D01*
X144307370Y-127289423D01*
X144355174Y-127224718D01*
X144395957Y-127169759D01*
X144428158Y-127126676D01*
X144450216Y-127097602D01*
X144460571Y-127084667D01*
X144465044Y-127080351D01*
X144469236Y-127078312D01*
X144472643Y-127080926D01*
X144475325Y-127089986D01*
X144477341Y-127107285D01*
X144478748Y-127134614D01*
X144479605Y-127173765D01*
X144479970Y-127226533D01*
X144479903Y-127294707D01*
X144479460Y-127380082D01*
X144478702Y-127484449D01*
X144477685Y-127609600D01*
X144477308Y-127654300D01*
X144476169Y-127775395D01*
X144474972Y-127876688D01*
X144473636Y-127960262D01*
X144472077Y-128028204D01*
X144470215Y-128082599D01*
X144467966Y-128125532D01*
X144465248Y-128159089D01*
X144461979Y-128185355D01*
X144458078Y-128206416D01*
X144453461Y-128224357D01*
X144445192Y-128250770D01*
X144421583Y-128312772D01*
X144395685Y-128365573D01*
X144370535Y-128402645D01*
X144369339Y-128404075D01*
X144367168Y-128408424D01*
X144369328Y-128412026D01*
X144377644Y-128414951D01*
X144393940Y-128417269D01*
X144420041Y-128419051D01*
X144457771Y-128420367D01*
X144508956Y-128421286D01*
X144575420Y-128421878D01*
X144658987Y-128422215D01*
X144761483Y-128422365D01*
X144884732Y-128422400D01*
X145416296Y-128422400D01*
X145377523Y-128364783D01*
X145371432Y-128355893D01*
X145360976Y-128341069D01*
X145351579Y-128327422D01*
X145343183Y-128313765D01*
X145335733Y-128298911D01*
X145329173Y-128281670D01*
X145323446Y-128260855D01*
X145318495Y-128235280D01*
X145314266Y-128203755D01*
X145310701Y-128165093D01*
X145307744Y-128118107D01*
X145305340Y-128061608D01*
X145303431Y-127994409D01*
X145301962Y-127915322D01*
X145300876Y-127823160D01*
X145300118Y-127716734D01*
X145299630Y-127594857D01*
X145299358Y-127456341D01*
X145299243Y-127299999D01*
X145299231Y-127124642D01*
X145299265Y-126929082D01*
X145299289Y-126712133D01*
X145299280Y-126589513D01*
X145299243Y-126384447D01*
X145299227Y-126200116D01*
X145299288Y-126035334D01*
X145299484Y-125888916D01*
X145299870Y-125759674D01*
X145300505Y-125646422D01*
X145301444Y-125547975D01*
X145302745Y-125463144D01*
X145304464Y-125390744D01*
X145306659Y-125329589D01*
X145309385Y-125278492D01*
X145312701Y-125236267D01*
X145316662Y-125201727D01*
X145321325Y-125173686D01*
X145326747Y-125150958D01*
X145332986Y-125132356D01*
X145340097Y-125116693D01*
X145348138Y-125102784D01*
X145357166Y-125089441D01*
X145367236Y-125075479D01*
X145378407Y-125059711D01*
X145418197Y-125001867D01*
X144358314Y-125001867D01*
X144396311Y-125064966D01*
X144410993Y-125090005D01*
X144425531Y-125117586D01*
X144437627Y-125145700D01*
X144447532Y-125176551D01*
X144455494Y-125212344D01*
X144461761Y-125255283D01*
X144466582Y-125307574D01*
X144470206Y-125371419D01*
X144472881Y-125449025D01*
X144474857Y-125542594D01*
X144476382Y-125654333D01*
X144477704Y-125786445D01*
X144478613Y-125906434D01*
X144479020Y-126023063D01*
X144478767Y-126118531D01*
X144477857Y-126192556D01*
X144476293Y-126244855D01*
X144474079Y-126275149D01*
X144471220Y-126283156D01*
X144468161Y-126279858D01*
X144450006Y-126258408D01*
X144420275Y-126221889D01*
X144380639Y-126172442D01*
X144332771Y-126112207D01*
X144278343Y-126043327D01*
X144219027Y-125967943D01*
X144156495Y-125888196D01*
X144092421Y-125806228D01*
X144028475Y-125724180D01*
X143966331Y-125644194D01*
X143907661Y-125568411D01*
X143854137Y-125498973D01*
X143807430Y-125438021D01*
X143769214Y-125387696D01*
X143741161Y-125350140D01*
X143724943Y-125327495D01*
X143679635Y-125255212D01*
X143639661Y-125175463D01*
X143618130Y-125107188D01*
X143614827Y-125049844D01*
X143620116Y-125001867D01*
X142488356Y-125002117D01*
X142527867Y-125032722D01*
X142537248Y-125040089D01*
X142600183Y-125094438D01*
X142668997Y-125162259D01*
X142745596Y-125245516D01*
X142831888Y-125346178D01*
X142849052Y-125366847D01*
X142889833Y-125416409D01*
X142939588Y-125477326D01*
X142996955Y-125547898D01*
X143060569Y-125626424D01*
X143129069Y-125711204D01*
X143201090Y-125800537D01*
X143275270Y-125892722D01*
X143290517Y-125911702D01*
X143350246Y-125986060D01*
X143424653Y-126078848D01*
X143497131Y-126169388D01*
X143566314Y-126255978D01*
X143630841Y-126336918D01*
X143689347Y-126410506D01*
X143740470Y-126475044D01*
X143782847Y-126528829D01*
X143815115Y-126570162D01*
X143835910Y-126597342D01*
X143843869Y-126608668D01*
X143842111Y-126612771D01*
X143829230Y-126633334D01*
X143804885Y-126669561D01*
X143770247Y-126719824D01*
X143726486Y-126782492D01*
X143674775Y-126855936D01*
X143616284Y-126938527D01*
X143552184Y-127028636D01*
X143483646Y-127124631D01*
X143411843Y-127224885D01*
X143337944Y-127327768D01*
X143263121Y-127431650D01*
X143188545Y-127534901D01*
X143115387Y-127635892D01*
X143044819Y-127732994D01*
X142978011Y-127824577D01*
X142916135Y-127909011D01*
X142860361Y-127984667D01*
X142811862Y-128049916D01*
X142771807Y-128103128D01*
X142741369Y-128142673D01*
X142720944Y-128168026D01*
X142674899Y-128222295D01*
X142624612Y-128278775D01*
X142577815Y-128328669D01*
X142486651Y-128422400D01*
X141788445Y-128422400D01*
X141857356Y-128422349D01*
X141955607Y-128422091D01*
X142045030Y-128421637D01*
X142123333Y-128421010D01*
X142188223Y-128420235D01*
X142237411Y-128419335D01*
X142268604Y-128418334D01*
X142279511Y-128417257D01*
X142278322Y-128414037D01*
X142268176Y-128396452D01*
X142251040Y-128370158D01*
X142242540Y-128357691D01*
X142233329Y-128343622D01*
X142225233Y-128329351D01*
X142218185Y-128313479D01*
X142212117Y-128294609D01*
X142206961Y-128271341D01*
X142202651Y-128242278D01*
X142199119Y-128206021D01*
X142196297Y-128161170D01*
X142194118Y-128106328D01*
X142192514Y-128040097D01*
X142191419Y-127961077D01*
X142190765Y-127867871D01*
X142190484Y-127759079D01*
X142190509Y-127633303D01*
X142190772Y-127489145D01*
X142191206Y-127325207D01*
X142191745Y-127140089D01*
X142192279Y-126961232D01*
X142192805Y-126802374D01*
X142193350Y-126663316D01*
X142193945Y-126542665D01*
X142194619Y-126439028D01*
X142195403Y-126351011D01*
X142196326Y-126277223D01*
X142197419Y-126216269D01*
X142198712Y-126166757D01*
X142200235Y-126127293D01*
X142202019Y-126096484D01*
X142204092Y-126072938D01*
X142206486Y-126055260D01*
X142209230Y-126042059D01*
X142212356Y-126031940D01*
X142215892Y-126023511D01*
X142219791Y-126015375D01*
X142239438Y-125978544D01*
X142258225Y-125948391D01*
X142259272Y-125946908D01*
X142273602Y-125924659D01*
X142279511Y-125911702D01*
X142278504Y-125911249D01*
X142261305Y-125909803D01*
X142224656Y-125908480D01*
X142170962Y-125907316D01*
X142102630Y-125906347D01*
X142022064Y-125905611D01*
X141931670Y-125905142D01*
X141833853Y-125904978D01*
X141388195Y-125904978D01*
X141385120Y-127081845D01*
X141382045Y-128258711D01*
X141355407Y-128317622D01*
X141343485Y-128342183D01*
X141326246Y-128372434D01*
X141313074Y-128389560D01*
X141305076Y-128397591D01*
X141297378Y-128412493D01*
X141005942Y-128412493D01*
X141005474Y-128320029D01*
X141005050Y-128204617D01*
X141004706Y-128074160D01*
X141004434Y-127927716D01*
X141004227Y-127764344D01*
X141004076Y-127583101D01*
X141003972Y-127383048D01*
X141003908Y-127163241D01*
X141003876Y-126922739D01*
X141003867Y-126660602D01*
X141003867Y-124469031D01*
X141042249Y-124430649D01*
X141069355Y-124406911D01*
X141096253Y-124395111D01*
X141132560Y-124392267D01*
X141184489Y-124392267D01*
X141184489Y-124480206D01*
X141186427Y-124530102D01*
X141205199Y-124640523D01*
X141242217Y-124741987D01*
X141295369Y-124833152D01*
X141362546Y-124912673D01*
X141441638Y-124979205D01*
X141530534Y-125031406D01*
X141627125Y-125067930D01*
X141729300Y-125087434D01*
X141834950Y-125088573D01*
X141941964Y-125070005D01*
X142048232Y-125030384D01*
X142145219Y-124972516D01*
X142230293Y-124897684D01*
X142299015Y-124809615D01*
X142349918Y-124710616D01*
X142381535Y-124602993D01*
X142392400Y-124489054D01*
X142392400Y-124392267D01*
X144012753Y-124392267D01*
X144223897Y-124392280D01*
X144428020Y-124392330D01*
X144611686Y-124392430D01*
X144775991Y-124392592D01*
X144922029Y-124392829D01*
X145050894Y-124393153D01*
X145163683Y-124393575D01*
X145261488Y-124394109D01*
X145345404Y-124394767D01*
X145416527Y-124395561D01*
X145475950Y-124396504D01*
X145524768Y-124397608D01*
X145564077Y-124398884D01*
X145594969Y-124400347D01*
X145618541Y-124402007D01*
X145635886Y-124403878D01*
X145648099Y-124405972D01*
X145656275Y-124408300D01*
X145661508Y-124410876D01*
X145667504Y-124414445D01*
X145674279Y-124417978D01*
X145680478Y-124421488D01*
X145686126Y-124425918D01*
X145691247Y-124432208D01*
X145695869Y-124441301D01*
X145700015Y-124454139D01*
X145703713Y-124471662D01*
X145706987Y-124494813D01*
X145709863Y-124524534D01*
X145712367Y-124561765D01*
X145714524Y-124607449D01*
X145716360Y-124662527D01*
X145717900Y-124727941D01*
X145719170Y-124804633D01*
X145720195Y-124893544D01*
X145721001Y-124995617D01*
X145721034Y-125001867D01*
X145721614Y-125111792D01*
G37*
%TO.C,G\u002A\u002A\u002A*%
X140779500Y-118746889D02*
X138890375Y-118730069D01*
X137001250Y-118713250D01*
X137001250Y-118078250D01*
X140779500Y-118044610D01*
X140779500Y-118746889D01*
G36*
X140779500Y-118746889D02*
G01*
X138890375Y-118730069D01*
X137001250Y-118713250D01*
X137001250Y-118078250D01*
X140779500Y-118044610D01*
X140779500Y-118746889D01*
G37*
X144843500Y-114109500D02*
X139890500Y-114109500D01*
X139890500Y-113284000D01*
X143192500Y-113284000D01*
X143192500Y-108331000D01*
X144843500Y-108331000D01*
X144843500Y-114109500D01*
G36*
X144843500Y-114109500D02*
G01*
X139890500Y-114109500D01*
X139890500Y-113284000D01*
X143192500Y-113284000D01*
X143192500Y-108331000D01*
X144843500Y-108331000D01*
X144843500Y-114109500D01*
G37*
X147320000Y-113284000D02*
X148971000Y-113284000D01*
X148971000Y-108331000D01*
X150622000Y-108331000D01*
X150622000Y-113284000D01*
X149796500Y-113284000D01*
X149796500Y-114109500D01*
X146494500Y-114109500D01*
X146494500Y-113284000D01*
X145669000Y-113284000D01*
X145669000Y-108331000D01*
X147320000Y-108331000D01*
X147320000Y-113284000D01*
G36*
X147320000Y-113284000D02*
G01*
X148971000Y-113284000D01*
X148971000Y-108331000D01*
X150622000Y-108331000D01*
X150622000Y-113284000D01*
X149796500Y-113284000D01*
X149796500Y-114109500D01*
X146494500Y-114109500D01*
X146494500Y-113284000D01*
X145669000Y-113284000D01*
X145669000Y-108331000D01*
X147320000Y-108331000D01*
X147320000Y-113284000D01*
G37*
X151384000Y-116840000D02*
X150749000Y-116840000D01*
X150749000Y-119951500D01*
X151384000Y-119951500D01*
X151384000Y-120586500D01*
X148844000Y-120586500D01*
X148844000Y-119951500D01*
X149479000Y-119951500D01*
X149479000Y-116840000D01*
X148844000Y-116840000D01*
X148844000Y-116205000D01*
X151384000Y-116205000D01*
X151384000Y-116840000D01*
G36*
X151384000Y-116840000D02*
G01*
X150749000Y-116840000D01*
X150749000Y-119951500D01*
X151384000Y-119951500D01*
X151384000Y-120586500D01*
X148844000Y-120586500D01*
X148844000Y-119951500D01*
X149479000Y-119951500D01*
X149479000Y-116840000D01*
X148844000Y-116840000D01*
X148844000Y-116205000D01*
X151384000Y-116205000D01*
X151384000Y-116840000D01*
G37*
X143891000Y-116840000D02*
X143256000Y-116840000D01*
X143256000Y-119951500D01*
X143891000Y-119951500D01*
X143891000Y-120586500D01*
X141351000Y-120586500D01*
X141351000Y-119951500D01*
X141986000Y-119951500D01*
X141986000Y-116840000D01*
X141351000Y-116840000D01*
X141351000Y-116205000D01*
X143891000Y-116205000D01*
X143891000Y-116840000D01*
G36*
X143891000Y-116840000D02*
G01*
X143256000Y-116840000D01*
X143256000Y-119951500D01*
X143891000Y-119951500D01*
X143891000Y-120586500D01*
X141351000Y-120586500D01*
X141351000Y-119951500D01*
X141986000Y-119951500D01*
X141986000Y-116840000D01*
X141351000Y-116840000D01*
X141351000Y-116205000D01*
X143891000Y-116205000D01*
X143891000Y-116840000D01*
G37*
X129984500Y-110807500D02*
X131635500Y-110807500D01*
X131635500Y-108331000D01*
X133286500Y-108331000D01*
X133286500Y-110807500D01*
X132461000Y-110807500D01*
X132461000Y-111633000D01*
X131635500Y-111633000D01*
X131635500Y-114109500D01*
X129984500Y-114109500D01*
X129984500Y-111633000D01*
X129159000Y-111633000D01*
X129159000Y-110807500D01*
X128333500Y-110807500D01*
X128333500Y-108331000D01*
X129984500Y-108331000D01*
X129984500Y-110807500D01*
G36*
X129984500Y-110807500D02*
G01*
X131635500Y-110807500D01*
X131635500Y-108331000D01*
X133286500Y-108331000D01*
X133286500Y-110807500D01*
X132461000Y-110807500D01*
X132461000Y-111633000D01*
X131635500Y-111633000D01*
X131635500Y-114109500D01*
X129984500Y-114109500D01*
X129984500Y-111633000D01*
X129159000Y-111633000D01*
X129159000Y-110807500D01*
X128333500Y-110807500D01*
X128333500Y-108331000D01*
X129984500Y-108331000D01*
X129984500Y-110807500D01*
G37*
X153289000Y-116487270D02*
X153289001Y-116769541D01*
X153590625Y-116788895D01*
X153892250Y-116808250D01*
X153911605Y-117109875D01*
X153930959Y-117411500D01*
X154488542Y-117411500D01*
X154527250Y-116808250D01*
X154828875Y-116788895D01*
X155130501Y-116769541D01*
X155130500Y-116487270D01*
X155130500Y-116205000D01*
X156400500Y-116205000D01*
X156400500Y-120586500D01*
X155130500Y-120586500D01*
X155130500Y-118110000D01*
X154565959Y-118110000D01*
X154546605Y-118411625D01*
X154527250Y-118713250D01*
X153860500Y-118751636D01*
X153860500Y-118110000D01*
X153289000Y-118110000D01*
X153289000Y-120586500D01*
X152019000Y-120586500D01*
X152019000Y-116205000D01*
X153289000Y-116205000D01*
X153289000Y-116487270D01*
G36*
X153289000Y-116487270D02*
G01*
X153289001Y-116769541D01*
X153590625Y-116788895D01*
X153892250Y-116808250D01*
X153911605Y-117109875D01*
X153930959Y-117411500D01*
X154488542Y-117411500D01*
X154527250Y-116808250D01*
X154828875Y-116788895D01*
X155130501Y-116769541D01*
X155130500Y-116487270D01*
X155130500Y-116205000D01*
X156400500Y-116205000D01*
X156400500Y-120586500D01*
X155130500Y-120586500D01*
X155130500Y-118110000D01*
X154565959Y-118110000D01*
X154546605Y-118411625D01*
X154527250Y-118713250D01*
X153860500Y-118751636D01*
X153860500Y-118110000D01*
X153289000Y-118110000D01*
X153289000Y-120586500D01*
X152019000Y-120586500D01*
X152019000Y-116205000D01*
X153289000Y-116205000D01*
X153289000Y-116487270D01*
G37*
X156400500Y-111633000D02*
X156400500Y-114109500D01*
X152273000Y-114109500D01*
X152273000Y-113284000D01*
X153098500Y-113284000D01*
X154749500Y-113284000D01*
X154749500Y-111633000D01*
X153098500Y-111633000D01*
X153098500Y-113284000D01*
X152273000Y-113284000D01*
X151447500Y-113284000D01*
X151447500Y-111633000D01*
X152273000Y-111633000D01*
X152273000Y-110807500D01*
X153098500Y-110807500D01*
X154749500Y-110807500D01*
X154749500Y-109156500D01*
X153098500Y-109156500D01*
X153098500Y-110807500D01*
X152273000Y-110807500D01*
X151447500Y-110807500D01*
X151447500Y-109156500D01*
X152273000Y-109156500D01*
X152273000Y-108331000D01*
X156400500Y-108331000D01*
X156400500Y-109156500D01*
X156400500Y-111633000D01*
G36*
X156400500Y-111633000D02*
G01*
X156400500Y-114109500D01*
X152273000Y-114109500D01*
X152273000Y-113284000D01*
X153098500Y-113284000D01*
X154749500Y-113284000D01*
X154749500Y-111633000D01*
X153098500Y-111633000D01*
X153098500Y-113284000D01*
X152273000Y-113284000D01*
X151447500Y-113284000D01*
X151447500Y-111633000D01*
X152273000Y-111633000D01*
X152273000Y-110807500D01*
X153098500Y-110807500D01*
X154749500Y-110807500D01*
X154749500Y-109156500D01*
X153098500Y-109156500D01*
X153098500Y-110807500D01*
X152273000Y-110807500D01*
X151447500Y-110807500D01*
X151447500Y-109156500D01*
X152273000Y-109156500D01*
X152273000Y-108331000D01*
X156400500Y-108331000D01*
X156400500Y-109156500D01*
X156400500Y-111633000D01*
G37*
X148272500Y-120586500D02*
X145732500Y-120586500D01*
X145732500Y-119951500D01*
X145097500Y-119951500D01*
X145097500Y-119386958D01*
X144494250Y-119348250D01*
X144494250Y-119316500D01*
X145796000Y-119316500D01*
X146431000Y-119316500D01*
X146431000Y-119951500D01*
X147002500Y-119951500D01*
X147002500Y-116840000D01*
X146431000Y-116840000D01*
X146431000Y-117475000D01*
X145796000Y-117475000D01*
X145796000Y-119316500D01*
X144494250Y-119316500D01*
X144494250Y-117443250D01*
X144792533Y-117424032D01*
X145090815Y-117404814D01*
X145110033Y-117106532D01*
X145129250Y-116808250D01*
X145430875Y-116788895D01*
X145732500Y-116769541D01*
X145732500Y-116205000D01*
X148272500Y-116205000D01*
X148272500Y-116840000D01*
X148272500Y-120586500D01*
G36*
X148272500Y-120586500D02*
G01*
X145732500Y-120586500D01*
X145732500Y-119951500D01*
X145097500Y-119951500D01*
X145097500Y-119386958D01*
X144494250Y-119348250D01*
X144494250Y-119316500D01*
X145796000Y-119316500D01*
X146431000Y-119316500D01*
X146431000Y-119951500D01*
X147002500Y-119951500D01*
X147002500Y-116840000D01*
X146431000Y-116840000D01*
X146431000Y-117475000D01*
X145796000Y-117475000D01*
X145796000Y-119316500D01*
X144494250Y-119316500D01*
X144494250Y-117443250D01*
X144792533Y-117424032D01*
X145090815Y-117404814D01*
X145110033Y-117106532D01*
X145129250Y-116808250D01*
X145430875Y-116788895D01*
X145732500Y-116769541D01*
X145732500Y-116205000D01*
X148272500Y-116205000D01*
X148272500Y-116840000D01*
X148272500Y-120586500D01*
G37*
X123698000Y-115313315D02*
X124952125Y-115330532D01*
X126206250Y-115347750D01*
X126225027Y-115776375D01*
X126243803Y-116205000D01*
X127063500Y-116205000D01*
X127063500Y-118681500D01*
X126238000Y-118681500D01*
X126238000Y-119507000D01*
X122872500Y-119507000D01*
X122872500Y-118681500D01*
X121983500Y-118681500D01*
X121983500Y-111887000D01*
X121158000Y-111887000D01*
X121158000Y-113601500D01*
X120269000Y-113601500D01*
X120269000Y-114496560D01*
X119475250Y-114458750D01*
X119458327Y-112794800D01*
X119441403Y-111130850D01*
X119871077Y-111112050D01*
X120300750Y-111093250D01*
X120319527Y-110664625D01*
X120338303Y-110236000D01*
X121983500Y-110236000D01*
X121983500Y-109410500D01*
X123698000Y-109410500D01*
X123698000Y-115313315D01*
G36*
X123698000Y-115313315D02*
G01*
X124952125Y-115330532D01*
X126206250Y-115347750D01*
X126225027Y-115776375D01*
X126243803Y-116205000D01*
X127063500Y-116205000D01*
X127063500Y-118681500D01*
X126238000Y-118681500D01*
X126238000Y-119507000D01*
X122872500Y-119507000D01*
X122872500Y-118681500D01*
X121983500Y-118681500D01*
X121983500Y-111887000D01*
X121158000Y-111887000D01*
X121158000Y-113601500D01*
X120269000Y-113601500D01*
X120269000Y-114496560D01*
X119475250Y-114458750D01*
X119458327Y-112794800D01*
X119441403Y-111130850D01*
X119871077Y-111112050D01*
X120300750Y-111093250D01*
X120319527Y-110664625D01*
X120338303Y-110236000D01*
X121983500Y-110236000D01*
X121983500Y-109410500D01*
X123698000Y-109410500D01*
X123698000Y-115313315D01*
G37*
X135763000Y-109156500D02*
X136588500Y-109156500D01*
X136588500Y-109982000D01*
X137414000Y-109982000D01*
X137414000Y-108331000D01*
X139065000Y-108331000D01*
X139065000Y-114109500D01*
X137414000Y-114109500D01*
X137414000Y-112458500D01*
X136588500Y-112458500D01*
X136588500Y-113284000D01*
X135763000Y-113284000D01*
X135763000Y-114109500D01*
X134112000Y-114109500D01*
X134112000Y-113284000D01*
X134937500Y-113284000D01*
X134937500Y-112458500D01*
X135763000Y-112458500D01*
X135763000Y-111633000D01*
X136588500Y-111633000D01*
X136588500Y-110807500D01*
X135763000Y-110807500D01*
X135763000Y-109982000D01*
X134937500Y-109982000D01*
X134937500Y-109156500D01*
X134112000Y-109156500D01*
X134112000Y-108331000D01*
X135763000Y-108331000D01*
X135763000Y-109156500D01*
G36*
X135763000Y-109156500D02*
G01*
X136588500Y-109156500D01*
X136588500Y-109982000D01*
X137414000Y-109982000D01*
X137414000Y-108331000D01*
X139065000Y-108331000D01*
X139065000Y-114109500D01*
X137414000Y-114109500D01*
X137414000Y-112458500D01*
X136588500Y-112458500D01*
X136588500Y-113284000D01*
X135763000Y-113284000D01*
X135763000Y-114109500D01*
X134112000Y-114109500D01*
X134112000Y-113284000D01*
X134937500Y-113284000D01*
X134937500Y-112458500D01*
X135763000Y-112458500D01*
X135763000Y-111633000D01*
X136588500Y-111633000D01*
X136588500Y-110807500D01*
X135763000Y-110807500D01*
X135763000Y-109982000D01*
X134937500Y-109982000D01*
X134937500Y-109156500D01*
X134112000Y-109156500D01*
X134112000Y-108331000D01*
X135763000Y-108331000D01*
X135763000Y-109156500D01*
G37*
X131381500Y-116776500D02*
X132016500Y-116776500D01*
X132016500Y-117475000D01*
X130746500Y-117475000D01*
X130746500Y-116840000D01*
X129540000Y-116840000D01*
X129540000Y-118046500D01*
X130175000Y-118046500D01*
X130175000Y-118681500D01*
X131381500Y-118681500D01*
X131381500Y-119316500D01*
X132016500Y-119316500D01*
X132016500Y-120586500D01*
X128206500Y-120586500D01*
X128206500Y-119951500D01*
X130746500Y-119951500D01*
X130746500Y-119386958D01*
X130143250Y-119348250D01*
X130123989Y-119048883D01*
X130104727Y-118749517D01*
X129488989Y-118731383D01*
X128873250Y-118713250D01*
X128854033Y-118414967D01*
X128834815Y-118116685D01*
X128536533Y-118097467D01*
X128238250Y-118078250D01*
X128238250Y-116808250D01*
X128539875Y-116788895D01*
X128841500Y-116769541D01*
X128841500Y-116205000D01*
X131381500Y-116205000D01*
X131381500Y-116776500D01*
G36*
X131381500Y-116776500D02*
G01*
X132016500Y-116776500D01*
X132016500Y-117475000D01*
X130746500Y-117475000D01*
X130746500Y-116840000D01*
X129540000Y-116840000D01*
X129540000Y-118046500D01*
X130175000Y-118046500D01*
X130175000Y-118681500D01*
X131381500Y-118681500D01*
X131381500Y-119316500D01*
X132016500Y-119316500D01*
X132016500Y-120586500D01*
X128206500Y-120586500D01*
X128206500Y-119951500D01*
X130746500Y-119951500D01*
X130746500Y-119386958D01*
X130143250Y-119348250D01*
X130123989Y-119048883D01*
X130104727Y-118749517D01*
X129488989Y-118731383D01*
X128873250Y-118713250D01*
X128854033Y-118414967D01*
X128834815Y-118116685D01*
X128536533Y-118097467D01*
X128238250Y-118078250D01*
X128238250Y-116808250D01*
X128539875Y-116788895D01*
X128841500Y-116769541D01*
X128841500Y-116205000D01*
X131381500Y-116205000D01*
X131381500Y-116776500D01*
G37*
X135763000Y-116776500D02*
X136398000Y-116776500D01*
X136398000Y-117475000D01*
X135128000Y-117475000D01*
X135128000Y-116840000D01*
X133921500Y-116840000D01*
X133921500Y-118041901D01*
X134540625Y-118060075D01*
X135159750Y-118078250D01*
X135159750Y-118713250D01*
X133921500Y-118749598D01*
X133921500Y-119951500D01*
X135128000Y-119951500D01*
X135128000Y-119316500D01*
X136398000Y-119316500D01*
X136398000Y-119944541D01*
X136096375Y-119963895D01*
X135794750Y-119983250D01*
X135756042Y-120586500D01*
X133223000Y-120586500D01*
X133223000Y-119951500D01*
X132583402Y-119951500D01*
X132619750Y-118713250D01*
X132921375Y-118693895D01*
X133223000Y-118674541D01*
X133223000Y-118116958D01*
X132619750Y-118078250D01*
X132619750Y-116808250D01*
X132921375Y-116788895D01*
X133223000Y-116769541D01*
X133223000Y-116205000D01*
X135763000Y-116205000D01*
X135763000Y-116776500D01*
G36*
X135763000Y-116776500D02*
G01*
X136398000Y-116776500D01*
X136398000Y-117475000D01*
X135128000Y-117475000D01*
X135128000Y-116840000D01*
X133921500Y-116840000D01*
X133921500Y-118041901D01*
X134540625Y-118060075D01*
X135159750Y-118078250D01*
X135159750Y-118713250D01*
X133921500Y-118749598D01*
X133921500Y-119951500D01*
X135128000Y-119951500D01*
X135128000Y-119316500D01*
X136398000Y-119316500D01*
X136398000Y-119944541D01*
X136096375Y-119963895D01*
X135794750Y-119983250D01*
X135756042Y-120586500D01*
X133223000Y-120586500D01*
X133223000Y-119951500D01*
X132583402Y-119951500D01*
X132619750Y-118713250D01*
X132921375Y-118693895D01*
X133223000Y-118674541D01*
X133223000Y-118116958D01*
X132619750Y-118078250D01*
X132619750Y-116808250D01*
X132921375Y-116788895D01*
X133223000Y-116769541D01*
X133223000Y-116205000D01*
X135763000Y-116205000D01*
X135763000Y-116776500D01*
G37*
D13*
%TO.C,J7*%
X116900000Y-125155000D02*
X111700000Y-125155000D01*
X116900000Y-99635000D02*
X116900000Y-125155000D01*
X116900000Y-99635000D02*
X114300000Y-99635000D01*
X114300000Y-102235000D02*
X111700000Y-102235000D01*
X114300000Y-99635000D02*
X114300000Y-102235000D01*
X113030000Y-99635000D02*
X111700000Y-99635000D01*
X111700000Y-102235000D02*
X111700000Y-125155000D01*
X111700000Y-99635000D02*
X111700000Y-100965000D01*
%TO.C,JP4*%
X97347000Y-72895000D02*
X95347000Y-72895000D01*
X95347000Y-72895000D02*
X95347000Y-75695000D01*
X97347000Y-75695000D02*
X97347000Y-72895000D01*
X95347000Y-75695000D02*
X97347000Y-75695000D01*
%TO.C,JP5*%
X101157000Y-72895000D02*
X99157000Y-72895000D01*
X99157000Y-72895000D02*
X99157000Y-75695000D01*
X101157000Y-75695000D02*
X101157000Y-72895000D01*
X99157000Y-75695000D02*
X101157000Y-75695000D01*
%TO.C,JP6*%
X93537000Y-72895000D02*
X91537000Y-72895000D01*
X91537000Y-72895000D02*
X91537000Y-75695000D01*
X93537000Y-75695000D02*
X93537000Y-72895000D01*
X91537000Y-75695000D02*
X93537000Y-75695000D01*
%TO.C,JP7*%
X135950000Y-135900000D02*
X135950000Y-136500000D01*
X136500000Y-134700000D02*
X137100000Y-134700000D01*
X136600000Y-137200000D02*
X139400000Y-137200000D01*
X136800000Y-135000000D02*
X136500000Y-134700000D01*
X136800000Y-135000000D02*
X137100000Y-134700000D01*
X139400000Y-135200000D02*
X136600000Y-135200000D01*
X140050000Y-136500000D02*
X140050000Y-135900000D01*
X136650000Y-135200000D02*
G75*
G03*
X135950000Y-135900000I-1J-699999D01*
G01*
X135950000Y-136500000D02*
G75*
G03*
X136650000Y-137200000I699999J-1D01*
G01*
X140050000Y-135900000D02*
G75*
G03*
X139350000Y-135200000I-700000J0D01*
G01*
X139350000Y-137200000D02*
G75*
G03*
X140050000Y-136500000I0J700000D01*
G01*
%TO.C,JP8*%
X145050000Y-136700000D02*
X145050000Y-136100000D01*
X144500000Y-137900000D02*
X143900000Y-137900000D01*
X144400000Y-135400000D02*
X141600000Y-135400000D01*
X144200000Y-137600000D02*
X144500000Y-137900000D01*
X144200000Y-137600000D02*
X143900000Y-137900000D01*
X141600000Y-137400000D02*
X144400000Y-137400000D01*
X140950000Y-136100000D02*
X140950000Y-136700000D01*
X144350000Y-137400000D02*
G75*
G03*
X145050000Y-136700000I1J699999D01*
G01*
X145050000Y-136100000D02*
G75*
G03*
X144350000Y-135400000I-699999J1D01*
G01*
X140950000Y-136700000D02*
G75*
G03*
X141650000Y-137400000I700000J0D01*
G01*
X141650000Y-135400000D02*
G75*
G03*
X140950000Y-136100000I0J-700000D01*
G01*
%TD*%
%LPC*%
D15*
%TO.C,A1*%
X166160000Y-137535000D03*
X108160000Y-137535000D03*
D16*
X161290000Y-89805000D03*
D17*
X161290000Y-87265000D03*
X158750000Y-89805000D03*
X158750000Y-87265000D03*
X156210000Y-89805000D03*
X156210000Y-87265000D03*
X153670000Y-89805000D03*
X153670000Y-87265000D03*
X151130000Y-89805000D03*
X151130000Y-87265000D03*
X148590000Y-89805000D03*
X148590000Y-87265000D03*
X146050000Y-89805000D03*
X146050000Y-87265000D03*
X143510000Y-89805000D03*
X143510000Y-87265000D03*
X140970000Y-89805000D03*
X140970000Y-87265000D03*
X138430000Y-89805000D03*
X138430000Y-87265000D03*
X135890000Y-89805000D03*
X135890000Y-87265000D03*
X133350000Y-89805000D03*
X133350000Y-87265000D03*
X130810000Y-89805000D03*
X130810000Y-87265000D03*
X128270000Y-89805000D03*
X128270000Y-87265000D03*
X125730000Y-89805000D03*
X125730000Y-87265000D03*
X123190000Y-89805000D03*
X123190000Y-87265000D03*
X120650000Y-89805000D03*
X120650000Y-87265000D03*
X118110000Y-89805000D03*
X118110000Y-87265000D03*
X115570000Y-89805000D03*
X115570000Y-87265000D03*
X113030000Y-89805000D03*
X113030000Y-87265000D03*
%TD*%
D15*
%TO.C,M1*%
X73355000Y-151435000D03*
%TD*%
%TO.C,M2*%
X167005000Y-151435000D03*
%TD*%
%TO.C,M3*%
X167005000Y-57785000D03*
%TD*%
%TO.C,M4*%
X73355000Y-57785000D03*
%TD*%
D16*
%TO.C,J4*%
X72085000Y-62865000D03*
D17*
X72085000Y-65405000D03*
X72085000Y-67945000D03*
X72085000Y-70485000D03*
X72085000Y-73025000D03*
X72085000Y-75565000D03*
X72085000Y-78105000D03*
X72085000Y-80645000D03*
X72085000Y-83185000D03*
X72085000Y-85725000D03*
%TD*%
D18*
%TO.C,SW4*%
X149395500Y-149026000D03*
X142385500Y-149026000D03*
D19*
X148145500Y-151516000D03*
X143645500Y-151516000D03*
%TD*%
D20*
%TO.C,U2*%
X123952000Y-83820000D03*
D21*
X126492000Y-83820000D03*
X129032000Y-83820000D03*
X129032000Y-76200000D03*
X126492000Y-76200000D03*
X123952000Y-76200000D03*
%TD*%
D16*
%TO.C,ENC1*%
X159385000Y-123190000D03*
D17*
X159385000Y-125730000D03*
X159385000Y-128270000D03*
X159385000Y-130810000D03*
X159385000Y-133350000D03*
%TD*%
D16*
%TO.C,J5*%
X159385000Y-96520000D03*
D17*
X159385000Y-99060000D03*
X159385000Y-101600000D03*
X159385000Y-104140000D03*
X159385000Y-106680000D03*
%TD*%
D16*
%TO.C,J6*%
X159385000Y-111125000D03*
D17*
X159385000Y-113665000D03*
X159385000Y-116205000D03*
X159385000Y-118745000D03*
%TD*%
D22*
%TO.C,A2*%
X119207000Y-69596000D03*
X119207000Y-67056000D03*
X119207000Y-64516000D03*
X119207000Y-61976000D03*
X119207000Y-59436000D03*
X119207000Y-56896000D03*
X92537000Y-70231000D03*
X95077000Y-70231000D03*
X97617000Y-70231000D03*
X100157000Y-70231000D03*
X102697000Y-70231000D03*
X105237000Y-70231000D03*
X107777000Y-70231000D03*
X110317000Y-70231000D03*
X112857000Y-70231000D03*
%TD*%
D18*
%TO.C,SW2*%
X97897000Y-149280000D03*
X90887000Y-149280000D03*
D19*
X96647000Y-151770000D03*
X92147000Y-151770000D03*
%TD*%
D16*
%TO.C,J8*%
X112560000Y-132770000D03*
D17*
X115100000Y-132770000D03*
X117640000Y-132770000D03*
X120180000Y-132770000D03*
X122720000Y-132770000D03*
X125260000Y-132770000D03*
X127800000Y-132770000D03*
X130340000Y-132770000D03*
X132880000Y-132770000D03*
X135420000Y-132770000D03*
X137960000Y-132770000D03*
X140500000Y-132770000D03*
%TD*%
D23*
%TO.C,IC1*%
X123990000Y-149860000D03*
D24*
X121450000Y-149860000D03*
X118910000Y-149860000D03*
X116370000Y-149860000D03*
%TD*%
D18*
%TO.C,SW1*%
X86467000Y-149280000D03*
X79457000Y-149280000D03*
D19*
X85217000Y-151770000D03*
X80717000Y-151770000D03*
%TD*%
D18*
%TO.C,SW3*%
X160825500Y-149026000D03*
X153815500Y-149026000D03*
D19*
X159575500Y-151516000D03*
X155075500Y-151516000D03*
%TD*%
D25*
%TO.C,J1*%
X83100000Y-60000000D03*
D26*
X83100000Y-64400000D03*
%TD*%
D27*
%TO.C,J2*%
X145535000Y-67310000D03*
X153035000Y-67310000D03*
X160535000Y-67310000D03*
X148035000Y-69810000D03*
X158035000Y-69810000D03*
D28*
X158035000Y-57310000D03*
X155535000Y-57310000D03*
X150535000Y-57310000D03*
X148035000Y-57310000D03*
%TD*%
D27*
%TO.C,J3*%
X125215000Y-67310000D03*
X132715000Y-67310000D03*
X140215000Y-67310000D03*
X127715000Y-69810000D03*
X137715000Y-69810000D03*
D28*
X137715000Y-57310000D03*
X135215000Y-57310000D03*
X130215000Y-57310000D03*
X127715000Y-57310000D03*
%TD*%
D29*
%TO.C,J11*%
X95050000Y-56425000D03*
X95050000Y-63425000D03*
%TD*%
D30*
%TO.C,J9*%
X115690000Y-61120000D03*
X109910000Y-61120000D03*
D31*
X117120000Y-61620000D03*
D32*
X117120000Y-57440000D03*
D31*
X108480000Y-61620000D03*
D32*
X108480000Y-57440000D03*
%TD*%
D33*
%TO.C,JP3*%
X132948200Y-137706100D03*
D34*
X131648200Y-137706100D03*
D35*
X130348200Y-137706100D03*
%TD*%
D16*
%TO.C,J7*%
X113030000Y-100965000D03*
D17*
X115570000Y-100965000D03*
X113030000Y-103505000D03*
X115570000Y-103505000D03*
X113030000Y-106045000D03*
X115570000Y-106045000D03*
X113030000Y-108585000D03*
X115570000Y-108585000D03*
X113030000Y-111125000D03*
X115570000Y-111125000D03*
X113030000Y-113665000D03*
X115570000Y-113665000D03*
X113030000Y-116205000D03*
X115570000Y-116205000D03*
X113030000Y-118745000D03*
X115570000Y-118745000D03*
X113030000Y-121285000D03*
X115570000Y-121285000D03*
X113030000Y-123825000D03*
X115570000Y-123825000D03*
%TD*%
D36*
%TO.C,JP4*%
X96347000Y-73570000D03*
D37*
X96347000Y-75020000D03*
%TD*%
D36*
%TO.C,JP5*%
X100157000Y-73570000D03*
D37*
X100157000Y-75020000D03*
%TD*%
D36*
%TO.C,JP6*%
X92537000Y-73570000D03*
D37*
X92537000Y-75020000D03*
%TD*%
D38*
%TO.C,JP7*%
X136700000Y-136200000D03*
D34*
X138000000Y-136200000D03*
D39*
X139300000Y-136200000D03*
%TD*%
D33*
%TO.C,JP8*%
X144300000Y-136400000D03*
D34*
X143000000Y-136400000D03*
D35*
X141700000Y-136400000D03*
%TD*%
%LPD*%
M02*
