%TF.GenerationSoftware,KiCad,Pcbnew,7.0.9*%
%TF.CreationDate,2025-11-18T13:32:36+03:00*%
%TF.ProjectId,BulkyMIDI-32 Module,42756c6b-794d-4494-9449-2d3332204d6f,rev?*%
%TF.SameCoordinates,Original*%
%TF.FileFunction,Paste,Top*%
%TF.FilePolarity,Positive*%
%FSLAX46Y46*%
G04 Gerber Fmt 4.6, Leading zero omitted, Abs format (unit mm)*
G04 Created by KiCad (PCBNEW 7.0.9) date 2025-11-18 13:32:36*
%MOMM*%
%LPD*%
G01*
G04 APERTURE LIST*
G04 Aperture macros list*
%AMRoundRect*
0 Rectangle with rounded corners*
0 $1 Rounding radius*
0 $2 $3 $4 $5 $6 $7 $8 $9 X,Y pos of 4 corners*
0 Add a 4 corners polygon primitive as box body*
4,1,4,$2,$3,$4,$5,$6,$7,$8,$9,$2,$3,0*
0 Add four circle primitives for the rounded corners*
1,1,$1+$1,$2,$3*
1,1,$1+$1,$4,$5*
1,1,$1+$1,$6,$7*
1,1,$1+$1,$8,$9*
0 Add four rect primitives between the rounded corners*
20,1,$1+$1,$2,$3,$4,$5,0*
20,1,$1+$1,$4,$5,$6,$7,0*
20,1,$1+$1,$6,$7,$8,$9,0*
20,1,$1+$1,$8,$9,$2,$3,0*%
G04 Aperture macros list end*
%ADD10RoundRect,0.250000X-0.925000X0.412500X-0.925000X-0.412500X0.925000X-0.412500X0.925000X0.412500X0*%
%ADD11RoundRect,0.250000X0.412500X0.925000X-0.412500X0.925000X-0.412500X-0.925000X0.412500X-0.925000X0*%
%ADD12RoundRect,0.250000X0.925000X-0.412500X0.925000X0.412500X-0.925000X0.412500X-0.925000X-0.412500X0*%
%ADD13RoundRect,0.140000X-0.140000X-0.170000X0.140000X-0.170000X0.140000X0.170000X-0.140000X0.170000X0*%
%ADD14RoundRect,0.140000X-0.170000X0.140000X-0.170000X-0.140000X0.170000X-0.140000X0.170000X0.140000X0*%
%ADD15RoundRect,0.112500X0.112500X-0.187500X0.112500X0.187500X-0.112500X0.187500X-0.112500X-0.187500X0*%
%ADD16RoundRect,0.250000X-0.450000X0.262500X-0.450000X-0.262500X0.450000X-0.262500X0.450000X0.262500X0*%
%ADD17RoundRect,0.250000X0.262500X0.450000X-0.262500X0.450000X-0.262500X-0.450000X0.262500X-0.450000X0*%
%ADD18RoundRect,0.250000X-0.262500X-0.450000X0.262500X-0.450000X0.262500X0.450000X-0.262500X0.450000X0*%
%ADD19RoundRect,0.150000X0.150000X-0.825000X0.150000X0.825000X-0.150000X0.825000X-0.150000X-0.825000X0*%
%ADD20R,3.000000X2.000000*%
%ADD21RoundRect,0.140000X0.170000X-0.140000X0.170000X0.140000X-0.170000X0.140000X-0.170000X-0.140000X0*%
%ADD22R,1.500000X2.000000*%
%ADD23R,3.800000X2.000000*%
%ADD24RoundRect,0.135000X0.185000X-0.135000X0.185000X0.135000X-0.185000X0.135000X-0.185000X-0.135000X0*%
%ADD25R,2.500000X1.200000*%
%ADD26RoundRect,0.135000X0.135000X0.185000X-0.135000X0.185000X-0.135000X-0.185000X0.135000X-0.185000X0*%
%ADD27RoundRect,0.100000X-0.637500X-0.100000X0.637500X-0.100000X0.637500X0.100000X-0.637500X0.100000X0*%
%ADD28R,0.300000X1.150000*%
G04 APERTURE END LIST*
D10*
%TO.C,C28*%
X118618000Y-72376500D03*
X118618000Y-75451500D03*
%TD*%
D11*
%TO.C,C27*%
X108471500Y-77216000D03*
X105396500Y-77216000D03*
%TD*%
%TO.C,C26*%
X108471500Y-73914000D03*
X105396500Y-73914000D03*
%TD*%
D12*
%TO.C,C25*%
X105410000Y-82817500D03*
X105410000Y-79742500D03*
%TD*%
D10*
%TO.C,C24*%
X82804000Y-75424500D03*
X82804000Y-78499500D03*
%TD*%
D13*
%TO.C,C23*%
X95532000Y-67818000D03*
X96492000Y-67818000D03*
%TD*%
%TO.C,C22*%
X90706000Y-72390000D03*
X91666000Y-72390000D03*
%TD*%
%TO.C,C21*%
X87178000Y-72390000D03*
X88138000Y-72390000D03*
%TD*%
%TO.C,C20*%
X99116000Y-72390000D03*
X100076000Y-72390000D03*
%TD*%
%TO.C,C19*%
X99088000Y-73406000D03*
X100048000Y-73406000D03*
%TD*%
D14*
%TO.C,C3*%
X120800000Y-78006000D03*
X120800000Y-78966000D03*
%TD*%
D13*
%TO.C,C4*%
X109640000Y-81000000D03*
X110600000Y-81000000D03*
%TD*%
D10*
%TO.C,C5*%
X115000000Y-74262500D03*
X115000000Y-77337500D03*
%TD*%
D15*
%TO.C,D1*%
X132715000Y-83346000D03*
X132715000Y-81246000D03*
%TD*%
D16*
%TO.C,R1*%
X167005000Y-62841500D03*
X167005000Y-64666500D03*
%TD*%
D17*
%TO.C,R2*%
X146962500Y-76200000D03*
X145137500Y-76200000D03*
%TD*%
D18*
%TO.C,R3*%
X145137500Y-80010000D03*
X146962500Y-80010000D03*
%TD*%
%TO.C,R4*%
X145137500Y-83820000D03*
X146962500Y-83820000D03*
%TD*%
D16*
%TO.C,R5*%
X149225000Y-95607500D03*
X149225000Y-97432500D03*
%TD*%
%TO.C,R6*%
X153035000Y-95607500D03*
X153035000Y-97432500D03*
%TD*%
D19*
%TO.C,U1*%
X155956000Y-81912000D03*
X157226000Y-81912000D03*
X158496000Y-81912000D03*
X159766000Y-81912000D03*
X161036000Y-81912000D03*
X162306000Y-81912000D03*
X163576000Y-81912000D03*
X163576000Y-76962000D03*
X162306000Y-76962000D03*
X161036000Y-76962000D03*
X159766000Y-76962000D03*
X158496000Y-76962000D03*
X157226000Y-76962000D03*
X155956000Y-76962000D03*
%TD*%
D10*
%TO.C,C6*%
X79600000Y-75462500D03*
X79600000Y-78537500D03*
%TD*%
D14*
%TO.C,C1*%
X149606000Y-76990000D03*
X149606000Y-77950000D03*
%TD*%
D17*
%TO.C,R7*%
X122512500Y-130600000D03*
X120687500Y-130600000D03*
%TD*%
D20*
%TO.C,J1*%
X88600000Y-59900000D03*
X88600000Y-65900000D03*
X77600000Y-65900000D03*
X77600000Y-59900000D03*
%TD*%
D13*
%TO.C,C16*%
X103320000Y-59000000D03*
X104280000Y-59000000D03*
%TD*%
D21*
%TO.C,C12*%
X105600000Y-60560000D03*
X105600000Y-59600000D03*
%TD*%
D22*
%TO.C,U5*%
X91500000Y-75450000D03*
X89200000Y-75450000D03*
D23*
X89200000Y-81750000D03*
D22*
X86900000Y-75450000D03*
%TD*%
D24*
%TO.C,R11*%
X108400000Y-68220000D03*
X108400000Y-67200000D03*
%TD*%
D25*
%TO.C,J11*%
X98300000Y-61025000D03*
X98300000Y-58025000D03*
X91800000Y-66125000D03*
X98300000Y-65025000D03*
%TD*%
D13*
%TO.C,C10*%
X95120000Y-73550000D03*
X96080000Y-73550000D03*
%TD*%
%TO.C,C11*%
X87178000Y-73406000D03*
X88138000Y-73406000D03*
%TD*%
D21*
%TO.C,C15*%
X99400000Y-63680000D03*
X99400000Y-62720000D03*
%TD*%
D14*
%TO.C,C8*%
X112000000Y-64720000D03*
X112000000Y-65680000D03*
%TD*%
D22*
%TO.C,U4*%
X98900000Y-75400000D03*
X96600000Y-75400000D03*
D23*
X96600000Y-81700000D03*
D22*
X94300000Y-75400000D03*
%TD*%
D26*
%TO.C,R8*%
X117310000Y-68600000D03*
X116290000Y-68600000D03*
%TD*%
D13*
%TO.C,C7*%
X109640000Y-82600000D03*
X110600000Y-82600000D03*
%TD*%
D26*
%TO.C,R12*%
X102110000Y-59000000D03*
X101090000Y-59000000D03*
%TD*%
D14*
%TO.C,C2*%
X114000000Y-64720000D03*
X114000000Y-65680000D03*
%TD*%
D10*
%TO.C,C18*%
X111000000Y-74262500D03*
X111000000Y-77337500D03*
%TD*%
D27*
%TO.C,U3*%
X101137500Y-62075000D03*
X101137500Y-62725000D03*
X101137500Y-63375000D03*
X101137500Y-64025000D03*
X101137500Y-64675000D03*
X101137500Y-65325000D03*
X101137500Y-65975000D03*
X101137500Y-66625000D03*
X101137500Y-67275000D03*
X101137500Y-67925000D03*
X106862500Y-67925000D03*
X106862500Y-67275000D03*
X106862500Y-66625000D03*
X106862500Y-65975000D03*
X106862500Y-65325000D03*
X106862500Y-64675000D03*
X106862500Y-64025000D03*
X106862500Y-63375000D03*
X106862500Y-62725000D03*
X106862500Y-62075000D03*
%TD*%
D13*
%TO.C,C17*%
X103320000Y-60400000D03*
X104280000Y-60400000D03*
%TD*%
D26*
%TO.C,R9*%
X117310000Y-64800000D03*
X116290000Y-64800000D03*
%TD*%
D13*
%TO.C,C13*%
X108320000Y-63800000D03*
X109280000Y-63800000D03*
%TD*%
D26*
%TO.C,R10*%
X117310000Y-67400000D03*
X116290000Y-67400000D03*
%TD*%
D28*
%TO.C,J9*%
X116150000Y-62185000D03*
X115350000Y-62185000D03*
X114050000Y-62185000D03*
X113050000Y-62185000D03*
X112550000Y-62185000D03*
X111550000Y-62185000D03*
X110250000Y-62185000D03*
X109450000Y-62185000D03*
X109750000Y-62185000D03*
X110550000Y-62185000D03*
X111050000Y-62185000D03*
X112050000Y-62185000D03*
X113550000Y-62185000D03*
X114550000Y-62185000D03*
X115050000Y-62185000D03*
X115850000Y-62185000D03*
%TD*%
D13*
%TO.C,C9*%
X103320000Y-57600000D03*
X104280000Y-57600000D03*
%TD*%
D26*
%TO.C,R13*%
X102110000Y-60400000D03*
X101090000Y-60400000D03*
%TD*%
D13*
%TO.C,C14*%
X95120000Y-72350000D03*
X96080000Y-72350000D03*
%TD*%
M02*
