%TF.GenerationSoftware,KiCad,Pcbnew,7.0.9*%
%TF.CreationDate,2025-02-24T00:59:13+03:00*%
%TF.ProjectId,BulkyMIDI-32 Module,42756c6b-794d-4494-9449-2d3332204d6f,rev?*%
%TF.SameCoordinates,Original*%
%TF.FileFunction,Soldermask,Bot*%
%TF.FilePolarity,Negative*%
%FSLAX46Y46*%
G04 Gerber Fmt 4.6, Leading zero omitted, Abs format (unit mm)*
G04 Created by KiCad (PCBNEW 7.0.9) date 2025-02-24 00:59:13*
%MOMM*%
%LPD*%
G01*
G04 APERTURE LIST*
G04 Aperture macros list*
%AMFreePoly0*
4,1,19,0.550000,-0.750000,0.000000,-0.750000,0.000000,-0.744911,-0.071157,-0.744911,-0.207708,-0.704816,-0.327430,-0.627875,-0.420627,-0.520320,-0.479746,-0.390866,-0.500000,-0.250000,-0.500000,0.250000,-0.479746,0.390866,-0.420627,0.520320,-0.327430,0.627875,-0.207708,0.704816,-0.071157,0.744911,0.000000,0.744911,0.000000,0.750000,0.550000,0.750000,0.550000,-0.750000,0.550000,-0.750000,
$1*%
%AMFreePoly1*
4,1,19,0.000000,0.744911,0.071157,0.744911,0.207708,0.704816,0.327430,0.627875,0.420627,0.520320,0.479746,0.390866,0.500000,0.250000,0.500000,-0.250000,0.479746,-0.390866,0.420627,-0.520320,0.327430,-0.627875,0.207708,-0.704816,0.071157,-0.744911,0.000000,-0.744911,0.000000,-0.750000,-0.550000,-0.750000,-0.550000,0.750000,0.000000,0.750000,0.000000,0.744911,0.000000,0.744911,
$1*%
%AMFreePoly2*
4,1,6,1.000000,0.000000,0.500000,-0.750000,-0.500000,-0.750000,-0.500000,0.750000,0.500000,0.750000,1.000000,0.000000,1.000000,0.000000,$1*%
%AMFreePoly3*
4,1,6,0.500000,-0.750000,-0.650000,-0.750000,-0.150000,0.000000,-0.650000,0.750000,0.500000,0.750000,0.500000,-0.750000,0.500000,-0.750000,$1*%
G04 Aperture macros list end*
%ADD10C,0.650000*%
%ADD11O,1.000000X1.600000*%
%ADD12O,1.000000X2.100000*%
%ADD13C,5.100000*%
%ADD14R,1.700000X1.700000*%
%ADD15O,1.700000X1.700000*%
%ADD16R,1.600000X1.600000*%
%ADD17C,1.600000*%
%ADD18C,2.100000*%
%ADD19C,1.750000*%
%ADD20O,1.600000X1.600000*%
%ADD21C,1.700000*%
%ADD22R,1.727200X1.727200*%
%ADD23C,1.727200*%
%ADD24R,3.500000X3.500000*%
%ADD25O,1.800000X2.400000*%
%ADD26R,2.500000X1.800000*%
%ADD27FreePoly0,180.000000*%
%ADD28R,1.000000X1.500000*%
%ADD29FreePoly1,180.000000*%
%ADD30FreePoly2,270.000000*%
%ADD31FreePoly3,270.000000*%
G04 APERTURE END LIST*
D10*
%TO.C,J9*%
X108048000Y-61084000D03*
X102268000Y-61084000D03*
D11*
X109478000Y-57404000D03*
D12*
X109478000Y-61584000D03*
X100838000Y-61584000D03*
D11*
X100838000Y-57404000D03*
%TD*%
D13*
%TO.C,A1*%
X166160000Y-137535000D03*
X108160000Y-137535000D03*
D14*
X161290000Y-89805000D03*
D15*
X161290000Y-87265000D03*
X158750000Y-89805000D03*
X158750000Y-87265000D03*
X156210000Y-89805000D03*
X156210000Y-87265000D03*
X153670000Y-89805000D03*
X153670000Y-87265000D03*
X151130000Y-89805000D03*
X151130000Y-87265000D03*
X148590000Y-89805000D03*
X148590000Y-87265000D03*
X146050000Y-89805000D03*
X146050000Y-87265000D03*
X143510000Y-89805000D03*
X143510000Y-87265000D03*
X140970000Y-89805000D03*
X140970000Y-87265000D03*
X138430000Y-89805000D03*
X138430000Y-87265000D03*
X135890000Y-89805000D03*
X135890000Y-87265000D03*
X133350000Y-89805000D03*
X133350000Y-87265000D03*
X130810000Y-89805000D03*
X130810000Y-87265000D03*
X128270000Y-89805000D03*
X128270000Y-87265000D03*
X125730000Y-89805000D03*
X125730000Y-87265000D03*
X123190000Y-89805000D03*
X123190000Y-87265000D03*
X120650000Y-89805000D03*
X120650000Y-87265000D03*
X118110000Y-89805000D03*
X118110000Y-87265000D03*
X115570000Y-89805000D03*
X115570000Y-87265000D03*
X113030000Y-89805000D03*
X113030000Y-87265000D03*
%TD*%
D13*
%TO.C,M1*%
X73355000Y-151435000D03*
%TD*%
%TO.C,M2*%
X167005000Y-151435000D03*
%TD*%
%TO.C,M3*%
X167005000Y-57785000D03*
%TD*%
%TO.C,M4*%
X73355000Y-57785000D03*
%TD*%
D14*
%TO.C,J4*%
X72085000Y-62865000D03*
D15*
X72085000Y-65405000D03*
X72085000Y-67945000D03*
X72085000Y-70485000D03*
X72085000Y-73025000D03*
X72085000Y-75565000D03*
X72085000Y-78105000D03*
X72085000Y-80645000D03*
X72085000Y-83185000D03*
X72085000Y-85725000D03*
%TD*%
D16*
%TO.C,C5*%
X114300000Y-74930000D03*
D17*
X114300000Y-77430000D03*
%TD*%
D18*
%TO.C,SW4*%
X149395500Y-149026000D03*
X142385500Y-149026000D03*
D19*
X148145500Y-151516000D03*
X143645500Y-151516000D03*
%TD*%
D16*
%TO.C,U2*%
X123952000Y-83820000D03*
D20*
X126492000Y-83820000D03*
X129032000Y-83820000D03*
X129032000Y-76200000D03*
X126492000Y-76200000D03*
X123952000Y-76200000D03*
%TD*%
D16*
%TO.C,C6*%
X83185000Y-73660000D03*
D17*
X83185000Y-77160000D03*
%TD*%
D14*
%TO.C,ENC1*%
X159385000Y-123190000D03*
D15*
X159385000Y-125730000D03*
X159385000Y-128270000D03*
X159385000Y-130810000D03*
X159385000Y-133350000D03*
%TD*%
D14*
%TO.C,J5*%
X159385000Y-96520000D03*
D15*
X159385000Y-99060000D03*
X159385000Y-101600000D03*
X159385000Y-104140000D03*
X159385000Y-106680000D03*
%TD*%
D14*
%TO.C,J6*%
X159385000Y-111125000D03*
D15*
X159385000Y-113665000D03*
X159385000Y-116205000D03*
X159385000Y-118745000D03*
%TD*%
D21*
%TO.C,A2*%
X112857000Y-70231000D03*
X110317000Y-70231000D03*
X107777000Y-70231000D03*
X105237000Y-70231000D03*
X102697000Y-70231000D03*
X100157000Y-70231000D03*
X97617000Y-70231000D03*
X95077000Y-70231000D03*
X92537000Y-70231000D03*
X119207000Y-56896000D03*
X119207000Y-59436000D03*
X119207000Y-61976000D03*
X119207000Y-64516000D03*
X119207000Y-67056000D03*
X119207000Y-69596000D03*
%TD*%
D18*
%TO.C,SW2*%
X97897000Y-149280000D03*
X90887000Y-149280000D03*
D19*
X96647000Y-151770000D03*
X92147000Y-151770000D03*
%TD*%
D14*
%TO.C,J8*%
X112560000Y-140970000D03*
D15*
X115100000Y-140970000D03*
X117640000Y-140970000D03*
X120180000Y-140970000D03*
X122720000Y-140970000D03*
X125260000Y-140970000D03*
X127800000Y-140970000D03*
X130340000Y-140970000D03*
X132880000Y-140970000D03*
X135420000Y-140970000D03*
X137960000Y-140970000D03*
X140500000Y-140970000D03*
%TD*%
D22*
%TO.C,IC1*%
X123990000Y-149860000D03*
D23*
X121450000Y-149860000D03*
X118910000Y-149860000D03*
X116370000Y-149860000D03*
%TD*%
D18*
%TO.C,SW1*%
X86467000Y-149280000D03*
X79457000Y-149280000D03*
D19*
X85217000Y-151770000D03*
X80717000Y-151770000D03*
%TD*%
D18*
%TO.C,SW3*%
X160825500Y-149026000D03*
X153815500Y-149026000D03*
D19*
X159575500Y-151516000D03*
X155075500Y-151516000D03*
%TD*%
D24*
%TO.C,J1*%
X83185000Y-68580000D03*
X83185000Y-62580000D03*
X78485000Y-65580000D03*
%TD*%
D25*
%TO.C,J2*%
X145535000Y-67310000D03*
X153035000Y-67310000D03*
X160535000Y-67310000D03*
X148035000Y-69810000D03*
X158035000Y-69810000D03*
D26*
X158035000Y-57310000D03*
X155535000Y-57310000D03*
X150535000Y-57310000D03*
X148035000Y-57310000D03*
%TD*%
D25*
%TO.C,J3*%
X125215000Y-67310000D03*
X132715000Y-67310000D03*
X140215000Y-67310000D03*
X127715000Y-69810000D03*
X137715000Y-69810000D03*
D26*
X137715000Y-57310000D03*
X135215000Y-57310000D03*
X130215000Y-57310000D03*
X127715000Y-57310000D03*
%TD*%
D27*
%TO.C,JP3*%
X132948200Y-137706100D03*
D28*
X131648200Y-137706100D03*
D29*
X130348200Y-137706100D03*
%TD*%
D14*
%TO.C,J7*%
X113030000Y-100965000D03*
D15*
X115570000Y-100965000D03*
X113030000Y-103505000D03*
X115570000Y-103505000D03*
X113030000Y-106045000D03*
X115570000Y-106045000D03*
X113030000Y-108585000D03*
X115570000Y-108585000D03*
X113030000Y-111125000D03*
X115570000Y-111125000D03*
X113030000Y-113665000D03*
X115570000Y-113665000D03*
X113030000Y-116205000D03*
X115570000Y-116205000D03*
X113030000Y-118745000D03*
X115570000Y-118745000D03*
X113030000Y-121285000D03*
X115570000Y-121285000D03*
X113030000Y-123825000D03*
X115570000Y-123825000D03*
%TD*%
D30*
%TO.C,JP4*%
X96347000Y-73570000D03*
D31*
X96347000Y-75020000D03*
%TD*%
D30*
%TO.C,JP5*%
X100157000Y-73570000D03*
D31*
X100157000Y-75020000D03*
%TD*%
D30*
%TO.C,JP6*%
X92537000Y-73570000D03*
D31*
X92537000Y-75020000D03*
%TD*%
M02*
