M48
; DRILL file {KiCad 7.0.9} date Tue Nov 18 13:32:36 2025
; FORMAT={-:-/ absolute / inch / decimal}
; #@! TF.CreationDate,2025-11-18T13:32:36+03:00
; #@! TF.GenerationSoftware,Kicad,Pcbnew,7.0.9
; #@! TF.FileFunction,Plated,1,2,PTH
FMAT,2
INCH
; #@! TA.AperFunction,Plated,PTH,ViaDrill
T1C0.0118
; #@! TA.AperFunction,Plated,PTH,ViaDrill
T2C0.0157
; #@! TA.AperFunction,Plated,PTH,ComponentDrill
T3C0.0236
; #@! TA.AperFunction,Plated,PTH,ComponentDrill
T4C0.0315
; #@! TA.AperFunction,Plated,PTH,ComponentDrill
T5C0.0354
; #@! TA.AperFunction,Plated,PTH,ComponentDrill
T6C0.0390
; #@! TA.AperFunction,Plated,PTH,ComponentDrill
T7C0.0394
; #@! TA.AperFunction,Plated,PTH,ComponentDrill
T8C0.0400
; #@! TA.AperFunction,Plated,PTH,ComponentDrill
T9C0.0512
%
G90
G05
T1
X3.0551Y-2.4331
X3.0551Y-2.4803
X3.0551Y-2.5118
X3.12Y-3.15
X3.225Y-5.615
X3.225Y-5.73
X3.26Y-3.15
X3.4252Y-3.1102
X3.475Y-5.74
X3.48Y-5.6484
X3.51Y-2.85
X3.5118Y-2.8898
X3.6063Y-3.0551
X3.6142Y-2.5276
X3.7165Y-3.1102
X3.7795Y-2.6299
X3.8346Y-2.8504
X3.8898Y-3.0551
X3.9297Y-2.7103
X4.0Y-3.2677
X4.0157Y-2.2992
X4.029Y-2.563
X4.0315Y-3.1102
X4.0449Y-2.4103
X4.063Y-2.2283
X4.0709Y-2.473
X4.0709Y-2.5669
X4.08Y-2.91
X4.08Y-3.05
X4.0866Y-2.5118
X4.1024Y-2.2283
X4.1472Y-2.5276
X4.1496Y-2.5748
X4.1575Y-2.315
X4.1747Y-2.4149
X4.22Y-5.635
X4.26Y-5.84
X4.2823Y-5.6004
X4.2973Y-2.561
X4.3Y-3.374
X4.3Y-5.8
X4.3592Y-2.6172
X4.3622Y-5.1024
X4.3858Y-3.1811
X4.3858Y-3.2362
X4.4094Y-2.6142
X4.4488Y-3.3228
X4.4882Y-2.6142
X4.5197Y-2.6693
X4.5669Y-2.5748
X4.6Y-3.02
X4.7Y-3.375
X4.7451Y-2.6063
X4.7559Y-3.1417
X4.7717Y-2.4803
X4.7717Y-2.9134
X4.931Y-5.05
X4.9315Y-5.55
X4.9715Y-5.875
X5.031Y-5.675
X5.08Y-3.085
X5.1315Y-5.7
X5.1318Y-5.5497
X5.1339Y-5.1339
X5.15Y-3.025
X5.16Y-3.285
X5.205Y-5.79
X5.225Y-3.075
X5.2315Y-5.55
X5.233Y-5.15
X5.3315Y-5.55
X5.35Y-3.15
X5.3575Y-2.8825
X5.3715Y-5.8075
X5.3875Y-3.21
X5.4299Y-2.9549
X5.45Y-3.175
X5.45Y-5.8075
X5.475Y-5.7
X5.5325Y-3.21
X5.535Y-5.15
X5.54Y-5.05
X5.545Y-4.525
X5.555Y-4.45
X5.58Y-4.145
X5.59Y-4.9606
X5.6Y-3.7522
X5.605Y-4.2
X5.622Y-5.0
X5.65Y-3.7522
X5.65Y-4.05
X5.65Y-5.05
X5.66Y-3.975
X5.6772Y-5.0915
X5.685Y-3.905
X5.7184Y-5.1102
X5.725Y-5.15
X5.7559Y-5.378
X5.785Y-3.245
X5.79Y-3.945
X5.81Y-5.15
X5.82Y-5.05
X5.8225Y-3.9875
X5.875Y-3.615
X5.875Y-3.6803
X5.93Y-3.84
X5.93Y-3.92
X5.95Y-3.25
X5.95Y-4.525
X5.975Y-4.03
X5.975Y-4.45
X5.98Y-3.84
X6.025Y-4.2
X6.075Y-3.95
X6.095Y-3.295
X6.15Y-3.815
X6.19Y-3.795
X6.34Y-3.29
X6.35Y-3.14
X6.425Y-3.8
X6.55Y-2.99
T2
X3.84Y-2.67
X4.0866Y-2.6929
X4.3425Y-2.5155
X4.3701Y-3.1102
X4.4803Y-3.1181
X4.5749Y-2.5032
X4.7775Y-2.7323
X4.8583Y-2.8268
X5.93Y-3.7636
X5.97Y-3.09
X6.19Y-3.12
X6.29Y-3.12
X6.44Y-3.15
T4
X4.88Y-3.0
X4.88Y-3.3
X4.98Y-3.0
X4.98Y-3.3
X5.08Y-3.0
X5.08Y-3.3
T6
X3.1778Y-5.9752
X3.355Y-5.9752
X3.6278Y-5.9752
X3.805Y-5.9752
X5.6553Y-5.9652
X5.8325Y-5.9652
X6.1053Y-5.9652
X6.2825Y-5.9652
T7
X2.838Y-2.475
X2.838Y-2.575
X2.838Y-2.675
X2.838Y-2.775
X2.838Y-2.875
X2.838Y-2.975
X2.838Y-3.075
X2.838Y-3.175
X2.838Y-3.275
X2.838Y-3.375
X3.6432Y-2.765
X3.7432Y-2.765
X3.8432Y-2.765
X3.9432Y-2.765
X4.0432Y-2.765
X4.1432Y-2.765
X4.2432Y-2.765
X4.3432Y-2.765
X4.4315Y-5.2272
X4.4432Y-2.765
X4.45Y-3.4356
X4.45Y-3.5356
X4.45Y-3.975
X4.45Y-4.075
X4.45Y-4.175
X4.45Y-4.275
X4.45Y-4.375
X4.45Y-4.475
X4.45Y-4.575
X4.45Y-4.675
X4.45Y-4.775
X4.45Y-4.875
X4.5315Y-5.2272
X4.55Y-3.4356
X4.55Y-3.5356
X4.55Y-3.975
X4.55Y-4.075
X4.55Y-4.175
X4.55Y-4.275
X4.55Y-4.375
X4.55Y-4.475
X4.55Y-4.575
X4.55Y-4.675
X4.55Y-4.775
X4.55Y-4.875
X4.6315Y-5.2272
X4.65Y-3.4356
X4.65Y-3.5356
X4.6932Y-2.24
X4.6932Y-2.34
X4.6932Y-2.44
X4.6932Y-2.54
X4.6932Y-2.64
X4.6932Y-2.74
X4.7315Y-5.2272
X4.75Y-3.4356
X4.75Y-3.5356
X4.8315Y-5.2272
X4.85Y-3.4356
X4.85Y-3.5356
X4.9315Y-5.2272
X4.95Y-3.4356
X4.95Y-3.5356
X5.0315Y-5.2272
X5.05Y-3.4356
X5.05Y-3.5356
X5.1315Y-5.2272
X5.15Y-3.4356
X5.15Y-3.5356
X5.2315Y-5.2272
X5.25Y-3.4356
X5.25Y-3.5356
X5.3315Y-5.2272
X5.35Y-3.4356
X5.35Y-3.5356
X5.4315Y-5.2272
X5.45Y-3.4356
X5.45Y-3.5356
X5.5315Y-5.2272
X5.55Y-3.4356
X5.55Y-3.5356
X5.65Y-3.4356
X5.65Y-3.5356
X5.75Y-3.4356
X5.75Y-3.5356
X5.85Y-3.4356
X5.85Y-3.5356
X5.95Y-3.4356
X5.95Y-3.5356
X6.05Y-3.4356
X6.05Y-3.5356
X6.15Y-3.4356
X6.15Y-3.5356
X6.25Y-3.4356
X6.25Y-3.5356
X6.275Y-3.8
X6.275Y-3.9
X6.275Y-4.0
X6.275Y-4.1
X6.275Y-4.2
X6.275Y-4.375
X6.275Y-4.475
X6.275Y-4.575
X6.275Y-4.675
X6.275Y-4.85
X6.275Y-4.95
X6.275Y-5.05
X6.275Y-5.15
X6.275Y-5.25
X6.35Y-3.4356
X6.35Y-3.5356
T8
X4.5815Y-5.9
X4.6815Y-5.9
X4.7815Y-5.9
X4.8815Y-5.9
T9
X3.1282Y-5.8772
X3.4042Y-5.8772
X3.5782Y-5.8772
X3.8542Y-5.8772
X5.6057Y-5.8672
X5.8817Y-5.8672
X6.0557Y-5.8672
X6.3317Y-5.8672
T3
G00X4.2709Y-2.2732
M15
G01X4.2709Y-2.2496
M16
G05
G00X4.2709Y-2.4476
M15
G01X4.2709Y-2.4043
M16
G05
G00X4.611Y-2.2732
M15
G01X4.611Y-2.2496
M16
G05
G00X4.611Y-2.4476
M15
G01X4.611Y-2.4043
M16
G05
T5
G00X4.9297Y-2.6618
M15
G01X4.9297Y-2.6382
M16
G05
G00X5.04Y-2.2563
M15
G01X5.0163Y-2.2563
M16
G05
G00X5.0281Y-2.7602
M15
G01X5.0281Y-2.7366
M16
G05
G00X5.1384Y-2.2563
M15
G01X5.1148Y-2.2563
M16
G05
G00X5.225Y-2.6618
M15
G01X5.225Y-2.6382
M16
G05
G00X5.3352Y-2.2563
M15
G01X5.3116Y-2.2563
M16
G05
G00X5.4337Y-2.2563
M15
G01X5.41Y-2.2563
M16
G05
G00X5.4219Y-2.7602
M15
G01X5.4219Y-2.7366
M16
G05
G00X5.5203Y-2.6618
M15
G01X5.5203Y-2.6382
M16
G05
G00X5.7297Y-2.6618
M15
G01X5.7297Y-2.6382
M16
G05
G00X5.84Y-2.2563
M15
G01X5.8163Y-2.2563
M16
G05
G00X5.8281Y-2.7602
M15
G01X5.8281Y-2.7366
M16
G05
G00X5.9384Y-2.2563
M15
G01X5.9148Y-2.2563
M16
G05
G00X6.025Y-2.6618
M15
G01X6.025Y-2.6382
M16
G05
G00X6.1352Y-2.2563
M15
G01X6.1116Y-2.2563
M16
G05
G00X6.2337Y-2.2563
M15
G01X6.21Y-2.2563
M16
G05
G00X6.2219Y-2.7602
M15
G01X6.2219Y-2.7366
M16
G05
G00X6.3203Y-2.6618
M15
G01X6.3203Y-2.6382
M16
G05
T0
M30
