%TF.GenerationSoftware,KiCad,Pcbnew,7.0.9*%
%TF.CreationDate,2025-11-18T13:32:36+03:00*%
%TF.ProjectId,BulkyMIDI-32 Module,42756c6b-794d-4494-9449-2d3332204d6f,rev?*%
%TF.SameCoordinates,Original*%
%TF.FileFunction,Profile,NP*%
%FSLAX46Y46*%
G04 Gerber Fmt 4.6, Leading zero omitted, Abs format (unit mm)*
G04 Created by KiCad (PCBNEW 7.0.9) date 2025-11-18 13:32:36*
%MOMM*%
%LPD*%
G01*
G04 APERTURE LIST*
%TA.AperFunction,Profile*%
%ADD10C,0.150000*%
%TD*%
%TA.AperFunction,Profile*%
%ADD11C,0.050000*%
%TD*%
G04 APERTURE END LIST*
D10*
X70180000Y-139954000D02*
X70180000Y-72390000D01*
X70180000Y-139954000D02*
X70180000Y-154610000D01*
X70180000Y-55880000D02*
X70180000Y-72390000D01*
X170180000Y-78740000D02*
X170180000Y-55880000D01*
X104394000Y-86122000D02*
X81288000Y-86122000D01*
X104394000Y-139708000D02*
X104394000Y-86122000D01*
D11*
X150114000Y-140362000D02*
X156114000Y-140362000D01*
X97775000Y-144803000D02*
X97775000Y-146808000D01*
X142575000Y-146808000D02*
X142575000Y-144803000D01*
X91775000Y-146808000D02*
X91775000Y-144803000D01*
X148575000Y-146808000D02*
X142575000Y-146808000D01*
X97775000Y-146808000D02*
X91775000Y-146808000D01*
X142575000Y-144803000D02*
X148575000Y-144803000D01*
X91775000Y-144803000D02*
X97775000Y-144803000D01*
X148575000Y-144803000D02*
X148575000Y-146808000D01*
D10*
X102270500Y-151410000D02*
X120180000Y-151410000D01*
X138089500Y-151410000D02*
X120180000Y-151410000D01*
X138089500Y-151410000D02*
X138089500Y-154610000D01*
X70180000Y-154610000D02*
X102270500Y-154610000D01*
X71450000Y-54610000D02*
G75*
G03*
X70180000Y-55880000I0J-1270000D01*
G01*
X168910000Y-54610000D02*
X71450000Y-54610000D01*
D11*
X150114000Y-142366000D02*
X150114000Y-140362000D01*
D10*
X81288000Y-139708000D02*
X81288000Y-86122000D01*
X170180000Y-154610000D02*
X170180000Y-78740000D01*
D11*
X156114000Y-140362000D02*
X156114000Y-142366000D01*
D10*
X102270500Y-151410000D02*
X102270500Y-154610000D01*
D11*
X156114000Y-142366000D02*
X150114000Y-142366000D01*
D10*
X138089500Y-154610000D02*
X170180000Y-154610000D01*
X104394000Y-139708000D02*
X81288000Y-139708000D01*
X170180000Y-55880000D02*
G75*
G03*
X168910000Y-54610000I-1270000J0D01*
G01*
M02*
