%TF.GenerationSoftware,KiCad,Pcbnew,7.0.9*%
%TF.CreationDate,2025-02-24T00:59:13+03:00*%
%TF.ProjectId,BulkyMIDI-32 Module,42756c6b-794d-4494-9449-2d3332204d6f,rev?*%
%TF.SameCoordinates,Original*%
%TF.FileFunction,Paste,Top*%
%TF.FilePolarity,Positive*%
%FSLAX46Y46*%
G04 Gerber Fmt 4.6, Leading zero omitted, Abs format (unit mm)*
G04 Created by KiCad (PCBNEW 7.0.9) date 2025-02-24 00:59:13*
%MOMM*%
%LPD*%
G01*
G04 APERTURE LIST*
G04 Aperture macros list*
%AMRoundRect*
0 Rectangle with rounded corners*
0 $1 Rounding radius*
0 $2 $3 $4 $5 $6 $7 $8 $9 X,Y pos of 4 corners*
0 Add a 4 corners polygon primitive as box body*
4,1,4,$2,$3,$4,$5,$6,$7,$8,$9,$2,$3,0*
0 Add four circle primitives for the rounded corners*
1,1,$1+$1,$2,$3*
1,1,$1+$1,$4,$5*
1,1,$1+$1,$6,$7*
1,1,$1+$1,$8,$9*
0 Add four rect primitives between the rounded corners*
20,1,$1+$1,$2,$3,$4,$5,0*
20,1,$1+$1,$4,$5,$6,$7,0*
20,1,$1+$1,$6,$7,$8,$9,0*
20,1,$1+$1,$8,$9,$2,$3,0*%
G04 Aperture macros list end*
%ADD10RoundRect,0.250000X-0.475000X0.250000X-0.475000X-0.250000X0.475000X-0.250000X0.475000X0.250000X0*%
%ADD11RoundRect,0.112500X0.112500X-0.187500X0.112500X0.187500X-0.112500X0.187500X-0.112500X-0.187500X0*%
%ADD12R,0.300000X1.150000*%
%ADD13RoundRect,0.150000X0.150000X-0.825000X0.150000X0.825000X-0.150000X0.825000X-0.150000X-0.825000X0*%
%ADD14RoundRect,0.250000X0.262500X0.450000X-0.262500X0.450000X-0.262500X-0.450000X0.262500X-0.450000X0*%
%ADD15RoundRect,0.250000X-0.450000X0.262500X-0.450000X-0.262500X0.450000X-0.262500X0.450000X0.262500X0*%
%ADD16RoundRect,0.250000X-0.262500X-0.450000X0.262500X-0.450000X0.262500X0.450000X-0.262500X0.450000X0*%
G04 APERTURE END LIST*
D10*
%TO.C,C8*%
X98298000Y-63947000D03*
X98298000Y-65847000D03*
%TD*%
%TO.C,C7*%
X103886000Y-73472000D03*
X103886000Y-75372000D03*
%TD*%
%TO.C,C2*%
X101727000Y-63947000D03*
X101727000Y-65847000D03*
%TD*%
D11*
%TO.C,D1*%
X132715000Y-83346000D03*
X132715000Y-81246000D03*
%TD*%
D12*
%TO.C,J9*%
X108508000Y-62149000D03*
X107708000Y-62149000D03*
X106408000Y-62149000D03*
X105408000Y-62149000D03*
X104908000Y-62149000D03*
X103908000Y-62149000D03*
X102608000Y-62149000D03*
X101808000Y-62149000D03*
X102108000Y-62149000D03*
X102908000Y-62149000D03*
X103408000Y-62149000D03*
X104408000Y-62149000D03*
X105908000Y-62149000D03*
X106908000Y-62149000D03*
X107408000Y-62149000D03*
X108208000Y-62149000D03*
%TD*%
D10*
%TO.C,C1*%
X149606000Y-76520000D03*
X149606000Y-78420000D03*
%TD*%
D13*
%TO.C,U1*%
X155956000Y-81912000D03*
X157226000Y-81912000D03*
X158496000Y-81912000D03*
X159766000Y-81912000D03*
X161036000Y-81912000D03*
X162306000Y-81912000D03*
X163576000Y-81912000D03*
X163576000Y-76962000D03*
X162306000Y-76962000D03*
X161036000Y-76962000D03*
X159766000Y-76962000D03*
X158496000Y-76962000D03*
X157226000Y-76962000D03*
X155956000Y-76962000D03*
%TD*%
D14*
%TO.C,R7*%
X114196500Y-136906000D03*
X112371500Y-136906000D03*
%TD*%
D15*
%TO.C,R6*%
X153035000Y-95607500D03*
X153035000Y-97432500D03*
%TD*%
%TO.C,R5*%
X149225000Y-95607500D03*
X149225000Y-97432500D03*
%TD*%
D16*
%TO.C,R4*%
X145137500Y-83820000D03*
X146962500Y-83820000D03*
%TD*%
%TO.C,R3*%
X145137500Y-80010000D03*
X146962500Y-80010000D03*
%TD*%
D14*
%TO.C,R2*%
X146962500Y-76200000D03*
X145137500Y-76200000D03*
%TD*%
D15*
%TO.C,R1*%
X167005000Y-62841500D03*
X167005000Y-64666500D03*
%TD*%
D10*
%TO.C,C4*%
X109220000Y-73538000D03*
X109220000Y-75438000D03*
%TD*%
%TO.C,C3*%
X120015000Y-77536000D03*
X120015000Y-79436000D03*
%TD*%
M02*
