%TF.GenerationSoftware,KiCad,Pcbnew,7.0.9*%
%TF.CreationDate,2025-11-18T13:32:36+03:00*%
%TF.ProjectId,BulkyMIDI-32 Module,42756c6b-794d-4494-9449-2d3332204d6f,rev?*%
%TF.SameCoordinates,Original*%
%TF.FileFunction,Soldermask,Top*%
%TF.FilePolarity,Negative*%
%FSLAX46Y46*%
G04 Gerber Fmt 4.6, Leading zero omitted, Abs format (unit mm)*
G04 Created by KiCad (PCBNEW 7.0.9) date 2025-11-18 13:32:36*
%MOMM*%
%LPD*%
G01*
G04 APERTURE LIST*
G04 Aperture macros list*
%AMRoundRect*
0 Rectangle with rounded corners*
0 $1 Rounding radius*
0 $2 $3 $4 $5 $6 $7 $8 $9 X,Y pos of 4 corners*
0 Add a 4 corners polygon primitive as box body*
4,1,4,$2,$3,$4,$5,$6,$7,$8,$9,$2,$3,0*
0 Add four circle primitives for the rounded corners*
1,1,$1+$1,$2,$3*
1,1,$1+$1,$4,$5*
1,1,$1+$1,$6,$7*
1,1,$1+$1,$8,$9*
0 Add four rect primitives between the rounded corners*
20,1,$1+$1,$2,$3,$4,$5,0*
20,1,$1+$1,$4,$5,$6,$7,0*
20,1,$1+$1,$6,$7,$8,$9,0*
20,1,$1+$1,$8,$9,$2,$3,0*%
%AMFreePoly0*
4,1,19,0.550000,-0.750000,0.000000,-0.750000,0.000000,-0.744911,-0.071157,-0.744911,-0.207708,-0.704816,-0.327430,-0.627875,-0.420627,-0.520320,-0.479746,-0.390866,-0.500000,-0.250000,-0.500000,0.250000,-0.479746,0.390866,-0.420627,0.520320,-0.327430,0.627875,-0.207708,0.704816,-0.071157,0.744911,0.000000,0.744911,0.000000,0.750000,0.550000,0.750000,0.550000,-0.750000,0.550000,-0.750000,
$1*%
%AMFreePoly1*
4,1,19,0.000000,0.744911,0.071157,0.744911,0.207708,0.704816,0.327430,0.627875,0.420627,0.520320,0.479746,0.390866,0.500000,0.250000,0.500000,-0.250000,0.479746,-0.390866,0.420627,-0.520320,0.327430,-0.627875,0.207708,-0.704816,0.071157,-0.744911,0.000000,-0.744911,0.000000,-0.750000,-0.550000,-0.750000,-0.550000,0.750000,0.000000,0.750000,0.000000,0.744911,0.000000,0.744911,
$1*%
G04 Aperture macros list end*
%ADD10RoundRect,0.250000X-0.925000X0.412500X-0.925000X-0.412500X0.925000X-0.412500X0.925000X0.412500X0*%
%ADD11RoundRect,0.250000X0.412500X0.925000X-0.412500X0.925000X-0.412500X-0.925000X0.412500X-0.925000X0*%
%ADD12RoundRect,0.250000X0.925000X-0.412500X0.925000X0.412500X-0.925000X0.412500X-0.925000X-0.412500X0*%
%ADD13RoundRect,0.140000X-0.140000X-0.170000X0.140000X-0.170000X0.140000X0.170000X-0.140000X0.170000X0*%
%ADD14C,5.100000*%
%ADD15R,1.700000X1.700000*%
%ADD16O,1.700000X1.700000*%
%ADD17FreePoly0,0.000000*%
%ADD18R,1.000000X1.500000*%
%ADD19FreePoly1,0.000000*%
%ADD20RoundRect,0.140000X-0.170000X0.140000X-0.170000X-0.140000X0.170000X-0.140000X0.170000X0.140000X0*%
%ADD21RoundRect,0.112500X0.112500X-0.187500X0.112500X0.187500X-0.112500X0.187500X-0.112500X-0.187500X0*%
%ADD22RoundRect,0.250000X-0.450000X0.262500X-0.450000X-0.262500X0.450000X-0.262500X0.450000X0.262500X0*%
%ADD23RoundRect,0.250000X0.262500X0.450000X-0.262500X0.450000X-0.262500X-0.450000X0.262500X-0.450000X0*%
%ADD24RoundRect,0.250000X-0.262500X-0.450000X0.262500X-0.450000X0.262500X0.450000X-0.262500X0.450000X0*%
%ADD25C,2.100000*%
%ADD26C,1.750000*%
%ADD27RoundRect,0.150000X0.150000X-0.825000X0.150000X0.825000X-0.150000X0.825000X-0.150000X-0.825000X0*%
%ADD28R,1.600000X1.600000*%
%ADD29O,1.600000X1.600000*%
%ADD30C,1.700000*%
%ADD31R,1.727200X1.727200*%
%ADD32C,1.727200*%
%ADD33O,2.000000X1.500000*%
%ADD34C,2.000000*%
%ADD35R,3.000000X2.000000*%
%ADD36O,1.800000X2.400000*%
%ADD37R,2.500000X1.800000*%
%ADD38RoundRect,0.140000X0.170000X-0.140000X0.170000X0.140000X-0.170000X0.140000X-0.170000X-0.140000X0*%
%ADD39R,1.500000X2.000000*%
%ADD40R,3.800000X2.000000*%
%ADD41RoundRect,0.135000X0.185000X-0.135000X0.185000X0.135000X-0.185000X0.135000X-0.185000X-0.135000X0*%
%ADD42C,1.500000*%
%ADD43R,2.500000X1.200000*%
%ADD44RoundRect,0.135000X0.135000X0.185000X-0.135000X0.185000X-0.135000X-0.185000X0.135000X-0.185000X0*%
%ADD45RoundRect,0.100000X-0.637500X-0.100000X0.637500X-0.100000X0.637500X0.100000X-0.637500X0.100000X0*%
%ADD46C,0.650000*%
%ADD47R,0.300000X1.150000*%
%ADD48O,1.000000X2.100000*%
%ADD49O,1.000000X1.600000*%
G04 APERTURE END LIST*
D10*
%TO.C,C28*%
X118618000Y-72376500D03*
X118618000Y-75451500D03*
%TD*%
D11*
%TO.C,C27*%
X108471500Y-77216000D03*
X105396500Y-77216000D03*
%TD*%
%TO.C,C26*%
X108471500Y-73914000D03*
X105396500Y-73914000D03*
%TD*%
D12*
%TO.C,C25*%
X105410000Y-82817500D03*
X105410000Y-79742500D03*
%TD*%
D10*
%TO.C,C24*%
X82804000Y-75424500D03*
X82804000Y-78499500D03*
%TD*%
D13*
%TO.C,C23*%
X95532000Y-67818000D03*
X96492000Y-67818000D03*
%TD*%
%TO.C,C22*%
X90706000Y-72390000D03*
X91666000Y-72390000D03*
%TD*%
%TO.C,C21*%
X87178000Y-72390000D03*
X88138000Y-72390000D03*
%TD*%
%TO.C,C20*%
X99116000Y-72390000D03*
X100076000Y-72390000D03*
%TD*%
%TO.C,C19*%
X99088000Y-73406000D03*
X100048000Y-73406000D03*
%TD*%
D14*
%TO.C,A1*%
X166160000Y-137535000D03*
X108160000Y-137535000D03*
D15*
X161290000Y-89805000D03*
D16*
X161290000Y-87265000D03*
X158750000Y-89805000D03*
X158750000Y-87265000D03*
X156210000Y-89805000D03*
X156210000Y-87265000D03*
X153670000Y-89805000D03*
X153670000Y-87265000D03*
X151130000Y-89805000D03*
X151130000Y-87265000D03*
X148590000Y-89805000D03*
X148590000Y-87265000D03*
X146050000Y-89805000D03*
X146050000Y-87265000D03*
X143510000Y-89805000D03*
X143510000Y-87265000D03*
X140970000Y-89805000D03*
X140970000Y-87265000D03*
X138430000Y-89805000D03*
X138430000Y-87265000D03*
X135890000Y-89805000D03*
X135890000Y-87265000D03*
X133350000Y-89805000D03*
X133350000Y-87265000D03*
X130810000Y-89805000D03*
X130810000Y-87265000D03*
X128270000Y-89805000D03*
X128270000Y-87265000D03*
X125730000Y-89805000D03*
X125730000Y-87265000D03*
X123190000Y-89805000D03*
X123190000Y-87265000D03*
X120650000Y-89805000D03*
X120650000Y-87265000D03*
X118110000Y-89805000D03*
X118110000Y-87265000D03*
X115570000Y-89805000D03*
X115570000Y-87265000D03*
X113030000Y-89805000D03*
X113030000Y-87265000D03*
%TD*%
D14*
%TO.C,M1*%
X73355000Y-151435000D03*
%TD*%
%TO.C,M2*%
X167005000Y-151435000D03*
%TD*%
%TO.C,M3*%
X167005000Y-57785000D03*
%TD*%
%TO.C,M4*%
X73355000Y-57785000D03*
%TD*%
D15*
%TO.C,J4*%
X72085000Y-62865000D03*
D16*
X72085000Y-65405000D03*
X72085000Y-67945000D03*
X72085000Y-70485000D03*
X72085000Y-73025000D03*
X72085000Y-75565000D03*
X72085000Y-78105000D03*
X72085000Y-80645000D03*
X72085000Y-83185000D03*
X72085000Y-85725000D03*
%TD*%
D17*
%TO.C,JP1*%
X127516000Y-149225000D03*
D18*
X128816000Y-149225000D03*
D19*
X130116000Y-149225000D03*
%TD*%
D17*
%TO.C,JP2*%
X133866000Y-149225000D03*
D18*
X135166000Y-149225000D03*
D19*
X136466000Y-149225000D03*
%TD*%
D20*
%TO.C,C3*%
X120800000Y-78006000D03*
X120800000Y-78966000D03*
%TD*%
D13*
%TO.C,C4*%
X109640000Y-81000000D03*
X110600000Y-81000000D03*
%TD*%
D10*
%TO.C,C5*%
X115000000Y-74262500D03*
X115000000Y-77337500D03*
%TD*%
D21*
%TO.C,D1*%
X132715000Y-83346000D03*
X132715000Y-81246000D03*
%TD*%
D22*
%TO.C,R1*%
X167005000Y-62841500D03*
X167005000Y-64666500D03*
%TD*%
D23*
%TO.C,R2*%
X146962500Y-76200000D03*
X145137500Y-76200000D03*
%TD*%
D24*
%TO.C,R3*%
X145137500Y-80010000D03*
X146962500Y-80010000D03*
%TD*%
%TO.C,R4*%
X145137500Y-83820000D03*
X146962500Y-83820000D03*
%TD*%
D22*
%TO.C,R5*%
X149225000Y-95607500D03*
X149225000Y-97432500D03*
%TD*%
%TO.C,R6*%
X153035000Y-95607500D03*
X153035000Y-97432500D03*
%TD*%
D25*
%TO.C,SW4*%
X149395500Y-149026000D03*
X142385500Y-149026000D03*
D26*
X148145500Y-151516000D03*
X143645500Y-151516000D03*
%TD*%
D27*
%TO.C,U1*%
X155956000Y-81912000D03*
X157226000Y-81912000D03*
X158496000Y-81912000D03*
X159766000Y-81912000D03*
X161036000Y-81912000D03*
X162306000Y-81912000D03*
X163576000Y-81912000D03*
X163576000Y-76962000D03*
X162306000Y-76962000D03*
X161036000Y-76962000D03*
X159766000Y-76962000D03*
X158496000Y-76962000D03*
X157226000Y-76962000D03*
X155956000Y-76962000D03*
%TD*%
D28*
%TO.C,U2*%
X123952000Y-83820000D03*
D29*
X126492000Y-83820000D03*
X129032000Y-83820000D03*
X129032000Y-76200000D03*
X126492000Y-76200000D03*
X123952000Y-76200000D03*
%TD*%
D10*
%TO.C,C6*%
X79600000Y-75462500D03*
X79600000Y-78537500D03*
%TD*%
D15*
%TO.C,ENC1*%
X159385000Y-123190000D03*
D16*
X159385000Y-125730000D03*
X159385000Y-128270000D03*
X159385000Y-130810000D03*
X159385000Y-133350000D03*
%TD*%
D20*
%TO.C,C1*%
X149606000Y-76990000D03*
X149606000Y-77950000D03*
%TD*%
D15*
%TO.C,J5*%
X159385000Y-96520000D03*
D16*
X159385000Y-99060000D03*
X159385000Y-101600000D03*
X159385000Y-104140000D03*
X159385000Y-106680000D03*
%TD*%
D15*
%TO.C,J6*%
X159385000Y-111125000D03*
D16*
X159385000Y-113665000D03*
X159385000Y-116205000D03*
X159385000Y-118745000D03*
%TD*%
D30*
%TO.C,A2*%
X119207000Y-69596000D03*
X119207000Y-67056000D03*
X119207000Y-64516000D03*
X119207000Y-61976000D03*
X119207000Y-59436000D03*
X119207000Y-56896000D03*
X92537000Y-70231000D03*
X95077000Y-70231000D03*
X97617000Y-70231000D03*
X100157000Y-70231000D03*
X102697000Y-70231000D03*
X105237000Y-70231000D03*
X107777000Y-70231000D03*
X110317000Y-70231000D03*
X112857000Y-70231000D03*
%TD*%
D25*
%TO.C,SW2*%
X97897000Y-149280000D03*
X90887000Y-149280000D03*
D26*
X96647000Y-151770000D03*
X92147000Y-151770000D03*
%TD*%
D15*
%TO.C,J8*%
X112560000Y-132770000D03*
D16*
X115100000Y-132770000D03*
X117640000Y-132770000D03*
X120180000Y-132770000D03*
X122720000Y-132770000D03*
X125260000Y-132770000D03*
X127800000Y-132770000D03*
X130340000Y-132770000D03*
X132880000Y-132770000D03*
X135420000Y-132770000D03*
X137960000Y-132770000D03*
X140500000Y-132770000D03*
%TD*%
D31*
%TO.C,IC1*%
X123990000Y-149860000D03*
D32*
X121450000Y-149860000D03*
X118910000Y-149860000D03*
X116370000Y-149860000D03*
%TD*%
D25*
%TO.C,SW1*%
X86467000Y-149280000D03*
X79457000Y-149280000D03*
D26*
X85217000Y-151770000D03*
X80717000Y-151770000D03*
%TD*%
D25*
%TO.C,SW3*%
X160825500Y-149026000D03*
X153815500Y-149026000D03*
D26*
X159575500Y-151516000D03*
X155075500Y-151516000D03*
%TD*%
D23*
%TO.C,R7*%
X122512500Y-130600000D03*
X120687500Y-130600000D03*
%TD*%
D33*
%TO.C,J1*%
X83100000Y-60000000D03*
D34*
X83100000Y-64400000D03*
D35*
X88600000Y-59900000D03*
X88600000Y-65900000D03*
X77600000Y-65900000D03*
X77600000Y-59900000D03*
%TD*%
D36*
%TO.C,J2*%
X145535000Y-67310000D03*
X153035000Y-67310000D03*
X160535000Y-67310000D03*
X148035000Y-69810000D03*
X158035000Y-69810000D03*
D37*
X158035000Y-57310000D03*
X155535000Y-57310000D03*
X150535000Y-57310000D03*
X148035000Y-57310000D03*
%TD*%
D36*
%TO.C,J3*%
X125215000Y-67310000D03*
X132715000Y-67310000D03*
X140215000Y-67310000D03*
X127715000Y-69810000D03*
X137715000Y-69810000D03*
D37*
X137715000Y-57310000D03*
X135215000Y-57310000D03*
X130215000Y-57310000D03*
X127715000Y-57310000D03*
%TD*%
D13*
%TO.C,C16*%
X103320000Y-59000000D03*
X104280000Y-59000000D03*
%TD*%
D38*
%TO.C,C12*%
X105600000Y-60560000D03*
X105600000Y-59600000D03*
%TD*%
D39*
%TO.C,U5*%
X91500000Y-75450000D03*
X89200000Y-75450000D03*
D40*
X89200000Y-81750000D03*
D39*
X86900000Y-75450000D03*
%TD*%
D41*
%TO.C,R11*%
X108400000Y-68220000D03*
X108400000Y-67200000D03*
%TD*%
D42*
%TO.C,J11*%
X95050000Y-56425000D03*
X95050000Y-63425000D03*
D43*
X98300000Y-61025000D03*
X98300000Y-58025000D03*
X91800000Y-66125000D03*
X98300000Y-65025000D03*
%TD*%
D13*
%TO.C,C10*%
X95120000Y-73550000D03*
X96080000Y-73550000D03*
%TD*%
%TO.C,C11*%
X87178000Y-73406000D03*
X88138000Y-73406000D03*
%TD*%
D38*
%TO.C,C15*%
X99400000Y-63680000D03*
X99400000Y-62720000D03*
%TD*%
D20*
%TO.C,C8*%
X112000000Y-64720000D03*
X112000000Y-65680000D03*
%TD*%
D39*
%TO.C,U4*%
X98900000Y-75400000D03*
X96600000Y-75400000D03*
D40*
X96600000Y-81700000D03*
D39*
X94300000Y-75400000D03*
%TD*%
D44*
%TO.C,R8*%
X117310000Y-68600000D03*
X116290000Y-68600000D03*
%TD*%
D13*
%TO.C,C7*%
X109640000Y-82600000D03*
X110600000Y-82600000D03*
%TD*%
D44*
%TO.C,R12*%
X102110000Y-59000000D03*
X101090000Y-59000000D03*
%TD*%
D20*
%TO.C,C2*%
X114000000Y-64720000D03*
X114000000Y-65680000D03*
%TD*%
D10*
%TO.C,C18*%
X111000000Y-74262500D03*
X111000000Y-77337500D03*
%TD*%
D45*
%TO.C,U3*%
X101137500Y-62075000D03*
X101137500Y-62725000D03*
X101137500Y-63375000D03*
X101137500Y-64025000D03*
X101137500Y-64675000D03*
X101137500Y-65325000D03*
X101137500Y-65975000D03*
X101137500Y-66625000D03*
X101137500Y-67275000D03*
X101137500Y-67925000D03*
X106862500Y-67925000D03*
X106862500Y-67275000D03*
X106862500Y-66625000D03*
X106862500Y-65975000D03*
X106862500Y-65325000D03*
X106862500Y-64675000D03*
X106862500Y-64025000D03*
X106862500Y-63375000D03*
X106862500Y-62725000D03*
X106862500Y-62075000D03*
%TD*%
D13*
%TO.C,C17*%
X103320000Y-60400000D03*
X104280000Y-60400000D03*
%TD*%
D44*
%TO.C,R9*%
X117310000Y-64800000D03*
X116290000Y-64800000D03*
%TD*%
D13*
%TO.C,C13*%
X108320000Y-63800000D03*
X109280000Y-63800000D03*
%TD*%
D44*
%TO.C,R10*%
X117310000Y-67400000D03*
X116290000Y-67400000D03*
%TD*%
D46*
%TO.C,J9*%
X115690000Y-61120000D03*
X109910000Y-61120000D03*
D47*
X116150000Y-62185000D03*
X115350000Y-62185000D03*
X114050000Y-62185000D03*
X113050000Y-62185000D03*
X112550000Y-62185000D03*
X111550000Y-62185000D03*
X110250000Y-62185000D03*
X109450000Y-62185000D03*
X109750000Y-62185000D03*
X110550000Y-62185000D03*
X111050000Y-62185000D03*
X112050000Y-62185000D03*
X113550000Y-62185000D03*
X114550000Y-62185000D03*
X115050000Y-62185000D03*
X115850000Y-62185000D03*
D48*
X117120000Y-61620000D03*
D49*
X117120000Y-57440000D03*
D48*
X108480000Y-61620000D03*
D49*
X108480000Y-57440000D03*
%TD*%
D13*
%TO.C,C9*%
X103320000Y-57600000D03*
X104280000Y-57600000D03*
%TD*%
D44*
%TO.C,R13*%
X102110000Y-60400000D03*
X101090000Y-60400000D03*
%TD*%
D13*
%TO.C,C14*%
X95120000Y-72350000D03*
X96080000Y-72350000D03*
%TD*%
D15*
%TO.C,J7*%
X113030000Y-100965000D03*
D16*
X115570000Y-100965000D03*
X113030000Y-103505000D03*
X115570000Y-103505000D03*
X113030000Y-106045000D03*
X115570000Y-106045000D03*
X113030000Y-108585000D03*
X115570000Y-108585000D03*
X113030000Y-111125000D03*
X115570000Y-111125000D03*
X113030000Y-113665000D03*
X115570000Y-113665000D03*
X113030000Y-116205000D03*
X115570000Y-116205000D03*
X113030000Y-118745000D03*
X115570000Y-118745000D03*
X113030000Y-121285000D03*
X115570000Y-121285000D03*
X113030000Y-123825000D03*
X115570000Y-123825000D03*
%TD*%
M02*
