%TF.GenerationSoftware,KiCad,Pcbnew,7.0.9*%
%TF.CreationDate,2025-11-18T13:32:36+03:00*%
%TF.ProjectId,BulkyMIDI-32 Module,42756c6b-794d-4494-9449-2d3332204d6f,rev?*%
%TF.SameCoordinates,Original*%
%TF.FileFunction,Copper,L1,Top*%
%TF.FilePolarity,Positive*%
%FSLAX46Y46*%
G04 Gerber Fmt 4.6, Leading zero omitted, Abs format (unit mm)*
G04 Created by KiCad (PCBNEW 7.0.9) date 2025-11-18 13:32:36*
%MOMM*%
%LPD*%
G01*
G04 APERTURE LIST*
G04 Aperture macros list*
%AMRoundRect*
0 Rectangle with rounded corners*
0 $1 Rounding radius*
0 $2 $3 $4 $5 $6 $7 $8 $9 X,Y pos of 4 corners*
0 Add a 4 corners polygon primitive as box body*
4,1,4,$2,$3,$4,$5,$6,$7,$8,$9,$2,$3,0*
0 Add four circle primitives for the rounded corners*
1,1,$1+$1,$2,$3*
1,1,$1+$1,$4,$5*
1,1,$1+$1,$6,$7*
1,1,$1+$1,$8,$9*
0 Add four rect primitives between the rounded corners*
20,1,$1+$1,$2,$3,$4,$5,0*
20,1,$1+$1,$4,$5,$6,$7,0*
20,1,$1+$1,$6,$7,$8,$9,0*
20,1,$1+$1,$8,$9,$2,$3,0*%
%AMFreePoly0*
4,1,19,0.550000,-0.750000,0.000000,-0.750000,0.000000,-0.744911,-0.071157,-0.744911,-0.207708,-0.704816,-0.327430,-0.627875,-0.420627,-0.520320,-0.479746,-0.390866,-0.500000,-0.250000,-0.500000,0.250000,-0.479746,0.390866,-0.420627,0.520320,-0.327430,0.627875,-0.207708,0.704816,-0.071157,0.744911,0.000000,0.744911,0.000000,0.750000,0.550000,0.750000,0.550000,-0.750000,0.550000,-0.750000,
$1*%
%AMFreePoly1*
4,1,19,0.000000,0.744911,0.071157,0.744911,0.207708,0.704816,0.327430,0.627875,0.420627,0.520320,0.479746,0.390866,0.500000,0.250000,0.500000,-0.250000,0.479746,-0.390866,0.420627,-0.520320,0.327430,-0.627875,0.207708,-0.704816,0.071157,-0.744911,0.000000,-0.744911,0.000000,-0.750000,-0.550000,-0.750000,-0.550000,0.750000,0.000000,0.750000,0.000000,0.744911,0.000000,0.744911,
$1*%
G04 Aperture macros list end*
%TA.AperFunction,SMDPad,CuDef*%
%ADD10RoundRect,0.250000X-0.925000X0.412500X-0.925000X-0.412500X0.925000X-0.412500X0.925000X0.412500X0*%
%TD*%
%TA.AperFunction,SMDPad,CuDef*%
%ADD11RoundRect,0.250000X0.412500X0.925000X-0.412500X0.925000X-0.412500X-0.925000X0.412500X-0.925000X0*%
%TD*%
%TA.AperFunction,SMDPad,CuDef*%
%ADD12RoundRect,0.250000X0.925000X-0.412500X0.925000X0.412500X-0.925000X0.412500X-0.925000X-0.412500X0*%
%TD*%
%TA.AperFunction,SMDPad,CuDef*%
%ADD13RoundRect,0.140000X-0.140000X-0.170000X0.140000X-0.170000X0.140000X0.170000X-0.140000X0.170000X0*%
%TD*%
%TA.AperFunction,WasherPad*%
%ADD14C,3.500000*%
%TD*%
%TA.AperFunction,ComponentPad*%
%ADD15R,1.700000X1.700000*%
%TD*%
%TA.AperFunction,ComponentPad*%
%ADD16O,1.700000X1.700000*%
%TD*%
%TA.AperFunction,SMDPad,CuDef*%
%ADD17FreePoly0,0.000000*%
%TD*%
%TA.AperFunction,SMDPad,CuDef*%
%ADD18R,1.000000X1.500000*%
%TD*%
%TA.AperFunction,SMDPad,CuDef*%
%ADD19FreePoly1,0.000000*%
%TD*%
%TA.AperFunction,SMDPad,CuDef*%
%ADD20RoundRect,0.140000X-0.170000X0.140000X-0.170000X-0.140000X0.170000X-0.140000X0.170000X0.140000X0*%
%TD*%
%TA.AperFunction,SMDPad,CuDef*%
%ADD21RoundRect,0.112500X0.112500X-0.187500X0.112500X0.187500X-0.112500X0.187500X-0.112500X-0.187500X0*%
%TD*%
%TA.AperFunction,SMDPad,CuDef*%
%ADD22RoundRect,0.250000X-0.450000X0.262500X-0.450000X-0.262500X0.450000X-0.262500X0.450000X0.262500X0*%
%TD*%
%TA.AperFunction,SMDPad,CuDef*%
%ADD23RoundRect,0.250000X0.262500X0.450000X-0.262500X0.450000X-0.262500X-0.450000X0.262500X-0.450000X0*%
%TD*%
%TA.AperFunction,SMDPad,CuDef*%
%ADD24RoundRect,0.250000X-0.262500X-0.450000X0.262500X-0.450000X0.262500X0.450000X-0.262500X0.450000X0*%
%TD*%
%TA.AperFunction,ComponentPad*%
%ADD25C,2.100000*%
%TD*%
%TA.AperFunction,ComponentPad*%
%ADD26C,1.750000*%
%TD*%
%TA.AperFunction,SMDPad,CuDef*%
%ADD27RoundRect,0.150000X0.150000X-0.825000X0.150000X0.825000X-0.150000X0.825000X-0.150000X-0.825000X0*%
%TD*%
%TA.AperFunction,ComponentPad*%
%ADD28R,1.600000X1.600000*%
%TD*%
%TA.AperFunction,ComponentPad*%
%ADD29O,1.600000X1.600000*%
%TD*%
%TA.AperFunction,ComponentPad*%
%ADD30C,1.700000*%
%TD*%
%TA.AperFunction,ComponentPad*%
%ADD31R,1.727200X1.727200*%
%TD*%
%TA.AperFunction,ComponentPad*%
%ADD32C,1.727200*%
%TD*%
%TA.AperFunction,SMDPad,CuDef*%
%ADD33R,3.000000X2.000000*%
%TD*%
%TA.AperFunction,ComponentPad*%
%ADD34O,1.800000X2.400000*%
%TD*%
%TA.AperFunction,ComponentPad*%
%ADD35R,2.500000X1.800000*%
%TD*%
%TA.AperFunction,SMDPad,CuDef*%
%ADD36RoundRect,0.140000X0.170000X-0.140000X0.170000X0.140000X-0.170000X0.140000X-0.170000X-0.140000X0*%
%TD*%
%TA.AperFunction,SMDPad,CuDef*%
%ADD37R,1.500000X2.000000*%
%TD*%
%TA.AperFunction,SMDPad,CuDef*%
%ADD38R,3.800000X2.000000*%
%TD*%
%TA.AperFunction,SMDPad,CuDef*%
%ADD39RoundRect,0.135000X0.185000X-0.135000X0.185000X0.135000X-0.185000X0.135000X-0.185000X-0.135000X0*%
%TD*%
%TA.AperFunction,SMDPad,CuDef*%
%ADD40R,2.500000X1.200000*%
%TD*%
%TA.AperFunction,SMDPad,CuDef*%
%ADD41RoundRect,0.135000X0.135000X0.185000X-0.135000X0.185000X-0.135000X-0.185000X0.135000X-0.185000X0*%
%TD*%
%TA.AperFunction,SMDPad,CuDef*%
%ADD42RoundRect,0.100000X-0.637500X-0.100000X0.637500X-0.100000X0.637500X0.100000X-0.637500X0.100000X0*%
%TD*%
%TA.AperFunction,SMDPad,CuDef*%
%ADD43R,0.300000X1.150000*%
%TD*%
%TA.AperFunction,ComponentPad*%
%ADD44O,1.000000X2.100000*%
%TD*%
%TA.AperFunction,ComponentPad*%
%ADD45O,1.000000X1.600000*%
%TD*%
%TA.AperFunction,ViaPad*%
%ADD46C,0.700000*%
%TD*%
%TA.AperFunction,ViaPad*%
%ADD47C,1.000000*%
%TD*%
%TA.AperFunction,Conductor*%
%ADD48C,0.381000*%
%TD*%
%TA.AperFunction,Conductor*%
%ADD49C,0.250000*%
%TD*%
%TA.AperFunction,Conductor*%
%ADD50C,1.000000*%
%TD*%
%TA.AperFunction,Conductor*%
%ADD51C,0.254000*%
%TD*%
G04 APERTURE END LIST*
D10*
%TO.P,C28,1*%
%TO.N,+5V*%
X118618000Y-72376500D03*
%TO.P,C28,2*%
%TO.N,GND*%
X118618000Y-75451500D03*
%TD*%
D11*
%TO.P,C27,1*%
%TO.N,+5V*%
X108471500Y-77216000D03*
%TO.P,C27,2*%
%TO.N,GND*%
X105396500Y-77216000D03*
%TD*%
%TO.P,C26,1*%
%TO.N,+5V*%
X108471500Y-73914000D03*
%TO.P,C26,2*%
%TO.N,GND*%
X105396500Y-73914000D03*
%TD*%
D12*
%TO.P,C25,1*%
%TO.N,+5V*%
X105410000Y-82817500D03*
%TO.P,C25,2*%
%TO.N,GND*%
X105410000Y-79742500D03*
%TD*%
D10*
%TO.P,C24,1*%
%TO.N,+5V*%
X82804000Y-75424500D03*
%TO.P,C24,2*%
%TO.N,GND*%
X82804000Y-78499500D03*
%TD*%
D13*
%TO.P,C23,1*%
%TO.N,+3.3VP*%
X95532000Y-67818000D03*
%TO.P,C23,2*%
%TO.N,GND*%
X96492000Y-67818000D03*
%TD*%
%TO.P,C22,1*%
%TO.N,+3.3VP*%
X90706000Y-72390000D03*
%TO.P,C22,2*%
%TO.N,GND*%
X91666000Y-72390000D03*
%TD*%
%TO.P,C21,1*%
%TO.N,+5V*%
X87178000Y-72390000D03*
%TO.P,C21,2*%
%TO.N,GND*%
X88138000Y-72390000D03*
%TD*%
%TO.P,C20,1*%
%TO.N,+3.3VA*%
X99116000Y-72390000D03*
%TO.P,C20,2*%
%TO.N,GND*%
X100076000Y-72390000D03*
%TD*%
%TO.P,C19,1*%
%TO.N,+3.3VA*%
X99088000Y-73406000D03*
%TO.P,C19,2*%
%TO.N,GND*%
X100048000Y-73406000D03*
%TD*%
D14*
%TO.P,A1,*%
%TO.N,*%
X166160000Y-137535000D03*
X108160000Y-137535000D03*
D15*
%TO.P,A1,1,3V3*%
%TO.N,+3V3*%
X161290000Y-89805000D03*
D16*
%TO.P,A1,2,5V*%
%TO.N,+5V*%
X161290000Y-87265000D03*
%TO.P,A1,3,SDA/GPIO2*%
%TO.N,I2C_SDA*%
X158750000Y-89805000D03*
%TO.P,A1,4,5V*%
%TO.N,+5V*%
X158750000Y-87265000D03*
%TO.P,A1,5,SCL/GPIO3*%
%TO.N,I2C_SCL*%
X156210000Y-89805000D03*
%TO.P,A1,6,GND*%
%TO.N,GND*%
X156210000Y-87265000D03*
%TO.P,A1,7,GCLK0/GPIO4*%
%TO.N,SW_ENC*%
X153670000Y-89805000D03*
%TO.P,A1,8,GPIO14/TXD*%
%TO.N,PI_TX*%
X153670000Y-87265000D03*
%TO.P,A1,9,GND*%
%TO.N,GND*%
X151130000Y-89805000D03*
%TO.P,A1,10,GPIO15/RXD*%
%TO.N,PI_RX*%
X151130000Y-87265000D03*
%TO.P,A1,11,GPIO17*%
%TO.N,SW_SYNTH*%
X148590000Y-89805000D03*
%TO.P,A1,12,GPIO18/PWM0*%
%TO.N,I2S_BCLK*%
X148590000Y-87265000D03*
%TO.P,A1,13,GPIO27*%
%TO.N,SW_ROM*%
X146050000Y-89805000D03*
%TO.P,A1,14,GND*%
%TO.N,GND*%
X146050000Y-87265000D03*
%TO.P,A1,15,GPIO22*%
%TO.N,SW_DOWN*%
X143510000Y-89805000D03*
%TO.P,A1,16,GPIO23*%
%TO.N,SW_UP*%
X143510000Y-87265000D03*
%TO.P,A1,17,3V3*%
%TO.N,+3V3*%
X140970000Y-89805000D03*
%TO.P,A1,18,GPIO24*%
%TO.N,SW_DOWN_DEXED*%
X140970000Y-87265000D03*
%TO.P,A1,19,MOSI0/GPIO10*%
%TO.N,ENC_CLK_DEXED*%
X138430000Y-89805000D03*
%TO.P,A1,20,GND*%
%TO.N,GND*%
X138430000Y-87265000D03*
%TO.P,A1,21,MISO0/GPIO9*%
%TO.N,ENC_DAT_DEXED*%
X135890000Y-89805000D03*
%TO.P,A1,22,GPIO25*%
%TO.N,unconnected-(A1-GPIO25-Pad22)*%
X135890000Y-87265000D03*
%TO.P,A1,23,SCLK0/GPIO11*%
%TO.N,ENC_SW_DEXED*%
X133350000Y-89805000D03*
%TO.P,A1,24,~{CE0}/GPIO8*%
%TO.N,unconnected-(A1-~{CE0}{slash}GPIO8-Pad24)*%
X133350000Y-87265000D03*
%TO.P,A1,25,GND*%
%TO.N,GND*%
X130810000Y-89805000D03*
%TO.P,A1,26,~{CE1}/GPIO7*%
%TO.N,unconnected-(A1-~{CE1}{slash}GPIO7-Pad26)*%
X130810000Y-87265000D03*
%TO.P,A1,27,ID_SD/GPIO0*%
%TO.N,unconnected-(A1-ID_SD{slash}GPIO0-Pad27)*%
X128270000Y-89805000D03*
%TO.P,A1,28,ID_SC/GPIO1*%
%TO.N,unconnected-(A1-ID_SC{slash}GPIO1-Pad28)*%
X128270000Y-87265000D03*
%TO.P,A1,29,GCLK1/GPIO5*%
%TO.N,unconnected-(A1-GCLK1{slash}GPIO5-Pad29)*%
X125730000Y-89805000D03*
%TO.P,A1,30,GND*%
%TO.N,GND*%
X125730000Y-87265000D03*
%TO.P,A1,31,GCLK2/GPIO6*%
%TO.N,unconnected-(A1-GCLK2{slash}GPIO6-Pad31)*%
X123190000Y-89805000D03*
%TO.P,A1,32,PWM0/GPIO12*%
%TO.N,unconnected-(A1-PWM0{slash}GPIO12-Pad32)*%
X123190000Y-87265000D03*
%TO.P,A1,33,PWM1/GPIO13*%
%TO.N,unconnected-(A1-PWM1{slash}GPIO13-Pad33)*%
X120650000Y-89805000D03*
%TO.P,A1,34,GND*%
%TO.N,GND*%
X120650000Y-87265000D03*
%TO.P,A1,35,GPIO19/MISO1*%
%TO.N,I2S_LRCLK*%
X118110000Y-89805000D03*
%TO.P,A1,36,GPIO16*%
%TO.N,unconnected-(A1-GPIO16-Pad36)*%
X118110000Y-87265000D03*
%TO.P,A1,37,GPIO26*%
%TO.N,unconnected-(A1-GPIO26-Pad37)*%
X115570000Y-89805000D03*
%TO.P,A1,38,GPIO20/MOSI1*%
%TO.N,unconnected-(A1-GPIO20{slash}MOSI1-Pad38)*%
X115570000Y-87265000D03*
%TO.P,A1,39,GND*%
%TO.N,GND*%
X113030000Y-89805000D03*
%TO.P,A1,40,GPIO21/SCLK1*%
%TO.N,I2S_DATA*%
X113030000Y-87265000D03*
%TD*%
D14*
%TO.P,M1,*%
%TO.N,*%
X73355000Y-151435000D03*
%TD*%
%TO.P,M2,*%
%TO.N,*%
X167005000Y-151435000D03*
%TD*%
%TO.P,M3,*%
%TO.N,*%
X167005000Y-57785000D03*
%TD*%
%TO.P,M4,*%
%TO.N,*%
X73355000Y-57785000D03*
%TD*%
D15*
%TO.P,J4,1,VCC*%
%TO.N,+3V3*%
X72085000Y-62865000D03*
D16*
%TO.P,J4,2,Pin_2*%
%TO.N,I2C_SCL*%
X72085000Y-65405000D03*
%TO.P,J4,3,Pin_3*%
%TO.N,I2C_SDA*%
X72085000Y-67945000D03*
%TO.P,J4,4,Pin_4*%
%TO.N,GND*%
X72085000Y-70485000D03*
%TO.P,J4,5,Pin_5*%
%TO.N,unconnected-(J4-Pin_5-Pad5)*%
X72085000Y-73025000D03*
%TO.P,J4,6,Pin_6*%
%TO.N,SW_ENC*%
X72085000Y-75565000D03*
%TO.P,J4,7,Pin_7*%
%TO.N,SW_SYNTH*%
X72085000Y-78105000D03*
%TO.P,J4,8,Pin_8*%
%TO.N,SW_ROM*%
X72085000Y-80645000D03*
%TO.P,J4,9,Pin_9*%
%TO.N,SW_UP*%
X72085000Y-83185000D03*
%TO.P,J4,10,GND*%
%TO.N,SW_DOWN*%
X72085000Y-85725000D03*
%TD*%
D17*
%TO.P,JP1,1,A*%
%TO.N,GND*%
X127516000Y-149225000D03*
D18*
%TO.P,JP1,2,C*%
%TO.N,Net-(IC1-GND)*%
X128816000Y-149225000D03*
D19*
%TO.P,JP1,3,B*%
%TO.N,+3V3*%
X130116000Y-149225000D03*
%TD*%
D17*
%TO.P,JP2,1,A*%
%TO.N,+3V3*%
X133866000Y-149225000D03*
D18*
%TO.P,JP2,2,C*%
%TO.N,Net-(IC1-VCC)*%
X135166000Y-149225000D03*
D19*
%TO.P,JP2,3,B*%
%TO.N,GND*%
X136466000Y-149225000D03*
%TD*%
D20*
%TO.P,C3,1*%
%TO.N,+3V3*%
X120800000Y-78006000D03*
%TO.P,C3,2*%
%TO.N,GND*%
X120800000Y-78966000D03*
%TD*%
D13*
%TO.P,C4,1*%
%TO.N,+5V*%
X109640000Y-81000000D03*
%TO.P,C4,2*%
%TO.N,GND*%
X110600000Y-81000000D03*
%TD*%
D10*
%TO.P,C5,1*%
%TO.N,+5V*%
X115000000Y-74262500D03*
%TO.P,C5,2*%
%TO.N,GND*%
X115000000Y-77337500D03*
%TD*%
D21*
%TO.P,D1,1,K*%
%TO.N,Net-(D1-K)*%
X132715000Y-83346000D03*
%TO.P,D1,2,A*%
%TO.N,Net-(D1-A)*%
X132715000Y-81246000D03*
%TD*%
D22*
%TO.P,R1,1*%
%TO.N,Net-(J2-Pad5)*%
X167005000Y-62841500D03*
%TO.P,R1,2*%
%TO.N,Net-(R1-Pad2)*%
X167005000Y-64666500D03*
%TD*%
D23*
%TO.P,R2,1*%
%TO.N,+5V*%
X146962500Y-76200000D03*
%TO.P,R2,2*%
%TO.N,Net-(J2-Pad4)*%
X145137500Y-76200000D03*
%TD*%
D24*
%TO.P,R3,1*%
%TO.N,+3V3*%
X145137500Y-80010000D03*
%TO.P,R3,2*%
%TO.N,PI_RX*%
X146962500Y-80010000D03*
%TD*%
%TO.P,R4,1*%
%TO.N,Net-(J3-Pad4)*%
X145137500Y-83820000D03*
%TO.P,R4,2*%
%TO.N,Net-(D1-K)*%
X146962500Y-83820000D03*
%TD*%
D22*
%TO.P,R5,1*%
%TO.N,+5V*%
X149225000Y-95607500D03*
%TO.P,R5,2*%
%TO.N,Net-(J5-Pad4)*%
X149225000Y-97432500D03*
%TD*%
%TO.P,R6,1*%
%TO.N,Net-(R6-Pad1)*%
X153035000Y-95607500D03*
%TO.P,R6,2*%
%TO.N,Net-(J5-Pad5)*%
X153035000Y-97432500D03*
%TD*%
D25*
%TO.P,SW4,*%
%TO.N,*%
X149395500Y-149026000D03*
X142385500Y-149026000D03*
D26*
%TO.P,SW4,1,1*%
%TO.N,GND*%
X148145500Y-151516000D03*
%TO.P,SW4,2,2*%
%TO.N,Net-(JP3-C)*%
X143645500Y-151516000D03*
%TD*%
D27*
%TO.P,U1,1*%
%TO.N,PI_TX*%
X155956000Y-81912000D03*
%TO.P,U1,2*%
%TO.N,MIDI_OUTn*%
X157226000Y-81912000D03*
%TO.P,U1,3*%
X158496000Y-81912000D03*
%TO.P,U1,4*%
%TO.N,Net-(R1-Pad2)*%
X159766000Y-81912000D03*
%TO.P,U1,5*%
%TO.N,PI_RX*%
X161036000Y-81912000D03*
%TO.P,U1,6*%
%TO.N,MIDI_THRUn*%
X162306000Y-81912000D03*
%TO.P,U1,7,GND*%
%TO.N,GND*%
X163576000Y-81912000D03*
%TO.P,U1,8*%
%TO.N,Net-(R6-Pad1)*%
X163576000Y-76962000D03*
%TO.P,U1,9*%
%TO.N,MIDI_THRUn*%
X162306000Y-76962000D03*
%TO.P,U1,10*%
%TO.N,unconnected-(U1-Pad10)*%
X161036000Y-76962000D03*
%TO.P,U1,11*%
%TO.N,GND*%
X159766000Y-76962000D03*
%TO.P,U1,12*%
%TO.N,unconnected-(U1-Pad12)*%
X158496000Y-76962000D03*
%TO.P,U1,13*%
%TO.N,GND*%
X157226000Y-76962000D03*
%TO.P,U1,14,VCC*%
%TO.N,+5V*%
X155956000Y-76962000D03*
%TD*%
D28*
%TO.P,U2,1*%
%TO.N,Net-(D1-K)*%
X123952000Y-83820000D03*
D29*
%TO.P,U2,2*%
%TO.N,Net-(D1-A)*%
X126492000Y-83820000D03*
%TO.P,U2,3*%
%TO.N,unconnected-(U2-Pad3)*%
X129032000Y-83820000D03*
%TO.P,U2,4*%
%TO.N,PI_RX*%
X129032000Y-76200000D03*
%TO.P,U2,5*%
%TO.N,GND*%
X126492000Y-76200000D03*
%TO.P,U2,6*%
%TO.N,+3V3*%
X123952000Y-76200000D03*
%TD*%
D10*
%TO.P,C6,1*%
%TO.N,+5V*%
X79600000Y-75462500D03*
%TO.P,C6,2*%
%TO.N,GND*%
X79600000Y-78537500D03*
%TD*%
D15*
%TO.P,ENC1,1,GND*%
%TO.N,GND*%
X159385000Y-123190000D03*
D16*
%TO.P,ENC1,2,+*%
%TO.N,+3V3*%
X159385000Y-125730000D03*
%TO.P,ENC1,3,SW*%
%TO.N,SW_ENC*%
X159385000Y-128270000D03*
%TO.P,ENC1,4,DAT*%
%TO.N,SW_UP*%
X159385000Y-130810000D03*
%TO.P,ENC1,5,CLK*%
%TO.N,SW_DOWN*%
X159385000Y-133350000D03*
%TD*%
D20*
%TO.P,C1,1*%
%TO.N,+5V*%
X149606000Y-76990000D03*
%TO.P,C1,2*%
%TO.N,GND*%
X149606000Y-77950000D03*
%TD*%
D15*
%TO.P,J5,1*%
%TO.N,unconnected-(J5-Pad1)*%
X159385000Y-96520000D03*
D16*
%TO.P,J5,2*%
%TO.N,GND*%
X159385000Y-99060000D03*
%TO.P,J5,3*%
%TO.N,unconnected-(J5-Pad3)*%
X159385000Y-101600000D03*
%TO.P,J5,4*%
%TO.N,Net-(J5-Pad4)*%
X159385000Y-104140000D03*
%TO.P,J5,5*%
%TO.N,Net-(J5-Pad5)*%
X159385000Y-106680000D03*
%TD*%
D15*
%TO.P,J6,1,Pin_1*%
%TO.N,+3V3*%
X159385000Y-111125000D03*
D16*
%TO.P,J6,2,Pin_2*%
%TO.N,PI_RX*%
X159385000Y-113665000D03*
%TO.P,J6,3,Pin_3*%
%TO.N,PI_TX*%
X159385000Y-116205000D03*
%TO.P,J6,4,Pin_4*%
%TO.N,GND*%
X159385000Y-118745000D03*
%TD*%
D30*
%TO.P,A2,1,SCK*%
%TO.N,GND*%
X119207000Y-69596000D03*
%TO.P,A2,2,BCK*%
%TO.N,I2S_BCLK*%
X119207000Y-67056000D03*
%TO.P,A2,3,DIN*%
%TO.N,I2S_DATA*%
X119207000Y-64516000D03*
%TO.P,A2,4,LCK*%
%TO.N,I2S_LRCLK*%
X119207000Y-61976000D03*
%TO.P,A2,5,GND*%
%TO.N,GND*%
X119207000Y-59436000D03*
%TO.P,A2,6,VIN*%
%TO.N,+5V*%
X119207000Y-56896000D03*
%TO.P,A2,7,LOUT*%
%TO.N,Net-(A2-LOUT)*%
X92537000Y-70231000D03*
%TO.P,A2,8,AGND*%
%TO.N,Net-(JP5-A)*%
X95077000Y-70231000D03*
%TO.P,A2,9,ROUT*%
%TO.N,Net-(A2-ROUT)*%
X97617000Y-70231000D03*
%TO.P,A2,10,AGND*%
%TO.N,Net-(JP5-A)*%
X100157000Y-70231000D03*
%TO.P,A2,11,A3V3*%
%TO.N,unconnected-(A2-A3V3-Pad11)*%
X102697000Y-70231000D03*
%TO.P,A2,12,FMT*%
%TO.N,unconnected-(A2-FMT-Pad12)*%
X105237000Y-70231000D03*
%TO.P,A2,13,XSMT*%
%TO.N,unconnected-(A2-XSMT-Pad13)*%
X107777000Y-70231000D03*
%TO.P,A2,14,DEMP*%
%TO.N,unconnected-(A2-DEMP-Pad14)*%
X110317000Y-70231000D03*
%TO.P,A2,15,FLT*%
%TO.N,unconnected-(A2-FLT-Pad15)*%
X112857000Y-70231000D03*
%TD*%
D25*
%TO.P,SW2,*%
%TO.N,*%
X97897000Y-149280000D03*
X90887000Y-149280000D03*
D26*
%TO.P,SW2,1,1*%
%TO.N,GND*%
X96647000Y-151770000D03*
%TO.P,SW2,2,2*%
%TO.N,SW_ROM*%
X92147000Y-151770000D03*
%TD*%
D15*
%TO.P,J8,1,VCC*%
%TO.N,+3V3*%
X112560000Y-132770000D03*
D16*
%TO.P,J8,2,GND*%
%TO.N,GND*%
X115100000Y-132770000D03*
%TO.P,J8,3,SCL*%
%TO.N,I2C_SCL*%
X117640000Y-132770000D03*
%TO.P,J8,4,SDA*%
%TO.N,I2C_SDA*%
X120180000Y-132770000D03*
%TO.P,J8,5,PWR*%
%TO.N,Net-(J8-PWR)*%
X122720000Y-132770000D03*
%TO.P,J8,6,ENC*%
%TO.N,SW_ENC*%
X125260000Y-132770000D03*
%TO.P,J8,7,SYNTH*%
%TO.N,SW_SYNTH*%
X127800000Y-132770000D03*
%TO.P,J8,8,ROM*%
%TO.N,SW_ROM*%
X130340000Y-132770000D03*
%TO.P,J8,9,UP*%
%TO.N,SW_UP*%
X132880000Y-132770000D03*
%TO.P,J8,10,DOWN*%
%TO.N,SW_DOWN*%
X135420000Y-132770000D03*
%TO.P,J8,11,GND*%
%TO.N,Net-(JP7-C)*%
X137960000Y-132770000D03*
%TO.P,J8,12,VCC*%
%TO.N,Net-(JP8-C)*%
X140500000Y-132770000D03*
%TD*%
D31*
%TO.P,IC1,1,GND*%
%TO.N,Net-(IC1-GND)*%
X123990000Y-149860000D03*
D32*
%TO.P,IC1,2,VCC*%
%TO.N,Net-(IC1-VCC)*%
X121450000Y-149860000D03*
%TO.P,IC1,3,SCL*%
%TO.N,I2C_SCL*%
X118910000Y-149860000D03*
%TO.P,IC1,4,SDA*%
%TO.N,I2C_SDA*%
X116370000Y-149860000D03*
%TD*%
D25*
%TO.P,SW1,*%
%TO.N,*%
X86467000Y-149280000D03*
X79457000Y-149280000D03*
D26*
%TO.P,SW1,1,1*%
%TO.N,GND*%
X85217000Y-151770000D03*
%TO.P,SW1,2,2*%
%TO.N,SW_SYNTH*%
X80717000Y-151770000D03*
%TD*%
D25*
%TO.P,SW3,*%
%TO.N,*%
X160825500Y-149026000D03*
X153815500Y-149026000D03*
D26*
%TO.P,SW3,1,1*%
%TO.N,GND*%
X159575500Y-151516000D03*
%TO.P,SW3,2,2*%
%TO.N,SW_DOWN*%
X155075500Y-151516000D03*
%TD*%
D23*
%TO.P,R7,1*%
%TO.N,Net-(J8-PWR)*%
X122512500Y-130600000D03*
%TO.P,R7,2*%
%TO.N,+3V3*%
X120687500Y-130600000D03*
%TD*%
D33*
%TO.P,J1,1*%
%TO.N,+5V*%
X88600000Y-59900000D03*
X88600000Y-65900000D03*
%TO.P,J1,2*%
%TO.N,GND*%
X77600000Y-65900000D03*
%TO.P,J1,3*%
X77600000Y-59900000D03*
%TD*%
D34*
%TO.P,J2,1*%
%TO.N,unconnected-(J2-Pad1)*%
X145535000Y-67310000D03*
%TO.P,J2,2*%
%TO.N,GND*%
X153035000Y-67310000D03*
%TO.P,J2,3*%
%TO.N,unconnected-(J2-Pad3)*%
X160535000Y-67310000D03*
%TO.P,J2,4*%
%TO.N,Net-(J2-Pad4)*%
X148035000Y-69810000D03*
%TO.P,J2,5*%
%TO.N,Net-(J2-Pad5)*%
X158035000Y-69810000D03*
D35*
%TO.P,J2,6*%
%TO.N,GND*%
X158035000Y-57310000D03*
X155535000Y-57310000D03*
X150535000Y-57310000D03*
X148035000Y-57310000D03*
%TD*%
D34*
%TO.P,J3,1*%
%TO.N,unconnected-(J3-Pad1)*%
X125215000Y-67310000D03*
%TO.P,J3,2*%
%TO.N,unconnected-(J3-Pad2)*%
X132715000Y-67310000D03*
%TO.P,J3,3*%
%TO.N,unconnected-(J3-Pad3)*%
X140215000Y-67310000D03*
%TO.P,J3,4*%
%TO.N,Net-(J3-Pad4)*%
X127715000Y-69810000D03*
%TO.P,J3,5*%
%TO.N,Net-(D1-A)*%
X137715000Y-69810000D03*
D35*
%TO.P,J3,6*%
%TO.N,unconnected-(J3-Pad6)*%
X137715000Y-57310000D03*
X135215000Y-57310000D03*
X130215000Y-57310000D03*
X127715000Y-57310000D03*
%TD*%
D13*
%TO.P,C16,1*%
%TO.N,/AUDIO_R*%
X103320000Y-59000000D03*
%TO.P,C16,2*%
%TO.N,GND*%
X104280000Y-59000000D03*
%TD*%
D36*
%TO.P,C12,1*%
%TO.N,Net-(U3-LDOO)*%
X105600000Y-60560000D03*
%TO.P,C12,2*%
%TO.N,GND*%
X105600000Y-59600000D03*
%TD*%
D37*
%TO.P,U5,1,GND*%
%TO.N,GND*%
X91500000Y-75450000D03*
%TO.P,U5,2,VO*%
%TO.N,+3.3VP*%
X89200000Y-75450000D03*
D38*
X89200000Y-81750000D03*
D37*
%TO.P,U5,3,VI*%
%TO.N,+5V*%
X86900000Y-75450000D03*
%TD*%
D39*
%TO.P,R11,1*%
%TO.N,GND*%
X108400000Y-68220000D03*
%TO.P,R11,2*%
%TO.N,Net-(U3-SCK)*%
X108400000Y-67200000D03*
%TD*%
D40*
%TO.P,J11,R1*%
%TO.N,/AUDIO_R*%
X98300000Y-61025000D03*
%TO.P,J11,R2*%
%TO.N,unconnected-(J11-PadR2)*%
X98300000Y-58025000D03*
%TO.P,J11,S*%
%TO.N,GND*%
X91800000Y-66125000D03*
%TO.P,J11,T*%
%TO.N,/AUDIO_L*%
X98300000Y-65025000D03*
%TD*%
D13*
%TO.P,C10,1*%
%TO.N,+5V*%
X95120000Y-73550000D03*
%TO.P,C10,2*%
%TO.N,GND*%
X96080000Y-73550000D03*
%TD*%
%TO.P,C11,1*%
%TO.N,+5V*%
X87178000Y-73406000D03*
%TO.P,C11,2*%
%TO.N,GND*%
X88138000Y-73406000D03*
%TD*%
D36*
%TO.P,C15,1*%
%TO.N,Net-(U3-VNEG)*%
X99400000Y-63680000D03*
%TO.P,C15,2*%
%TO.N,Net-(U3-CPGND)*%
X99400000Y-62720000D03*
%TD*%
D20*
%TO.P,C8,1*%
%TO.N,+5V*%
X112000000Y-64720000D03*
%TO.P,C8,2*%
%TO.N,GND*%
X112000000Y-65680000D03*
%TD*%
D37*
%TO.P,U4,1,GND*%
%TO.N,GND*%
X98900000Y-75400000D03*
%TO.P,U4,2,VO*%
%TO.N,+3.3VA*%
X96600000Y-75400000D03*
D38*
X96600000Y-81700000D03*
D37*
%TO.P,U4,3,VI*%
%TO.N,+5V*%
X94300000Y-75400000D03*
%TD*%
D41*
%TO.P,R8,1*%
%TO.N,I2S_LRCLK*%
X117310000Y-68600000D03*
%TO.P,R8,2*%
%TO.N,Net-(U3-LRCK)*%
X116290000Y-68600000D03*
%TD*%
D13*
%TO.P,C7,1*%
%TO.N,+5V*%
X109640000Y-82600000D03*
%TO.P,C7,2*%
%TO.N,GND*%
X110600000Y-82600000D03*
%TD*%
D41*
%TO.P,R12,1*%
%TO.N,Net-(U3-OUTL)*%
X102110000Y-59000000D03*
%TO.P,R12,2*%
%TO.N,/AUDIO_R*%
X101090000Y-59000000D03*
%TD*%
D20*
%TO.P,C2,1*%
%TO.N,+5V*%
X114000000Y-64720000D03*
%TO.P,C2,2*%
%TO.N,GND*%
X114000000Y-65680000D03*
%TD*%
D10*
%TO.P,C18,1*%
%TO.N,+5V*%
X111000000Y-74262500D03*
%TO.P,C18,2*%
%TO.N,GND*%
X111000000Y-77337500D03*
%TD*%
D42*
%TO.P,U3,1,CPVDD*%
%TO.N,+3.3VA*%
X101137500Y-62075000D03*
%TO.P,U3,2,CAPP*%
%TO.N,Net-(U3-CAPP)*%
X101137500Y-62725000D03*
%TO.P,U3,3,CPGND*%
%TO.N,Net-(U3-CPGND)*%
X101137500Y-63375000D03*
%TO.P,U3,4,CAPM*%
%TO.N,Net-(U3-CAPM)*%
X101137500Y-64025000D03*
%TO.P,U3,5,VNEG*%
%TO.N,Net-(U3-VNEG)*%
X101137500Y-64675000D03*
%TO.P,U3,6,OUTL*%
%TO.N,Net-(U3-OUTL)*%
X101137500Y-65325000D03*
%TO.P,U3,7,OUTR*%
%TO.N,Net-(U3-OUTR)*%
X101137500Y-65975000D03*
%TO.P,U3,8,AVDD*%
%TO.N,+3.3VA*%
X101137500Y-66625000D03*
%TO.P,U3,9,AGND*%
%TO.N,GND*%
X101137500Y-67275000D03*
%TO.P,U3,10,DEMP*%
X101137500Y-67925000D03*
%TO.P,U3,11,FLT*%
X106862500Y-67925000D03*
%TO.P,U3,12,SCK*%
%TO.N,Net-(U3-SCK)*%
X106862500Y-67275000D03*
%TO.P,U3,13,BCK*%
%TO.N,Net-(U3-BCK)*%
X106862500Y-66625000D03*
%TO.P,U3,14,DIN*%
%TO.N,Net-(U3-DIN)*%
X106862500Y-65975000D03*
%TO.P,U3,15,LRCK*%
%TO.N,Net-(U3-LRCK)*%
X106862500Y-65325000D03*
%TO.P,U3,16,FMT*%
%TO.N,GND*%
X106862500Y-64675000D03*
%TO.P,U3,17,XSMT*%
%TO.N,+3.3VP*%
X106862500Y-64025000D03*
%TO.P,U3,18,LDOO*%
%TO.N,Net-(U3-LDOO)*%
X106862500Y-63375000D03*
%TO.P,U3,19,DGND*%
%TO.N,GND*%
X106862500Y-62725000D03*
%TO.P,U3,20,DVDD*%
%TO.N,+3.3VP*%
X106862500Y-62075000D03*
%TD*%
D13*
%TO.P,C17,1*%
%TO.N,/AUDIO_L*%
X103320000Y-60400000D03*
%TO.P,C17,2*%
%TO.N,GND*%
X104280000Y-60400000D03*
%TD*%
D41*
%TO.P,R9,1*%
%TO.N,I2S_DATA*%
X117310000Y-64800000D03*
%TO.P,R9,2*%
%TO.N,Net-(U3-DIN)*%
X116290000Y-64800000D03*
%TD*%
D13*
%TO.P,C13,1*%
%TO.N,Net-(U3-LDOO)*%
X108320000Y-63800000D03*
%TO.P,C13,2*%
%TO.N,GND*%
X109280000Y-63800000D03*
%TD*%
D41*
%TO.P,R10,1*%
%TO.N,I2S_BCLK*%
X117310000Y-67400000D03*
%TO.P,R10,2*%
%TO.N,Net-(U3-BCK)*%
X116290000Y-67400000D03*
%TD*%
D43*
%TO.P,J9,A1,GND*%
%TO.N,GND*%
X116150000Y-62185000D03*
%TO.P,J9,A4,VBUS*%
%TO.N,+5V*%
X115350000Y-62185000D03*
%TO.P,J9,A5,CC1*%
%TO.N,unconnected-(J9-CC1-PadA5)*%
X114050000Y-62185000D03*
%TO.P,J9,A6,D+*%
%TO.N,unconnected-(J9-D+-PadA6)*%
X113050000Y-62185000D03*
%TO.P,J9,A7,D-*%
%TO.N,unconnected-(J9-D--PadA7)*%
X112550000Y-62185000D03*
%TO.P,J9,A8,SBU1*%
%TO.N,unconnected-(J9-SBU1-PadA8)*%
X111550000Y-62185000D03*
%TO.P,J9,A9,VBUS*%
%TO.N,+5V*%
X110250000Y-62185000D03*
%TO.P,J9,A12,GND*%
%TO.N,GND*%
X109450000Y-62185000D03*
%TO.P,J9,B1,GND*%
X109750000Y-62185000D03*
%TO.P,J9,B4,VBUS*%
%TO.N,+5V*%
X110550000Y-62185000D03*
%TO.P,J9,B5,CC2*%
%TO.N,unconnected-(J9-CC2-PadB5)*%
X111050000Y-62185000D03*
%TO.P,J9,B6,D+*%
%TO.N,unconnected-(J9-D+-PadB6)*%
X112050000Y-62185000D03*
%TO.P,J9,B7,D-*%
%TO.N,unconnected-(J9-D--PadB7)*%
X113550000Y-62185000D03*
%TO.P,J9,B8,SBU2*%
%TO.N,unconnected-(J9-SBU2-PadB8)*%
X114550000Y-62185000D03*
%TO.P,J9,B9,VBUS*%
%TO.N,+5V*%
X115050000Y-62185000D03*
%TO.P,J9,B12,GND*%
%TO.N,GND*%
X115850000Y-62185000D03*
D44*
%TO.P,J9,S1,SHIELD*%
X117120000Y-61620000D03*
D45*
X117120000Y-57440000D03*
D44*
X108480000Y-61620000D03*
D45*
X108480000Y-57440000D03*
%TD*%
D13*
%TO.P,C9,1*%
%TO.N,Net-(U3-CAPP)*%
X103320000Y-57600000D03*
%TO.P,C9,2*%
%TO.N,Net-(U3-CAPM)*%
X104280000Y-57600000D03*
%TD*%
D41*
%TO.P,R13,1*%
%TO.N,Net-(U3-OUTR)*%
X102110000Y-60400000D03*
%TO.P,R13,2*%
%TO.N,/AUDIO_L*%
X101090000Y-60400000D03*
%TD*%
D13*
%TO.P,C14,1*%
%TO.N,+5V*%
X95120000Y-72350000D03*
%TO.P,C14,2*%
%TO.N,GND*%
X96080000Y-72350000D03*
%TD*%
D15*
%TO.P,J7,1,3.3V*%
%TO.N,+3V3*%
X113030000Y-100965000D03*
D16*
%TO.P,J7,2,5V*%
%TO.N,+5V*%
X115570000Y-100965000D03*
%TO.P,J7,3,GND*%
%TO.N,GND*%
X113030000Y-103505000D03*
%TO.P,J7,4,GND*%
X115570000Y-103505000D03*
%TO.P,J7,5,N.C.*%
%TO.N,unconnected-(J7-N.C.-Pad5)*%
X113030000Y-106045000D03*
%TO.P,J7,6,N.C.*%
%TO.N,unconnected-(J7-N.C.-Pad6)*%
X115570000Y-106045000D03*
%TO.P,J7,7,N.C.*%
%TO.N,unconnected-(J7-N.C.-Pad7)*%
X113030000Y-108585000D03*
%TO.P,J7,8,N.C.*%
%TO.N,unconnected-(J7-N.C.-Pad8)*%
X115570000Y-108585000D03*
%TO.P,J7,9,A_RIGHT*%
%TO.N,A_RIGHT*%
X113030000Y-111125000D03*
%TO.P,J7,10,MIDI_OUT*%
%TO.N,MIDI_OUTn*%
X115570000Y-111125000D03*
%TO.P,J7,11,A_LEFT*%
%TO.N,A_LEFT*%
X113030000Y-113665000D03*
%TO.P,J7,12,MIDI_THRU*%
%TO.N,MIDI_THRUn*%
X115570000Y-113665000D03*
%TO.P,J7,13,A_GND*%
%TO.N,A_GND*%
X113030000Y-116205000D03*
%TO.P,J7,14,A_GND*%
X115570000Y-116205000D03*
%TO.P,J7,15,SW_DOWN*%
%TO.N,SW_DOWN*%
X113030000Y-118745000D03*
%TO.P,J7,16,N.C.*%
%TO.N,unconnected-(J7-N.C.-Pad16)*%
X115570000Y-118745000D03*
%TO.P,J7,17,SW_UP*%
%TO.N,SW_UP*%
X113030000Y-121285000D03*
%TO.P,J7,18,PI_RX*%
%TO.N,PI_RX*%
X115570000Y-121285000D03*
%TO.P,J7,19,SW_ENC*%
%TO.N,SW_ENC*%
X113030000Y-123825000D03*
%TO.P,J7,20,PI_TX*%
%TO.N,PI_TX*%
X115570000Y-123825000D03*
%TD*%
D46*
%TO.N,GND*%
X116840000Y-76708000D03*
X103632000Y-73914000D03*
X103632000Y-77470000D03*
X82804000Y-80010000D03*
X89154000Y-72390000D03*
D47*
X97536000Y-67818000D03*
D46*
X105340000Y-64200000D03*
D47*
X151638000Y-78486000D03*
D46*
X91600000Y-77600000D03*
X98800000Y-77600000D03*
D47*
X163576000Y-80010000D03*
D46*
X101600000Y-83000000D03*
X111400000Y-82200000D03*
D47*
X103800000Y-68400000D03*
X157226000Y-79248000D03*
D46*
X79248000Y-80010000D03*
X91800000Y-64200000D03*
X77600000Y-61800000D03*
X105600000Y-58800000D03*
X97400000Y-72400000D03*
X120800000Y-79800000D03*
X126276000Y-149225000D03*
D47*
X111000000Y-79000000D03*
X113800000Y-79200000D03*
D46*
X136436000Y-147510010D03*
X102400000Y-79000000D03*
X77600000Y-63000000D03*
X111400000Y-80800000D03*
X114000000Y-66400000D03*
X77600000Y-63800000D03*
X89200000Y-73400000D03*
D47*
X159766000Y-79248000D03*
D46*
X112000000Y-66400000D03*
%TO.N,+3V3*%
X140525000Y-81534000D03*
X109220000Y-85699600D03*
X136843000Y-81534000D03*
X163195000Y-96520000D03*
X146200000Y-136600000D03*
X138430000Y-147510000D03*
X139065000Y-144780000D03*
X119380000Y-85725000D03*
%TO.N,+5V*%
X87000000Y-79000000D03*
X149225000Y-93479500D03*
X94400000Y-79000000D03*
D47*
X116201721Y-63580501D03*
X150622000Y-95594500D03*
X123400000Y-71800000D03*
X110300106Y-63893477D03*
D46*
%TO.N,I2C_SCL*%
X147066000Y-100203000D03*
X141732000Y-105283000D03*
X109220000Y-147320000D03*
X141986000Y-126000000D03*
X156209500Y-96901000D03*
X108769990Y-142250000D03*
%TO.N,I2C_SDA*%
X157226000Y-96393000D03*
X142800000Y-127000000D03*
X108204000Y-148336000D03*
X147891500Y-101282500D03*
X142367000Y-106680000D03*
X107188000Y-143129000D03*
%TO.N,SW_DOWN*%
X110800000Y-129600000D03*
X143510000Y-95305500D03*
X135420000Y-140970000D03*
%TO.N,SW_UP*%
X132880100Y-140970100D03*
X145415000Y-130810000D03*
X142240000Y-95305500D03*
X147574000Y-130810000D03*
X132918200Y-130810000D03*
X140589000Y-130810000D03*
%TO.N,SW_SYNTH*%
X127787400Y-144145000D03*
X144200000Y-129323500D03*
X81915000Y-142621000D03*
X81915000Y-145542000D03*
X143764000Y-100965000D03*
%TO.N,I2S_BCLK*%
X130810000Y-76835000D03*
X132715000Y-78105000D03*
%TO.N,SW_ROM*%
X88392000Y-143470500D03*
X130348200Y-140961800D03*
X88265000Y-145796000D03*
X130340100Y-144780000D03*
X130400000Y-130400000D03*
X145248500Y-129800000D03*
X144399000Y-99187000D03*
%TO.N,I2S_LRCLK*%
X121200000Y-74000000D03*
X121200000Y-63000000D03*
D47*
X121349500Y-69400000D03*
D46*
%TO.N,SW_ENC*%
X125247400Y-128270000D03*
X125260000Y-140970000D03*
X140716000Y-128270000D03*
X143510000Y-128270000D03*
X147828000Y-128270000D03*
X149225000Y-91821000D03*
X143510000Y-102870000D03*
%TO.N,I2S_DATA*%
X120525500Y-66200000D03*
X113000000Y-84400000D03*
%TO.N,Net-(J3-Pad4)*%
X137919442Y-75054442D03*
X136080500Y-73215500D03*
%TO.N,Net-(J5-Pad5)*%
X151892000Y-97536000D03*
X153035000Y-106680000D03*
%TO.N,Net-(J5-Pad4)*%
X150622000Y-99568000D03*
X150622000Y-97536000D03*
%TO.N,Net-(R1-Pad2)*%
X166370000Y-75946000D03*
X161290000Y-79756000D03*
%TO.N,PI_RX*%
X141097000Y-113030000D03*
X151765000Y-102362000D03*
X135890000Y-80010000D03*
X151765000Y-113030000D03*
X151130000Y-82550000D03*
X129032000Y-78358988D03*
X161036000Y-83566000D03*
X138430000Y-80645000D03*
%TO.N,PI_TX*%
X154305000Y-100330000D03*
X151130000Y-114935000D03*
X154813000Y-83693000D03*
X140843000Y-114935000D03*
%TO.N,Net-(D1-K)*%
X131064000Y-83439000D03*
X146939000Y-82423000D03*
%TO.N,Net-(JP3-C)*%
X132207000Y-147066000D03*
%TO.N,Net-(U3-CAPP)*%
X103200000Y-56600000D03*
X103400000Y-62815000D03*
%TO.N,Net-(U3-CAPM)*%
X103800000Y-63800000D03*
X104200000Y-56600000D03*
%TO.N,Net-(U3-LRCK)*%
X114800000Y-67800000D03*
X110723260Y-66476740D03*
%TO.N,Net-(U3-DIN)*%
X116000000Y-65400000D03*
X105400000Y-65400000D03*
%TO.N,Net-(U3-OUTL)*%
X102337812Y-65100987D03*
X102000000Y-58400000D03*
%TO.N,Net-(U3-OUTR)*%
X103400000Y-65200000D03*
X102740000Y-61220758D03*
%TO.N,+3.3VA*%
X99813297Y-68840777D03*
%TO.N,+3.3VP*%
X109150376Y-65049624D03*
X96000000Y-66800000D03*
X106037154Y-61338614D03*
%TD*%
D48*
%TO.N,+3V3*%
X123952000Y-81280000D02*
X123952000Y-76200000D01*
X123666000Y-81534000D02*
X123698000Y-81534000D01*
X121920000Y-83280000D02*
X123666000Y-81534000D01*
X123698000Y-81534000D02*
X123952000Y-81280000D01*
X121920000Y-83600000D02*
X121920000Y-83280000D01*
%TO.N,GND*%
X118096500Y-75451500D02*
X116840000Y-76708000D01*
X118618000Y-75451500D02*
X118096500Y-75451500D01*
X105396500Y-73914000D02*
X103632000Y-73914000D01*
X103886000Y-77216000D02*
X103632000Y-77470000D01*
X105396500Y-77216000D02*
X103886000Y-77216000D01*
X105410000Y-79742500D02*
X105410000Y-77229500D01*
X105410000Y-77229500D02*
X105396500Y-77216000D01*
X82804000Y-78499500D02*
X82804000Y-80010000D01*
%TO.N,+5V*%
X87178000Y-72390000D02*
X87178000Y-73406000D01*
%TO.N,GND*%
X88138000Y-72390000D02*
X89154000Y-72390000D01*
D49*
%TO.N,+3.3VA*%
X98244500Y-73406000D02*
X97990500Y-73152000D01*
X99088000Y-73406000D02*
X98244500Y-73406000D01*
D48*
%TO.N,GND*%
X100076000Y-74224000D02*
X98900000Y-75400000D01*
X100076000Y-72390000D02*
X100076000Y-74224000D01*
X91666000Y-75284000D02*
X91500000Y-75450000D01*
X91666000Y-72390000D02*
X91666000Y-75284000D01*
X96492000Y-67818000D02*
X97536000Y-67818000D01*
D49*
%TO.N,I2S_LRCLK*%
X121200000Y-75142000D02*
X121200000Y-74000000D01*
X120284500Y-76057500D02*
X121200000Y-75142000D01*
X120284500Y-76565500D02*
X120284500Y-76057500D01*
X116840000Y-80010000D02*
X120284500Y-76565500D01*
D50*
%TO.N,+5V*%
X105410000Y-83946000D02*
X105410000Y-82817500D01*
X105664000Y-84200000D02*
X93800000Y-84200000D01*
X108450000Y-84200000D02*
X105664000Y-84200000D01*
X105664000Y-84200000D02*
X105410000Y-83946000D01*
X92600000Y-84200000D02*
X93200000Y-83600000D01*
X85344000Y-82544000D02*
X87000000Y-84200000D01*
X83800000Y-75462500D02*
X85344000Y-77006500D01*
X85344000Y-77006500D02*
X85344000Y-82544000D01*
X87000000Y-84200000D02*
X92600000Y-84200000D01*
D48*
%TO.N,GND*%
X79248000Y-80010000D02*
X79248000Y-78889500D01*
X79248000Y-78889500D02*
X79600000Y-78537500D01*
%TO.N,+3.3VA*%
X96600000Y-74342000D02*
X96600000Y-75400000D01*
X97990500Y-73152000D02*
X97790000Y-73152000D01*
X97790000Y-73152000D02*
X96600000Y-74342000D01*
X98916500Y-72226000D02*
X97990500Y-73152000D01*
X98916500Y-69717168D02*
X98916500Y-72226000D01*
X99663574Y-68990500D02*
X99643168Y-68990500D01*
X99813297Y-68840777D02*
X99663574Y-68990500D01*
X99643168Y-68990500D02*
X98916500Y-69717168D01*
%TO.N,GND*%
X104280000Y-59600000D02*
X105600000Y-59600000D01*
X109450000Y-62185000D02*
X109045000Y-62185000D01*
X98900000Y-75400000D02*
X98900000Y-77500000D01*
X115000000Y-77337500D02*
X115000000Y-78000000D01*
D51*
X111000000Y-82600000D02*
X111400000Y-82200000D01*
D48*
X157226000Y-76962000D02*
X157226000Y-79248000D01*
D51*
X111200000Y-81000000D02*
X111400000Y-80800000D01*
D48*
X109045000Y-62185000D02*
X108480000Y-61620000D01*
D51*
X96080000Y-72350000D02*
X97350000Y-72350000D01*
D48*
X101612500Y-68400000D02*
X106387500Y-68400000D01*
X115000000Y-78000000D02*
X113800000Y-79200000D01*
X120800000Y-78966000D02*
X120800000Y-79800000D01*
X105815000Y-64675000D02*
X105340000Y-64200000D01*
X91500000Y-75450000D02*
X91500000Y-77500000D01*
X136466000Y-147540010D02*
X136436000Y-147510010D01*
X127516000Y-149225000D02*
X126276000Y-149225000D01*
X116555000Y-62185000D02*
X117120000Y-61620000D01*
X108105000Y-67925000D02*
X108400000Y-68220000D01*
X101137500Y-67275000D02*
X101137500Y-67925000D01*
X109450000Y-62185000D02*
X109450000Y-63630000D01*
X163576000Y-81912000D02*
X163576000Y-80010000D01*
X136466000Y-149225000D02*
X136466000Y-147540010D01*
X159766000Y-76962000D02*
X159766000Y-79248000D01*
X152390600Y-88544400D02*
X154930600Y-88544400D01*
X98900000Y-77500000D02*
X98800000Y-77600000D01*
X113030000Y-103505000D02*
X115570000Y-103505000D01*
X151572000Y-78420000D02*
X151638000Y-78486000D01*
D51*
X97350000Y-72350000D02*
X97400000Y-72400000D01*
D48*
X106862500Y-62725000D02*
X107806000Y-62725000D01*
X151130000Y-89805000D02*
X152390600Y-88544400D01*
D50*
X102400000Y-82200000D02*
X101600000Y-83000000D01*
D48*
X107806000Y-62725000D02*
X108480000Y-62051000D01*
X91500000Y-77500000D02*
X91600000Y-77600000D01*
X111000000Y-77337500D02*
X111000000Y-79000000D01*
X154930600Y-88544400D02*
X156210000Y-87265000D01*
D50*
X77600000Y-65900000D02*
X77600000Y-61800000D01*
D48*
X109450000Y-63630000D02*
X109280000Y-63800000D01*
D51*
X110600000Y-81000000D02*
X111200000Y-81000000D01*
D48*
X106862500Y-64675000D02*
X105815000Y-64675000D01*
X149606000Y-78420000D02*
X151572000Y-78420000D01*
D50*
X91800000Y-66125000D02*
X91800000Y-64200000D01*
D48*
X114000000Y-65680000D02*
X114000000Y-66400000D01*
D50*
X102400000Y-79000000D02*
X102400000Y-82200000D01*
D48*
X108480000Y-62051000D02*
X108480000Y-61620000D01*
D51*
X96080000Y-72350000D02*
X96080000Y-73550000D01*
D48*
X112000000Y-65680000D02*
X112000000Y-66400000D01*
X106387500Y-68400000D02*
X106862500Y-67925000D01*
X100200000Y-79000000D02*
X102400000Y-79000000D01*
X98800000Y-77600000D02*
X100200000Y-79000000D01*
X104280000Y-59000000D02*
X104280000Y-59600000D01*
X116150000Y-62185000D02*
X116555000Y-62185000D01*
X106862500Y-67925000D02*
X108105000Y-67925000D01*
X88200000Y-73400000D02*
X89200000Y-73400000D01*
D51*
X110600000Y-82600000D02*
X111000000Y-82600000D01*
D48*
X104280000Y-59600000D02*
X104280000Y-60400000D01*
X105600000Y-59600000D02*
X105600000Y-58800000D01*
X101137500Y-67925000D02*
X101612500Y-68400000D01*
D50*
X77600000Y-59900000D02*
X77600000Y-61800000D01*
D48*
%TO.N,+3V3*%
X159385000Y-125730000D02*
X161925000Y-125730000D01*
X163195000Y-124460000D02*
X163195000Y-109855000D01*
X140500000Y-138600000D02*
X140500000Y-143345000D01*
X134366000Y-82550000D02*
X135382000Y-81534000D01*
X139065000Y-85725000D02*
X137795000Y-85725000D01*
X139700000Y-88535000D02*
X139700000Y-86360000D01*
X140970000Y-89805000D02*
X139700000Y-88535000D01*
X121285000Y-76200000D02*
X121920000Y-76200000D01*
X138430000Y-150495000D02*
X138430000Y-147510000D01*
X153489009Y-85671009D02*
X156791009Y-85671009D01*
X134366000Y-85725000D02*
X121920000Y-85725000D01*
X161925000Y-111125000D02*
X163195000Y-109855000D01*
X77535000Y-83535000D02*
X79200000Y-85200000D01*
X109245400Y-100965000D02*
X109220000Y-100990400D01*
X141150060Y-137949940D02*
X140500000Y-138600000D01*
X76200000Y-69000000D02*
X76200000Y-74930000D01*
X113030000Y-100965000D02*
X109245400Y-100965000D01*
X75000000Y-67800000D02*
X76200000Y-69000000D01*
X163195000Y-109855000D02*
X163195000Y-96520000D01*
X133866000Y-150376000D02*
X134434490Y-150944490D01*
X140500000Y-143345000D02*
X139065000Y-144780000D01*
X114730000Y-130600000D02*
X112560000Y-132770000D01*
X121920000Y-83600000D02*
X121920000Y-76200000D01*
X156791009Y-85671009D02*
X157480000Y-86360000D01*
X134366000Y-82550000D02*
X134366000Y-85725000D01*
X76200000Y-74930000D02*
X77535000Y-76265000D01*
X108000000Y-85200000D02*
X108652008Y-85852008D01*
X120687500Y-130600000D02*
X114730000Y-130600000D01*
X135382000Y-81534000D02*
X136843000Y-81534000D01*
X77535000Y-76265000D02*
X77535000Y-83535000D01*
X75000000Y-65780000D02*
X75000000Y-67800000D01*
X120800000Y-76685000D02*
X121285000Y-76200000D01*
D50*
X146200000Y-136600000D02*
X146200000Y-137949940D01*
D48*
X145137500Y-80010000D02*
X143510000Y-80010000D01*
X143510000Y-80010000D02*
X141986000Y-81534000D01*
X137980510Y-150944490D02*
X138430000Y-150495000D01*
X137795000Y-85725000D02*
X134366000Y-85725000D01*
X120800000Y-77536000D02*
X120800000Y-76685000D01*
X133866000Y-149225000D02*
X133866000Y-150376000D01*
X79200000Y-85200000D02*
X108000000Y-85200000D01*
X109220000Y-100990400D02*
X109220000Y-129430000D01*
X158180758Y-88531700D02*
X160016700Y-88531700D01*
X108652008Y-85852008D02*
X109448610Y-85852008D01*
X121285000Y-85725000D02*
X119380000Y-85725000D01*
X147574000Y-81534000D02*
X150876000Y-84836000D01*
X109220000Y-100990400D02*
X109220000Y-86385400D01*
X139700000Y-86360000D02*
X139065000Y-85725000D01*
X141732000Y-81534000D02*
X140525000Y-81534000D01*
X151709499Y-85669499D02*
X153487499Y-85669499D01*
X130116000Y-149225000D02*
X133866000Y-149225000D01*
X163195000Y-133352540D02*
X158597600Y-137949940D01*
X109220000Y-129430000D02*
X112560000Y-132770000D01*
X134434490Y-150944490D02*
X137980510Y-150944490D01*
X157480000Y-87830942D02*
X158180758Y-88531700D01*
X121920000Y-85725000D02*
X121920000Y-83600000D01*
X161925000Y-125730000D02*
X163195000Y-124460000D01*
X123952000Y-76200000D02*
X121920000Y-76200000D01*
X158597600Y-137949940D02*
X146200000Y-137949940D01*
X141732000Y-81534000D02*
X147574000Y-81534000D01*
X121285000Y-85725000D02*
X121920000Y-85725000D01*
X160016700Y-88531700D02*
X161290000Y-89805000D01*
X109220000Y-86385400D02*
X109220000Y-85699600D01*
X150876000Y-84836000D02*
X151709499Y-85669499D01*
X163195000Y-124460000D02*
X163195000Y-133352540D01*
X72085000Y-62865000D02*
X75000000Y-65780000D01*
X153487499Y-85669499D02*
X153489009Y-85671009D01*
X146200000Y-137949940D02*
X141150060Y-137949940D01*
X141986000Y-81534000D02*
X141732000Y-81534000D01*
X159385000Y-111125000D02*
X161925000Y-111125000D01*
X157480000Y-86360000D02*
X157480000Y-87830942D01*
D50*
%TO.N,+5V*%
X163195000Y-91440000D02*
X163195000Y-87503000D01*
D48*
X95120000Y-74580000D02*
X94300000Y-75400000D01*
D50*
X162433000Y-92202000D02*
X163195000Y-91440000D01*
X93800000Y-84200000D02*
X93200000Y-83600000D01*
D48*
X87200000Y-78800000D02*
X87200000Y-75750000D01*
X150622000Y-95594500D02*
X149238000Y-95594500D01*
D50*
X117200000Y-72400000D02*
X116062000Y-73538000D01*
D48*
X150175000Y-76520000D02*
X150495000Y-76200000D01*
X155956000Y-76962000D02*
X155448000Y-77470000D01*
D50*
X163195000Y-87503000D02*
X162957000Y-87265000D01*
X116062000Y-73538000D02*
X109220000Y-73538000D01*
D48*
X158115000Y-85090000D02*
X158750000Y-85725000D01*
D50*
X93600000Y-79800000D02*
X94400000Y-79000000D01*
D48*
X153670000Y-77470000D02*
X153670000Y-84582000D01*
X155448000Y-77470000D02*
X153670000Y-77470000D01*
D50*
X88600000Y-59900000D02*
X88600000Y-65900000D01*
D48*
X148905000Y-76200000D02*
X149225000Y-76520000D01*
D50*
X93200000Y-79800000D02*
X93600000Y-79800000D01*
X109125000Y-83525000D02*
X111125000Y-85525000D01*
X117200000Y-72030000D02*
X117200000Y-72400000D01*
D48*
X114000000Y-64720000D02*
X114000000Y-64000000D01*
X87240000Y-73400000D02*
X87240000Y-75110000D01*
D50*
X79600000Y-75462500D02*
X83800000Y-75462500D01*
X111125000Y-92583000D02*
X111125000Y-96012000D01*
D48*
X87240000Y-75110000D02*
X86900000Y-75450000D01*
X149225000Y-76520000D02*
X150175000Y-76520000D01*
X146962500Y-76200000D02*
X148905000Y-76200000D01*
X110290500Y-63890500D02*
X110290500Y-63400000D01*
D50*
X86887500Y-75462500D02*
X86900000Y-75450000D01*
D48*
X149238000Y-95594500D02*
X149225000Y-95607500D01*
X116182222Y-63600000D02*
X116201721Y-63580501D01*
D50*
X149225000Y-93479500D02*
X154043500Y-93479500D01*
D48*
X115309500Y-63600000D02*
X116182222Y-63600000D01*
D50*
X82833000Y-68567000D02*
X79600000Y-71800000D01*
X148328500Y-92583000D02*
X149225000Y-93479500D01*
X83800000Y-75462500D02*
X86887500Y-75462500D01*
X86233000Y-68567000D02*
X82833000Y-68567000D01*
X93200000Y-83600000D02*
X93200000Y-79800000D01*
D48*
X94300000Y-78900000D02*
X94400000Y-79000000D01*
X158750000Y-85725000D02*
X158750000Y-87265000D01*
X154178000Y-85090000D02*
X158115000Y-85090000D01*
D50*
X109125000Y-73633000D02*
X109125000Y-83525000D01*
D48*
X110290500Y-63400000D02*
X110290500Y-63883871D01*
D50*
X162957000Y-87265000D02*
X158750000Y-87265000D01*
D48*
X94300000Y-75400000D02*
X94300000Y-78900000D01*
D50*
X111125000Y-85525000D02*
X111125000Y-92583000D01*
X111125000Y-96012000D02*
X115570000Y-100457000D01*
D48*
X111120000Y-64720000D02*
X110290500Y-63890500D01*
X153670000Y-84582000D02*
X154178000Y-85090000D01*
D50*
X109220000Y-73538000D02*
X109125000Y-73633000D01*
D48*
X95120000Y-72350000D02*
X95120000Y-73550000D01*
D50*
X117400000Y-71830000D02*
X117200000Y-72030000D01*
X123370000Y-71830000D02*
X117400000Y-71830000D01*
X88900000Y-65900000D02*
X86233000Y-68567000D01*
D48*
X87000000Y-79000000D02*
X87200000Y-78800000D01*
D50*
X109125000Y-83525000D02*
X108450000Y-84200000D01*
X115570000Y-100457000D02*
X115570000Y-100965000D01*
X154043500Y-93479500D02*
X155448000Y-92075000D01*
X79600000Y-71800000D02*
X79600000Y-75462500D01*
D48*
X112000000Y-64720000D02*
X111120000Y-64720000D01*
D50*
X123400000Y-71800000D02*
X123370000Y-71830000D01*
X111125000Y-92583000D02*
X148328500Y-92583000D01*
X162306000Y-92075000D02*
X162433000Y-92202000D01*
D48*
X110290500Y-63400000D02*
X110290500Y-62185000D01*
X115309500Y-63600000D02*
X115309500Y-62185000D01*
X150495000Y-76200000D02*
X152400000Y-76200000D01*
X95120000Y-73550000D02*
X95120000Y-74580000D01*
X110290500Y-63883871D02*
X110300106Y-63893477D01*
X87200000Y-75750000D02*
X86900000Y-75450000D01*
X114000000Y-64000000D02*
X114400000Y-63600000D01*
D50*
X155448000Y-92075000D02*
X162306000Y-92075000D01*
D48*
X152400000Y-76200000D02*
X153670000Y-77470000D01*
X114400000Y-63600000D02*
X115309500Y-63600000D01*
D49*
%TO.N,I2C_SCL*%
X74142500Y-66522500D02*
X74142500Y-68427500D01*
X106600990Y-140081000D02*
X108769990Y-142250000D01*
X118910000Y-147485000D02*
X118910000Y-149860000D01*
X111125000Y-142424990D02*
X116185010Y-142424990D01*
X147066000Y-99058604D02*
X147066000Y-100203000D01*
X74142500Y-68427500D02*
X75412500Y-69697500D01*
X110950010Y-142250000D02*
X111125000Y-142424990D01*
X75412500Y-75412500D02*
X77000000Y-77000000D01*
X154812500Y-98298000D02*
X147826604Y-98298000D01*
X79375000Y-88000000D02*
X79375000Y-139700000D01*
X75412500Y-69697500D02*
X75412500Y-75412500D01*
X77000000Y-85625000D02*
X79375000Y-88000000D01*
X77000000Y-77000000D02*
X77000000Y-85625000D01*
X109220000Y-147320000D02*
X118745000Y-147320000D01*
X116185010Y-142424990D02*
X117640000Y-140970000D01*
D48*
X117640000Y-132770000D02*
X117640000Y-140970000D01*
D49*
X141605000Y-105410000D02*
X141605000Y-112075405D01*
X79375000Y-139700000D02*
X79756000Y-140081000D01*
X118745000Y-147320000D02*
X118910000Y-147485000D01*
X108769990Y-142250000D02*
X110950010Y-142250000D01*
X79756000Y-140081000D02*
X106600990Y-140081000D01*
X141986000Y-112456405D02*
X141986000Y-126000000D01*
X72085000Y-65405000D02*
X73025000Y-65405000D01*
X147826604Y-98298000D02*
X147066000Y-99058604D01*
X141605000Y-112075405D02*
X141986000Y-112456405D01*
X156209500Y-96901000D02*
X154812500Y-98298000D01*
X73025000Y-65405000D02*
X74142500Y-66522500D01*
X141732000Y-105283000D02*
X141605000Y-105410000D01*
%TO.N,I2C_SDA*%
X147955000Y-98806000D02*
X147955000Y-101219000D01*
X108650595Y-148463000D02*
X115570000Y-148463000D01*
D48*
X142800000Y-127000000D02*
X142800000Y-107113000D01*
D49*
X107188000Y-143129000D02*
X104775000Y-140716000D01*
X108523595Y-148336000D02*
X108650595Y-148463000D01*
X157226000Y-97378292D02*
X155798292Y-98806000D01*
X107188000Y-143129000D02*
X107569000Y-143510000D01*
X76347500Y-86007500D02*
X78740000Y-88400000D01*
D48*
X120180000Y-132770000D02*
X120180000Y-140970000D01*
D49*
X104775000Y-140716000D02*
X79121000Y-140716000D01*
X74295000Y-76200000D02*
X74295000Y-70155000D01*
X147955000Y-101219000D02*
X147891500Y-101282500D01*
X142367000Y-106680000D02*
X142621000Y-106934000D01*
X78740000Y-140335000D02*
X78740000Y-88400000D01*
X108204000Y-148336000D02*
X108523595Y-148336000D01*
X155798292Y-98806000D02*
X147955000Y-98806000D01*
X157226000Y-96393000D02*
X157226000Y-97378292D01*
D48*
X142800000Y-107113000D02*
X142367000Y-106680000D01*
D49*
X79121000Y-140716000D02*
X78740000Y-140335000D01*
X120180000Y-142075000D02*
X120180000Y-140970000D01*
X76347500Y-78252500D02*
X76347500Y-86007500D01*
X115570000Y-148463000D02*
X116370000Y-149263000D01*
X107569000Y-143510000D02*
X118745000Y-143510000D01*
X76347500Y-78252500D02*
X74295000Y-76200000D01*
X116370000Y-149263000D02*
X116370000Y-149860000D01*
X118745000Y-143510000D02*
X120180000Y-142075000D01*
X74295000Y-70155000D02*
X72085000Y-67945000D01*
%TO.N,SW_DOWN*%
X155075500Y-151516000D02*
X152786000Y-151516000D01*
X109855000Y-128655000D02*
X109855000Y-119380000D01*
X140690600Y-146050000D02*
X135432800Y-146050000D01*
X131800405Y-146010000D02*
X135392800Y-146010000D01*
X142044420Y-147403820D02*
X140690600Y-146050000D01*
X151046180Y-147403820D02*
X142044420Y-147403820D01*
X146050000Y-133350000D02*
X146685000Y-132715000D01*
X151765000Y-148122640D02*
X151046180Y-147403820D01*
X135420000Y-133362800D02*
X135432800Y-133350000D01*
X75565000Y-90780000D02*
X75565000Y-143510000D01*
X146685000Y-132715000D02*
X146685000Y-103189595D01*
X135432800Y-146050000D02*
X135432800Y-140982800D01*
X104394000Y-146558000D02*
X131252405Y-146558000D01*
X146685000Y-103189595D02*
X146010000Y-102514595D01*
X146010000Y-102514595D02*
X146010000Y-97805500D01*
X152786000Y-151516000D02*
X151765000Y-150495000D01*
D51*
X135420000Y-132770000D02*
X137650000Y-135000000D01*
D49*
X110490000Y-118745000D02*
X113030000Y-118745000D01*
X91515157Y-144780000D02*
X91692157Y-144603000D01*
X156845000Y-133350000D02*
X146050000Y-133350000D01*
X102439000Y-144603000D02*
X104394000Y-146558000D01*
X151765000Y-150495000D02*
X151765000Y-148122640D01*
X110800000Y-129600000D02*
X109855000Y-128655000D01*
X76835000Y-144780000D02*
X91515157Y-144780000D01*
X72085000Y-87300000D02*
X75565000Y-90780000D01*
X135392800Y-146010000D02*
X135432800Y-146050000D01*
X159385000Y-133350000D02*
X156845000Y-133350000D01*
X109855000Y-119380000D02*
X110490000Y-118745000D01*
X146050000Y-133350000D02*
X144400000Y-135000000D01*
X146010000Y-97805500D02*
X143510000Y-95305500D01*
X144400000Y-135000000D02*
X137800000Y-135000000D01*
X91692157Y-144603000D02*
X102439000Y-144603000D01*
X75565000Y-143510000D02*
X76835000Y-144780000D01*
D51*
X137650000Y-135000000D02*
X137800000Y-135000000D01*
D49*
X131252405Y-146558000D02*
X131800405Y-146010000D01*
X72085000Y-85725000D02*
X72085000Y-87300000D01*
X135432800Y-140982800D02*
X135420000Y-140970000D01*
%TO.N,SW_UP*%
X145560000Y-98625500D02*
X142240000Y-95305500D01*
X145923000Y-103063991D02*
X145560000Y-102700991D01*
X73800000Y-88000000D02*
X76200000Y-90400000D01*
X130975106Y-145923000D02*
X132880100Y-144018006D01*
X104775000Y-145923000D02*
X130975106Y-145923000D01*
X132880100Y-144018006D02*
X132880100Y-140970100D01*
X132918200Y-130810000D02*
X140589000Y-130810000D01*
X156210000Y-130810000D02*
X159385000Y-130810000D01*
X145923000Y-130302000D02*
X145923000Y-103063991D01*
X76200000Y-90400000D02*
X76200000Y-142875000D01*
X73800000Y-84900000D02*
X73800000Y-88000000D01*
X111953400Y-129200000D02*
X131308200Y-129200000D01*
X77470000Y-144145000D02*
X102997000Y-144145000D01*
X72085000Y-83185000D02*
X73800000Y-84900000D01*
X110490000Y-127736600D02*
X111953400Y-129200000D01*
X102997000Y-144145000D02*
X104775000Y-145923000D01*
X147574000Y-130810000D02*
X156210000Y-130810000D01*
X111125000Y-121285000D02*
X110490000Y-121920000D01*
X132880100Y-140970100D02*
X132880000Y-140970000D01*
X76200000Y-142875000D02*
X77470000Y-144145000D01*
X145415000Y-130810000D02*
X145923000Y-130302000D01*
X110490000Y-121920000D02*
X110490000Y-127736600D01*
X131308200Y-129200000D02*
X132918200Y-130810000D01*
X113030000Y-121285000D02*
X111125000Y-121285000D01*
X145560000Y-102700991D02*
X145560000Y-98625500D01*
%TO.N,SW_SYNTH*%
X127025400Y-144907000D02*
X127787400Y-144145000D01*
X103592000Y-142200000D02*
X106299000Y-144907000D01*
X72085000Y-78105000D02*
X75200000Y-81220000D01*
X78486000Y-142621000D02*
X87564405Y-142621000D01*
X127787400Y-140982600D02*
X127800000Y-140970000D01*
X77470000Y-141605000D02*
X78486000Y-142621000D01*
X81915000Y-145542000D02*
X81915000Y-151130000D01*
X143764000Y-100965000D02*
X144399000Y-101600000D01*
X87564405Y-142621000D02*
X87985405Y-142200000D01*
X81915000Y-151130000D02*
X81275000Y-151770000D01*
X144399000Y-101600000D02*
X144399000Y-128651000D01*
X127800000Y-140970000D02*
X127800000Y-132770000D01*
X77470000Y-89270000D02*
X77470000Y-141605000D01*
X75200000Y-81220000D02*
X75200000Y-87000000D01*
X144200000Y-129000000D02*
X144200000Y-129323500D01*
X81275000Y-151770000D02*
X80717000Y-151770000D01*
X144399000Y-128651000D02*
X144399000Y-128801000D01*
X144399000Y-128801000D02*
X144200000Y-129000000D01*
X106299000Y-144907000D02*
X127025400Y-144907000D01*
X75200000Y-87000000D02*
X77470000Y-89270000D01*
X87985405Y-142200000D02*
X103592000Y-142200000D01*
X127787400Y-144145000D02*
X127787400Y-140982600D01*
D48*
%TO.N,I2S_BCLK*%
X117310000Y-67400000D02*
X118863000Y-67400000D01*
D49*
X137668000Y-82423000D02*
X137668000Y-78994000D01*
X120396000Y-67056000D02*
X127000000Y-73660000D01*
X140970000Y-85725000D02*
X137668000Y-82423000D01*
D48*
X118863000Y-67400000D02*
X119207000Y-67056000D01*
D49*
X148590000Y-86995000D02*
X148590000Y-86360000D01*
X130810000Y-74295000D02*
X130810000Y-76835000D01*
X119207000Y-67056000D02*
X120396000Y-67056000D01*
X127000000Y-73660000D02*
X130175000Y-73660000D01*
X130175000Y-73660000D02*
X130810000Y-74295000D01*
X147955000Y-85725000D02*
X140970000Y-85725000D01*
X148590000Y-86360000D02*
X147955000Y-85725000D01*
X137668000Y-78994000D02*
X136779000Y-78105000D01*
X136779000Y-78105000D02*
X132715000Y-78105000D01*
D51*
%TO.N,SW_ROM*%
X130340000Y-130460000D02*
X130400000Y-130400000D01*
D49*
X88987500Y-142875000D02*
X102997000Y-142875000D01*
X105537000Y-145415000D02*
X129705100Y-145415000D01*
X88265000Y-145796000D02*
X88265000Y-151130000D01*
X129705100Y-145415000D02*
X130340100Y-144780000D01*
X145034000Y-129585500D02*
X145034000Y-99822000D01*
X74600000Y-83160000D02*
X74600000Y-87400000D01*
X102997000Y-142875000D02*
X105537000Y-145415000D01*
X145248500Y-129800000D02*
X145034000Y-129585500D01*
X78065500Y-143470500D02*
X88392000Y-143470500D01*
X74600000Y-87400000D02*
X76835000Y-89635000D01*
X130340100Y-140970100D02*
X130340000Y-140970000D01*
X130340100Y-144780000D02*
X130340100Y-140970100D01*
X88905000Y-151770000D02*
X92147000Y-151770000D01*
X88392000Y-143470500D02*
X88987500Y-142875000D01*
X88265000Y-151130000D02*
X88905000Y-151770000D01*
X145034000Y-99822000D02*
X144399000Y-99187000D01*
X76835000Y-142240000D02*
X78065500Y-143470500D01*
X72085000Y-80645000D02*
X74600000Y-83160000D01*
X76835000Y-89635000D02*
X76835000Y-142240000D01*
D51*
X130340000Y-132770000D02*
X130340000Y-130460000D01*
D49*
%TO.N,I2S_LRCLK*%
X118110000Y-89805000D02*
X116840000Y-88535000D01*
X116840000Y-80400000D02*
X116840000Y-80010000D01*
X120231000Y-63000000D02*
X119207000Y-61976000D01*
D48*
X120305000Y-68355500D02*
X121349500Y-69400000D01*
D49*
X118364000Y-61976000D02*
X119207000Y-61976000D01*
X121200000Y-63000000D02*
X120231000Y-63000000D01*
X116840000Y-88535000D02*
X116840000Y-80400000D01*
D48*
X117554500Y-68355500D02*
X120305000Y-68355500D01*
X117310000Y-68600000D02*
X117554500Y-68355500D01*
D49*
%TO.N,SW_ENC*%
X75860000Y-79340000D02*
X75860000Y-86460000D01*
X104140000Y-141732000D02*
X106611000Y-144203000D01*
X111125000Y-124460000D02*
X111760000Y-123825000D01*
X112268000Y-128270000D02*
X111125000Y-127127000D01*
X111125000Y-127127000D02*
X111125000Y-124460000D01*
X153289000Y-91821000D02*
X153670000Y-91440000D01*
X78105000Y-140970000D02*
X78994000Y-141859000D01*
X72085000Y-75565000D02*
X75860000Y-79340000D01*
X78994000Y-141859000D02*
X81595405Y-141859000D01*
X149225000Y-91821000D02*
X153289000Y-91821000D01*
X75860000Y-86460000D02*
X78105000Y-88705000D01*
X147828000Y-128270000D02*
X159385000Y-128270000D01*
X106611000Y-144203000D02*
X122027000Y-144203000D01*
X111760000Y-123825000D02*
X113030000Y-123825000D01*
X122027000Y-144203000D02*
X125260000Y-140970000D01*
X125247400Y-128270000D02*
X112268000Y-128270000D01*
X153670000Y-91440000D02*
X153670000Y-89805000D01*
X81722405Y-141732000D02*
X104140000Y-141732000D01*
X140716000Y-128270000D02*
X125247400Y-128270000D01*
X78105000Y-88705000D02*
X78105000Y-140970000D01*
X143510000Y-128270000D02*
X143510000Y-102870000D01*
X81595405Y-141859000D02*
X81722405Y-141732000D01*
D48*
%TO.N,I2S_DATA*%
X119207000Y-64516000D02*
X119207000Y-64881500D01*
X119123000Y-64600000D02*
X119207000Y-64516000D01*
X113030000Y-87265000D02*
X113030000Y-84430000D01*
X117310000Y-64600000D02*
X119123000Y-64600000D01*
X119207000Y-64881500D02*
X120525500Y-66200000D01*
X113030000Y-84430000D02*
X113000000Y-84400000D01*
D49*
%TO.N,Net-(J2-Pad5)*%
X158035000Y-69810000D02*
X158035000Y-64215000D01*
X158035000Y-64215000D02*
X159385000Y-62865000D01*
X159385000Y-62865000D02*
X167005000Y-62865000D01*
%TO.N,Net-(J2-Pad4)*%
X145034000Y-74930000D02*
X145034000Y-72811000D01*
X145137500Y-76200000D02*
X145137500Y-75033500D01*
X145034000Y-72811000D02*
X148035000Y-69810000D01*
X145137500Y-75033500D02*
X145034000Y-74930000D01*
%TO.N,Net-(J3-Pad4)*%
X136080500Y-73215500D02*
X132675000Y-69810000D01*
X141605000Y-83820000D02*
X139700000Y-81915000D01*
X132675000Y-69810000D02*
X127715000Y-69810000D01*
X145137500Y-83820000D02*
X141605000Y-83820000D01*
X139700000Y-76835000D02*
X137919442Y-75054442D01*
X139700000Y-81915000D02*
X139700000Y-76835000D01*
%TO.N,Net-(J5-Pad5)*%
X153035000Y-106680000D02*
X159385000Y-106680000D01*
X151995500Y-97432500D02*
X151892000Y-97536000D01*
X153035000Y-97432500D02*
X151995500Y-97432500D01*
%TO.N,Net-(J5-Pad4)*%
X149225000Y-97432500D02*
X150518500Y-97432500D01*
X159385000Y-104140000D02*
X158115000Y-104140000D01*
X157480000Y-99695000D02*
X157353000Y-99568000D01*
X150518500Y-97432500D02*
X150622000Y-97536000D01*
X157480000Y-103505000D02*
X157480000Y-99695000D01*
X158115000Y-104140000D02*
X157480000Y-103505000D01*
X157353000Y-99568000D02*
X150622000Y-99568000D01*
%TO.N,Net-(R1-Pad2)*%
X167005000Y-75311000D02*
X166370000Y-75946000D01*
X161290000Y-79756000D02*
X159766000Y-81280000D01*
X167005000Y-64666500D02*
X167005000Y-75311000D01*
X159766000Y-81280000D02*
X159766000Y-81912000D01*
%TO.N,Net-(R6-Pad1)*%
X153035000Y-95607500D02*
X156360500Y-95607500D01*
X166370000Y-77470000D02*
X164084000Y-77470000D01*
X156972000Y-94996000D02*
X164084000Y-94996000D01*
X166370000Y-92710000D02*
X166370000Y-77470000D01*
X164084000Y-77470000D02*
X163576000Y-76962000D01*
X156360500Y-95607500D02*
X156972000Y-94996000D01*
X164084000Y-94996000D02*
X166370000Y-92710000D01*
%TO.N,MIDI_THRUn*%
X118110000Y-113030000D02*
X117475000Y-113665000D01*
D48*
X162306000Y-81912000D02*
X162306000Y-83693000D01*
X162560000Y-83947000D02*
X165100000Y-83947000D01*
D49*
X148303900Y-94996000D02*
X146558000Y-94996000D01*
X162306000Y-77470000D02*
X165100000Y-80264000D01*
X145796000Y-94234000D02*
X119761000Y-94234000D01*
X162306000Y-76962000D02*
X162306000Y-77470000D01*
X156464000Y-94234000D02*
X155928000Y-94770000D01*
X118110000Y-95885000D02*
X118110000Y-113030000D01*
X119761000Y-94234000D02*
X118110000Y-95885000D01*
X117475000Y-113665000D02*
X115570000Y-113665000D01*
D48*
X162306000Y-83693000D02*
X162560000Y-83947000D01*
D49*
X155928000Y-94770000D02*
X148529900Y-94770000D01*
X165100000Y-92456000D02*
X163322000Y-94234000D01*
X163322000Y-94234000D02*
X156464000Y-94234000D01*
X148529900Y-94770000D02*
X148303900Y-94996000D01*
X165100000Y-80264000D02*
X165100000Y-83947000D01*
X165100000Y-83947000D02*
X165100000Y-92456000D01*
X146558000Y-94996000D02*
X145796000Y-94234000D01*
%TO.N,MIDI_OUTn*%
X163195000Y-85090000D02*
X164465000Y-86360000D01*
X117030500Y-111125000D02*
X115570000Y-111125000D01*
X157226000Y-81912000D02*
X157226000Y-82931000D01*
X164465000Y-86360000D02*
X164465000Y-91821000D01*
X164465000Y-91821000D02*
X162814000Y-93472000D01*
X159385000Y-85090000D02*
X163195000Y-85090000D01*
X155123499Y-94304501D02*
X147136501Y-94304501D01*
X147136501Y-94304501D02*
X146304000Y-93472000D01*
X117475000Y-95377000D02*
X117475000Y-110680500D01*
X162814000Y-93472000D02*
X155956000Y-93472000D01*
X119380000Y-93472000D02*
X117475000Y-95377000D01*
X117475000Y-110680500D02*
X117030500Y-111125000D01*
X155956000Y-93472000D02*
X155123499Y-94304501D01*
X157226000Y-81912000D02*
X158496000Y-81912000D01*
X146304000Y-93472000D02*
X119380000Y-93472000D01*
X157226000Y-82931000D02*
X159385000Y-85090000D01*
%TO.N,PI_RX*%
X119697500Y-113030000D02*
X117475000Y-115252500D01*
X148590000Y-80010000D02*
X151130000Y-82550000D01*
X146962500Y-80010000D02*
X148590000Y-80010000D01*
X138430000Y-81915000D02*
X141605000Y-85090000D01*
X135763000Y-80010000D02*
X130683012Y-80010000D01*
X130683012Y-80010000D02*
X129032000Y-78358988D01*
X151765000Y-102362000D02*
X151765000Y-113030000D01*
X151765000Y-113030000D02*
X152400000Y-113665000D01*
X161036000Y-83566000D02*
X161036000Y-81912000D01*
X141605000Y-85090000D02*
X149860000Y-85090000D01*
X149860000Y-85090000D02*
X151130000Y-86360000D01*
X116840000Y-121285000D02*
X115570000Y-121285000D01*
X117475000Y-115252500D02*
X117475000Y-120650000D01*
X138430000Y-80645000D02*
X138430000Y-81915000D01*
X117475000Y-120650000D02*
X116840000Y-121285000D01*
X151130000Y-86360000D02*
X151130000Y-87265000D01*
X135890000Y-80010000D02*
X135763000Y-80010000D01*
X141097000Y-113030000D02*
X119697500Y-113030000D01*
X159385000Y-113665000D02*
X154305000Y-113665000D01*
X152400000Y-113665000D02*
X154305000Y-113665000D01*
%TO.N,PI_TX*%
X140843000Y-114935000D02*
X120015000Y-114935000D01*
X151090000Y-114895000D02*
X151130000Y-114935000D01*
X151090000Y-101640000D02*
X151090000Y-114895000D01*
X118745000Y-122555000D02*
X117475000Y-123825000D01*
D48*
X155956000Y-82550000D02*
X154813000Y-83693000D01*
D49*
X117475000Y-123825000D02*
X115570000Y-123825000D01*
X159385000Y-116205000D02*
X152400000Y-116205000D01*
X154051000Y-100584000D02*
X152146000Y-100584000D01*
X152400000Y-116205000D02*
X151130000Y-114935000D01*
X152146000Y-100584000D02*
X151090000Y-101640000D01*
X154305000Y-100330000D02*
X154051000Y-100584000D01*
D48*
X155956000Y-81912000D02*
X155956000Y-82550000D01*
D49*
X118745000Y-116205000D02*
X118745000Y-122555000D01*
X120015000Y-114935000D02*
X118745000Y-116205000D01*
%TO.N,Net-(D1-K)*%
X123952000Y-84582000D02*
X124460000Y-85090000D01*
D48*
X146962500Y-82446500D02*
X146939000Y-82423000D01*
X131064000Y-83439000D02*
X132622000Y-83439000D01*
D49*
X124460000Y-85090000D02*
X132080000Y-85090000D01*
X123952000Y-83820000D02*
X123952000Y-84582000D01*
X132080000Y-85090000D02*
X132715000Y-84455000D01*
D48*
X146962500Y-83820000D02*
X146962500Y-82446500D01*
X132622000Y-83439000D02*
X132715000Y-83346000D01*
D49*
X132715000Y-84455000D02*
X132715000Y-83346000D01*
%TO.N,Net-(D1-A)*%
X132715000Y-76200000D02*
X132715000Y-74803000D01*
X137715000Y-69810000D02*
X137715000Y-73105000D01*
X127752007Y-77606993D02*
X131308007Y-77606993D01*
X137715000Y-73105000D02*
X136652000Y-74168000D01*
X131308007Y-77606993D02*
X132715000Y-76200000D01*
X126492000Y-81534000D02*
X126492000Y-78867000D01*
X132207000Y-81754000D02*
X132715000Y-81246000D01*
X136652000Y-74168000D02*
X133096000Y-74168000D01*
X126492000Y-78867000D02*
X127752007Y-77606993D01*
X132715000Y-74549000D02*
X132715000Y-74803000D01*
X133096000Y-74168000D02*
X132715000Y-74549000D01*
X126492000Y-81534000D02*
X126712000Y-81754000D01*
X126712000Y-81754000D02*
X132207000Y-81754000D01*
X126492000Y-83820000D02*
X126492000Y-81534000D01*
D48*
%TO.N,Net-(IC1-GND)*%
X123990000Y-148590000D02*
X123990000Y-149860000D01*
X128816000Y-149225000D02*
X128816000Y-148501000D01*
X124625000Y-147955000D02*
X123990000Y-148590000D01*
X128816000Y-148501000D02*
X128270000Y-147955000D01*
X128270000Y-147955000D02*
X124625000Y-147955000D01*
%TO.N,Net-(IC1-VCC)*%
X134620000Y-147955000D02*
X135166000Y-148501000D01*
X135166000Y-148501000D02*
X135166000Y-149225000D01*
X130175000Y-147320000D02*
X130810000Y-147955000D01*
X130810000Y-147955000D02*
X134620000Y-147955000D01*
X121920000Y-147320000D02*
X130175000Y-147320000D01*
X121450000Y-149860000D02*
X121450000Y-147790000D01*
X121450000Y-147790000D02*
X121920000Y-147320000D01*
D49*
%TO.N,unconnected-(J3-Pad6)*%
X130215000Y-57310000D02*
X127715000Y-57310000D01*
X130215000Y-57310000D02*
X135215000Y-57310000D01*
X135215000Y-57310000D02*
X137715000Y-57310000D01*
%TO.N,Net-(J8-PWR)*%
X122512500Y-130600000D02*
X122512500Y-132562500D01*
X122512500Y-132562500D02*
X122720000Y-132770000D01*
%TO.N,Net-(JP3-C)*%
X140335000Y-147955000D02*
X140335000Y-150495000D01*
X135925415Y-147066000D02*
X136156405Y-146835010D01*
X136156405Y-146835010D02*
X139215010Y-146835010D01*
X140335000Y-150495000D02*
X141356000Y-151516000D01*
X141356000Y-151516000D02*
X143645500Y-151516000D01*
X132207000Y-147066000D02*
X135925415Y-147066000D01*
X139215010Y-146835010D02*
X140335000Y-147955000D01*
D48*
%TO.N,Net-(U3-CAPP)*%
X103310000Y-62725000D02*
X103400000Y-62815000D01*
X103200000Y-57480000D02*
X103320000Y-57600000D01*
X103200000Y-56600000D02*
X103200000Y-57480000D01*
X101137500Y-62725000D02*
X103310000Y-62725000D01*
%TO.N,Net-(U3-CAPM)*%
X104200000Y-56600000D02*
X104200000Y-57520000D01*
X103575000Y-64025000D02*
X103800000Y-63800000D01*
X101137500Y-64025000D02*
X103575000Y-64025000D01*
X104200000Y-57520000D02*
X104280000Y-57600000D01*
%TO.N,Net-(U3-LDOO)*%
X107895000Y-63375000D02*
X108320000Y-63800000D01*
X105975000Y-63375000D02*
X106862500Y-63375000D01*
X106862500Y-63375000D02*
X107895000Y-63375000D01*
X105000000Y-62400000D02*
X105975000Y-63375000D01*
X105000000Y-61160000D02*
X105000000Y-62400000D01*
X105600000Y-60560000D02*
X105000000Y-61160000D01*
%TO.N,Net-(U3-VNEG)*%
X99400000Y-63680000D02*
X99400000Y-63721444D01*
X99713056Y-64034500D02*
X99940500Y-64034500D01*
X99400000Y-63721444D02*
X99713056Y-64034500D01*
X99940500Y-64034500D02*
X99940500Y-64540500D01*
X100075000Y-64675000D02*
X101137500Y-64675000D01*
X99940500Y-64540500D02*
X100075000Y-64675000D01*
%TO.N,Net-(U3-CPGND)*%
X100353556Y-63375000D02*
X99698556Y-62720000D01*
X99698556Y-62720000D02*
X99400000Y-62720000D01*
X101137500Y-63375000D02*
X100353556Y-63375000D01*
%TO.N,Net-(U3-LRCK)*%
X107646444Y-65325000D02*
X106862500Y-65325000D01*
X114800000Y-67800000D02*
X115600000Y-68600000D01*
X110205020Y-65958500D02*
X108279944Y-65958500D01*
X115600000Y-68600000D02*
X116290000Y-68600000D01*
X108279944Y-65958500D02*
X107646444Y-65325000D01*
X110723260Y-66476740D02*
X110205020Y-65958500D01*
%TO.N,Net-(U3-DIN)*%
X105400000Y-65400000D02*
X105975000Y-65975000D01*
X116290000Y-65110000D02*
X116000000Y-65400000D01*
X116290000Y-64600000D02*
X116290000Y-65110000D01*
X105975000Y-65975000D02*
X106862500Y-65975000D01*
%TO.N,Net-(U3-BCK)*%
X114447226Y-67000000D02*
X114306726Y-67140500D01*
X110417240Y-67217240D02*
X109739500Y-66539500D01*
X112229986Y-67217240D02*
X110417240Y-67217240D01*
X116290000Y-67400000D02*
X115890000Y-67000000D01*
X112447226Y-67000000D02*
X112229986Y-67217240D01*
X109739500Y-66539500D02*
X107993588Y-66539500D01*
X113552774Y-67000000D02*
X112447226Y-67000000D01*
X107908088Y-66625000D02*
X106862500Y-66625000D01*
X114306726Y-67140500D02*
X113693274Y-67140500D01*
X115890000Y-67000000D02*
X114447226Y-67000000D01*
X107993588Y-66539500D02*
X107908088Y-66625000D01*
X113693274Y-67140500D02*
X113552774Y-67000000D01*
%TO.N,Net-(U3-SCK)*%
X108325000Y-67275000D02*
X108400000Y-67200000D01*
X106862500Y-67275000D02*
X108325000Y-67275000D01*
%TO.N,Net-(U3-OUTL)*%
X102145457Y-65100987D02*
X101921444Y-65325000D01*
X102337812Y-65100987D02*
X102145457Y-65100987D01*
X102110000Y-58510000D02*
X102110000Y-59000000D01*
X101921444Y-65325000D02*
X101137500Y-65325000D01*
X102000000Y-58400000D02*
X102110000Y-58510000D01*
%TO.N,/AUDIO_R*%
X101090000Y-59000000D02*
X100325000Y-59000000D01*
D51*
X102229999Y-57600000D02*
X101842577Y-57600000D01*
D48*
X100325000Y-59000000D02*
X98300000Y-61025000D01*
D51*
X103320000Y-58690001D02*
X102229999Y-57600000D01*
X101842577Y-57600000D02*
X101090000Y-58352577D01*
X103320000Y-59000000D02*
X103320000Y-58690001D01*
X101090000Y-58352577D02*
X101090000Y-59000000D01*
D48*
%TO.N,Net-(U3-OUTR)*%
X102625000Y-65975000D02*
X101137500Y-65975000D01*
X102740000Y-61220758D02*
X102740000Y-61030000D01*
X102740000Y-61030000D02*
X102110000Y-60400000D01*
X103400000Y-65200000D02*
X102625000Y-65975000D01*
%TO.N,/AUDIO_L*%
X100009500Y-61480500D02*
X100009500Y-61990500D01*
D51*
X103000000Y-59637000D02*
X102990000Y-59647000D01*
X103320000Y-60400000D02*
X103320000Y-59890001D01*
X102990000Y-59647000D02*
X101843000Y-59647000D01*
D48*
X101090000Y-60400000D02*
X100009500Y-61480500D01*
D51*
X103320000Y-59890001D02*
X103066999Y-59637000D01*
D48*
X98350500Y-62049500D02*
X98300000Y-62100000D01*
D51*
X103066999Y-59637000D02*
X103000000Y-59637000D01*
D48*
X100009500Y-61990500D02*
X99950500Y-62049500D01*
X99950500Y-62049500D02*
X98350500Y-62049500D01*
D51*
X101843000Y-59647000D02*
X101090000Y-60400000D01*
D48*
X98300000Y-62100000D02*
X98300000Y-65025000D01*
D50*
%TO.N,+3.3VA*%
X96600000Y-75400000D02*
X96600000Y-81700000D01*
D48*
X99813297Y-68840777D02*
X99813297Y-67165259D01*
X104419000Y-62640658D02*
X104600000Y-62821658D01*
X103575000Y-66625000D02*
X101137500Y-66625000D01*
X104419000Y-62619000D02*
X104419000Y-62640658D01*
X99813297Y-67165259D02*
X100353556Y-66625000D01*
X104600000Y-62821658D02*
X104600000Y-65600000D01*
X103875000Y-62075000D02*
X104419000Y-62619000D01*
X104600000Y-65600000D02*
X103575000Y-66625000D01*
X100353556Y-66625000D02*
X101137500Y-66625000D01*
X101137500Y-62075000D02*
X103875000Y-62075000D01*
D50*
%TO.N,+3.3VP*%
X89200000Y-74884925D02*
X89200000Y-75450000D01*
X90250000Y-70050000D02*
X90250000Y-73834925D01*
D51*
X106862500Y-64025000D02*
X107570682Y-64025000D01*
X106126114Y-61338614D02*
X106862500Y-62075000D01*
D50*
X92200000Y-67600000D02*
X90000000Y-69800000D01*
D51*
X108595306Y-65049624D02*
X109150376Y-65049624D01*
D50*
X95200000Y-67600000D02*
X92200000Y-67600000D01*
X96000000Y-66800000D02*
X95200000Y-67600000D01*
D51*
X107570682Y-64025000D02*
X108595306Y-65049624D01*
X106037154Y-61338614D02*
X106126114Y-61338614D01*
D50*
X90000000Y-69800000D02*
X90250000Y-70050000D01*
X89200000Y-75450000D02*
X89200000Y-81750000D01*
X90250000Y-73834925D02*
X89200000Y-74884925D01*
%TD*%
M02*
