%TF.GenerationSoftware,KiCad,Pcbnew,8.0.1*%
%TF.CreationDate,2026-03-25T15:46:35+03:00*%
%TF.ProjectId,BulkyMIDI-32 Dexed FP4,42756c6b-794d-4494-9449-2d3332204465,rev?*%
%TF.SameCoordinates,Original*%
%TF.FileFunction,Copper,L2,Bot*%
%TF.FilePolarity,Positive*%
%FSLAX46Y46*%
G04 Gerber Fmt 4.6, Leading zero omitted, Abs format (unit mm)*
G04 Created by KiCad (PCBNEW 8.0.1) date 2026-03-25 15:46:35*
%MOMM*%
%LPD*%
G01*
G04 APERTURE LIST*
%TA.AperFunction,ComponentPad*%
%ADD10C,3.500000*%
%TD*%
G04 APERTURE END LIST*
D10*
%TO.P,M1,1*%
%TO.N,GND*%
X99815000Y-129199000D03*
%TD*%
%TO.P,M2,1*%
%TO.N,GND*%
X182365000Y-129199000D03*
%TD*%
%TO.P,M3,1*%
%TO.N,GND*%
X182365000Y-115949000D03*
%TD*%
%TO.P,M4,1*%
%TO.N,GND*%
X99815000Y-115949000D03*
%TD*%
%TA.AperFunction,Conductor*%
%TO.N,GND*%
G36*
X190956621Y-111069502D02*
G01*
X191003114Y-111123158D01*
X191014500Y-111175500D01*
X191014500Y-145772500D01*
X190994498Y-145840621D01*
X190940842Y-145887114D01*
X190888500Y-145898500D01*
X91291500Y-145898500D01*
X91223379Y-145878498D01*
X91176886Y-145824842D01*
X91165500Y-145772500D01*
X91165500Y-138594018D01*
X124514500Y-138594018D01*
X124525993Y-138621766D01*
X124525996Y-138621770D01*
X124547229Y-138643003D01*
X124547233Y-138643006D01*
X124574982Y-138654500D01*
X157625018Y-138654500D01*
X157652767Y-138643006D01*
X157674006Y-138621767D01*
X157685500Y-138594018D01*
X157685500Y-129199003D01*
X180102155Y-129199003D01*
X180121513Y-129494356D01*
X180121515Y-129494370D01*
X180179260Y-129784665D01*
X180179262Y-129784675D01*
X180274401Y-130064945D01*
X180274407Y-130064959D01*
X180405317Y-130330420D01*
X180569763Y-130576532D01*
X180569766Y-130576536D01*
X180597092Y-130607695D01*
X180597094Y-130607695D01*
X181122777Y-130082011D01*
X181202558Y-130191820D01*
X181372180Y-130361442D01*
X181481986Y-130441221D01*
X180956303Y-130966904D01*
X180956303Y-130966906D01*
X180987463Y-130994233D01*
X180987467Y-130994236D01*
X181233579Y-131158682D01*
X181499040Y-131289592D01*
X181499054Y-131289598D01*
X181779324Y-131384737D01*
X181779334Y-131384739D01*
X182069629Y-131442484D01*
X182069643Y-131442486D01*
X182364997Y-131461845D01*
X182365003Y-131461845D01*
X182660356Y-131442486D01*
X182660370Y-131442484D01*
X182950665Y-131384739D01*
X182950675Y-131384737D01*
X183230945Y-131289598D01*
X183230959Y-131289592D01*
X183496420Y-131158682D01*
X183742531Y-130994236D01*
X183773695Y-130966906D01*
X183773695Y-130966904D01*
X183248012Y-130441221D01*
X183357820Y-130361442D01*
X183527442Y-130191820D01*
X183607221Y-130082012D01*
X184132904Y-130607695D01*
X184132906Y-130607695D01*
X184160236Y-130576531D01*
X184324682Y-130330420D01*
X184455592Y-130064959D01*
X184455598Y-130064945D01*
X184550737Y-129784675D01*
X184550739Y-129784665D01*
X184608484Y-129494370D01*
X184608486Y-129494356D01*
X184627845Y-129199003D01*
X184627845Y-129198996D01*
X184608486Y-128903643D01*
X184608484Y-128903629D01*
X184550739Y-128613334D01*
X184550737Y-128613324D01*
X184455598Y-128333054D01*
X184455592Y-128333040D01*
X184324682Y-128067580D01*
X184160236Y-127821467D01*
X184160233Y-127821463D01*
X184132906Y-127790303D01*
X184132904Y-127790303D01*
X183607220Y-128315986D01*
X183527442Y-128206180D01*
X183357820Y-128036558D01*
X183248011Y-127956777D01*
X183773695Y-127431094D01*
X183773695Y-127431092D01*
X183742536Y-127403766D01*
X183742532Y-127403763D01*
X183496420Y-127239317D01*
X183230959Y-127108407D01*
X183230945Y-127108401D01*
X182950675Y-127013262D01*
X182950665Y-127013260D01*
X182660370Y-126955515D01*
X182660356Y-126955513D01*
X182365003Y-126936155D01*
X182364997Y-126936155D01*
X182069643Y-126955513D01*
X182069629Y-126955515D01*
X181779334Y-127013260D01*
X181779324Y-127013262D01*
X181499054Y-127108401D01*
X181499040Y-127108407D01*
X181233580Y-127239317D01*
X180987465Y-127403765D01*
X180956303Y-127431092D01*
X180956303Y-127431094D01*
X181481987Y-127956778D01*
X181372180Y-128036558D01*
X181202558Y-128206180D01*
X181122778Y-128315987D01*
X180597094Y-127790303D01*
X180597092Y-127790303D01*
X180569765Y-127821465D01*
X180405317Y-128067580D01*
X180274407Y-128333040D01*
X180274401Y-128333054D01*
X180179262Y-128613324D01*
X180179260Y-128613334D01*
X180121515Y-128903629D01*
X180121513Y-128903643D01*
X180102155Y-129198996D01*
X180102155Y-129199003D01*
X157685500Y-129199003D01*
X157685500Y-121579005D01*
X165961584Y-121579005D01*
X165981235Y-121966505D01*
X165981237Y-121966524D01*
X166039990Y-122350044D01*
X166039992Y-122350053D01*
X166137252Y-122725692D01*
X166266917Y-123075799D01*
X166272009Y-123089547D01*
X166442889Y-123437908D01*
X166648135Y-123767195D01*
X166885641Y-124074028D01*
X166885645Y-124074032D01*
X166885647Y-124074035D01*
X167109651Y-124309686D01*
X167152970Y-124355258D01*
X167447379Y-124608000D01*
X167765848Y-124829661D01*
X168105107Y-125017965D01*
X168461676Y-125170981D01*
X168831897Y-125287138D01*
X169211969Y-125365245D01*
X169597993Y-125404500D01*
X169597994Y-125404500D01*
X169986006Y-125404500D01*
X169986007Y-125404500D01*
X170372031Y-125365245D01*
X170752103Y-125287138D01*
X171122324Y-125170981D01*
X171478893Y-125017965D01*
X171818152Y-124829661D01*
X172136621Y-124608000D01*
X172431030Y-124355258D01*
X172698359Y-124074028D01*
X172935865Y-123767195D01*
X173141111Y-123437908D01*
X173311991Y-123089547D01*
X173446750Y-122725685D01*
X173544007Y-122350057D01*
X173545092Y-122342972D01*
X173602762Y-121966524D01*
X173602764Y-121966505D01*
X173622416Y-121579005D01*
X173622416Y-121578994D01*
X173602764Y-121191494D01*
X173602762Y-121191475D01*
X173544009Y-120807955D01*
X173544007Y-120807946D01*
X173544007Y-120807943D01*
X173446750Y-120432315D01*
X173311991Y-120068453D01*
X173141111Y-119720092D01*
X172935865Y-119390805D01*
X172698359Y-119083972D01*
X172698353Y-119083966D01*
X172698352Y-119083964D01*
X172431027Y-118802739D01*
X172202164Y-118606267D01*
X172136621Y-118550000D01*
X171974236Y-118436977D01*
X171818152Y-118328339D01*
X171478893Y-118140035D01*
X171466547Y-118134737D01*
X171122323Y-117987018D01*
X170752100Y-117870861D01*
X170633893Y-117846569D01*
X170372031Y-117792755D01*
X170372022Y-117792754D01*
X169986008Y-117753500D01*
X169986007Y-117753500D01*
X169597993Y-117753500D01*
X169597991Y-117753500D01*
X169211977Y-117792754D01*
X169211975Y-117792754D01*
X169211969Y-117792755D01*
X169013452Y-117833551D01*
X168831899Y-117870861D01*
X168461676Y-117987018D01*
X168105113Y-118140032D01*
X168105109Y-118140033D01*
X168105107Y-118140035D01*
X167978548Y-118210280D01*
X167765847Y-118328339D01*
X167447382Y-118549997D01*
X167152972Y-118802739D01*
X166885647Y-119083964D01*
X166885643Y-119083970D01*
X166648137Y-119390801D01*
X166648133Y-119390808D01*
X166442889Y-119720091D01*
X166442889Y-119720092D01*
X166272010Y-120068450D01*
X166272004Y-120068465D01*
X166137252Y-120432307D01*
X166039992Y-120807946D01*
X166039990Y-120807955D01*
X165981237Y-121191475D01*
X165981235Y-121191494D01*
X165961584Y-121578994D01*
X165961584Y-121579005D01*
X157685500Y-121579005D01*
X157685500Y-119257982D01*
X157674006Y-119230233D01*
X157674003Y-119230229D01*
X157652770Y-119208996D01*
X157652766Y-119208993D01*
X157625018Y-119197500D01*
X124605018Y-119197500D01*
X124574982Y-119197500D01*
X124547233Y-119208993D01*
X124547229Y-119208996D01*
X124525996Y-119230229D01*
X124525993Y-119230233D01*
X124514500Y-119257981D01*
X124514500Y-138594018D01*
X91165500Y-138594018D01*
X91165500Y-129199003D01*
X97552155Y-129199003D01*
X97571513Y-129494356D01*
X97571515Y-129494370D01*
X97629260Y-129784665D01*
X97629262Y-129784675D01*
X97724401Y-130064945D01*
X97724407Y-130064959D01*
X97855317Y-130330420D01*
X98019763Y-130576532D01*
X98019766Y-130576536D01*
X98047092Y-130607695D01*
X98047094Y-130607695D01*
X98572777Y-130082011D01*
X98652558Y-130191820D01*
X98822180Y-130361442D01*
X98931986Y-130441221D01*
X98406303Y-130966904D01*
X98406303Y-130966906D01*
X98437463Y-130994233D01*
X98437467Y-130994236D01*
X98683579Y-131158682D01*
X98949040Y-131289592D01*
X98949054Y-131289598D01*
X99229324Y-131384737D01*
X99229334Y-131384739D01*
X99519629Y-131442484D01*
X99519643Y-131442486D01*
X99814997Y-131461845D01*
X99815003Y-131461845D01*
X100110356Y-131442486D01*
X100110370Y-131442484D01*
X100400665Y-131384739D01*
X100400675Y-131384737D01*
X100680945Y-131289598D01*
X100680959Y-131289592D01*
X100946420Y-131158682D01*
X101192531Y-130994236D01*
X101223695Y-130966906D01*
X101223695Y-130966904D01*
X100698012Y-130441221D01*
X100807820Y-130361442D01*
X100977442Y-130191820D01*
X101057221Y-130082012D01*
X101582904Y-130607695D01*
X101582906Y-130607695D01*
X101610236Y-130576531D01*
X101774682Y-130330420D01*
X101905592Y-130064959D01*
X101905598Y-130064945D01*
X102000737Y-129784675D01*
X102000739Y-129784665D01*
X102058484Y-129494370D01*
X102058486Y-129494356D01*
X102077845Y-129199003D01*
X102077845Y-129198996D01*
X102058486Y-128903643D01*
X102058484Y-128903629D01*
X102000739Y-128613334D01*
X102000737Y-128613324D01*
X101905598Y-128333054D01*
X101905592Y-128333040D01*
X101774682Y-128067580D01*
X101610236Y-127821467D01*
X101610233Y-127821463D01*
X101582906Y-127790303D01*
X101582904Y-127790303D01*
X101057220Y-128315986D01*
X100977442Y-128206180D01*
X100807820Y-128036558D01*
X100698011Y-127956777D01*
X101175789Y-127479000D01*
X106597454Y-127479000D01*
X106617613Y-127760864D01*
X106673285Y-128016781D01*
X106677680Y-128036984D01*
X106689092Y-128067580D01*
X106776431Y-128301748D01*
X106776433Y-128301752D01*
X106911857Y-128549761D01*
X107081200Y-128775979D01*
X107081208Y-128775988D01*
X107281011Y-128975791D01*
X107281020Y-128975799D01*
X107392249Y-129059063D01*
X107507236Y-129145141D01*
X107755251Y-129280568D01*
X108020016Y-129379320D01*
X108296139Y-129439387D01*
X108578000Y-129459546D01*
X108859861Y-129439387D01*
X109135984Y-129379320D01*
X109400749Y-129280568D01*
X109648764Y-129145141D01*
X109874982Y-128975797D01*
X110074797Y-128775982D01*
X110244141Y-128549764D01*
X110379568Y-128301749D01*
X110478320Y-128036984D01*
X110538387Y-127760861D01*
X110558546Y-127479000D01*
X115357454Y-127479000D01*
X115377613Y-127760864D01*
X115433285Y-128016781D01*
X115437680Y-128036984D01*
X115449092Y-128067580D01*
X115536431Y-128301748D01*
X115536433Y-128301752D01*
X115671857Y-128549761D01*
X115841200Y-128775979D01*
X115841208Y-128775988D01*
X116041011Y-128975791D01*
X116041020Y-128975799D01*
X116152249Y-129059063D01*
X116267236Y-129145141D01*
X116515251Y-129280568D01*
X116780016Y-129379320D01*
X117056139Y-129439387D01*
X117338000Y-129459546D01*
X117619861Y-129439387D01*
X117895984Y-129379320D01*
X118160749Y-129280568D01*
X118408764Y-129145141D01*
X118634982Y-128975797D01*
X118834797Y-128775982D01*
X119004141Y-128549764D01*
X119139568Y-128301749D01*
X119238320Y-128036984D01*
X119298387Y-127760861D01*
X119318546Y-127479000D01*
X119298387Y-127197139D01*
X119238320Y-126921016D01*
X119139568Y-126656251D01*
X119004141Y-126408236D01*
X118876723Y-126238025D01*
X118834799Y-126182020D01*
X118834791Y-126182011D01*
X118634988Y-125982208D01*
X118634979Y-125982200D01*
X118408761Y-125812857D01*
X118160752Y-125677433D01*
X118160748Y-125677431D01*
X118026634Y-125627409D01*
X117895984Y-125578680D01*
X117895980Y-125578679D01*
X117895977Y-125578678D01*
X117619863Y-125518613D01*
X117619865Y-125518613D01*
X117338000Y-125498454D01*
X117056135Y-125518613D01*
X116780022Y-125578678D01*
X116780017Y-125578679D01*
X116780016Y-125578680D01*
X116729141Y-125597655D01*
X116515251Y-125677431D01*
X116515247Y-125677433D01*
X116267238Y-125812857D01*
X116041020Y-125982200D01*
X116041011Y-125982208D01*
X115841208Y-126182011D01*
X115841200Y-126182020D01*
X115671857Y-126408238D01*
X115536433Y-126656247D01*
X115536431Y-126656251D01*
X115437678Y-126921022D01*
X115377613Y-127197135D01*
X115357454Y-127479000D01*
X110558546Y-127479000D01*
X110538387Y-127197139D01*
X110478320Y-126921016D01*
X110379568Y-126656251D01*
X110244141Y-126408236D01*
X110116723Y-126238025D01*
X110074799Y-126182020D01*
X110074791Y-126182011D01*
X109874988Y-125982208D01*
X109874979Y-125982200D01*
X109648761Y-125812857D01*
X109400752Y-125677433D01*
X109400748Y-125677431D01*
X109266634Y-125627409D01*
X109135984Y-125578680D01*
X109135980Y-125578679D01*
X109135977Y-125578678D01*
X108859863Y-125518613D01*
X108859865Y-125518613D01*
X108578000Y-125498454D01*
X108296135Y-125518613D01*
X108020022Y-125578678D01*
X108020017Y-125578679D01*
X108020016Y-125578680D01*
X107969141Y-125597655D01*
X107755251Y-125677431D01*
X107755247Y-125677433D01*
X107507238Y-125812857D01*
X107281020Y-125982200D01*
X107281011Y-125982208D01*
X107081208Y-126182011D01*
X107081200Y-126182020D01*
X106911857Y-126408238D01*
X106776433Y-126656247D01*
X106776431Y-126656251D01*
X106677678Y-126921022D01*
X106617613Y-127197135D01*
X106597454Y-127479000D01*
X101175789Y-127479000D01*
X101223695Y-127431094D01*
X101223695Y-127431092D01*
X101192536Y-127403766D01*
X101192532Y-127403763D01*
X100946420Y-127239317D01*
X100680959Y-127108407D01*
X100680945Y-127108401D01*
X100400675Y-127013262D01*
X100400665Y-127013260D01*
X100110370Y-126955515D01*
X100110356Y-126955513D01*
X99815003Y-126936155D01*
X99814997Y-126936155D01*
X99519643Y-126955513D01*
X99519629Y-126955515D01*
X99229334Y-127013260D01*
X99229324Y-127013262D01*
X98949054Y-127108401D01*
X98949040Y-127108407D01*
X98683580Y-127239317D01*
X98437465Y-127403765D01*
X98406303Y-127431092D01*
X98406303Y-127431094D01*
X98931987Y-127956778D01*
X98822180Y-128036558D01*
X98652558Y-128206180D01*
X98572778Y-128315987D01*
X98047094Y-127790303D01*
X98047092Y-127790303D01*
X98019765Y-127821465D01*
X97855317Y-128067580D01*
X97724407Y-128333040D01*
X97724401Y-128333054D01*
X97629262Y-128613324D01*
X97629260Y-128613334D01*
X97571515Y-128903629D01*
X97571513Y-128903643D01*
X97552155Y-129198996D01*
X97552155Y-129199003D01*
X91165500Y-129199003D01*
X91165500Y-121579000D01*
X97834454Y-121579000D01*
X97854613Y-121860864D01*
X97910285Y-122116781D01*
X97914680Y-122136984D01*
X97963409Y-122267634D01*
X98013431Y-122401748D01*
X98013433Y-122401752D01*
X98148857Y-122649761D01*
X98318200Y-122875979D01*
X98318208Y-122875988D01*
X98518011Y-123075791D01*
X98518020Y-123075799D01*
X98629249Y-123159063D01*
X98744236Y-123245141D01*
X98992251Y-123380568D01*
X99257016Y-123479320D01*
X99533139Y-123539387D01*
X99815000Y-123559546D01*
X100096861Y-123539387D01*
X100372984Y-123479320D01*
X100637749Y-123380568D01*
X100885764Y-123245141D01*
X101111982Y-123075797D01*
X101311797Y-122875982D01*
X101481141Y-122649764D01*
X101616568Y-122401749D01*
X101715320Y-122136984D01*
X101775387Y-121860861D01*
X101795546Y-121579000D01*
X101775387Y-121297139D01*
X101715320Y-121021016D01*
X101616568Y-120756251D01*
X101481141Y-120508236D01*
X101353723Y-120338025D01*
X101311799Y-120282020D01*
X101311791Y-120282011D01*
X101111988Y-120082208D01*
X101111979Y-120082200D01*
X100885761Y-119912857D01*
X100637752Y-119777433D01*
X100637748Y-119777431D01*
X100484011Y-119720091D01*
X100372984Y-119678680D01*
X100372980Y-119678679D01*
X100372977Y-119678678D01*
X100096863Y-119618613D01*
X100096865Y-119618613D01*
X99815000Y-119598454D01*
X99533135Y-119618613D01*
X99257022Y-119678678D01*
X99257017Y-119678679D01*
X99257016Y-119678680D01*
X99206141Y-119697655D01*
X98992251Y-119777431D01*
X98992247Y-119777433D01*
X98744238Y-119912857D01*
X98518020Y-120082200D01*
X98518011Y-120082208D01*
X98318208Y-120282011D01*
X98318200Y-120282020D01*
X98148857Y-120508238D01*
X98013433Y-120756247D01*
X98013431Y-120756251D01*
X97914678Y-121021022D01*
X97854613Y-121297135D01*
X97834454Y-121579000D01*
X91165500Y-121579000D01*
X91165500Y-115949003D01*
X97552155Y-115949003D01*
X97571513Y-116244356D01*
X97571515Y-116244370D01*
X97629260Y-116534665D01*
X97629262Y-116534675D01*
X97724401Y-116814945D01*
X97724407Y-116814959D01*
X97855317Y-117080420D01*
X98019763Y-117326532D01*
X98019766Y-117326536D01*
X98047092Y-117357695D01*
X98047094Y-117357695D01*
X98572777Y-116832011D01*
X98652558Y-116941820D01*
X98822180Y-117111442D01*
X98931986Y-117191221D01*
X98406303Y-117716904D01*
X98406303Y-117716906D01*
X98437463Y-117744233D01*
X98437467Y-117744236D01*
X98683579Y-117908682D01*
X98949040Y-118039592D01*
X98949054Y-118039598D01*
X99229324Y-118134737D01*
X99229334Y-118134739D01*
X99519629Y-118192484D01*
X99519643Y-118192486D01*
X99814997Y-118211845D01*
X99815003Y-118211845D01*
X100110356Y-118192486D01*
X100110370Y-118192484D01*
X100400665Y-118134739D01*
X100400675Y-118134737D01*
X100680945Y-118039598D01*
X100680959Y-118039592D01*
X100946420Y-117908682D01*
X100990842Y-117879000D01*
X106597454Y-117879000D01*
X106617613Y-118160864D01*
X106668936Y-118396790D01*
X106677680Y-118436984D01*
X106719832Y-118549997D01*
X106776431Y-118701748D01*
X106776433Y-118701752D01*
X106911857Y-118949761D01*
X107081200Y-119175979D01*
X107081208Y-119175988D01*
X107281011Y-119375791D01*
X107281020Y-119375799D01*
X107301061Y-119390801D01*
X107507236Y-119545141D01*
X107507238Y-119545142D01*
X107751789Y-119678678D01*
X107755251Y-119680568D01*
X108020016Y-119779320D01*
X108296139Y-119839387D01*
X108578000Y-119859546D01*
X108859861Y-119839387D01*
X109135984Y-119779320D01*
X109400749Y-119680568D01*
X109648764Y-119545141D01*
X109874982Y-119375797D01*
X110074797Y-119175982D01*
X110244141Y-118949764D01*
X110379568Y-118701749D01*
X110478320Y-118436984D01*
X110538387Y-118160861D01*
X110558546Y-117879000D01*
X115357454Y-117879000D01*
X115377613Y-118160864D01*
X115428936Y-118396790D01*
X115437680Y-118436984D01*
X115479832Y-118549997D01*
X115536431Y-118701748D01*
X115536433Y-118701752D01*
X115671857Y-118949761D01*
X115841200Y-119175979D01*
X115841208Y-119175988D01*
X116041011Y-119375791D01*
X116041020Y-119375799D01*
X116061061Y-119390801D01*
X116267236Y-119545141D01*
X116267238Y-119545142D01*
X116511789Y-119678678D01*
X116515251Y-119680568D01*
X116780016Y-119779320D01*
X117056139Y-119839387D01*
X117338000Y-119859546D01*
X117619861Y-119839387D01*
X117895984Y-119779320D01*
X118160749Y-119680568D01*
X118408764Y-119545141D01*
X118634982Y-119375797D01*
X118834797Y-119175982D01*
X119004141Y-118949764D01*
X119139568Y-118701749D01*
X119238320Y-118436984D01*
X119298387Y-118160861D01*
X119318546Y-117879000D01*
X119298387Y-117597139D01*
X119238320Y-117321016D01*
X119139568Y-117056251D01*
X119004141Y-116808236D01*
X118876723Y-116638025D01*
X118834799Y-116582020D01*
X118834791Y-116582011D01*
X118634988Y-116382208D01*
X118634979Y-116382200D01*
X118408761Y-116212857D01*
X118160752Y-116077433D01*
X118160748Y-116077431D01*
X118026634Y-116027409D01*
X117895984Y-115978680D01*
X117895980Y-115978679D01*
X117895977Y-115978678D01*
X117759563Y-115949003D01*
X180102155Y-115949003D01*
X180121513Y-116244356D01*
X180121515Y-116244370D01*
X180179260Y-116534665D01*
X180179262Y-116534675D01*
X180274401Y-116814945D01*
X180274407Y-116814959D01*
X180405317Y-117080420D01*
X180569763Y-117326532D01*
X180569766Y-117326536D01*
X180597092Y-117357695D01*
X180597094Y-117357695D01*
X181122777Y-116832011D01*
X181202558Y-116941820D01*
X181372180Y-117111442D01*
X181481986Y-117191221D01*
X180956303Y-117716904D01*
X180956303Y-117716906D01*
X180987463Y-117744233D01*
X180987467Y-117744236D01*
X181233579Y-117908682D01*
X181499040Y-118039592D01*
X181499054Y-118039598D01*
X181779324Y-118134737D01*
X181779334Y-118134739D01*
X182069629Y-118192484D01*
X182069643Y-118192486D01*
X182364997Y-118211845D01*
X182365003Y-118211845D01*
X182660356Y-118192486D01*
X182660370Y-118192484D01*
X182950665Y-118134739D01*
X182950675Y-118134737D01*
X183230945Y-118039598D01*
X183230959Y-118039592D01*
X183496420Y-117908682D01*
X183742531Y-117744236D01*
X183773695Y-117716906D01*
X183773695Y-117716904D01*
X183248012Y-117191221D01*
X183357820Y-117111442D01*
X183527442Y-116941820D01*
X183607221Y-116832012D01*
X184132904Y-117357695D01*
X184132906Y-117357695D01*
X184160236Y-117326531D01*
X184324682Y-117080420D01*
X184455592Y-116814959D01*
X184455598Y-116814945D01*
X184550737Y-116534675D01*
X184550739Y-116534665D01*
X184608484Y-116244370D01*
X184608486Y-116244356D01*
X184627845Y-115949003D01*
X184627845Y-115948996D01*
X184608486Y-115653643D01*
X184608484Y-115653629D01*
X184550739Y-115363334D01*
X184550737Y-115363324D01*
X184455598Y-115083054D01*
X184455592Y-115083040D01*
X184324682Y-114817580D01*
X184160236Y-114571467D01*
X184160233Y-114571463D01*
X184132906Y-114540303D01*
X184132904Y-114540303D01*
X183607220Y-115065986D01*
X183527442Y-114956180D01*
X183357820Y-114786558D01*
X183248011Y-114706777D01*
X183773695Y-114181094D01*
X183773695Y-114181092D01*
X183742536Y-114153766D01*
X183742532Y-114153763D01*
X183496420Y-113989317D01*
X183230959Y-113858407D01*
X183230945Y-113858401D01*
X182950675Y-113763262D01*
X182950665Y-113763260D01*
X182660370Y-113705515D01*
X182660356Y-113705513D01*
X182365003Y-113686155D01*
X182364997Y-113686155D01*
X182069643Y-113705513D01*
X182069629Y-113705515D01*
X181779334Y-113763260D01*
X181779324Y-113763262D01*
X181499054Y-113858401D01*
X181499040Y-113858407D01*
X181233580Y-113989317D01*
X180987465Y-114153765D01*
X180956303Y-114181092D01*
X180956303Y-114181094D01*
X181481987Y-114706778D01*
X181372180Y-114786558D01*
X181202558Y-114956180D01*
X181122778Y-115065987D01*
X180597094Y-114540303D01*
X180597092Y-114540303D01*
X180569765Y-114571465D01*
X180405317Y-114817580D01*
X180274407Y-115083040D01*
X180274401Y-115083054D01*
X180179262Y-115363324D01*
X180179260Y-115363334D01*
X180121515Y-115653629D01*
X180121513Y-115653643D01*
X180102155Y-115948996D01*
X180102155Y-115949003D01*
X117759563Y-115949003D01*
X117619863Y-115918613D01*
X117619865Y-115918613D01*
X117338000Y-115898454D01*
X117056135Y-115918613D01*
X116780022Y-115978678D01*
X116780017Y-115978679D01*
X116780016Y-115978680D01*
X116729141Y-115997655D01*
X116515251Y-116077431D01*
X116515247Y-116077433D01*
X116267238Y-116212857D01*
X116041020Y-116382200D01*
X116041011Y-116382208D01*
X115841208Y-116582011D01*
X115841200Y-116582020D01*
X115671857Y-116808238D01*
X115536433Y-117056247D01*
X115536431Y-117056251D01*
X115437678Y-117321022D01*
X115377613Y-117597135D01*
X115357454Y-117879000D01*
X110558546Y-117879000D01*
X110538387Y-117597139D01*
X110478320Y-117321016D01*
X110379568Y-117056251D01*
X110244141Y-116808236D01*
X110116723Y-116638025D01*
X110074799Y-116582020D01*
X110074791Y-116582011D01*
X109874988Y-116382208D01*
X109874979Y-116382200D01*
X109648761Y-116212857D01*
X109400752Y-116077433D01*
X109400748Y-116077431D01*
X109266634Y-116027409D01*
X109135984Y-115978680D01*
X109135980Y-115978679D01*
X109135977Y-115978678D01*
X108859863Y-115918613D01*
X108859865Y-115918613D01*
X108578000Y-115898454D01*
X108296135Y-115918613D01*
X108020022Y-115978678D01*
X108020017Y-115978679D01*
X108020016Y-115978680D01*
X107969141Y-115997655D01*
X107755251Y-116077431D01*
X107755247Y-116077433D01*
X107507238Y-116212857D01*
X107281020Y-116382200D01*
X107281011Y-116382208D01*
X107081208Y-116582011D01*
X107081200Y-116582020D01*
X106911857Y-116808238D01*
X106776433Y-117056247D01*
X106776431Y-117056251D01*
X106677678Y-117321022D01*
X106617613Y-117597135D01*
X106597454Y-117879000D01*
X100990842Y-117879000D01*
X101192531Y-117744236D01*
X101223695Y-117716906D01*
X101223695Y-117716904D01*
X100698012Y-117191221D01*
X100807820Y-117111442D01*
X100977442Y-116941820D01*
X101057221Y-116832012D01*
X101582904Y-117357695D01*
X101582906Y-117357695D01*
X101610236Y-117326531D01*
X101774682Y-117080420D01*
X101905592Y-116814959D01*
X101905598Y-116814945D01*
X102000737Y-116534675D01*
X102000739Y-116534665D01*
X102058484Y-116244370D01*
X102058486Y-116244356D01*
X102077845Y-115949003D01*
X102077845Y-115948996D01*
X102058486Y-115653643D01*
X102058484Y-115653629D01*
X102000739Y-115363334D01*
X102000737Y-115363324D01*
X101905598Y-115083054D01*
X101905592Y-115083040D01*
X101774682Y-114817580D01*
X101610236Y-114571467D01*
X101610233Y-114571463D01*
X101582906Y-114540303D01*
X101582904Y-114540303D01*
X101057220Y-115065986D01*
X100977442Y-114956180D01*
X100807820Y-114786558D01*
X100698011Y-114706777D01*
X101223695Y-114181094D01*
X101223695Y-114181092D01*
X101192536Y-114153766D01*
X101192532Y-114153763D01*
X100946420Y-113989317D01*
X100680959Y-113858407D01*
X100680945Y-113858401D01*
X100400675Y-113763262D01*
X100400665Y-113763260D01*
X100110370Y-113705515D01*
X100110356Y-113705513D01*
X99815003Y-113686155D01*
X99814997Y-113686155D01*
X99519643Y-113705513D01*
X99519629Y-113705515D01*
X99229334Y-113763260D01*
X99229324Y-113763262D01*
X98949054Y-113858401D01*
X98949040Y-113858407D01*
X98683580Y-113989317D01*
X98437465Y-114153765D01*
X98406303Y-114181092D01*
X98406303Y-114181094D01*
X98931987Y-114706778D01*
X98822180Y-114786558D01*
X98652558Y-114956180D01*
X98572778Y-115065987D01*
X98047094Y-114540303D01*
X98047092Y-114540303D01*
X98019765Y-114571465D01*
X97855317Y-114817580D01*
X97724407Y-115083040D01*
X97724401Y-115083054D01*
X97629262Y-115363324D01*
X97629260Y-115363334D01*
X97571515Y-115653629D01*
X97571513Y-115653643D01*
X97552155Y-115948996D01*
X97552155Y-115949003D01*
X91165500Y-115949003D01*
X91165500Y-111175500D01*
X91185502Y-111107379D01*
X91239158Y-111060886D01*
X91291500Y-111049500D01*
X190888500Y-111049500D01*
X190956621Y-111069502D01*
G37*
%TD.AperFunction*%
%TD*%
M02*
