%TF.GenerationSoftware,KiCad,Pcbnew,8.0.1*%
%TF.CreationDate,2026-03-25T15:46:35+03:00*%
%TF.ProjectId,BulkyMIDI-32 Dexed FP4,42756c6b-794d-4494-9449-2d3332204465,rev?*%
%TF.SameCoordinates,Original*%
%TF.FileFunction,Profile,NP*%
%FSLAX46Y46*%
G04 Gerber Fmt 4.6, Leading zero omitted, Abs format (unit mm)*
G04 Created by KiCad (PCBNEW 8.0.1) date 2026-03-25 15:46:35*
%MOMM*%
%LPD*%
G01*
G04 APERTURE LIST*
%TA.AperFunction,Profile*%
%ADD10C,0.050000*%
%TD*%
G04 APERTURE END LIST*
D10*
X91090000Y-145974000D02*
X191090000Y-145974000D01*
X191090000Y-110974000D02*
X91090000Y-110974000D01*
X110478000Y-127479000D02*
G75*
G02*
X106678000Y-127479000I-1900000J0D01*
G01*
X106678000Y-127479000D02*
G75*
G02*
X110478000Y-127479000I1900000J0D01*
G01*
X173542000Y-121579000D02*
G75*
G02*
X166042000Y-121579000I-3750000J0D01*
G01*
X166042000Y-121579000D02*
G75*
G02*
X173542000Y-121579000I3750000J0D01*
G01*
X119238000Y-127479000D02*
G75*
G02*
X115438000Y-127479000I-1900000J0D01*
G01*
X115438000Y-127479000D02*
G75*
G02*
X119238000Y-127479000I1900000J0D01*
G01*
X91090000Y-134174000D02*
X91090000Y-145974000D01*
X191090000Y-134174000D02*
X191090000Y-145974000D01*
X119238000Y-117879000D02*
G75*
G02*
X115438000Y-117879000I-1900000J0D01*
G01*
X115438000Y-117879000D02*
G75*
G02*
X119238000Y-117879000I1900000J0D01*
G01*
X110478000Y-117879000D02*
G75*
G02*
X106678000Y-117879000I-1900000J0D01*
G01*
X106678000Y-117879000D02*
G75*
G02*
X110478000Y-117879000I1900000J0D01*
G01*
X124590000Y-138579000D02*
X124590000Y-119273000D01*
X91090000Y-110974000D02*
X91090000Y-134174000D01*
X157610000Y-138579000D02*
X124590000Y-138579000D01*
X157610000Y-119273000D02*
X157610000Y-138579000D01*
X101715000Y-121579000D02*
G75*
G02*
X97915000Y-121579000I-1900000J0D01*
G01*
X97915000Y-121579000D02*
G75*
G02*
X101715000Y-121579000I1900000J0D01*
G01*
X124590000Y-119273000D02*
X157610000Y-119273000D01*
X191090000Y-134174000D02*
X191090000Y-110974000D01*
M02*
